G04 #@! TF.FileFunction,Soldermask,Bot*
%FSLAX46Y46*%
G04 Gerber Fmt 4.6, Leading zero omitted, Abs format (unit mm)*
G04 Created by KiCad (PCBNEW 4.0.7) date Fri Jul 13 22:00:20 2018*
%MOMM*%
%LPD*%
G01*
G04 APERTURE LIST*
%ADD10C,0.100000*%
%ADD11C,4.552400*%
%ADD12C,0.852400*%
%ADD13R,0.652400X0.752400*%
%ADD14R,0.902400X0.952400*%
%ADD15R,0.752400X0.652400*%
%ADD16R,1.152400X1.402400*%
%ADD17R,1.402400X1.152400*%
%ADD18R,0.752400X1.702400*%
%ADD19R,1.352400X1.952400*%
%ADD20R,1.852400X1.852400*%
%ADD21O,1.852400X1.852400*%
%ADD22R,0.552400X1.552400*%
%ADD23R,2.452400X2.052400*%
%ADD24R,1.952400X2.052400*%
%ADD25R,0.852400X1.452400*%
%ADD26R,1.002400X4.452400*%
%ADD27R,0.902400X1.002400*%
%ADD28R,0.552400X0.752400*%
%ADD29R,0.752400X0.552400*%
%ADD30R,1.852400X1.052400*%
%ADD31R,0.460000X1.150000*%
%ADD32R,0.802400X1.372400*%
%ADD33R,0.802400X1.212400*%
%ADD34R,1.352400X0.752400*%
%ADD35R,0.752400X1.352400*%
%ADD36C,2.152400*%
%ADD37C,1.152400*%
%ADD38R,0.602400X1.652400*%
%ADD39R,3.352400X3.352400*%
%ADD40C,2.352400*%
%ADD41C,3.152400*%
G04 APERTURE END LIST*
D10*
D11*
X120650000Y-138430000D03*
D12*
X122300000Y-138430000D03*
X121816726Y-139596726D03*
X120650000Y-140080000D03*
X119483274Y-139596726D03*
X119000000Y-138430000D03*
X119483274Y-137263274D03*
X120650000Y-136780000D03*
X121816726Y-137263274D03*
D11*
X186690000Y-138430000D03*
D12*
X188340000Y-138430000D03*
X187856726Y-139596726D03*
X186690000Y-140080000D03*
X185523274Y-139596726D03*
X185040000Y-138430000D03*
X185523274Y-137263274D03*
X186690000Y-136780000D03*
X187856726Y-137263274D03*
D11*
X186690000Y-67310000D03*
D12*
X188340000Y-67310000D03*
X187856726Y-68476726D03*
X186690000Y-68960000D03*
X185523274Y-68476726D03*
X185040000Y-67310000D03*
X185523274Y-66143274D03*
X186690000Y-65660000D03*
X187856726Y-66143274D03*
D13*
X166370000Y-77766000D03*
X166370000Y-76666000D03*
X167640000Y-77766000D03*
X167640000Y-76666000D03*
D14*
X167640000Y-80530000D03*
X167640000Y-82030000D03*
D13*
X166116000Y-81830000D03*
X166116000Y-80730000D03*
D15*
X164380000Y-100330000D03*
X163280000Y-100330000D03*
X164380000Y-99060000D03*
X163280000Y-99060000D03*
X164380000Y-97790000D03*
X163280000Y-97790000D03*
X164380000Y-96520000D03*
X163280000Y-96520000D03*
X164380000Y-95250000D03*
X163280000Y-95250000D03*
X164380000Y-93980000D03*
X163280000Y-93980000D03*
X164380000Y-92710000D03*
X163280000Y-92710000D03*
X164380000Y-91440000D03*
X163280000Y-91440000D03*
D13*
X159004000Y-66125000D03*
X159004000Y-67225000D03*
D16*
X138446000Y-77978000D03*
X140446000Y-77978000D03*
D13*
X142494000Y-86148000D03*
X142494000Y-85048000D03*
D14*
X144018000Y-84848000D03*
X144018000Y-86348000D03*
D17*
X146050000Y-86598000D03*
X146050000Y-84598000D03*
D15*
X134281000Y-79502000D03*
X133181000Y-79502000D03*
D18*
X156234000Y-70743000D03*
X157234000Y-70743000D03*
X158234000Y-70743000D03*
X159234000Y-70743000D03*
D19*
X154934000Y-73268000D03*
X160534000Y-73268000D03*
D20*
X120904000Y-106680000D03*
D21*
X118364000Y-106680000D03*
X120904000Y-104140000D03*
X118364000Y-104140000D03*
X120904000Y-101600000D03*
X118364000Y-101600000D03*
X120904000Y-99060000D03*
X118364000Y-99060000D03*
X120904000Y-96520000D03*
X118364000Y-96520000D03*
X120904000Y-93980000D03*
X118364000Y-93980000D03*
X120904000Y-91440000D03*
X118364000Y-91440000D03*
X120904000Y-88900000D03*
X118364000Y-88900000D03*
D20*
X177800000Y-106680000D03*
D21*
X180340000Y-106680000D03*
X177800000Y-104140000D03*
X180340000Y-104140000D03*
X177800000Y-101600000D03*
X180340000Y-101600000D03*
X177800000Y-99060000D03*
X180340000Y-99060000D03*
X177800000Y-96520000D03*
X180340000Y-96520000D03*
X177800000Y-93980000D03*
X180340000Y-93980000D03*
X177800000Y-91440000D03*
X180340000Y-91440000D03*
X177800000Y-88900000D03*
X180340000Y-88900000D03*
D22*
X148560000Y-67620000D03*
X149210000Y-67620000D03*
X149860000Y-67620000D03*
X150510000Y-67620000D03*
X151160000Y-67620000D03*
D23*
X153610000Y-64770000D03*
X146110000Y-64770000D03*
D24*
X148710000Y-64770000D03*
X151010000Y-64770000D03*
D25*
X171257000Y-82169000D03*
X169357000Y-82169000D03*
D26*
X137281184Y-88527402D03*
X140731184Y-88527402D03*
D27*
X138081184Y-90252402D03*
X138081184Y-86802402D03*
X139931184Y-90252402D03*
X139931184Y-86802402D03*
D28*
X165920000Y-100330000D03*
X166820000Y-100330000D03*
D29*
X171704000Y-77608000D03*
X171704000Y-76708000D03*
D28*
X165920000Y-99060000D03*
X166820000Y-99060000D03*
X170630000Y-77724000D03*
X169730000Y-77724000D03*
X165920000Y-97790000D03*
X166820000Y-97790000D03*
X165920000Y-96520000D03*
X166820000Y-96520000D03*
X165920000Y-95250000D03*
X166820000Y-95250000D03*
X165920000Y-93980000D03*
X166820000Y-93980000D03*
X165920000Y-92710000D03*
X166820000Y-92710000D03*
X165920000Y-91440000D03*
X166820000Y-91440000D03*
X152204000Y-81026000D03*
X153104000Y-81026000D03*
X152204000Y-79756000D03*
X153104000Y-79756000D03*
D29*
X157734000Y-66225000D03*
X157734000Y-67125000D03*
D25*
X138496000Y-74930000D03*
X140396000Y-74930000D03*
D29*
X131064000Y-77274000D03*
X131064000Y-78174000D03*
D30*
X143256000Y-90826000D03*
X143256000Y-93726000D03*
D29*
X129794000Y-78174000D03*
X129794000Y-77274000D03*
X130556000Y-82158000D03*
X130556000Y-83058000D03*
D28*
X130614000Y-85598000D03*
X131514000Y-85598000D03*
D31*
X148979000Y-71331000D03*
X149479000Y-71331000D03*
X149979000Y-71331000D03*
X148979000Y-72941000D03*
X149479000Y-72941000D03*
X149979000Y-72941000D03*
D32*
X138498184Y-81335402D03*
X139448184Y-81335402D03*
X140398184Y-81335402D03*
X140398184Y-83955402D03*
X138498184Y-83955402D03*
D33*
X134300000Y-83650000D03*
X133350000Y-83650000D03*
X132400000Y-83650000D03*
X132400000Y-81450000D03*
X134300000Y-81450000D03*
D13*
X153416000Y-84752000D03*
X153416000Y-85852000D03*
D34*
X164270000Y-78480000D03*
X164270000Y-79280000D03*
X164270000Y-80080000D03*
X164270000Y-80880000D03*
X164270000Y-81680000D03*
X164270000Y-82480000D03*
X164270000Y-83280000D03*
X164270000Y-84080000D03*
D35*
X162820000Y-85530000D03*
X162020000Y-85530000D03*
X161220000Y-85530000D03*
X160420000Y-85530000D03*
X159620000Y-85530000D03*
X158820000Y-85530000D03*
X158020000Y-85530000D03*
X157220000Y-85530000D03*
D34*
X155770000Y-84080000D03*
X155770000Y-83280000D03*
X155770000Y-82480000D03*
X155770000Y-81680000D03*
X155770000Y-80880000D03*
X155770000Y-80080000D03*
X155770000Y-79280000D03*
X155770000Y-78480000D03*
D35*
X157220000Y-77030000D03*
X158020000Y-77030000D03*
X158820000Y-77030000D03*
X159620000Y-77030000D03*
X160420000Y-77030000D03*
X161220000Y-77030000D03*
X162020000Y-77030000D03*
X162820000Y-77030000D03*
D11*
X120650000Y-67310000D03*
D12*
X122300000Y-67310000D03*
X121816726Y-68476726D03*
X120650000Y-68960000D03*
X119483274Y-68476726D03*
X119000000Y-67310000D03*
X119483274Y-66143274D03*
X120650000Y-65660000D03*
X121816726Y-66143274D03*
D13*
X153289000Y-110321000D03*
X153289000Y-111421000D03*
D29*
X158877000Y-87942000D03*
X158877000Y-88842000D03*
X157607000Y-87942000D03*
X157607000Y-88842000D03*
D28*
X145473000Y-104140000D03*
X146373000Y-104140000D03*
D29*
X145415000Y-106241000D03*
X145415000Y-105341000D03*
X152527000Y-105987000D03*
X152527000Y-105087000D03*
X156464000Y-106368000D03*
X156464000Y-105468000D03*
D28*
X150691000Y-116078000D03*
X149791000Y-116078000D03*
X149791000Y-117348000D03*
X150691000Y-117348000D03*
D36*
X140970000Y-134620000D03*
X140970000Y-129540000D03*
X146050000Y-134620000D03*
X146050000Y-129540000D03*
X143510000Y-134620000D03*
X143510000Y-129540000D03*
D37*
X140970000Y-132080000D03*
D36*
X179070000Y-134620000D03*
X179070000Y-129540000D03*
X184150000Y-134620000D03*
X184150000Y-129540000D03*
X181610000Y-134620000D03*
X181610000Y-129540000D03*
D37*
X179070000Y-132080000D03*
D38*
X150992000Y-114075000D03*
X150342000Y-114075000D03*
X149692000Y-114075000D03*
X149042000Y-114075000D03*
X148392000Y-114075000D03*
X147742000Y-114075000D03*
X147092000Y-114075000D03*
X146442000Y-114075000D03*
X146442000Y-108175000D03*
X147092000Y-108175000D03*
X147742000Y-108175000D03*
X148392000Y-108175000D03*
X149042000Y-108175000D03*
X149692000Y-108175000D03*
X150342000Y-108175000D03*
X150992000Y-108175000D03*
D39*
X157861000Y-110998000D03*
D12*
X156861000Y-111998000D03*
X156861000Y-110998000D03*
X156861000Y-109998000D03*
X157861000Y-111998000D03*
X157861000Y-110998000D03*
X157861000Y-109998000D03*
X158861000Y-111998000D03*
X158861000Y-110998000D03*
X158861000Y-109998000D03*
D40*
X129060000Y-139620000D03*
X132560000Y-139620000D03*
X129060000Y-66120000D03*
D41*
X126610000Y-71470000D03*
X126610000Y-134270000D03*
X135010000Y-70270000D03*
X135010000Y-135470000D03*
D40*
X167160000Y-139620000D03*
X170660000Y-139620000D03*
X167160000Y-66120000D03*
D41*
X164710000Y-71470000D03*
X164710000Y-134270000D03*
X173110000Y-70270000D03*
X173110000Y-135470000D03*
M02*
