G04 #@! TF.FileFunction,Legend,Bot*
%FSLAX46Y46*%
G04 Gerber Fmt 4.6, Leading zero omitted, Abs format (unit mm)*
G04 Created by KiCad (PCBNEW 4.0.7) date Fri Jul 13 22:00:20 2018*
%MOMM*%
%LPD*%
G01*
G04 APERTURE LIST*
%ADD10C,0.100000*%
%ADD11C,0.158750*%
%ADD12C,0.300000*%
%ADD13C,0.120000*%
%ADD14C,0.150000*%
%ADD15C,0.010000*%
%ADD16C,0.127000*%
G04 APERTURE END LIST*
D10*
D11*
X185072262Y-70890190D02*
X184437262Y-70890190D01*
X185072262Y-71162333D02*
X184739643Y-71162333D01*
X184679167Y-71132095D01*
X184648929Y-71071619D01*
X184648929Y-70980905D01*
X184679167Y-70920429D01*
X184709405Y-70890190D01*
X184648929Y-71374000D02*
X184648929Y-71615905D01*
X184437262Y-71464714D02*
X184981548Y-71464714D01*
X185042024Y-71494953D01*
X185072262Y-71555429D01*
X185072262Y-71615905D01*
X184648929Y-71736857D02*
X184648929Y-71978762D01*
X184437262Y-71827571D02*
X184981548Y-71827571D01*
X185042024Y-71857810D01*
X185072262Y-71918286D01*
X185072262Y-71978762D01*
X184648929Y-72190428D02*
X185283929Y-72190428D01*
X184679167Y-72190428D02*
X184648929Y-72250905D01*
X184648929Y-72371857D01*
X184679167Y-72432333D01*
X184709405Y-72462571D01*
X184769881Y-72492809D01*
X184951310Y-72492809D01*
X185011786Y-72462571D01*
X185042024Y-72432333D01*
X185072262Y-72371857D01*
X185072262Y-72250905D01*
X185042024Y-72190428D01*
X185011786Y-72764952D02*
X185042024Y-72795191D01*
X185072262Y-72764952D01*
X185042024Y-72734714D01*
X185011786Y-72764952D01*
X185072262Y-72764952D01*
X184679167Y-72764952D02*
X184709405Y-72795191D01*
X184739643Y-72764952D01*
X184709405Y-72734714D01*
X184679167Y-72764952D01*
X184739643Y-72764952D01*
X184407024Y-73520905D02*
X185223452Y-72976619D01*
X184407024Y-74186143D02*
X185223452Y-73641857D01*
X185072262Y-74397809D02*
X184437262Y-74397809D01*
X184830357Y-74458286D02*
X185072262Y-74639714D01*
X184648929Y-74639714D02*
X184890833Y-74397809D01*
X185042024Y-75153762D02*
X185072262Y-75093286D01*
X185072262Y-74972334D01*
X185042024Y-74911857D01*
X184981548Y-74881619D01*
X184739643Y-74881619D01*
X184679167Y-74911857D01*
X184648929Y-74972334D01*
X184648929Y-75093286D01*
X184679167Y-75153762D01*
X184739643Y-75184000D01*
X184800119Y-75184000D01*
X184860595Y-74881619D01*
X184648929Y-75395667D02*
X185072262Y-75546858D01*
X184648929Y-75698048D01*
X185072262Y-75939953D02*
X184648929Y-75939953D01*
X184437262Y-75939953D02*
X184467500Y-75909715D01*
X184497738Y-75939953D01*
X184467500Y-75970192D01*
X184437262Y-75939953D01*
X184497738Y-75939953D01*
X184648929Y-76242334D02*
X185072262Y-76242334D01*
X184709405Y-76242334D02*
X184679167Y-76272573D01*
X184648929Y-76333049D01*
X184648929Y-76423763D01*
X184679167Y-76484239D01*
X184739643Y-76514477D01*
X185072262Y-76514477D01*
X185042024Y-77089001D02*
X185072262Y-77028525D01*
X185072262Y-76907573D01*
X185042024Y-76847097D01*
X185011786Y-76816858D01*
X184951310Y-76786620D01*
X184769881Y-76786620D01*
X184709405Y-76816858D01*
X184679167Y-76847097D01*
X184648929Y-76907573D01*
X184648929Y-77028525D01*
X184679167Y-77089001D01*
X184648929Y-77633287D02*
X185072262Y-77633287D01*
X184648929Y-77361144D02*
X184981548Y-77361144D01*
X185042024Y-77391383D01*
X185072262Y-77451859D01*
X185072262Y-77542573D01*
X185042024Y-77603049D01*
X185011786Y-77633287D01*
X184648929Y-77875192D02*
X184648929Y-78207811D01*
X185072262Y-77875192D01*
X185072262Y-78207811D01*
X184648929Y-78449716D02*
X185072262Y-78449716D01*
X184709405Y-78449716D02*
X184679167Y-78479955D01*
X184648929Y-78540431D01*
X184648929Y-78631145D01*
X184679167Y-78691621D01*
X184739643Y-78721859D01*
X185072262Y-78721859D01*
X185042024Y-79266145D02*
X185072262Y-79205669D01*
X185072262Y-79084717D01*
X185042024Y-79024240D01*
X184981548Y-78994002D01*
X184739643Y-78994002D01*
X184679167Y-79024240D01*
X184648929Y-79084717D01*
X184648929Y-79205669D01*
X184679167Y-79266145D01*
X184739643Y-79296383D01*
X184800119Y-79296383D01*
X184860595Y-78994002D01*
X185072262Y-79568526D02*
X184648929Y-79568526D01*
X184769881Y-79568526D02*
X184709405Y-79598765D01*
X184679167Y-79629003D01*
X184648929Y-79689479D01*
X184648929Y-79749955D01*
X185011786Y-79961621D02*
X185042024Y-79991860D01*
X185072262Y-79961621D01*
X185042024Y-79931383D01*
X185011786Y-79961621D01*
X185072262Y-79961621D01*
X185042024Y-80536145D02*
X185072262Y-80475669D01*
X185072262Y-80354717D01*
X185042024Y-80294241D01*
X185011786Y-80264002D01*
X184951310Y-80233764D01*
X184769881Y-80233764D01*
X184709405Y-80264002D01*
X184679167Y-80294241D01*
X184648929Y-80354717D01*
X184648929Y-80475669D01*
X184679167Y-80536145D01*
X185072262Y-80899003D02*
X185042024Y-80838527D01*
X185011786Y-80808288D01*
X184951310Y-80778050D01*
X184769881Y-80778050D01*
X184709405Y-80808288D01*
X184679167Y-80838527D01*
X184648929Y-80899003D01*
X184648929Y-80989717D01*
X184679167Y-81050193D01*
X184709405Y-81080431D01*
X184769881Y-81110669D01*
X184951310Y-81110669D01*
X185011786Y-81080431D01*
X185042024Y-81050193D01*
X185072262Y-80989717D01*
X185072262Y-80899003D01*
X185072262Y-81382812D02*
X184648929Y-81382812D01*
X184709405Y-81382812D02*
X184679167Y-81413051D01*
X184648929Y-81473527D01*
X184648929Y-81564241D01*
X184679167Y-81624717D01*
X184739643Y-81654955D01*
X185072262Y-81654955D01*
X184739643Y-81654955D02*
X184679167Y-81685193D01*
X184648929Y-81745670D01*
X184648929Y-81836384D01*
X184679167Y-81896860D01*
X184739643Y-81927098D01*
X185072262Y-81927098D01*
X184407024Y-82683051D02*
X185223452Y-82138765D01*
X183929262Y-71253048D02*
X183626881Y-71041381D01*
X183929262Y-70890190D02*
X183294262Y-70890190D01*
X183294262Y-71132095D01*
X183324500Y-71192571D01*
X183354738Y-71222810D01*
X183415214Y-71253048D01*
X183505929Y-71253048D01*
X183566405Y-71222810D01*
X183596643Y-71192571D01*
X183626881Y-71132095D01*
X183626881Y-70890190D01*
X183899024Y-71767095D02*
X183929262Y-71706619D01*
X183929262Y-71585667D01*
X183899024Y-71525190D01*
X183838548Y-71494952D01*
X183596643Y-71494952D01*
X183536167Y-71525190D01*
X183505929Y-71585667D01*
X183505929Y-71706619D01*
X183536167Y-71767095D01*
X183596643Y-71797333D01*
X183657119Y-71797333D01*
X183717595Y-71494952D01*
X183505929Y-72009000D02*
X183929262Y-72160191D01*
X183505929Y-72311381D01*
X183747833Y-73006858D02*
X183747833Y-73309239D01*
X183929262Y-72946382D02*
X183294262Y-73158049D01*
X183929262Y-73369716D01*
X183354738Y-74034954D02*
X183324500Y-74065192D01*
X183294262Y-74125669D01*
X183294262Y-74276859D01*
X183324500Y-74337335D01*
X183354738Y-74367573D01*
X183415214Y-74397812D01*
X183475690Y-74397812D01*
X183566405Y-74367573D01*
X183929262Y-74004716D01*
X183929262Y-74397812D01*
X183294262Y-74790907D02*
X183294262Y-74851383D01*
X183324500Y-74911859D01*
X183354738Y-74942097D01*
X183415214Y-74972335D01*
X183536167Y-75002574D01*
X183687357Y-75002574D01*
X183808310Y-74972335D01*
X183868786Y-74942097D01*
X183899024Y-74911859D01*
X183929262Y-74851383D01*
X183929262Y-74790907D01*
X183899024Y-74730431D01*
X183868786Y-74700193D01*
X183808310Y-74669954D01*
X183687357Y-74639716D01*
X183536167Y-74639716D01*
X183415214Y-74669954D01*
X183354738Y-74700193D01*
X183324500Y-74730431D01*
X183294262Y-74790907D01*
X183929262Y-75607336D02*
X183929262Y-75244478D01*
X183929262Y-75425907D02*
X183294262Y-75425907D01*
X183384976Y-75365431D01*
X183445452Y-75304955D01*
X183475690Y-75244478D01*
X183566405Y-75970193D02*
X183536167Y-75909717D01*
X183505929Y-75879478D01*
X183445452Y-75849240D01*
X183415214Y-75849240D01*
X183354738Y-75879478D01*
X183324500Y-75909717D01*
X183294262Y-75970193D01*
X183294262Y-76091145D01*
X183324500Y-76151621D01*
X183354738Y-76181859D01*
X183415214Y-76212098D01*
X183445452Y-76212098D01*
X183505929Y-76181859D01*
X183536167Y-76151621D01*
X183566405Y-76091145D01*
X183566405Y-75970193D01*
X183596643Y-75909717D01*
X183626881Y-75879478D01*
X183687357Y-75849240D01*
X183808310Y-75849240D01*
X183868786Y-75879478D01*
X183899024Y-75909717D01*
X183929262Y-75970193D01*
X183929262Y-76091145D01*
X183899024Y-76151621D01*
X183868786Y-76181859D01*
X183808310Y-76212098D01*
X183687357Y-76212098D01*
X183626881Y-76181859D01*
X183596643Y-76151621D01*
X183566405Y-76091145D01*
X182913262Y-70890190D02*
X182278262Y-70890190D01*
X182913262Y-71253048D02*
X182550405Y-70980905D01*
X182278262Y-71253048D02*
X182641119Y-70890190D01*
X182883024Y-71767095D02*
X182913262Y-71706619D01*
X182913262Y-71585667D01*
X182883024Y-71525190D01*
X182822548Y-71494952D01*
X182580643Y-71494952D01*
X182520167Y-71525190D01*
X182489929Y-71585667D01*
X182489929Y-71706619D01*
X182520167Y-71767095D01*
X182580643Y-71797333D01*
X182641119Y-71797333D01*
X182701595Y-71494952D01*
X182489929Y-72009000D02*
X182913262Y-72160191D01*
X182489929Y-72311381D01*
X182913262Y-72553286D02*
X182489929Y-72553286D01*
X182278262Y-72553286D02*
X182308500Y-72523048D01*
X182338738Y-72553286D01*
X182308500Y-72583525D01*
X182278262Y-72553286D01*
X182338738Y-72553286D01*
X182489929Y-72855667D02*
X182913262Y-72855667D01*
X182550405Y-72855667D02*
X182520167Y-72885906D01*
X182489929Y-72946382D01*
X182489929Y-73037096D01*
X182520167Y-73097572D01*
X182580643Y-73127810D01*
X182913262Y-73127810D01*
X182852786Y-74276859D02*
X182883024Y-74246621D01*
X182913262Y-74155906D01*
X182913262Y-74095430D01*
X182883024Y-74004716D01*
X182822548Y-73944240D01*
X182762071Y-73914001D01*
X182641119Y-73883763D01*
X182550405Y-73883763D01*
X182429452Y-73914001D01*
X182368976Y-73944240D01*
X182308500Y-74004716D01*
X182278262Y-74095430D01*
X182278262Y-74155906D01*
X182308500Y-74246621D01*
X182338738Y-74276859D01*
X182489929Y-74821144D02*
X182913262Y-74821144D01*
X182489929Y-74549001D02*
X182822548Y-74549001D01*
X182883024Y-74579240D01*
X182913262Y-74639716D01*
X182913262Y-74730430D01*
X182883024Y-74790906D01*
X182852786Y-74821144D01*
X182489929Y-75063049D02*
X182489929Y-75395668D01*
X182913262Y-75063049D01*
X182913262Y-75395668D01*
X182489929Y-75637573D02*
X182913262Y-75637573D01*
X182550405Y-75637573D02*
X182520167Y-75667812D01*
X182489929Y-75728288D01*
X182489929Y-75819002D01*
X182520167Y-75879478D01*
X182580643Y-75909716D01*
X182913262Y-75909716D01*
X182883024Y-76454002D02*
X182913262Y-76393526D01*
X182913262Y-76272574D01*
X182883024Y-76212097D01*
X182822548Y-76181859D01*
X182580643Y-76181859D01*
X182520167Y-76212097D01*
X182489929Y-76272574D01*
X182489929Y-76393526D01*
X182520167Y-76454002D01*
X182580643Y-76484240D01*
X182641119Y-76484240D01*
X182701595Y-76181859D01*
X182913262Y-76756383D02*
X182489929Y-76756383D01*
X182610881Y-76756383D02*
X182550405Y-76786622D01*
X182520167Y-76816860D01*
X182489929Y-76877336D01*
X182489929Y-76937812D01*
D12*
X180660524Y-71041381D02*
X181688619Y-71041381D01*
X181809571Y-71101857D01*
X181870048Y-71162333D01*
X181930524Y-71283286D01*
X181930524Y-71525190D01*
X181870048Y-71646143D01*
X181809571Y-71706619D01*
X181688619Y-71767095D01*
X180660524Y-71767095D01*
X181870048Y-72311381D02*
X181930524Y-72492809D01*
X181930524Y-72795190D01*
X181870048Y-72916143D01*
X181809571Y-72976619D01*
X181688619Y-73037095D01*
X181567667Y-73037095D01*
X181446714Y-72976619D01*
X181386238Y-72916143D01*
X181325762Y-72795190D01*
X181265286Y-72553286D01*
X181204810Y-72432333D01*
X181144333Y-72371857D01*
X181023381Y-72311381D01*
X180902429Y-72311381D01*
X180781476Y-72371857D01*
X180721000Y-72432333D01*
X180660524Y-72553286D01*
X180660524Y-72855666D01*
X180721000Y-73037095D01*
X181265286Y-74004714D02*
X181325762Y-74186143D01*
X181386238Y-74246619D01*
X181507190Y-74307095D01*
X181688619Y-74307095D01*
X181809571Y-74246619D01*
X181870048Y-74186143D01*
X181930524Y-74065190D01*
X181930524Y-73581381D01*
X180660524Y-73581381D01*
X180660524Y-74004714D01*
X180721000Y-74125667D01*
X180781476Y-74186143D01*
X180902429Y-74246619D01*
X181023381Y-74246619D01*
X181144333Y-74186143D01*
X181204810Y-74125667D01*
X181265286Y-74004714D01*
X181265286Y-73581381D01*
X181930524Y-75819000D02*
X180660524Y-75819000D01*
X181567667Y-76242333D01*
X180660524Y-76665667D01*
X181930524Y-76665667D01*
X181930524Y-77270429D02*
X181083857Y-77270429D01*
X180660524Y-77270429D02*
X180721000Y-77209953D01*
X180781476Y-77270429D01*
X180721000Y-77330905D01*
X180660524Y-77270429D01*
X180781476Y-77270429D01*
X181930524Y-78419477D02*
X180660524Y-78419477D01*
X181870048Y-78419477D02*
X181930524Y-78298524D01*
X181930524Y-78056620D01*
X181870048Y-77935667D01*
X181809571Y-77875191D01*
X181688619Y-77814715D01*
X181325762Y-77814715D01*
X181204810Y-77875191D01*
X181144333Y-77935667D01*
X181083857Y-78056620D01*
X181083857Y-78298524D01*
X181144333Y-78419477D01*
X181930524Y-79024239D02*
X181083857Y-79024239D01*
X180660524Y-79024239D02*
X180721000Y-78963763D01*
X180781476Y-79024239D01*
X180721000Y-79084715D01*
X180660524Y-79024239D01*
X180781476Y-79024239D01*
X181446714Y-79629001D02*
X181446714Y-80596620D01*
X181265286Y-81624715D02*
X181265286Y-81201382D01*
X181930524Y-81201382D02*
X180660524Y-81201382D01*
X180660524Y-81806144D01*
X181930524Y-82834239D02*
X181265286Y-82834239D01*
X181144333Y-82773762D01*
X181083857Y-82652810D01*
X181083857Y-82410905D01*
X181144333Y-82289953D01*
X181870048Y-82834239D02*
X181930524Y-82713286D01*
X181930524Y-82410905D01*
X181870048Y-82289953D01*
X181749095Y-82229477D01*
X181628143Y-82229477D01*
X181507190Y-82289953D01*
X181446714Y-82410905D01*
X181446714Y-82713286D01*
X181386238Y-82834239D01*
X181930524Y-83983287D02*
X180660524Y-83983287D01*
X181870048Y-83983287D02*
X181930524Y-83862334D01*
X181930524Y-83620430D01*
X181870048Y-83499477D01*
X181809571Y-83439001D01*
X181688619Y-83378525D01*
X181325762Y-83378525D01*
X181204810Y-83439001D01*
X181144333Y-83499477D01*
X181083857Y-83620430D01*
X181083857Y-83862334D01*
X181144333Y-83983287D01*
X181870048Y-85071858D02*
X181930524Y-84950906D01*
X181930524Y-84709001D01*
X181870048Y-84588049D01*
X181749095Y-84527573D01*
X181265286Y-84527573D01*
X181144333Y-84588049D01*
X181083857Y-84709001D01*
X181083857Y-84950906D01*
X181144333Y-85071858D01*
X181265286Y-85132335D01*
X181386238Y-85132335D01*
X181507190Y-84527573D01*
X181930524Y-85676620D02*
X181083857Y-85676620D01*
X181325762Y-85676620D02*
X181204810Y-85737096D01*
X181144333Y-85797572D01*
X181083857Y-85918525D01*
X181083857Y-86039477D01*
D13*
X166840000Y-76966000D02*
X166840000Y-77466000D01*
X165900000Y-77466000D02*
X165900000Y-76966000D01*
X168110000Y-76966000D02*
X168110000Y-77466000D01*
X167170000Y-77466000D02*
X167170000Y-76966000D01*
X167040000Y-80930000D02*
X167040000Y-81630000D01*
X168240000Y-81630000D02*
X168240000Y-80930000D01*
X166586000Y-81030000D02*
X166586000Y-81530000D01*
X165646000Y-81530000D02*
X165646000Y-81030000D01*
X163580000Y-99860000D02*
X164080000Y-99860000D01*
X164080000Y-100800000D02*
X163580000Y-100800000D01*
X163580000Y-98590000D02*
X164080000Y-98590000D01*
X164080000Y-99530000D02*
X163580000Y-99530000D01*
X163580000Y-97320000D02*
X164080000Y-97320000D01*
X164080000Y-98260000D02*
X163580000Y-98260000D01*
X163580000Y-96050000D02*
X164080000Y-96050000D01*
X164080000Y-96990000D02*
X163580000Y-96990000D01*
X163580000Y-94780000D02*
X164080000Y-94780000D01*
X164080000Y-95720000D02*
X163580000Y-95720000D01*
X163580000Y-93510000D02*
X164080000Y-93510000D01*
X164080000Y-94450000D02*
X163580000Y-94450000D01*
X163580000Y-92240000D02*
X164080000Y-92240000D01*
X164080000Y-93180000D02*
X163580000Y-93180000D01*
X163580000Y-90970000D02*
X164080000Y-90970000D01*
X164080000Y-91910000D02*
X163580000Y-91910000D01*
X158534000Y-66925000D02*
X158534000Y-66425000D01*
X159474000Y-66425000D02*
X159474000Y-66925000D01*
X139946000Y-78828000D02*
X138946000Y-78828000D01*
X138946000Y-77128000D02*
X139946000Y-77128000D01*
X142964000Y-85348000D02*
X142964000Y-85848000D01*
X142024000Y-85848000D02*
X142024000Y-85348000D01*
X143418000Y-85248000D02*
X143418000Y-85948000D01*
X144618000Y-85948000D02*
X144618000Y-85248000D01*
X146900000Y-85098000D02*
X146900000Y-86098000D01*
X145200000Y-86098000D02*
X145200000Y-85098000D01*
X133481000Y-79032000D02*
X133981000Y-79032000D01*
X133981000Y-79972000D02*
X133481000Y-79972000D01*
D14*
X154734000Y-71068000D02*
X155734000Y-71068000D01*
X154734000Y-72168000D02*
X154734000Y-71068000D01*
X160734000Y-71068000D02*
X159734000Y-71068000D01*
X160734000Y-72168000D02*
X160734000Y-71068000D01*
X155734000Y-73968000D02*
X159734000Y-73968000D01*
X146060000Y-63370000D02*
X144860000Y-63370000D01*
X153660000Y-63370000D02*
X154860000Y-63370000D01*
X146060000Y-63370000D02*
X146060000Y-63670000D01*
X153660000Y-63370000D02*
X146060000Y-63370000D01*
X153660000Y-63670000D02*
X153660000Y-63370000D01*
X146060000Y-67670000D02*
X146060000Y-65870000D01*
X148160000Y-67670000D02*
X146060000Y-67670000D01*
X153660000Y-67670000D02*
X153660000Y-65870000D01*
X151560000Y-67670000D02*
X153660000Y-67670000D01*
D13*
X169707000Y-83049000D02*
X170907000Y-83049000D01*
X170907000Y-81289000D02*
X169707000Y-81289000D01*
D14*
X141406184Y-90927402D02*
X140206184Y-90927402D01*
X141406184Y-86127402D02*
X141406184Y-90927402D01*
X140206184Y-86127402D02*
X141406184Y-86127402D01*
X136606184Y-90927402D02*
X137806184Y-90927402D01*
X136606184Y-86127402D02*
X136606184Y-90927402D01*
X137806184Y-86127402D02*
X136606184Y-86127402D01*
D13*
X166620000Y-100860000D02*
X166120000Y-100860000D01*
X166120000Y-99800000D02*
X166620000Y-99800000D01*
X172234000Y-76908000D02*
X172234000Y-77408000D01*
X171174000Y-77408000D02*
X171174000Y-76908000D01*
X166620000Y-99590000D02*
X166120000Y-99590000D01*
X166120000Y-98530000D02*
X166620000Y-98530000D01*
X169930000Y-77194000D02*
X170430000Y-77194000D01*
X170430000Y-78254000D02*
X169930000Y-78254000D01*
X166620000Y-98320000D02*
X166120000Y-98320000D01*
X166120000Y-97260000D02*
X166620000Y-97260000D01*
X166620000Y-97050000D02*
X166120000Y-97050000D01*
X166120000Y-95990000D02*
X166620000Y-95990000D01*
X166620000Y-95780000D02*
X166120000Y-95780000D01*
X166120000Y-94720000D02*
X166620000Y-94720000D01*
X166620000Y-94510000D02*
X166120000Y-94510000D01*
X166120000Y-93450000D02*
X166620000Y-93450000D01*
X166620000Y-93240000D02*
X166120000Y-93240000D01*
X166120000Y-92180000D02*
X166620000Y-92180000D01*
X166620000Y-91970000D02*
X166120000Y-91970000D01*
X166120000Y-90910000D02*
X166620000Y-90910000D01*
X152904000Y-81556000D02*
X152404000Y-81556000D01*
X152404000Y-80496000D02*
X152904000Y-80496000D01*
X152904000Y-80286000D02*
X152404000Y-80286000D01*
X152404000Y-79226000D02*
X152904000Y-79226000D01*
X157204000Y-66925000D02*
X157204000Y-66425000D01*
X158264000Y-66425000D02*
X158264000Y-66925000D01*
X140046000Y-74050000D02*
X138846000Y-74050000D01*
X138846000Y-75810000D02*
X140046000Y-75810000D01*
X130534000Y-77974000D02*
X130534000Y-77474000D01*
X131594000Y-77474000D02*
X131594000Y-77974000D01*
X144326000Y-93276000D02*
X144326000Y-91276000D01*
X142186000Y-91276000D02*
X142186000Y-93276000D01*
X130324000Y-77474000D02*
X130324000Y-77974000D01*
X129264000Y-77974000D02*
X129264000Y-77474000D01*
X130026000Y-82858000D02*
X130026000Y-82358000D01*
X131086000Y-82358000D02*
X131086000Y-82858000D01*
X131314000Y-86128000D02*
X130814000Y-86128000D01*
X130814000Y-85068000D02*
X131314000Y-85068000D01*
D14*
X148379000Y-70936000D02*
G75*
G03X148379000Y-70936000I-100000J0D01*
G01*
X148579000Y-73036000D02*
X148679000Y-73036000D01*
X148579000Y-71236000D02*
X148579000Y-73036000D01*
X148679000Y-71236000D02*
X148579000Y-71236000D01*
X150379000Y-71236000D02*
X150279000Y-71236000D01*
X150379000Y-73036000D02*
X150379000Y-71236000D01*
X150279000Y-73036000D02*
X150379000Y-73036000D01*
D13*
X141008184Y-81765402D02*
X141008184Y-83525402D01*
X137938184Y-83525402D02*
X137938184Y-81095402D01*
X131740000Y-83450000D02*
X131740000Y-81650000D01*
X134960000Y-81650000D02*
X134960000Y-84100000D01*
X152946000Y-85552000D02*
X152946000Y-85052000D01*
X153886000Y-85052000D02*
X153886000Y-85552000D01*
D14*
X163645000Y-77655000D02*
X163645000Y-77880000D01*
X156395000Y-77655000D02*
X156395000Y-77955000D01*
X156395000Y-84905000D02*
X156395000Y-84605000D01*
X163645000Y-84905000D02*
X163645000Y-84605000D01*
X163645000Y-77655000D02*
X163345000Y-77655000D01*
X163645000Y-84905000D02*
X163345000Y-84905000D01*
X156395000Y-84905000D02*
X156695000Y-84905000D01*
X156395000Y-77655000D02*
X156695000Y-77655000D01*
X163645000Y-77880000D02*
X164870000Y-77880000D01*
D13*
X152819000Y-111121000D02*
X152819000Y-110621000D01*
X153759000Y-110621000D02*
X153759000Y-111121000D01*
X158347000Y-88642000D02*
X158347000Y-88142000D01*
X159407000Y-88142000D02*
X159407000Y-88642000D01*
X157077000Y-88642000D02*
X157077000Y-88142000D01*
X158137000Y-88142000D02*
X158137000Y-88642000D01*
X146173000Y-104670000D02*
X145673000Y-104670000D01*
X145673000Y-103610000D02*
X146173000Y-103610000D01*
X145945000Y-105541000D02*
X145945000Y-106041000D01*
X144885000Y-106041000D02*
X144885000Y-105541000D01*
X153057000Y-105287000D02*
X153057000Y-105787000D01*
X151997000Y-105787000D02*
X151997000Y-105287000D01*
X156994000Y-105668000D02*
X156994000Y-106168000D01*
X155934000Y-106168000D02*
X155934000Y-105668000D01*
X149991000Y-115548000D02*
X150491000Y-115548000D01*
X150491000Y-116608000D02*
X149991000Y-116608000D01*
X150491000Y-117878000D02*
X149991000Y-117878000D01*
X149991000Y-116818000D02*
X150491000Y-116818000D01*
D14*
X145992000Y-113325000D02*
X145992000Y-108925000D01*
X151517000Y-114900000D02*
X151517000Y-108925000D01*
D15*
G36*
X187270184Y-83308241D02*
X187283282Y-83334753D01*
X187306106Y-83367447D01*
X187330996Y-83391275D01*
X187362249Y-83407594D01*
X187404166Y-83417760D01*
X187461044Y-83423128D01*
X187537184Y-83425056D01*
X187569917Y-83425169D01*
X187641656Y-83424839D01*
X187692927Y-83423473D01*
X187728404Y-83420500D01*
X187752763Y-83415351D01*
X187770680Y-83407457D01*
X187782902Y-83399243D01*
X187834905Y-83346813D01*
X187866184Y-83285070D01*
X187875592Y-83218464D01*
X187861980Y-83151442D01*
X187852354Y-83130208D01*
X187825859Y-83079376D01*
X188241052Y-83079376D01*
X188221868Y-83116475D01*
X188207025Y-83165357D01*
X188203222Y-83225439D01*
X188210243Y-83285436D01*
X188226013Y-83330744D01*
X188256047Y-83368325D01*
X188299024Y-83400436D01*
X188303436Y-83402850D01*
X188324221Y-83413033D01*
X188345170Y-83420470D01*
X188370548Y-83425589D01*
X188404618Y-83428819D01*
X188451641Y-83430587D01*
X188515882Y-83431323D01*
X188588176Y-83431456D01*
X188818822Y-83431456D01*
X188818822Y-83293139D01*
X188393533Y-83293139D01*
X188360979Y-83254451D01*
X188334940Y-83214262D01*
X188330205Y-83176203D01*
X188342389Y-83137934D01*
X188354320Y-83117538D01*
X188371313Y-83102358D01*
X188396995Y-83091562D01*
X188434991Y-83084317D01*
X188488926Y-83079792D01*
X188562425Y-83077156D01*
X188611347Y-83076228D01*
X188812535Y-83073089D01*
X188816336Y-83007074D01*
X188820136Y-82941060D01*
X187571650Y-82941060D01*
X187571650Y-83079376D01*
X187641254Y-83082903D01*
X187689569Y-83094785D01*
X187719631Y-83116980D01*
X187734471Y-83151441D01*
X187737436Y-83186258D01*
X187734028Y-83225671D01*
X187720617Y-83251829D01*
X187702896Y-83268186D01*
X187683835Y-83281063D01*
X187662601Y-83288728D01*
X187632849Y-83292139D01*
X187588236Y-83292251D01*
X187550880Y-83291103D01*
X187494604Y-83288468D01*
X187457658Y-83284544D01*
X187434223Y-83277937D01*
X187418480Y-83267251D01*
X187409380Y-83257167D01*
X187389537Y-83215030D01*
X187386332Y-83165160D01*
X187393168Y-83136524D01*
X187417464Y-83108172D01*
X187464728Y-83089391D01*
X187534624Y-83080288D01*
X187571650Y-83079376D01*
X187571650Y-82941060D01*
X187259614Y-82941060D01*
X187259614Y-83010218D01*
X187261256Y-83051740D01*
X187267087Y-83073162D01*
X187278461Y-83079374D01*
X187278798Y-83079376D01*
X187289938Y-83082258D01*
X187288673Y-83094970D01*
X187276433Y-83120243D01*
X187257707Y-83179131D01*
X187255739Y-83245385D01*
X187270184Y-83308241D01*
X187270184Y-83308241D01*
G37*
X187270184Y-83308241D02*
X187283282Y-83334753D01*
X187306106Y-83367447D01*
X187330996Y-83391275D01*
X187362249Y-83407594D01*
X187404166Y-83417760D01*
X187461044Y-83423128D01*
X187537184Y-83425056D01*
X187569917Y-83425169D01*
X187641656Y-83424839D01*
X187692927Y-83423473D01*
X187728404Y-83420500D01*
X187752763Y-83415351D01*
X187770680Y-83407457D01*
X187782902Y-83399243D01*
X187834905Y-83346813D01*
X187866184Y-83285070D01*
X187875592Y-83218464D01*
X187861980Y-83151442D01*
X187852354Y-83130208D01*
X187825859Y-83079376D01*
X188241052Y-83079376D01*
X188221868Y-83116475D01*
X188207025Y-83165357D01*
X188203222Y-83225439D01*
X188210243Y-83285436D01*
X188226013Y-83330744D01*
X188256047Y-83368325D01*
X188299024Y-83400436D01*
X188303436Y-83402850D01*
X188324221Y-83413033D01*
X188345170Y-83420470D01*
X188370548Y-83425589D01*
X188404618Y-83428819D01*
X188451641Y-83430587D01*
X188515882Y-83431323D01*
X188588176Y-83431456D01*
X188818822Y-83431456D01*
X188818822Y-83293139D01*
X188393533Y-83293139D01*
X188360979Y-83254451D01*
X188334940Y-83214262D01*
X188330205Y-83176203D01*
X188342389Y-83137934D01*
X188354320Y-83117538D01*
X188371313Y-83102358D01*
X188396995Y-83091562D01*
X188434991Y-83084317D01*
X188488926Y-83079792D01*
X188562425Y-83077156D01*
X188611347Y-83076228D01*
X188812535Y-83073089D01*
X188816336Y-83007074D01*
X188820136Y-82941060D01*
X187571650Y-82941060D01*
X187571650Y-83079376D01*
X187641254Y-83082903D01*
X187689569Y-83094785D01*
X187719631Y-83116980D01*
X187734471Y-83151441D01*
X187737436Y-83186258D01*
X187734028Y-83225671D01*
X187720617Y-83251829D01*
X187702896Y-83268186D01*
X187683835Y-83281063D01*
X187662601Y-83288728D01*
X187632849Y-83292139D01*
X187588236Y-83292251D01*
X187550880Y-83291103D01*
X187494604Y-83288468D01*
X187457658Y-83284544D01*
X187434223Y-83277937D01*
X187418480Y-83267251D01*
X187409380Y-83257167D01*
X187389537Y-83215030D01*
X187386332Y-83165160D01*
X187393168Y-83136524D01*
X187417464Y-83108172D01*
X187464728Y-83089391D01*
X187534624Y-83080288D01*
X187571650Y-83079376D01*
X187571650Y-82941060D01*
X187259614Y-82941060D01*
X187259614Y-83010218D01*
X187261256Y-83051740D01*
X187267087Y-83073162D01*
X187278461Y-83079374D01*
X187278798Y-83079376D01*
X187289938Y-83082258D01*
X187288673Y-83094970D01*
X187276433Y-83120243D01*
X187257707Y-83179131D01*
X187255739Y-83245385D01*
X187270184Y-83308241D01*
G36*
X188207555Y-83832790D02*
X188223339Y-83891945D01*
X188251948Y-83936977D01*
X188289419Y-83968754D01*
X188305411Y-83978634D01*
X188322163Y-83985927D01*
X188343592Y-83991026D01*
X188373616Y-83994321D01*
X188416154Y-83996203D01*
X188475122Y-83997063D01*
X188554440Y-83997293D01*
X188575484Y-83997297D01*
X188818822Y-83997297D01*
X188818822Y-83936941D01*
X188816126Y-83898443D01*
X188809295Y-83869977D01*
X188805083Y-83862845D01*
X188797813Y-83843348D01*
X188805083Y-83823434D01*
X188814160Y-83790647D01*
X188817813Y-83743022D01*
X188816228Y-83690236D01*
X188809589Y-83641964D01*
X188801072Y-83613782D01*
X188766063Y-83559247D01*
X188717479Y-83525165D01*
X188652882Y-83509843D01*
X188651223Y-83509701D01*
X188622566Y-83511045D01*
X188622566Y-83632644D01*
X188655161Y-83643274D01*
X188673505Y-83660590D01*
X188687379Y-83695348D01*
X188692917Y-83741227D01*
X188690191Y-83788012D01*
X188679274Y-83825486D01*
X188672269Y-83835985D01*
X188639904Y-83854332D01*
X188603111Y-83858980D01*
X188554763Y-83858980D01*
X188554763Y-83789418D01*
X188559850Y-83723333D01*
X188574263Y-83673236D01*
X188596729Y-83642071D01*
X188622566Y-83632644D01*
X188622566Y-83511045D01*
X188580647Y-83513013D01*
X188524845Y-83536290D01*
X188482647Y-83580052D01*
X188478808Y-83586101D01*
X188466309Y-83612093D01*
X188458740Y-83644265D01*
X188455061Y-83689240D01*
X188454216Y-83742669D01*
X188454169Y-83858980D01*
X188405411Y-83858980D01*
X188367581Y-83854047D01*
X188342236Y-83841457D01*
X188340887Y-83839983D01*
X188329800Y-83811966D01*
X188325503Y-83769674D01*
X188327615Y-83722936D01*
X188335756Y-83681582D01*
X188347965Y-83657043D01*
X188357746Y-83643747D01*
X188359613Y-83629706D01*
X188351600Y-83610329D01*
X188331739Y-83581024D01*
X188298063Y-83537197D01*
X188294909Y-83533175D01*
X188283236Y-83535236D01*
X188263822Y-83552432D01*
X188242248Y-83578567D01*
X188224096Y-83607448D01*
X188219809Y-83616522D01*
X188211256Y-83649620D01*
X188205155Y-83698120D01*
X188202708Y-83752305D01*
X188202703Y-83754839D01*
X188207555Y-83832790D01*
X188207555Y-83832790D01*
G37*
X188207555Y-83832790D02*
X188223339Y-83891945D01*
X188251948Y-83936977D01*
X188289419Y-83968754D01*
X188305411Y-83978634D01*
X188322163Y-83985927D01*
X188343592Y-83991026D01*
X188373616Y-83994321D01*
X188416154Y-83996203D01*
X188475122Y-83997063D01*
X188554440Y-83997293D01*
X188575484Y-83997297D01*
X188818822Y-83997297D01*
X188818822Y-83936941D01*
X188816126Y-83898443D01*
X188809295Y-83869977D01*
X188805083Y-83862845D01*
X188797813Y-83843348D01*
X188805083Y-83823434D01*
X188814160Y-83790647D01*
X188817813Y-83743022D01*
X188816228Y-83690236D01*
X188809589Y-83641964D01*
X188801072Y-83613782D01*
X188766063Y-83559247D01*
X188717479Y-83525165D01*
X188652882Y-83509843D01*
X188651223Y-83509701D01*
X188622566Y-83511045D01*
X188622566Y-83632644D01*
X188655161Y-83643274D01*
X188673505Y-83660590D01*
X188687379Y-83695348D01*
X188692917Y-83741227D01*
X188690191Y-83788012D01*
X188679274Y-83825486D01*
X188672269Y-83835985D01*
X188639904Y-83854332D01*
X188603111Y-83858980D01*
X188554763Y-83858980D01*
X188554763Y-83789418D01*
X188559850Y-83723333D01*
X188574263Y-83673236D01*
X188596729Y-83642071D01*
X188622566Y-83632644D01*
X188622566Y-83511045D01*
X188580647Y-83513013D01*
X188524845Y-83536290D01*
X188482647Y-83580052D01*
X188478808Y-83586101D01*
X188466309Y-83612093D01*
X188458740Y-83644265D01*
X188455061Y-83689240D01*
X188454216Y-83742669D01*
X188454169Y-83858980D01*
X188405411Y-83858980D01*
X188367581Y-83854047D01*
X188342236Y-83841457D01*
X188340887Y-83839983D01*
X188329800Y-83811966D01*
X188325503Y-83769674D01*
X188327615Y-83722936D01*
X188335756Y-83681582D01*
X188347965Y-83657043D01*
X188357746Y-83643747D01*
X188359613Y-83629706D01*
X188351600Y-83610329D01*
X188331739Y-83581024D01*
X188298063Y-83537197D01*
X188294909Y-83533175D01*
X188283236Y-83535236D01*
X188263822Y-83552432D01*
X188242248Y-83578567D01*
X188224096Y-83607448D01*
X188219809Y-83616522D01*
X188211256Y-83649620D01*
X188205155Y-83698120D01*
X188202708Y-83752305D01*
X188202703Y-83754839D01*
X188207555Y-83832790D01*
G36*
X188204020Y-84223644D02*
X188209660Y-84242461D01*
X188222053Y-84248527D01*
X188227647Y-84248782D01*
X188243230Y-84249871D01*
X188245676Y-84257368D01*
X188234993Y-84277619D01*
X188227694Y-84289649D01*
X188212063Y-84327600D01*
X188204334Y-84372928D01*
X188203740Y-84420456D01*
X188209513Y-84465005D01*
X188220884Y-84501398D01*
X188237088Y-84524457D01*
X188257355Y-84529004D01*
X188262843Y-84526709D01*
X188285626Y-84509980D01*
X188313647Y-84484037D01*
X188318177Y-84479345D01*
X188339005Y-84454617D01*
X188345735Y-84433282D01*
X188341038Y-84403445D01*
X188337917Y-84391492D01*
X188330421Y-84354295D01*
X188333792Y-84328141D01*
X188345681Y-84306054D01*
X188361635Y-84285822D01*
X188381700Y-84270921D01*
X188409702Y-84260566D01*
X188449467Y-84253971D01*
X188504823Y-84250351D01*
X188579594Y-84248922D01*
X188624740Y-84248782D01*
X188818822Y-84248782D01*
X188818822Y-84123040D01*
X188202683Y-84123040D01*
X188202683Y-84185911D01*
X188204020Y-84223644D01*
X188204020Y-84223644D01*
G37*
X188204020Y-84223644D02*
X188209660Y-84242461D01*
X188222053Y-84248527D01*
X188227647Y-84248782D01*
X188243230Y-84249871D01*
X188245676Y-84257368D01*
X188234993Y-84277619D01*
X188227694Y-84289649D01*
X188212063Y-84327600D01*
X188204334Y-84372928D01*
X188203740Y-84420456D01*
X188209513Y-84465005D01*
X188220884Y-84501398D01*
X188237088Y-84524457D01*
X188257355Y-84529004D01*
X188262843Y-84526709D01*
X188285626Y-84509980D01*
X188313647Y-84484037D01*
X188318177Y-84479345D01*
X188339005Y-84454617D01*
X188345735Y-84433282D01*
X188341038Y-84403445D01*
X188337917Y-84391492D01*
X188330421Y-84354295D01*
X188333792Y-84328141D01*
X188345681Y-84306054D01*
X188361635Y-84285822D01*
X188381700Y-84270921D01*
X188409702Y-84260566D01*
X188449467Y-84253971D01*
X188504823Y-84250351D01*
X188579594Y-84248922D01*
X188624740Y-84248782D01*
X188818822Y-84248782D01*
X188818822Y-84123040D01*
X188202683Y-84123040D01*
X188202683Y-84185911D01*
X188204020Y-84223644D01*
G36*
X188818822Y-85015812D02*
X188818822Y-84946654D01*
X188817645Y-84906512D01*
X188812772Y-84885606D01*
X188802186Y-84878078D01*
X188795029Y-84877495D01*
X188780676Y-84876226D01*
X188777923Y-84868221D01*
X188786771Y-84847185D01*
X188795029Y-84830827D01*
X188814597Y-84768023D01*
X188815729Y-84699752D01*
X188801135Y-84644248D01*
X188765877Y-84592562D01*
X188713835Y-84553162D01*
X188652450Y-84531587D01*
X188649018Y-84531038D01*
X188611571Y-84527833D01*
X188557813Y-84526239D01*
X188517155Y-84526367D01*
X188517155Y-84663721D01*
X188571194Y-84666903D01*
X188615735Y-84674141D01*
X188640888Y-84683940D01*
X188675260Y-84721011D01*
X188687582Y-84765026D01*
X188677618Y-84810416D01*
X188647895Y-84849203D01*
X188627905Y-84863892D01*
X188604050Y-84872481D01*
X188569230Y-84876504D01*
X188516930Y-84877495D01*
X188465139Y-84875722D01*
X188419634Y-84871037D01*
X188389181Y-84864397D01*
X188386452Y-84863290D01*
X188354000Y-84836509D01*
X188336183Y-84797421D01*
X188333306Y-84753685D01*
X188345674Y-84712962D01*
X188373593Y-84682913D01*
X188379148Y-84679796D01*
X188413022Y-84670039D01*
X188461728Y-84664723D01*
X188517155Y-84663721D01*
X188517155Y-84526367D01*
X188496540Y-84526432D01*
X188463563Y-84527336D01*
X188381981Y-84533486D01*
X188320730Y-84546267D01*
X188275449Y-84567529D01*
X188241779Y-84599122D01*
X188222014Y-84629793D01*
X188208120Y-84672646D01*
X188203354Y-84725944D01*
X188207236Y-84780520D01*
X188219282Y-84827208D01*
X188233693Y-84851876D01*
X188256878Y-84877495D01*
X187963773Y-84877495D01*
X187963773Y-85015812D01*
X188818822Y-85015812D01*
X188818822Y-85015812D01*
G37*
X188818822Y-85015812D02*
X188818822Y-84946654D01*
X188817645Y-84906512D01*
X188812772Y-84885606D01*
X188802186Y-84878078D01*
X188795029Y-84877495D01*
X188780676Y-84876226D01*
X188777923Y-84868221D01*
X188786771Y-84847185D01*
X188795029Y-84830827D01*
X188814597Y-84768023D01*
X188815729Y-84699752D01*
X188801135Y-84644248D01*
X188765877Y-84592562D01*
X188713835Y-84553162D01*
X188652450Y-84531587D01*
X188649018Y-84531038D01*
X188611571Y-84527833D01*
X188557813Y-84526239D01*
X188517155Y-84526367D01*
X188517155Y-84663721D01*
X188571194Y-84666903D01*
X188615735Y-84674141D01*
X188640888Y-84683940D01*
X188675260Y-84721011D01*
X188687582Y-84765026D01*
X188677618Y-84810416D01*
X188647895Y-84849203D01*
X188627905Y-84863892D01*
X188604050Y-84872481D01*
X188569230Y-84876504D01*
X188516930Y-84877495D01*
X188465139Y-84875722D01*
X188419634Y-84871037D01*
X188389181Y-84864397D01*
X188386452Y-84863290D01*
X188354000Y-84836509D01*
X188336183Y-84797421D01*
X188333306Y-84753685D01*
X188345674Y-84712962D01*
X188373593Y-84682913D01*
X188379148Y-84679796D01*
X188413022Y-84670039D01*
X188461728Y-84664723D01*
X188517155Y-84663721D01*
X188517155Y-84526367D01*
X188496540Y-84526432D01*
X188463563Y-84527336D01*
X188381981Y-84533486D01*
X188320730Y-84546267D01*
X188275449Y-84567529D01*
X188241779Y-84599122D01*
X188222014Y-84629793D01*
X188208120Y-84672646D01*
X188203354Y-84725944D01*
X188207236Y-84780520D01*
X188219282Y-84827208D01*
X188233693Y-84851876D01*
X188256878Y-84877495D01*
X187963773Y-84877495D01*
X187963773Y-85015812D01*
X188818822Y-85015812D01*
G36*
X188205237Y-85498524D02*
X188208971Y-85548255D01*
X188598773Y-85678291D01*
X188529614Y-85698678D01*
X188486874Y-85710946D01*
X188429115Y-85727085D01*
X188365625Y-85744512D01*
X188331570Y-85753726D01*
X188202683Y-85788388D01*
X188202683Y-85931391D01*
X188337857Y-85888646D01*
X188404342Y-85867596D01*
X188484539Y-85842167D01*
X188568193Y-85815610D01*
X188642782Y-85791902D01*
X188812535Y-85737902D01*
X188816328Y-85679598D01*
X188820122Y-85621295D01*
X188715734Y-85589679D01*
X188650889Y-85570182D01*
X188579400Y-85548904D01*
X188516263Y-85530308D01*
X188513750Y-85529574D01*
X188470969Y-85515684D01*
X188441779Y-85503429D01*
X188430741Y-85494846D01*
X188432018Y-85493082D01*
X188449130Y-85486891D01*
X188485787Y-85475128D01*
X188537378Y-85459225D01*
X188599294Y-85440614D01*
X188633352Y-85430543D01*
X188818822Y-85376007D01*
X188818822Y-85260264D01*
X188526471Y-85167737D01*
X188444462Y-85141744D01*
X188369987Y-85118066D01*
X188306544Y-85097820D01*
X188257632Y-85082126D01*
X188226749Y-85072102D01*
X188217726Y-85069055D01*
X188208487Y-85071467D01*
X188204441Y-85090408D01*
X188204846Y-85129823D01*
X188205152Y-85135993D01*
X188208971Y-85209086D01*
X188385010Y-85256957D01*
X188449211Y-85274553D01*
X188505649Y-85290277D01*
X188549422Y-85302746D01*
X188575630Y-85310574D01*
X188579903Y-85312020D01*
X188574990Y-85318014D01*
X188549532Y-85330101D01*
X188506997Y-85346893D01*
X188450850Y-85367003D01*
X188400130Y-85384003D01*
X188201504Y-85448794D01*
X188205237Y-85498524D01*
X188205237Y-85498524D01*
G37*
X188205237Y-85498524D02*
X188208971Y-85548255D01*
X188598773Y-85678291D01*
X188529614Y-85698678D01*
X188486874Y-85710946D01*
X188429115Y-85727085D01*
X188365625Y-85744512D01*
X188331570Y-85753726D01*
X188202683Y-85788388D01*
X188202683Y-85931391D01*
X188337857Y-85888646D01*
X188404342Y-85867596D01*
X188484539Y-85842167D01*
X188568193Y-85815610D01*
X188642782Y-85791902D01*
X188812535Y-85737902D01*
X188816328Y-85679598D01*
X188820122Y-85621295D01*
X188715734Y-85589679D01*
X188650889Y-85570182D01*
X188579400Y-85548904D01*
X188516263Y-85530308D01*
X188513750Y-85529574D01*
X188470969Y-85515684D01*
X188441779Y-85503429D01*
X188430741Y-85494846D01*
X188432018Y-85493082D01*
X188449130Y-85486891D01*
X188485787Y-85475128D01*
X188537378Y-85459225D01*
X188599294Y-85440614D01*
X188633352Y-85430543D01*
X188818822Y-85376007D01*
X188818822Y-85260264D01*
X188526471Y-85167737D01*
X188444462Y-85141744D01*
X188369987Y-85118066D01*
X188306544Y-85097820D01*
X188257632Y-85082126D01*
X188226749Y-85072102D01*
X188217726Y-85069055D01*
X188208487Y-85071467D01*
X188204441Y-85090408D01*
X188204846Y-85129823D01*
X188205152Y-85135993D01*
X188208971Y-85209086D01*
X188385010Y-85256957D01*
X188449211Y-85274553D01*
X188505649Y-85290277D01*
X188549422Y-85302746D01*
X188575630Y-85310574D01*
X188579903Y-85312020D01*
X188574990Y-85318014D01*
X188549532Y-85330101D01*
X188506997Y-85346893D01*
X188450850Y-85367003D01*
X188400130Y-85384003D01*
X188201504Y-85448794D01*
X188205237Y-85498524D01*
G36*
X188206417Y-86255411D02*
X188219290Y-86308411D01*
X188226110Y-86323731D01*
X188243974Y-86353428D01*
X188264093Y-86376220D01*
X188289962Y-86393083D01*
X188325073Y-86404998D01*
X188372920Y-86412942D01*
X188436996Y-86417894D01*
X188520794Y-86420831D01*
X188576768Y-86421947D01*
X188818822Y-86426052D01*
X188818822Y-86355932D01*
X188817038Y-86313393D01*
X188810942Y-86291476D01*
X188800706Y-86285812D01*
X188789637Y-86282821D01*
X188791754Y-86269451D01*
X188800629Y-86251233D01*
X188814233Y-86205624D01*
X188817899Y-86147007D01*
X188811903Y-86085354D01*
X188796521Y-86030638D01*
X188794386Y-86025730D01*
X188759255Y-85975723D01*
X188710419Y-85942756D01*
X188653333Y-85927587D01*
X188632824Y-85928746D01*
X188632824Y-86052508D01*
X188660425Y-86063413D01*
X188680204Y-86095745D01*
X188690819Y-86147910D01*
X188692228Y-86175787D01*
X188688620Y-86222247D01*
X188674597Y-86253129D01*
X188667931Y-86260664D01*
X188631666Y-86281076D01*
X188598773Y-86285812D01*
X188554763Y-86285812D01*
X188554763Y-86224513D01*
X188558395Y-86153256D01*
X188569818Y-86103276D01*
X188589824Y-86071696D01*
X188598743Y-86064626D01*
X188632824Y-86052508D01*
X188632824Y-85928746D01*
X188593456Y-85930971D01*
X188536244Y-85953663D01*
X188497580Y-85984624D01*
X188480864Y-86003376D01*
X188469878Y-86021733D01*
X188463180Y-86045619D01*
X188459326Y-86080957D01*
X188456873Y-86133669D01*
X188456168Y-86154577D01*
X188451879Y-86285812D01*
X188412158Y-86285620D01*
X188370405Y-86280537D01*
X188345158Y-86262162D01*
X188329030Y-86225039D01*
X188328742Y-86224043D01*
X188322400Y-86171410D01*
X188330684Y-86119906D01*
X188350827Y-86081630D01*
X188360773Y-86066272D01*
X188359397Y-86049730D01*
X188344987Y-86024275D01*
X188334817Y-86009328D01*
X188313088Y-85980091D01*
X188296800Y-85961980D01*
X188292137Y-85959074D01*
X188268005Y-85971040D01*
X188239185Y-86006396D01*
X188229461Y-86021753D01*
X188212714Y-86065901D01*
X188203227Y-86125398D01*
X188201095Y-86191487D01*
X188206417Y-86255411D01*
X188206417Y-86255411D01*
G37*
X188206417Y-86255411D02*
X188219290Y-86308411D01*
X188226110Y-86323731D01*
X188243974Y-86353428D01*
X188264093Y-86376220D01*
X188289962Y-86393083D01*
X188325073Y-86404998D01*
X188372920Y-86412942D01*
X188436996Y-86417894D01*
X188520794Y-86420831D01*
X188576768Y-86421947D01*
X188818822Y-86426052D01*
X188818822Y-86355932D01*
X188817038Y-86313393D01*
X188810942Y-86291476D01*
X188800706Y-86285812D01*
X188789637Y-86282821D01*
X188791754Y-86269451D01*
X188800629Y-86251233D01*
X188814233Y-86205624D01*
X188817899Y-86147007D01*
X188811903Y-86085354D01*
X188796521Y-86030638D01*
X188794386Y-86025730D01*
X188759255Y-85975723D01*
X188710419Y-85942756D01*
X188653333Y-85927587D01*
X188632824Y-85928746D01*
X188632824Y-86052508D01*
X188660425Y-86063413D01*
X188680204Y-86095745D01*
X188690819Y-86147910D01*
X188692228Y-86175787D01*
X188688620Y-86222247D01*
X188674597Y-86253129D01*
X188667931Y-86260664D01*
X188631666Y-86281076D01*
X188598773Y-86285812D01*
X188554763Y-86285812D01*
X188554763Y-86224513D01*
X188558395Y-86153256D01*
X188569818Y-86103276D01*
X188589824Y-86071696D01*
X188598743Y-86064626D01*
X188632824Y-86052508D01*
X188632824Y-85928746D01*
X188593456Y-85930971D01*
X188536244Y-85953663D01*
X188497580Y-85984624D01*
X188480864Y-86003376D01*
X188469878Y-86021733D01*
X188463180Y-86045619D01*
X188459326Y-86080957D01*
X188456873Y-86133669D01*
X188456168Y-86154577D01*
X188451879Y-86285812D01*
X188412158Y-86285620D01*
X188370405Y-86280537D01*
X188345158Y-86262162D01*
X188329030Y-86225039D01*
X188328742Y-86224043D01*
X188322400Y-86171410D01*
X188330684Y-86119906D01*
X188350827Y-86081630D01*
X188360773Y-86066272D01*
X188359397Y-86049730D01*
X188344987Y-86024275D01*
X188334817Y-86009328D01*
X188313088Y-85980091D01*
X188296800Y-85961980D01*
X188292137Y-85959074D01*
X188268005Y-85971040D01*
X188239185Y-86006396D01*
X188229461Y-86021753D01*
X188212714Y-86065901D01*
X188203227Y-86125398D01*
X188201095Y-86191487D01*
X188206417Y-86255411D01*
G36*
X188202486Y-86852255D02*
X188212015Y-86900595D01*
X188226125Y-86928114D01*
X188249568Y-86957064D01*
X188301571Y-86915876D01*
X188333064Y-86890482D01*
X188348428Y-86873238D01*
X188350776Y-86856102D01*
X188343217Y-86831027D01*
X188338941Y-86819257D01*
X188332631Y-86771270D01*
X188346156Y-86727324D01*
X188376710Y-86695060D01*
X188386452Y-86689819D01*
X188412258Y-86684112D01*
X188459817Y-86679706D01*
X188525758Y-86676811D01*
X188606710Y-86675631D01*
X188618226Y-86675614D01*
X188818822Y-86675614D01*
X188818822Y-86537297D01*
X188202683Y-86537297D01*
X188202683Y-86606456D01*
X188203725Y-86646333D01*
X188208358Y-86667107D01*
X188218849Y-86674789D01*
X188228745Y-86675614D01*
X188254806Y-86675614D01*
X188228745Y-86708745D01*
X188210965Y-86746735D01*
X188202174Y-86797770D01*
X188202486Y-86852255D01*
X188202486Y-86852255D01*
G37*
X188202486Y-86852255D02*
X188212015Y-86900595D01*
X188226125Y-86928114D01*
X188249568Y-86957064D01*
X188301571Y-86915876D01*
X188333064Y-86890482D01*
X188348428Y-86873238D01*
X188350776Y-86856102D01*
X188343217Y-86831027D01*
X188338941Y-86819257D01*
X188332631Y-86771270D01*
X188346156Y-86727324D01*
X188376710Y-86695060D01*
X188386452Y-86689819D01*
X188412258Y-86684112D01*
X188459817Y-86679706D01*
X188525758Y-86676811D01*
X188606710Y-86675631D01*
X188618226Y-86675614D01*
X188818822Y-86675614D01*
X188818822Y-86537297D01*
X188202683Y-86537297D01*
X188202683Y-86606456D01*
X188203725Y-86646333D01*
X188208358Y-86667107D01*
X188218849Y-86674789D01*
X188228745Y-86675614D01*
X188254806Y-86675614D01*
X188228745Y-86708745D01*
X188210965Y-86746735D01*
X188202174Y-86797770D01*
X188202486Y-86852255D01*
G36*
X188205970Y-87249581D02*
X188221597Y-87309685D01*
X188253848Y-87360021D01*
X188277940Y-87384393D01*
X188334895Y-87424345D01*
X188400965Y-87447242D01*
X188482182Y-87455108D01*
X188488748Y-87455148D01*
X188554763Y-87455218D01*
X188554763Y-87075264D01*
X188589342Y-87083363D01*
X188620659Y-87097987D01*
X188653291Y-87123581D01*
X188658500Y-87128935D01*
X188686694Y-87174943D01*
X188691475Y-87227410D01*
X188672926Y-87287803D01*
X188667931Y-87298040D01*
X188652745Y-87329439D01*
X188644094Y-87350470D01*
X188643293Y-87354139D01*
X188651063Y-87366948D01*
X188670072Y-87391378D01*
X188680460Y-87403779D01*
X188704321Y-87429476D01*
X188720077Y-87437915D01*
X188734571Y-87432058D01*
X188738534Y-87428928D01*
X188755879Y-87407725D01*
X188776959Y-87372738D01*
X188789265Y-87348337D01*
X188810946Y-87279072D01*
X188817971Y-87202388D01*
X188809647Y-87129765D01*
X188803686Y-87109426D01*
X188769952Y-87046476D01*
X188718045Y-86999815D01*
X188647459Y-86969173D01*
X188557692Y-86954282D01*
X188510753Y-86952647D01*
X188442413Y-86957421D01*
X188442413Y-87077990D01*
X188447465Y-87089652D01*
X188451429Y-87120998D01*
X188453768Y-87166571D01*
X188454169Y-87197446D01*
X188453783Y-87252981D01*
X188451975Y-87288033D01*
X188447773Y-87307262D01*
X188440203Y-87315330D01*
X188429218Y-87316901D01*
X188395381Y-87306121D01*
X188361940Y-87278980D01*
X188336272Y-87243277D01*
X188325772Y-87207560D01*
X188335086Y-87159048D01*
X188362013Y-87117053D01*
X188400827Y-87087936D01*
X188442413Y-87077990D01*
X188442413Y-86957421D01*
X188411236Y-86959599D01*
X188331949Y-86981055D01*
X188272263Y-87017470D01*
X188231549Y-87069297D01*
X188209179Y-87136990D01*
X188204871Y-87173662D01*
X188205970Y-87249581D01*
X188205970Y-87249581D01*
G37*
X188205970Y-87249581D02*
X188221597Y-87309685D01*
X188253848Y-87360021D01*
X188277940Y-87384393D01*
X188334895Y-87424345D01*
X188400965Y-87447242D01*
X188482182Y-87455108D01*
X188488748Y-87455148D01*
X188554763Y-87455218D01*
X188554763Y-87075264D01*
X188589342Y-87083363D01*
X188620659Y-87097987D01*
X188653291Y-87123581D01*
X188658500Y-87128935D01*
X188686694Y-87174943D01*
X188691475Y-87227410D01*
X188672926Y-87287803D01*
X188667931Y-87298040D01*
X188652745Y-87329439D01*
X188644094Y-87350470D01*
X188643293Y-87354139D01*
X188651063Y-87366948D01*
X188670072Y-87391378D01*
X188680460Y-87403779D01*
X188704321Y-87429476D01*
X188720077Y-87437915D01*
X188734571Y-87432058D01*
X188738534Y-87428928D01*
X188755879Y-87407725D01*
X188776959Y-87372738D01*
X188789265Y-87348337D01*
X188810946Y-87279072D01*
X188817971Y-87202388D01*
X188809647Y-87129765D01*
X188803686Y-87109426D01*
X188769952Y-87046476D01*
X188718045Y-86999815D01*
X188647459Y-86969173D01*
X188557692Y-86954282D01*
X188510753Y-86952647D01*
X188442413Y-86957421D01*
X188442413Y-87077990D01*
X188447465Y-87089652D01*
X188451429Y-87120998D01*
X188453768Y-87166571D01*
X188454169Y-87197446D01*
X188453783Y-87252981D01*
X188451975Y-87288033D01*
X188447773Y-87307262D01*
X188440203Y-87315330D01*
X188429218Y-87316901D01*
X188395381Y-87306121D01*
X188361940Y-87278980D01*
X188336272Y-87243277D01*
X188325772Y-87207560D01*
X188335086Y-87159048D01*
X188362013Y-87117053D01*
X188400827Y-87087936D01*
X188442413Y-87077990D01*
X188442413Y-86957421D01*
X188411236Y-86959599D01*
X188331949Y-86981055D01*
X188272263Y-87017470D01*
X188231549Y-87069297D01*
X188209179Y-87136990D01*
X188204871Y-87173662D01*
X188205970Y-87249581D01*
G36*
X187266148Y-82678739D02*
X187295231Y-82744521D01*
X187343793Y-82794460D01*
X187411908Y-82828626D01*
X187499651Y-82847093D01*
X187513351Y-82848417D01*
X187609939Y-82849454D01*
X187694602Y-82836007D01*
X187763221Y-82808892D01*
X187785294Y-82794373D01*
X187832011Y-82743799D01*
X187862268Y-82679391D01*
X187874824Y-82607334D01*
X187868439Y-82533815D01*
X187848772Y-82477928D01*
X187815629Y-82429868D01*
X187772175Y-82390588D01*
X187771158Y-82389908D01*
X187744338Y-82373956D01*
X187717368Y-82363590D01*
X187683332Y-82357312D01*
X187635310Y-82353627D01*
X187595931Y-82352003D01*
X187560219Y-82351328D01*
X187560219Y-82477045D01*
X187595770Y-82478274D01*
X187643094Y-82482734D01*
X187673465Y-82490603D01*
X187695072Y-82504793D01*
X187707694Y-82518083D01*
X187734122Y-82565198D01*
X187737653Y-82614495D01*
X187718639Y-82660407D01*
X187697331Y-82683362D01*
X187675859Y-82699904D01*
X187655313Y-82709579D01*
X187628574Y-82713826D01*
X187588523Y-82714080D01*
X187551638Y-82712772D01*
X187498947Y-82709957D01*
X187464772Y-82705495D01*
X187442480Y-82697452D01*
X187425442Y-82683897D01*
X187415703Y-82673155D01*
X187390123Y-82628223D01*
X187388847Y-82579751D01*
X187403999Y-82539106D01*
X187435642Y-82504433D01*
X187487620Y-82483776D01*
X187560219Y-82477045D01*
X187560219Y-82351328D01*
X187517621Y-82350521D01*
X187459056Y-82353052D01*
X187415007Y-82360638D01*
X187380248Y-82374319D01*
X187349551Y-82395135D01*
X187340436Y-82402853D01*
X187295021Y-82451111D01*
X187268493Y-82502872D01*
X187257379Y-82566172D01*
X187256471Y-82597039D01*
X187266148Y-82678739D01*
X187266148Y-82678739D01*
G37*
X187266148Y-82678739D02*
X187295231Y-82744521D01*
X187343793Y-82794460D01*
X187411908Y-82828626D01*
X187499651Y-82847093D01*
X187513351Y-82848417D01*
X187609939Y-82849454D01*
X187694602Y-82836007D01*
X187763221Y-82808892D01*
X187785294Y-82794373D01*
X187832011Y-82743799D01*
X187862268Y-82679391D01*
X187874824Y-82607334D01*
X187868439Y-82533815D01*
X187848772Y-82477928D01*
X187815629Y-82429868D01*
X187772175Y-82390588D01*
X187771158Y-82389908D01*
X187744338Y-82373956D01*
X187717368Y-82363590D01*
X187683332Y-82357312D01*
X187635310Y-82353627D01*
X187595931Y-82352003D01*
X187560219Y-82351328D01*
X187560219Y-82477045D01*
X187595770Y-82478274D01*
X187643094Y-82482734D01*
X187673465Y-82490603D01*
X187695072Y-82504793D01*
X187707694Y-82518083D01*
X187734122Y-82565198D01*
X187737653Y-82614495D01*
X187718639Y-82660407D01*
X187697331Y-82683362D01*
X187675859Y-82699904D01*
X187655313Y-82709579D01*
X187628574Y-82713826D01*
X187588523Y-82714080D01*
X187551638Y-82712772D01*
X187498947Y-82709957D01*
X187464772Y-82705495D01*
X187442480Y-82697452D01*
X187425442Y-82683897D01*
X187415703Y-82673155D01*
X187390123Y-82628223D01*
X187388847Y-82579751D01*
X187403999Y-82539106D01*
X187435642Y-82504433D01*
X187487620Y-82483776D01*
X187560219Y-82477045D01*
X187560219Y-82351328D01*
X187517621Y-82350521D01*
X187459056Y-82353052D01*
X187415007Y-82360638D01*
X187380248Y-82374319D01*
X187349551Y-82395135D01*
X187340436Y-82402853D01*
X187295021Y-82451111D01*
X187268493Y-82502872D01*
X187257379Y-82566172D01*
X187256471Y-82597039D01*
X187266148Y-82678739D01*
G36*
X187273614Y-83860301D02*
X187279514Y-83872832D01*
X187311283Y-83916201D01*
X187357646Y-83957210D01*
X187408696Y-83987832D01*
X187432166Y-83996541D01*
X187474091Y-84004488D01*
X187524757Y-84009226D01*
X187545679Y-84009801D01*
X187611693Y-84009871D01*
X187611693Y-83629917D01*
X187646273Y-83638017D01*
X187687170Y-83657896D01*
X187722514Y-83692653D01*
X187745282Y-83734002D01*
X187750010Y-83760351D01*
X187744273Y-83796084D01*
X187729882Y-83838718D01*
X187723262Y-83853201D01*
X187696513Y-83906760D01*
X187731376Y-83952467D01*
X187754955Y-83978842D01*
X187774417Y-83992876D01*
X187780129Y-83993586D01*
X187793973Y-83981049D01*
X187815012Y-83953572D01*
X187831425Y-83928634D01*
X187860930Y-83861336D01*
X187874284Y-83785890D01*
X187870812Y-83711112D01*
X187852663Y-83651505D01*
X187813784Y-83590059D01*
X187762595Y-83546392D01*
X187696367Y-83519074D01*
X187612371Y-83506678D01*
X187573936Y-83505579D01*
X187485861Y-83509978D01*
X187483299Y-83510518D01*
X187483299Y-83636418D01*
X187491558Y-83639885D01*
X187496113Y-83654137D01*
X187498065Y-83683530D01*
X187498517Y-83732425D01*
X187498525Y-83751252D01*
X187497843Y-83808533D01*
X187495364Y-83844859D01*
X187490443Y-83864396D01*
X187482434Y-83871310D01*
X187479862Y-83871555D01*
X187459423Y-83863664D01*
X187430789Y-83843915D01*
X187420763Y-83835425D01*
X187392408Y-83803906D01*
X187381259Y-83771051D01*
X187380327Y-83753349D01*
X187391981Y-83705461D01*
X187423285Y-83665301D01*
X187468752Y-83639827D01*
X187470233Y-83639375D01*
X187483299Y-83636418D01*
X187483299Y-83510518D01*
X187416510Y-83524608D01*
X187361025Y-83550962D01*
X187321639Y-83583193D01*
X187278931Y-83642783D01*
X187256109Y-83712832D01*
X187254046Y-83787339D01*
X187273614Y-83860301D01*
X187273614Y-83860301D01*
G37*
X187273614Y-83860301D02*
X187279514Y-83872832D01*
X187311283Y-83916201D01*
X187357646Y-83957210D01*
X187408696Y-83987832D01*
X187432166Y-83996541D01*
X187474091Y-84004488D01*
X187524757Y-84009226D01*
X187545679Y-84009801D01*
X187611693Y-84009871D01*
X187611693Y-83629917D01*
X187646273Y-83638017D01*
X187687170Y-83657896D01*
X187722514Y-83692653D01*
X187745282Y-83734002D01*
X187750010Y-83760351D01*
X187744273Y-83796084D01*
X187729882Y-83838718D01*
X187723262Y-83853201D01*
X187696513Y-83906760D01*
X187731376Y-83952467D01*
X187754955Y-83978842D01*
X187774417Y-83992876D01*
X187780129Y-83993586D01*
X187793973Y-83981049D01*
X187815012Y-83953572D01*
X187831425Y-83928634D01*
X187860930Y-83861336D01*
X187874284Y-83785890D01*
X187870812Y-83711112D01*
X187852663Y-83651505D01*
X187813784Y-83590059D01*
X187762595Y-83546392D01*
X187696367Y-83519074D01*
X187612371Y-83506678D01*
X187573936Y-83505579D01*
X187485861Y-83509978D01*
X187483299Y-83510518D01*
X187483299Y-83636418D01*
X187491558Y-83639885D01*
X187496113Y-83654137D01*
X187498065Y-83683530D01*
X187498517Y-83732425D01*
X187498525Y-83751252D01*
X187497843Y-83808533D01*
X187495364Y-83844859D01*
X187490443Y-83864396D01*
X187482434Y-83871310D01*
X187479862Y-83871555D01*
X187459423Y-83863664D01*
X187430789Y-83843915D01*
X187420763Y-83835425D01*
X187392408Y-83803906D01*
X187381259Y-83771051D01*
X187380327Y-83753349D01*
X187391981Y-83705461D01*
X187423285Y-83665301D01*
X187468752Y-83639827D01*
X187470233Y-83639375D01*
X187483299Y-83636418D01*
X187483299Y-83510518D01*
X187416510Y-83524608D01*
X187361025Y-83550962D01*
X187321639Y-83583193D01*
X187278931Y-83642783D01*
X187256109Y-83712832D01*
X187254046Y-83787339D01*
X187273614Y-83860301D01*
G36*
X187257452Y-85231017D02*
X187266482Y-85278634D01*
X187285370Y-85328034D01*
X187287777Y-85333312D01*
X187307476Y-85370774D01*
X187325781Y-85396717D01*
X187337508Y-85405103D01*
X187356632Y-85397117D01*
X187384850Y-85377720D01*
X187395384Y-85369110D01*
X187436847Y-85333628D01*
X187409858Y-85287885D01*
X187391878Y-85244350D01*
X187382267Y-85194050D01*
X187381660Y-85145812D01*
X187390691Y-85108467D01*
X187396327Y-85099505D01*
X187422171Y-85082437D01*
X187451941Y-85080363D01*
X187475197Y-85093134D01*
X187479708Y-85100688D01*
X187485309Y-85123325D01*
X187491892Y-85163115D01*
X187498183Y-85212166D01*
X187499170Y-85221215D01*
X187512798Y-85299996D01*
X187535946Y-85357136D01*
X187570752Y-85395030D01*
X187619354Y-85416079D01*
X187678718Y-85422635D01*
X187746198Y-85413577D01*
X187799188Y-85384164D01*
X187837783Y-85334278D01*
X187862081Y-85263800D01*
X187871667Y-85185565D01*
X187871552Y-85121766D01*
X187862845Y-85070016D01*
X187850825Y-85034673D01*
X187829880Y-84990017D01*
X187805574Y-84948747D01*
X187794876Y-84934079D01*
X187764084Y-84896357D01*
X187718049Y-84941852D01*
X187672013Y-84987347D01*
X187706243Y-85039072D01*
X187731952Y-85090952D01*
X187745399Y-85146351D01*
X187746818Y-85199605D01*
X187736443Y-85245049D01*
X187714507Y-85277016D01*
X187695998Y-85287338D01*
X187666314Y-85285789D01*
X187643615Y-85260140D01*
X187627940Y-85210460D01*
X187620695Y-85156031D01*
X187606873Y-85072264D01*
X187580796Y-85010033D01*
X187541699Y-84968507D01*
X187488820Y-84946853D01*
X187426126Y-84943853D01*
X187360642Y-84958671D01*
X187311144Y-84992454D01*
X187277408Y-85045505D01*
X187259207Y-85118126D01*
X187255639Y-85171928D01*
X187257452Y-85231017D01*
X187257452Y-85231017D01*
G37*
X187257452Y-85231017D02*
X187266482Y-85278634D01*
X187285370Y-85328034D01*
X187287777Y-85333312D01*
X187307476Y-85370774D01*
X187325781Y-85396717D01*
X187337508Y-85405103D01*
X187356632Y-85397117D01*
X187384850Y-85377720D01*
X187395384Y-85369110D01*
X187436847Y-85333628D01*
X187409858Y-85287885D01*
X187391878Y-85244350D01*
X187382267Y-85194050D01*
X187381660Y-85145812D01*
X187390691Y-85108467D01*
X187396327Y-85099505D01*
X187422171Y-85082437D01*
X187451941Y-85080363D01*
X187475197Y-85093134D01*
X187479708Y-85100688D01*
X187485309Y-85123325D01*
X187491892Y-85163115D01*
X187498183Y-85212166D01*
X187499170Y-85221215D01*
X187512798Y-85299996D01*
X187535946Y-85357136D01*
X187570752Y-85395030D01*
X187619354Y-85416079D01*
X187678718Y-85422635D01*
X187746198Y-85413577D01*
X187799188Y-85384164D01*
X187837783Y-85334278D01*
X187862081Y-85263800D01*
X187871667Y-85185565D01*
X187871552Y-85121766D01*
X187862845Y-85070016D01*
X187850825Y-85034673D01*
X187829880Y-84990017D01*
X187805574Y-84948747D01*
X187794876Y-84934079D01*
X187764084Y-84896357D01*
X187718049Y-84941852D01*
X187672013Y-84987347D01*
X187706243Y-85039072D01*
X187731952Y-85090952D01*
X187745399Y-85146351D01*
X187746818Y-85199605D01*
X187736443Y-85245049D01*
X187714507Y-85277016D01*
X187695998Y-85287338D01*
X187666314Y-85285789D01*
X187643615Y-85260140D01*
X187627940Y-85210460D01*
X187620695Y-85156031D01*
X187606873Y-85072264D01*
X187580796Y-85010033D01*
X187541699Y-84968507D01*
X187488820Y-84946853D01*
X187426126Y-84943853D01*
X187360642Y-84958671D01*
X187311144Y-84992454D01*
X187277408Y-85045505D01*
X187259207Y-85118126D01*
X187255639Y-85171928D01*
X187257452Y-85231017D01*
G36*
X187267055Y-85827762D02*
X187301692Y-85891363D01*
X187356372Y-85941123D01*
X187400842Y-85964568D01*
X187440121Y-85974634D01*
X187496116Y-85981156D01*
X187560621Y-85983951D01*
X187625429Y-85982836D01*
X187682334Y-85977626D01*
X187712727Y-85971541D01*
X187754306Y-85951014D01*
X187798468Y-85915463D01*
X187837087Y-85872619D01*
X187862034Y-85830211D01*
X187862430Y-85829177D01*
X187873331Y-85776553D01*
X187873601Y-85714188D01*
X187863676Y-85654924D01*
X187855722Y-85632040D01*
X187822300Y-85573102D01*
X187778511Y-85530890D01*
X187720538Y-85503156D01*
X187644565Y-85487651D01*
X187604771Y-85484143D01*
X187554766Y-85484590D01*
X187554766Y-85619376D01*
X187627732Y-85623917D01*
X187683334Y-85636986D01*
X187718861Y-85657756D01*
X187729020Y-85672552D01*
X187736104Y-85710464D01*
X187734007Y-85755527D01*
X187723812Y-85794487D01*
X187718204Y-85804704D01*
X187685538Y-85831659D01*
X187635545Y-85849451D01*
X187574705Y-85857024D01*
X187509497Y-85853325D01*
X187470253Y-85845057D01*
X187424805Y-85821320D01*
X187396396Y-85783849D01*
X187386573Y-85738720D01*
X187396887Y-85692011D01*
X187422112Y-85656132D01*
X187442925Y-85637277D01*
X187463439Y-85626272D01*
X187491203Y-85621026D01*
X187533762Y-85619449D01*
X187554766Y-85619376D01*
X187554766Y-85484590D01*
X187498580Y-85485094D01*
X187411501Y-85502388D01*
X187343530Y-85536029D01*
X187294664Y-85586018D01*
X187264899Y-85652356D01*
X187261448Y-85666601D01*
X187253345Y-85752210D01*
X187267055Y-85827762D01*
X187267055Y-85827762D01*
G37*
X187267055Y-85827762D02*
X187301692Y-85891363D01*
X187356372Y-85941123D01*
X187400842Y-85964568D01*
X187440121Y-85974634D01*
X187496116Y-85981156D01*
X187560621Y-85983951D01*
X187625429Y-85982836D01*
X187682334Y-85977626D01*
X187712727Y-85971541D01*
X187754306Y-85951014D01*
X187798468Y-85915463D01*
X187837087Y-85872619D01*
X187862034Y-85830211D01*
X187862430Y-85829177D01*
X187873331Y-85776553D01*
X187873601Y-85714188D01*
X187863676Y-85654924D01*
X187855722Y-85632040D01*
X187822300Y-85573102D01*
X187778511Y-85530890D01*
X187720538Y-85503156D01*
X187644565Y-85487651D01*
X187604771Y-85484143D01*
X187554766Y-85484590D01*
X187554766Y-85619376D01*
X187627732Y-85623917D01*
X187683334Y-85636986D01*
X187718861Y-85657756D01*
X187729020Y-85672552D01*
X187736104Y-85710464D01*
X187734007Y-85755527D01*
X187723812Y-85794487D01*
X187718204Y-85804704D01*
X187685538Y-85831659D01*
X187635545Y-85849451D01*
X187574705Y-85857024D01*
X187509497Y-85853325D01*
X187470253Y-85845057D01*
X187424805Y-85821320D01*
X187396396Y-85783849D01*
X187386573Y-85738720D01*
X187396887Y-85692011D01*
X187422112Y-85656132D01*
X187442925Y-85637277D01*
X187463439Y-85626272D01*
X187491203Y-85621026D01*
X187533762Y-85619449D01*
X187554766Y-85619376D01*
X187554766Y-85484590D01*
X187498580Y-85485094D01*
X187411501Y-85502388D01*
X187343530Y-85536029D01*
X187294664Y-85586018D01*
X187264899Y-85652356D01*
X187261448Y-85666601D01*
X187253345Y-85752210D01*
X187267055Y-85827762D01*
G36*
X187455342Y-86210367D02*
X187547563Y-86211555D01*
X187617610Y-86215897D01*
X187668381Y-86224558D01*
X187702772Y-86238704D01*
X187723679Y-86259500D01*
X187734000Y-86288110D01*
X187736636Y-86323535D01*
X187733682Y-86360636D01*
X187722889Y-86388818D01*
X187701360Y-86409243D01*
X187666199Y-86423079D01*
X187614510Y-86431491D01*
X187543394Y-86435643D01*
X187455342Y-86436703D01*
X187259614Y-86436703D01*
X187259614Y-86575020D01*
X187863179Y-86575020D01*
X187863179Y-86505862D01*
X187861489Y-86464170D01*
X187855556Y-86442701D01*
X187844293Y-86436703D01*
X187834261Y-86433091D01*
X187836383Y-86418714D01*
X187850580Y-86389736D01*
X187872480Y-86323319D01*
X187870928Y-86252875D01*
X187847147Y-86185377D01*
X187828362Y-86153233D01*
X187808022Y-86128715D01*
X187782573Y-86110804D01*
X187748458Y-86098479D01*
X187702121Y-86090723D01*
X187640007Y-86086516D01*
X187558561Y-86084840D01*
X187495578Y-86084624D01*
X187259614Y-86084624D01*
X187259614Y-86210367D01*
X187455342Y-86210367D01*
X187455342Y-86210367D01*
G37*
X187455342Y-86210367D02*
X187547563Y-86211555D01*
X187617610Y-86215897D01*
X187668381Y-86224558D01*
X187702772Y-86238704D01*
X187723679Y-86259500D01*
X187734000Y-86288110D01*
X187736636Y-86323535D01*
X187733682Y-86360636D01*
X187722889Y-86388818D01*
X187701360Y-86409243D01*
X187666199Y-86423079D01*
X187614510Y-86431491D01*
X187543394Y-86435643D01*
X187455342Y-86436703D01*
X187259614Y-86436703D01*
X187259614Y-86575020D01*
X187863179Y-86575020D01*
X187863179Y-86505862D01*
X187861489Y-86464170D01*
X187855556Y-86442701D01*
X187844293Y-86436703D01*
X187834261Y-86433091D01*
X187836383Y-86418714D01*
X187850580Y-86389736D01*
X187872480Y-86323319D01*
X187870928Y-86252875D01*
X187847147Y-86185377D01*
X187828362Y-86153233D01*
X187808022Y-86128715D01*
X187782573Y-86110804D01*
X187748458Y-86098479D01*
X187702121Y-86090723D01*
X187640007Y-86086516D01*
X187558561Y-86084840D01*
X187495578Y-86084624D01*
X187259614Y-86084624D01*
X187259614Y-86210367D01*
X187455342Y-86210367D01*
G36*
X187264880Y-87434226D02*
X187295830Y-87507080D01*
X187310895Y-87530027D01*
X187334048Y-87559354D01*
X187352253Y-87577764D01*
X187358183Y-87580961D01*
X187371340Y-87571935D01*
X187393667Y-87548837D01*
X187409250Y-87530344D01*
X187449926Y-87479728D01*
X187416295Y-87439760D01*
X187394584Y-87408874D01*
X187387090Y-87378759D01*
X187388920Y-87344292D01*
X187402528Y-87289561D01*
X187430772Y-87251886D01*
X187476433Y-87228991D01*
X187542289Y-87218597D01*
X187542331Y-87218595D01*
X187615939Y-87219494D01*
X187669946Y-87233463D01*
X187706716Y-87261328D01*
X187719168Y-87280325D01*
X187734673Y-87330776D01*
X187734683Y-87384663D01*
X187719638Y-87431546D01*
X187712287Y-87442644D01*
X187693511Y-87470476D01*
X187690434Y-87492236D01*
X187704409Y-87515704D01*
X187729510Y-87541649D01*
X187771880Y-87582716D01*
X187809464Y-87537121D01*
X187851882Y-87466674D01*
X187872785Y-87387233D01*
X187871272Y-87304215D01*
X187857411Y-87249694D01*
X187823135Y-87185970D01*
X187769212Y-87135005D01*
X187731149Y-87111851D01*
X187676536Y-87093099D01*
X187607369Y-87083715D01*
X187532407Y-87083643D01*
X187460409Y-87092824D01*
X187400137Y-87111199D01*
X187393958Y-87114093D01*
X187333351Y-87156952D01*
X187289224Y-87214979D01*
X187262493Y-87283591D01*
X187254073Y-87358201D01*
X187264880Y-87434226D01*
X187264880Y-87434226D01*
G37*
X187264880Y-87434226D02*
X187295830Y-87507080D01*
X187310895Y-87530027D01*
X187334048Y-87559354D01*
X187352253Y-87577764D01*
X187358183Y-87580961D01*
X187371340Y-87571935D01*
X187393667Y-87548837D01*
X187409250Y-87530344D01*
X187449926Y-87479728D01*
X187416295Y-87439760D01*
X187394584Y-87408874D01*
X187387090Y-87378759D01*
X187388920Y-87344292D01*
X187402528Y-87289561D01*
X187430772Y-87251886D01*
X187476433Y-87228991D01*
X187542289Y-87218597D01*
X187542331Y-87218595D01*
X187615939Y-87219494D01*
X187669946Y-87233463D01*
X187706716Y-87261328D01*
X187719168Y-87280325D01*
X187734673Y-87330776D01*
X187734683Y-87384663D01*
X187719638Y-87431546D01*
X187712287Y-87442644D01*
X187693511Y-87470476D01*
X187690434Y-87492236D01*
X187704409Y-87515704D01*
X187729510Y-87541649D01*
X187771880Y-87582716D01*
X187809464Y-87537121D01*
X187851882Y-87466674D01*
X187872785Y-87387233D01*
X187871272Y-87304215D01*
X187857411Y-87249694D01*
X187823135Y-87185970D01*
X187769212Y-87135005D01*
X187731149Y-87111851D01*
X187676536Y-87093099D01*
X187607369Y-87083715D01*
X187532407Y-87083643D01*
X187460409Y-87092824D01*
X187400137Y-87111199D01*
X187393958Y-87114093D01*
X187333351Y-87156952D01*
X187289224Y-87214979D01*
X187262493Y-87283591D01*
X187254073Y-87358201D01*
X187264880Y-87434226D01*
G36*
X187257457Y-87894898D02*
X187265279Y-87927096D01*
X187293921Y-87988825D01*
X187337667Y-88041610D01*
X187390117Y-88078141D01*
X187401893Y-88083160D01*
X187432740Y-88090045D01*
X187478371Y-88094864D01*
X187524492Y-88096505D01*
X187611693Y-88096505D01*
X187611693Y-87914178D01*
X187611978Y-87838979D01*
X187613704Y-87786003D01*
X187618181Y-87752325D01*
X187626720Y-87735020D01*
X187640630Y-87731163D01*
X187661222Y-87737829D01*
X187685315Y-87749770D01*
X187725525Y-87783080D01*
X187745558Y-87829368D01*
X187744905Y-87885944D01*
X187723101Y-87950031D01*
X187696193Y-88005417D01*
X187732532Y-88051375D01*
X187768872Y-88097333D01*
X187808819Y-88054096D01*
X187846563Y-87996374D01*
X187869320Y-87925386D01*
X187875688Y-87849029D01*
X187864268Y-87775199D01*
X187860393Y-87763287D01*
X187826506Y-87698399D01*
X187775986Y-87650130D01*
X187707325Y-87617465D01*
X187619014Y-87599385D01*
X187617121Y-87599175D01*
X187520878Y-87597556D01*
X187486542Y-87604100D01*
X187486542Y-87731852D01*
X187491822Y-87743584D01*
X187495867Y-87775438D01*
X187498176Y-87822397D01*
X187498525Y-87852154D01*
X187498306Y-87907648D01*
X187496916Y-87942346D01*
X187493251Y-87960601D01*
X187486210Y-87966766D01*
X187474690Y-87965195D01*
X187470233Y-87963878D01*
X187428355Y-87941382D01*
X187394604Y-87906003D01*
X187379773Y-87874780D01*
X187380668Y-87833301D01*
X187399164Y-87791269D01*
X187429786Y-87756012D01*
X187467062Y-87734854D01*
X187486542Y-87731852D01*
X187486542Y-87604100D01*
X187436229Y-87613690D01*
X187365191Y-87645698D01*
X187309779Y-87691701D01*
X187272009Y-87749821D01*
X187253896Y-87818180D01*
X187257457Y-87894898D01*
X187257457Y-87894898D01*
G37*
X187257457Y-87894898D02*
X187265279Y-87927096D01*
X187293921Y-87988825D01*
X187337667Y-88041610D01*
X187390117Y-88078141D01*
X187401893Y-88083160D01*
X187432740Y-88090045D01*
X187478371Y-88094864D01*
X187524492Y-88096505D01*
X187611693Y-88096505D01*
X187611693Y-87914178D01*
X187611978Y-87838979D01*
X187613704Y-87786003D01*
X187618181Y-87752325D01*
X187626720Y-87735020D01*
X187640630Y-87731163D01*
X187661222Y-87737829D01*
X187685315Y-87749770D01*
X187725525Y-87783080D01*
X187745558Y-87829368D01*
X187744905Y-87885944D01*
X187723101Y-87950031D01*
X187696193Y-88005417D01*
X187732532Y-88051375D01*
X187768872Y-88097333D01*
X187808819Y-88054096D01*
X187846563Y-87996374D01*
X187869320Y-87925386D01*
X187875688Y-87849029D01*
X187864268Y-87775199D01*
X187860393Y-87763287D01*
X187826506Y-87698399D01*
X187775986Y-87650130D01*
X187707325Y-87617465D01*
X187619014Y-87599385D01*
X187617121Y-87599175D01*
X187520878Y-87597556D01*
X187486542Y-87604100D01*
X187486542Y-87731852D01*
X187491822Y-87743584D01*
X187495867Y-87775438D01*
X187498176Y-87822397D01*
X187498525Y-87852154D01*
X187498306Y-87907648D01*
X187496916Y-87942346D01*
X187493251Y-87960601D01*
X187486210Y-87966766D01*
X187474690Y-87965195D01*
X187470233Y-87963878D01*
X187428355Y-87941382D01*
X187394604Y-87906003D01*
X187379773Y-87874780D01*
X187380668Y-87833301D01*
X187399164Y-87791269D01*
X187429786Y-87756012D01*
X187467062Y-87734854D01*
X187486542Y-87731852D01*
X187486542Y-87604100D01*
X187436229Y-87613690D01*
X187365191Y-87645698D01*
X187309779Y-87691701D01*
X187272009Y-87749821D01*
X187253896Y-87818180D01*
X187257457Y-87894898D01*
G36*
X187270002Y-84462988D02*
X187284950Y-84494283D01*
X187306541Y-84524591D01*
X187331391Y-84547682D01*
X187363087Y-84564500D01*
X187405214Y-84575994D01*
X187461358Y-84583109D01*
X187535106Y-84586793D01*
X187630044Y-84587992D01*
X187639985Y-84588011D01*
X187863179Y-84588287D01*
X187863179Y-84449970D01*
X187657418Y-84449970D01*
X187581189Y-84449872D01*
X187525939Y-84449191D01*
X187487501Y-84447349D01*
X187461706Y-84443767D01*
X187444384Y-84437868D01*
X187431368Y-84429073D01*
X187418507Y-84416820D01*
X187390873Y-84373953D01*
X187385745Y-84327157D01*
X187403217Y-84282576D01*
X187416221Y-84267072D01*
X187428447Y-84255690D01*
X187441540Y-84247519D01*
X187459615Y-84242026D01*
X187486787Y-84238680D01*
X187527170Y-84236949D01*
X187584879Y-84236303D01*
X187655132Y-84236208D01*
X187863179Y-84236208D01*
X187863179Y-84097891D01*
X187259614Y-84097891D01*
X187259614Y-84167050D01*
X187261256Y-84208572D01*
X187267087Y-84229994D01*
X187278461Y-84236205D01*
X187278798Y-84236208D01*
X187289938Y-84239090D01*
X187288674Y-84251801D01*
X187276434Y-84277074D01*
X187258424Y-84334395D01*
X187256421Y-84399963D01*
X187270002Y-84462988D01*
X187270002Y-84462988D01*
G37*
X187270002Y-84462988D02*
X187284950Y-84494283D01*
X187306541Y-84524591D01*
X187331391Y-84547682D01*
X187363087Y-84564500D01*
X187405214Y-84575994D01*
X187461358Y-84583109D01*
X187535106Y-84586793D01*
X187630044Y-84587992D01*
X187639985Y-84588011D01*
X187863179Y-84588287D01*
X187863179Y-84449970D01*
X187657418Y-84449970D01*
X187581189Y-84449872D01*
X187525939Y-84449191D01*
X187487501Y-84447349D01*
X187461706Y-84443767D01*
X187444384Y-84437868D01*
X187431368Y-84429073D01*
X187418507Y-84416820D01*
X187390873Y-84373953D01*
X187385745Y-84327157D01*
X187403217Y-84282576D01*
X187416221Y-84267072D01*
X187428447Y-84255690D01*
X187441540Y-84247519D01*
X187459615Y-84242026D01*
X187486787Y-84238680D01*
X187527170Y-84236949D01*
X187584879Y-84236303D01*
X187655132Y-84236208D01*
X187863179Y-84236208D01*
X187863179Y-84097891D01*
X187259614Y-84097891D01*
X187259614Y-84167050D01*
X187261256Y-84208572D01*
X187267087Y-84229994D01*
X187278461Y-84236205D01*
X187278798Y-84236208D01*
X187289938Y-84239090D01*
X187288674Y-84251801D01*
X187276434Y-84277074D01*
X187258424Y-84334395D01*
X187256421Y-84399963D01*
X187270002Y-84462988D01*
G36*
X187259030Y-87016460D02*
X187272245Y-87059711D01*
X187288941Y-87087558D01*
X187302145Y-87096629D01*
X187317797Y-87094132D01*
X187342385Y-87077931D01*
X187359800Y-87064232D01*
X187391283Y-87035992D01*
X187404529Y-87014775D01*
X187403664Y-86996688D01*
X187390010Y-86943035D01*
X187390630Y-86903630D01*
X187406104Y-86871632D01*
X187415161Y-86860890D01*
X187447027Y-86826505D01*
X187863179Y-86826505D01*
X187863179Y-86688188D01*
X187259614Y-86688188D01*
X187259614Y-86757347D01*
X187261256Y-86798869D01*
X187267087Y-86820291D01*
X187278461Y-86826502D01*
X187278798Y-86826505D01*
X187290713Y-86829439D01*
X187289159Y-86842704D01*
X187280563Y-86861084D01*
X187264568Y-86899046D01*
X187254945Y-86929872D01*
X187252478Y-86969536D01*
X187259030Y-87016460D01*
X187259030Y-87016460D01*
G37*
X187259030Y-87016460D02*
X187272245Y-87059711D01*
X187288941Y-87087558D01*
X187302145Y-87096629D01*
X187317797Y-87094132D01*
X187342385Y-87077931D01*
X187359800Y-87064232D01*
X187391283Y-87035992D01*
X187404529Y-87014775D01*
X187403664Y-86996688D01*
X187390010Y-86943035D01*
X187390630Y-86903630D01*
X187406104Y-86871632D01*
X187415161Y-86860890D01*
X187447027Y-86826505D01*
X187863179Y-86826505D01*
X187863179Y-86688188D01*
X187259614Y-86688188D01*
X187259614Y-86757347D01*
X187261256Y-86798869D01*
X187267087Y-86820291D01*
X187278461Y-86826502D01*
X187278798Y-86826505D01*
X187290713Y-86829439D01*
X187289159Y-86842704D01*
X187280563Y-86861084D01*
X187264568Y-86899046D01*
X187254945Y-86929872D01*
X187252478Y-86969536D01*
X187259030Y-87016460D01*
G36*
X183091018Y-85593964D02*
X183392570Y-85650812D01*
X183565512Y-86070338D01*
X183394395Y-86321984D01*
X183346750Y-86392458D01*
X183304210Y-86456163D01*
X183268715Y-86510126D01*
X183242210Y-86551373D01*
X183226636Y-86576934D01*
X183223278Y-86583895D01*
X183231914Y-86596435D01*
X183255792Y-86623231D01*
X183291859Y-86661280D01*
X183337067Y-86707579D01*
X183388364Y-86759123D01*
X183442701Y-86812909D01*
X183497028Y-86865935D01*
X183548295Y-86915195D01*
X183593451Y-86957687D01*
X183629446Y-86990407D01*
X183653230Y-87010351D01*
X183661190Y-87015119D01*
X183675865Y-87008257D01*
X183708014Y-86989020D01*
X183754492Y-86959430D01*
X183812156Y-86921510D01*
X183877860Y-86877282D01*
X183915336Y-86851654D01*
X183983768Y-86804941D01*
X184045520Y-86763432D01*
X184097519Y-86729140D01*
X184136692Y-86704080D01*
X184159965Y-86690264D01*
X184164855Y-86688188D01*
X184178755Y-86692895D01*
X184211150Y-86705723D01*
X184257485Y-86724738D01*
X184313206Y-86748003D01*
X184373758Y-86773584D01*
X184434586Y-86799545D01*
X184491136Y-86823950D01*
X184538852Y-86844863D01*
X184573181Y-86860349D01*
X184589568Y-86868472D01*
X184590212Y-86868952D01*
X184593341Y-86881707D01*
X184600321Y-86915677D01*
X184610467Y-86967340D01*
X184623092Y-87033176D01*
X184637509Y-87109664D01*
X184645823Y-87154290D01*
X184661384Y-87236021D01*
X184676192Y-87309843D01*
X184689436Y-87372021D01*
X184700305Y-87418822D01*
X184707989Y-87446509D01*
X184710427Y-87452074D01*
X184726930Y-87457526D01*
X184764200Y-87461924D01*
X184817880Y-87465272D01*
X184883612Y-87467574D01*
X184957037Y-87468832D01*
X185033796Y-87469048D01*
X185109532Y-87468227D01*
X185179886Y-87466371D01*
X185240500Y-87463482D01*
X185287016Y-87459565D01*
X185315075Y-87454622D01*
X185320916Y-87451657D01*
X185327917Y-87433934D01*
X185337927Y-87396381D01*
X185349769Y-87343964D01*
X185362267Y-87281652D01*
X185366310Y-87259900D01*
X185385520Y-87155024D01*
X185400991Y-87072180D01*
X185413337Y-87008630D01*
X185423173Y-86961637D01*
X185431114Y-86928463D01*
X185437776Y-86906371D01*
X185443773Y-86892624D01*
X185449719Y-86884484D01*
X185450894Y-86883345D01*
X185469826Y-86871977D01*
X185506669Y-86854635D01*
X185556913Y-86833050D01*
X185616046Y-86808954D01*
X185679556Y-86784079D01*
X185742932Y-86760157D01*
X185801662Y-86738919D01*
X185851235Y-86722097D01*
X185887139Y-86711422D01*
X185904862Y-86708627D01*
X185905483Y-86708860D01*
X185919970Y-86718331D01*
X185951844Y-86739818D01*
X185997789Y-86771063D01*
X186054485Y-86809807D01*
X186118617Y-86853793D01*
X186136842Y-86866319D01*
X186202914Y-86910984D01*
X186263200Y-86950288D01*
X186314235Y-86982088D01*
X186352560Y-87004245D01*
X186374711Y-87014617D01*
X186377432Y-87015119D01*
X186391736Y-87006405D01*
X186420072Y-86982325D01*
X186459396Y-86945976D01*
X186506661Y-86900453D01*
X186558823Y-86848852D01*
X186612835Y-86794267D01*
X186665653Y-86739794D01*
X186714231Y-86688529D01*
X186755523Y-86643567D01*
X186786485Y-86608004D01*
X186804070Y-86584935D01*
X186806941Y-86578554D01*
X186800178Y-86563699D01*
X186781939Y-86533286D01*
X186755297Y-86492268D01*
X186733852Y-86460709D01*
X186694503Y-86403525D01*
X186648171Y-86335806D01*
X186601913Y-86267880D01*
X186577155Y-86231361D01*
X186493547Y-86107752D01*
X186549650Y-86003991D01*
X186574228Y-85956720D01*
X186593331Y-85916523D01*
X186604227Y-85889326D01*
X186605743Y-85882402D01*
X186594549Y-85874077D01*
X186562917Y-85857654D01*
X186513765Y-85834357D01*
X186450010Y-85805414D01*
X186374571Y-85772050D01*
X186290364Y-85735491D01*
X186200308Y-85696964D01*
X186107321Y-85657694D01*
X186014320Y-85618908D01*
X185924223Y-85581830D01*
X185839948Y-85547689D01*
X185764413Y-85517708D01*
X185700534Y-85493116D01*
X185651231Y-85475136D01*
X185619421Y-85464997D01*
X185608496Y-85463366D01*
X185594561Y-85476291D01*
X185571940Y-85504589D01*
X185545333Y-85542346D01*
X185543228Y-85545515D01*
X185465114Y-85643100D01*
X185373982Y-85721786D01*
X185272745Y-85780891D01*
X185164318Y-85819732D01*
X185051614Y-85837628D01*
X184937548Y-85833897D01*
X184825034Y-85807857D01*
X184716985Y-85758825D01*
X184693345Y-85744400D01*
X184597887Y-85669369D01*
X184521232Y-85580730D01*
X184463780Y-85481549D01*
X184425929Y-85374895D01*
X184408078Y-85263836D01*
X184410625Y-85151439D01*
X184433970Y-85040773D01*
X184478510Y-84934906D01*
X184544645Y-84836905D01*
X184571487Y-84806590D01*
X184655512Y-84729438D01*
X184743966Y-84673218D01*
X184843115Y-84634653D01*
X184941303Y-84613174D01*
X185051697Y-84607872D01*
X185162640Y-84625552D01*
X185270381Y-84664419D01*
X185371169Y-84722677D01*
X185461256Y-84798531D01*
X185536892Y-84890183D01*
X185544864Y-84902228D01*
X185570974Y-84940389D01*
X185593595Y-84969399D01*
X185608039Y-84983268D01*
X185608496Y-84983469D01*
X185624121Y-84980492D01*
X185659582Y-84968689D01*
X185711962Y-84949286D01*
X185778345Y-84923512D01*
X185855814Y-84892591D01*
X185941450Y-84857751D01*
X186032337Y-84820217D01*
X186125559Y-84781217D01*
X186218197Y-84741977D01*
X186307335Y-84703724D01*
X186390055Y-84667683D01*
X186463441Y-84635083D01*
X186524575Y-84607148D01*
X186570541Y-84585105D01*
X186598421Y-84570182D01*
X186605743Y-84564172D01*
X186600041Y-84545809D01*
X186584749Y-84511448D01*
X186562599Y-84467016D01*
X186549650Y-84442583D01*
X186493547Y-84338822D01*
X186577155Y-84215213D01*
X186619987Y-84152114D01*
X186667122Y-84083030D01*
X186711503Y-84018293D01*
X186733852Y-83985866D01*
X186764477Y-83940259D01*
X186788747Y-83901640D01*
X186803587Y-83875048D01*
X186806724Y-83866410D01*
X186798261Y-83853839D01*
X186774636Y-83826016D01*
X186738302Y-83785639D01*
X186691711Y-83735405D01*
X186637317Y-83678012D01*
X186602392Y-83641714D01*
X186539996Y-83578210D01*
X186484188Y-83523327D01*
X186437354Y-83479286D01*
X186401882Y-83448305D01*
X186380161Y-83432602D01*
X186375752Y-83431095D01*
X186358985Y-83438086D01*
X186325082Y-83457406D01*
X186277476Y-83486909D01*
X186219599Y-83524455D01*
X186154884Y-83567900D01*
X186136842Y-83580255D01*
X186071267Y-83625273D01*
X186012228Y-83665660D01*
X185963042Y-83699160D01*
X185927028Y-83723514D01*
X185907502Y-83736464D01*
X185905483Y-83737715D01*
X185889922Y-83735844D01*
X185855709Y-83725913D01*
X185807355Y-83709653D01*
X185749371Y-83688795D01*
X185686270Y-83665073D01*
X185622563Y-83640216D01*
X185562761Y-83615958D01*
X185511376Y-83594029D01*
X185472919Y-83576162D01*
X185451902Y-83564087D01*
X185450894Y-83563229D01*
X185444888Y-83555846D01*
X185438948Y-83543375D01*
X185432460Y-83523080D01*
X185424809Y-83492222D01*
X185415380Y-83448066D01*
X185403559Y-83387874D01*
X185388729Y-83308907D01*
X185370277Y-83208430D01*
X185366310Y-83186675D01*
X185353853Y-83122198D01*
X185341666Y-83065989D01*
X185330926Y-83023013D01*
X185322809Y-82998240D01*
X185320916Y-82994918D01*
X185304138Y-82989444D01*
X185266645Y-82984994D01*
X185212794Y-82981572D01*
X185146944Y-82979181D01*
X185073453Y-82977823D01*
X184996680Y-82977501D01*
X184920983Y-82978219D01*
X184850720Y-82979979D01*
X184790250Y-82982784D01*
X184743930Y-82986638D01*
X184716119Y-82991543D01*
X184710427Y-82994500D01*
X184704686Y-83010963D01*
X184695345Y-83048449D01*
X184683215Y-83103225D01*
X184669107Y-83171555D01*
X184653830Y-83249706D01*
X184645823Y-83292284D01*
X184630721Y-83373071D01*
X184617040Y-83445113D01*
X184605467Y-83504889D01*
X184596687Y-83548879D01*
X184591387Y-83573561D01*
X184590212Y-83577623D01*
X184576965Y-83584489D01*
X184545057Y-83599002D01*
X184499047Y-83619229D01*
X184443492Y-83643234D01*
X184382953Y-83669082D01*
X184321986Y-83694840D01*
X184265151Y-83718573D01*
X184217006Y-83738346D01*
X184182110Y-83752224D01*
X184165021Y-83758274D01*
X184164274Y-83758386D01*
X184150793Y-83751528D01*
X184119770Y-83732302D01*
X184074289Y-83702728D01*
X184017432Y-83664827D01*
X183952283Y-83620620D01*
X183914862Y-83594921D01*
X183846247Y-83548093D01*
X183783952Y-83506501D01*
X183731129Y-83472175D01*
X183690927Y-83447143D01*
X183666500Y-83433435D01*
X183661024Y-83431456D01*
X183648278Y-83439966D01*
X183621063Y-83463493D01*
X183582428Y-83499032D01*
X183535423Y-83543577D01*
X183483095Y-83594123D01*
X183428495Y-83647664D01*
X183374670Y-83701195D01*
X183324670Y-83751711D01*
X183281543Y-83796206D01*
X183248339Y-83831675D01*
X183228106Y-83855113D01*
X183223278Y-83862954D01*
X183230067Y-83875720D01*
X183249142Y-83906256D01*
X183278561Y-83951590D01*
X183316381Y-84008756D01*
X183360661Y-84074784D01*
X183394395Y-84124590D01*
X183565512Y-84376236D01*
X183479041Y-84585999D01*
X183392570Y-84795763D01*
X183091018Y-84852611D01*
X182789466Y-84909460D01*
X182789466Y-85537115D01*
X183091018Y-85593964D01*
X183091018Y-85593964D01*
G37*
X183091018Y-85593964D02*
X183392570Y-85650812D01*
X183565512Y-86070338D01*
X183394395Y-86321984D01*
X183346750Y-86392458D01*
X183304210Y-86456163D01*
X183268715Y-86510126D01*
X183242210Y-86551373D01*
X183226636Y-86576934D01*
X183223278Y-86583895D01*
X183231914Y-86596435D01*
X183255792Y-86623231D01*
X183291859Y-86661280D01*
X183337067Y-86707579D01*
X183388364Y-86759123D01*
X183442701Y-86812909D01*
X183497028Y-86865935D01*
X183548295Y-86915195D01*
X183593451Y-86957687D01*
X183629446Y-86990407D01*
X183653230Y-87010351D01*
X183661190Y-87015119D01*
X183675865Y-87008257D01*
X183708014Y-86989020D01*
X183754492Y-86959430D01*
X183812156Y-86921510D01*
X183877860Y-86877282D01*
X183915336Y-86851654D01*
X183983768Y-86804941D01*
X184045520Y-86763432D01*
X184097519Y-86729140D01*
X184136692Y-86704080D01*
X184159965Y-86690264D01*
X184164855Y-86688188D01*
X184178755Y-86692895D01*
X184211150Y-86705723D01*
X184257485Y-86724738D01*
X184313206Y-86748003D01*
X184373758Y-86773584D01*
X184434586Y-86799545D01*
X184491136Y-86823950D01*
X184538852Y-86844863D01*
X184573181Y-86860349D01*
X184589568Y-86868472D01*
X184590212Y-86868952D01*
X184593341Y-86881707D01*
X184600321Y-86915677D01*
X184610467Y-86967340D01*
X184623092Y-87033176D01*
X184637509Y-87109664D01*
X184645823Y-87154290D01*
X184661384Y-87236021D01*
X184676192Y-87309843D01*
X184689436Y-87372021D01*
X184700305Y-87418822D01*
X184707989Y-87446509D01*
X184710427Y-87452074D01*
X184726930Y-87457526D01*
X184764200Y-87461924D01*
X184817880Y-87465272D01*
X184883612Y-87467574D01*
X184957037Y-87468832D01*
X185033796Y-87469048D01*
X185109532Y-87468227D01*
X185179886Y-87466371D01*
X185240500Y-87463482D01*
X185287016Y-87459565D01*
X185315075Y-87454622D01*
X185320916Y-87451657D01*
X185327917Y-87433934D01*
X185337927Y-87396381D01*
X185349769Y-87343964D01*
X185362267Y-87281652D01*
X185366310Y-87259900D01*
X185385520Y-87155024D01*
X185400991Y-87072180D01*
X185413337Y-87008630D01*
X185423173Y-86961637D01*
X185431114Y-86928463D01*
X185437776Y-86906371D01*
X185443773Y-86892624D01*
X185449719Y-86884484D01*
X185450894Y-86883345D01*
X185469826Y-86871977D01*
X185506669Y-86854635D01*
X185556913Y-86833050D01*
X185616046Y-86808954D01*
X185679556Y-86784079D01*
X185742932Y-86760157D01*
X185801662Y-86738919D01*
X185851235Y-86722097D01*
X185887139Y-86711422D01*
X185904862Y-86708627D01*
X185905483Y-86708860D01*
X185919970Y-86718331D01*
X185951844Y-86739818D01*
X185997789Y-86771063D01*
X186054485Y-86809807D01*
X186118617Y-86853793D01*
X186136842Y-86866319D01*
X186202914Y-86910984D01*
X186263200Y-86950288D01*
X186314235Y-86982088D01*
X186352560Y-87004245D01*
X186374711Y-87014617D01*
X186377432Y-87015119D01*
X186391736Y-87006405D01*
X186420072Y-86982325D01*
X186459396Y-86945976D01*
X186506661Y-86900453D01*
X186558823Y-86848852D01*
X186612835Y-86794267D01*
X186665653Y-86739794D01*
X186714231Y-86688529D01*
X186755523Y-86643567D01*
X186786485Y-86608004D01*
X186804070Y-86584935D01*
X186806941Y-86578554D01*
X186800178Y-86563699D01*
X186781939Y-86533286D01*
X186755297Y-86492268D01*
X186733852Y-86460709D01*
X186694503Y-86403525D01*
X186648171Y-86335806D01*
X186601913Y-86267880D01*
X186577155Y-86231361D01*
X186493547Y-86107752D01*
X186549650Y-86003991D01*
X186574228Y-85956720D01*
X186593331Y-85916523D01*
X186604227Y-85889326D01*
X186605743Y-85882402D01*
X186594549Y-85874077D01*
X186562917Y-85857654D01*
X186513765Y-85834357D01*
X186450010Y-85805414D01*
X186374571Y-85772050D01*
X186290364Y-85735491D01*
X186200308Y-85696964D01*
X186107321Y-85657694D01*
X186014320Y-85618908D01*
X185924223Y-85581830D01*
X185839948Y-85547689D01*
X185764413Y-85517708D01*
X185700534Y-85493116D01*
X185651231Y-85475136D01*
X185619421Y-85464997D01*
X185608496Y-85463366D01*
X185594561Y-85476291D01*
X185571940Y-85504589D01*
X185545333Y-85542346D01*
X185543228Y-85545515D01*
X185465114Y-85643100D01*
X185373982Y-85721786D01*
X185272745Y-85780891D01*
X185164318Y-85819732D01*
X185051614Y-85837628D01*
X184937548Y-85833897D01*
X184825034Y-85807857D01*
X184716985Y-85758825D01*
X184693345Y-85744400D01*
X184597887Y-85669369D01*
X184521232Y-85580730D01*
X184463780Y-85481549D01*
X184425929Y-85374895D01*
X184408078Y-85263836D01*
X184410625Y-85151439D01*
X184433970Y-85040773D01*
X184478510Y-84934906D01*
X184544645Y-84836905D01*
X184571487Y-84806590D01*
X184655512Y-84729438D01*
X184743966Y-84673218D01*
X184843115Y-84634653D01*
X184941303Y-84613174D01*
X185051697Y-84607872D01*
X185162640Y-84625552D01*
X185270381Y-84664419D01*
X185371169Y-84722677D01*
X185461256Y-84798531D01*
X185536892Y-84890183D01*
X185544864Y-84902228D01*
X185570974Y-84940389D01*
X185593595Y-84969399D01*
X185608039Y-84983268D01*
X185608496Y-84983469D01*
X185624121Y-84980492D01*
X185659582Y-84968689D01*
X185711962Y-84949286D01*
X185778345Y-84923512D01*
X185855814Y-84892591D01*
X185941450Y-84857751D01*
X186032337Y-84820217D01*
X186125559Y-84781217D01*
X186218197Y-84741977D01*
X186307335Y-84703724D01*
X186390055Y-84667683D01*
X186463441Y-84635083D01*
X186524575Y-84607148D01*
X186570541Y-84585105D01*
X186598421Y-84570182D01*
X186605743Y-84564172D01*
X186600041Y-84545809D01*
X186584749Y-84511448D01*
X186562599Y-84467016D01*
X186549650Y-84442583D01*
X186493547Y-84338822D01*
X186577155Y-84215213D01*
X186619987Y-84152114D01*
X186667122Y-84083030D01*
X186711503Y-84018293D01*
X186733852Y-83985866D01*
X186764477Y-83940259D01*
X186788747Y-83901640D01*
X186803587Y-83875048D01*
X186806724Y-83866410D01*
X186798261Y-83853839D01*
X186774636Y-83826016D01*
X186738302Y-83785639D01*
X186691711Y-83735405D01*
X186637317Y-83678012D01*
X186602392Y-83641714D01*
X186539996Y-83578210D01*
X186484188Y-83523327D01*
X186437354Y-83479286D01*
X186401882Y-83448305D01*
X186380161Y-83432602D01*
X186375752Y-83431095D01*
X186358985Y-83438086D01*
X186325082Y-83457406D01*
X186277476Y-83486909D01*
X186219599Y-83524455D01*
X186154884Y-83567900D01*
X186136842Y-83580255D01*
X186071267Y-83625273D01*
X186012228Y-83665660D01*
X185963042Y-83699160D01*
X185927028Y-83723514D01*
X185907502Y-83736464D01*
X185905483Y-83737715D01*
X185889922Y-83735844D01*
X185855709Y-83725913D01*
X185807355Y-83709653D01*
X185749371Y-83688795D01*
X185686270Y-83665073D01*
X185622563Y-83640216D01*
X185562761Y-83615958D01*
X185511376Y-83594029D01*
X185472919Y-83576162D01*
X185451902Y-83564087D01*
X185450894Y-83563229D01*
X185444888Y-83555846D01*
X185438948Y-83543375D01*
X185432460Y-83523080D01*
X185424809Y-83492222D01*
X185415380Y-83448066D01*
X185403559Y-83387874D01*
X185388729Y-83308907D01*
X185370277Y-83208430D01*
X185366310Y-83186675D01*
X185353853Y-83122198D01*
X185341666Y-83065989D01*
X185330926Y-83023013D01*
X185322809Y-82998240D01*
X185320916Y-82994918D01*
X185304138Y-82989444D01*
X185266645Y-82984994D01*
X185212794Y-82981572D01*
X185146944Y-82979181D01*
X185073453Y-82977823D01*
X184996680Y-82977501D01*
X184920983Y-82978219D01*
X184850720Y-82979979D01*
X184790250Y-82982784D01*
X184743930Y-82986638D01*
X184716119Y-82991543D01*
X184710427Y-82994500D01*
X184704686Y-83010963D01*
X184695345Y-83048449D01*
X184683215Y-83103225D01*
X184669107Y-83171555D01*
X184653830Y-83249706D01*
X184645823Y-83292284D01*
X184630721Y-83373071D01*
X184617040Y-83445113D01*
X184605467Y-83504889D01*
X184596687Y-83548879D01*
X184591387Y-83573561D01*
X184590212Y-83577623D01*
X184576965Y-83584489D01*
X184545057Y-83599002D01*
X184499047Y-83619229D01*
X184443492Y-83643234D01*
X184382953Y-83669082D01*
X184321986Y-83694840D01*
X184265151Y-83718573D01*
X184217006Y-83738346D01*
X184182110Y-83752224D01*
X184165021Y-83758274D01*
X184164274Y-83758386D01*
X184150793Y-83751528D01*
X184119770Y-83732302D01*
X184074289Y-83702728D01*
X184017432Y-83664827D01*
X183952283Y-83620620D01*
X183914862Y-83594921D01*
X183846247Y-83548093D01*
X183783952Y-83506501D01*
X183731129Y-83472175D01*
X183690927Y-83447143D01*
X183666500Y-83433435D01*
X183661024Y-83431456D01*
X183648278Y-83439966D01*
X183621063Y-83463493D01*
X183582428Y-83499032D01*
X183535423Y-83543577D01*
X183483095Y-83594123D01*
X183428495Y-83647664D01*
X183374670Y-83701195D01*
X183324670Y-83751711D01*
X183281543Y-83796206D01*
X183248339Y-83831675D01*
X183228106Y-83855113D01*
X183223278Y-83862954D01*
X183230067Y-83875720D01*
X183249142Y-83906256D01*
X183278561Y-83951590D01*
X183316381Y-84008756D01*
X183360661Y-84074784D01*
X183394395Y-84124590D01*
X183565512Y-84376236D01*
X183479041Y-84585999D01*
X183392570Y-84795763D01*
X183091018Y-84852611D01*
X182789466Y-84909460D01*
X182789466Y-85537115D01*
X183091018Y-85593964D01*
D16*
X166596786Y-75459167D02*
X166627024Y-75428929D01*
X166657262Y-75338214D01*
X166657262Y-75277738D01*
X166627024Y-75187024D01*
X166566548Y-75126548D01*
X166506071Y-75096309D01*
X166385119Y-75066071D01*
X166294405Y-75066071D01*
X166173452Y-75096309D01*
X166112976Y-75126548D01*
X166052500Y-75187024D01*
X166022262Y-75277738D01*
X166022262Y-75338214D01*
X166052500Y-75428929D01*
X166082738Y-75459167D01*
X166657262Y-76063929D02*
X166657262Y-75701071D01*
X166657262Y-75882500D02*
X166022262Y-75882500D01*
X166112976Y-75822024D01*
X166173452Y-75761548D01*
X166203690Y-75701071D01*
X167866786Y-75459167D02*
X167897024Y-75428929D01*
X167927262Y-75338214D01*
X167927262Y-75277738D01*
X167897024Y-75187024D01*
X167836548Y-75126548D01*
X167776071Y-75096309D01*
X167655119Y-75066071D01*
X167564405Y-75066071D01*
X167443452Y-75096309D01*
X167382976Y-75126548D01*
X167322500Y-75187024D01*
X167292262Y-75277738D01*
X167292262Y-75338214D01*
X167322500Y-75428929D01*
X167352738Y-75459167D01*
X167352738Y-75701071D02*
X167322500Y-75731309D01*
X167292262Y-75791786D01*
X167292262Y-75942976D01*
X167322500Y-76003452D01*
X167352738Y-76033690D01*
X167413214Y-76063929D01*
X167473690Y-76063929D01*
X167564405Y-76033690D01*
X167927262Y-75670833D01*
X167927262Y-76063929D01*
X167866786Y-83333167D02*
X167897024Y-83302929D01*
X167927262Y-83212214D01*
X167927262Y-83151738D01*
X167897024Y-83061024D01*
X167836548Y-83000548D01*
X167776071Y-82970309D01*
X167655119Y-82940071D01*
X167564405Y-82940071D01*
X167443452Y-82970309D01*
X167382976Y-83000548D01*
X167322500Y-83061024D01*
X167292262Y-83151738D01*
X167292262Y-83212214D01*
X167322500Y-83302929D01*
X167352738Y-83333167D01*
X167292262Y-83544833D02*
X167292262Y-83937929D01*
X167534167Y-83726262D01*
X167534167Y-83816976D01*
X167564405Y-83877452D01*
X167594643Y-83907690D01*
X167655119Y-83937929D01*
X167806310Y-83937929D01*
X167866786Y-83907690D01*
X167897024Y-83877452D01*
X167927262Y-83816976D01*
X167927262Y-83635548D01*
X167897024Y-83575071D01*
X167866786Y-83544833D01*
X166342786Y-83333167D02*
X166373024Y-83302929D01*
X166403262Y-83212214D01*
X166403262Y-83151738D01*
X166373024Y-83061024D01*
X166312548Y-83000548D01*
X166252071Y-82970309D01*
X166131119Y-82940071D01*
X166040405Y-82940071D01*
X165919452Y-82970309D01*
X165858976Y-83000548D01*
X165798500Y-83061024D01*
X165768262Y-83151738D01*
X165768262Y-83212214D01*
X165798500Y-83302929D01*
X165828738Y-83333167D01*
X165979929Y-83877452D02*
X166403262Y-83877452D01*
X165738024Y-83726262D02*
X166191595Y-83575071D01*
X166191595Y-83968167D01*
X162157833Y-100556786D02*
X162188071Y-100587024D01*
X162278786Y-100617262D01*
X162339262Y-100617262D01*
X162429976Y-100587024D01*
X162490452Y-100526548D01*
X162520691Y-100466071D01*
X162550929Y-100345119D01*
X162550929Y-100254405D01*
X162520691Y-100133452D01*
X162490452Y-100072976D01*
X162429976Y-100012500D01*
X162339262Y-99982262D01*
X162278786Y-99982262D01*
X162188071Y-100012500D01*
X162157833Y-100042738D01*
X161583310Y-99982262D02*
X161885691Y-99982262D01*
X161915929Y-100284643D01*
X161885691Y-100254405D01*
X161825214Y-100224167D01*
X161674024Y-100224167D01*
X161613548Y-100254405D01*
X161583310Y-100284643D01*
X161553071Y-100345119D01*
X161553071Y-100496310D01*
X161583310Y-100556786D01*
X161613548Y-100587024D01*
X161674024Y-100617262D01*
X161825214Y-100617262D01*
X161885691Y-100587024D01*
X161915929Y-100556786D01*
X162157833Y-99286786D02*
X162188071Y-99317024D01*
X162278786Y-99347262D01*
X162339262Y-99347262D01*
X162429976Y-99317024D01*
X162490452Y-99256548D01*
X162520691Y-99196071D01*
X162550929Y-99075119D01*
X162550929Y-98984405D01*
X162520691Y-98863452D01*
X162490452Y-98802976D01*
X162429976Y-98742500D01*
X162339262Y-98712262D01*
X162278786Y-98712262D01*
X162188071Y-98742500D01*
X162157833Y-98772738D01*
X161613548Y-98712262D02*
X161734500Y-98712262D01*
X161794976Y-98742500D01*
X161825214Y-98772738D01*
X161885691Y-98863452D01*
X161915929Y-98984405D01*
X161915929Y-99226310D01*
X161885691Y-99286786D01*
X161855452Y-99317024D01*
X161794976Y-99347262D01*
X161674024Y-99347262D01*
X161613548Y-99317024D01*
X161583310Y-99286786D01*
X161553071Y-99226310D01*
X161553071Y-99075119D01*
X161583310Y-99014643D01*
X161613548Y-98984405D01*
X161674024Y-98954167D01*
X161794976Y-98954167D01*
X161855452Y-98984405D01*
X161885691Y-99014643D01*
X161915929Y-99075119D01*
X162157833Y-98016786D02*
X162188071Y-98047024D01*
X162278786Y-98077262D01*
X162339262Y-98077262D01*
X162429976Y-98047024D01*
X162490452Y-97986548D01*
X162520691Y-97926071D01*
X162550929Y-97805119D01*
X162550929Y-97714405D01*
X162520691Y-97593452D01*
X162490452Y-97532976D01*
X162429976Y-97472500D01*
X162339262Y-97442262D01*
X162278786Y-97442262D01*
X162188071Y-97472500D01*
X162157833Y-97502738D01*
X161946167Y-97442262D02*
X161522833Y-97442262D01*
X161794976Y-98077262D01*
X162157833Y-96746786D02*
X162188071Y-96777024D01*
X162278786Y-96807262D01*
X162339262Y-96807262D01*
X162429976Y-96777024D01*
X162490452Y-96716548D01*
X162520691Y-96656071D01*
X162550929Y-96535119D01*
X162550929Y-96444405D01*
X162520691Y-96323452D01*
X162490452Y-96262976D01*
X162429976Y-96202500D01*
X162339262Y-96172262D01*
X162278786Y-96172262D01*
X162188071Y-96202500D01*
X162157833Y-96232738D01*
X161794976Y-96444405D02*
X161855452Y-96414167D01*
X161885691Y-96383929D01*
X161915929Y-96323452D01*
X161915929Y-96293214D01*
X161885691Y-96232738D01*
X161855452Y-96202500D01*
X161794976Y-96172262D01*
X161674024Y-96172262D01*
X161613548Y-96202500D01*
X161583310Y-96232738D01*
X161553071Y-96293214D01*
X161553071Y-96323452D01*
X161583310Y-96383929D01*
X161613548Y-96414167D01*
X161674024Y-96444405D01*
X161794976Y-96444405D01*
X161855452Y-96474643D01*
X161885691Y-96504881D01*
X161915929Y-96565357D01*
X161915929Y-96686310D01*
X161885691Y-96746786D01*
X161855452Y-96777024D01*
X161794976Y-96807262D01*
X161674024Y-96807262D01*
X161613548Y-96777024D01*
X161583310Y-96746786D01*
X161553071Y-96686310D01*
X161553071Y-96565357D01*
X161583310Y-96504881D01*
X161613548Y-96474643D01*
X161674024Y-96444405D01*
X162157833Y-95476786D02*
X162188071Y-95507024D01*
X162278786Y-95537262D01*
X162339262Y-95537262D01*
X162429976Y-95507024D01*
X162490452Y-95446548D01*
X162520691Y-95386071D01*
X162550929Y-95265119D01*
X162550929Y-95174405D01*
X162520691Y-95053452D01*
X162490452Y-94992976D01*
X162429976Y-94932500D01*
X162339262Y-94902262D01*
X162278786Y-94902262D01*
X162188071Y-94932500D01*
X162157833Y-94962738D01*
X161855452Y-95537262D02*
X161734500Y-95537262D01*
X161674024Y-95507024D01*
X161643786Y-95476786D01*
X161583310Y-95386071D01*
X161553071Y-95265119D01*
X161553071Y-95023214D01*
X161583310Y-94962738D01*
X161613548Y-94932500D01*
X161674024Y-94902262D01*
X161794976Y-94902262D01*
X161855452Y-94932500D01*
X161885691Y-94962738D01*
X161915929Y-95023214D01*
X161915929Y-95174405D01*
X161885691Y-95234881D01*
X161855452Y-95265119D01*
X161794976Y-95295357D01*
X161674024Y-95295357D01*
X161613548Y-95265119D01*
X161583310Y-95234881D01*
X161553071Y-95174405D01*
X162206214Y-94206786D02*
X162236452Y-94237024D01*
X162327167Y-94267262D01*
X162387643Y-94267262D01*
X162478357Y-94237024D01*
X162538833Y-94176548D01*
X162569072Y-94116071D01*
X162599310Y-93995119D01*
X162599310Y-93904405D01*
X162569072Y-93783452D01*
X162538833Y-93722976D01*
X162478357Y-93662500D01*
X162387643Y-93632262D01*
X162327167Y-93632262D01*
X162236452Y-93662500D01*
X162206214Y-93692738D01*
X161601452Y-94267262D02*
X161964310Y-94267262D01*
X161782881Y-94267262D02*
X161782881Y-93632262D01*
X161843357Y-93722976D01*
X161903833Y-93783452D01*
X161964310Y-93813690D01*
X161208357Y-93632262D02*
X161147881Y-93632262D01*
X161087405Y-93662500D01*
X161057167Y-93692738D01*
X161026929Y-93753214D01*
X160996690Y-93874167D01*
X160996690Y-94025357D01*
X161026929Y-94146310D01*
X161057167Y-94206786D01*
X161087405Y-94237024D01*
X161147881Y-94267262D01*
X161208357Y-94267262D01*
X161268833Y-94237024D01*
X161299071Y-94206786D01*
X161329310Y-94146310D01*
X161359548Y-94025357D01*
X161359548Y-93874167D01*
X161329310Y-93753214D01*
X161299071Y-93692738D01*
X161268833Y-93662500D01*
X161208357Y-93632262D01*
X162206214Y-92936786D02*
X162236452Y-92967024D01*
X162327167Y-92997262D01*
X162387643Y-92997262D01*
X162478357Y-92967024D01*
X162538833Y-92906548D01*
X162569072Y-92846071D01*
X162599310Y-92725119D01*
X162599310Y-92634405D01*
X162569072Y-92513452D01*
X162538833Y-92452976D01*
X162478357Y-92392500D01*
X162387643Y-92362262D01*
X162327167Y-92362262D01*
X162236452Y-92392500D01*
X162206214Y-92422738D01*
X161601452Y-92997262D02*
X161964310Y-92997262D01*
X161782881Y-92997262D02*
X161782881Y-92362262D01*
X161843357Y-92452976D01*
X161903833Y-92513452D01*
X161964310Y-92543690D01*
X160996690Y-92997262D02*
X161359548Y-92997262D01*
X161178119Y-92997262D02*
X161178119Y-92362262D01*
X161238595Y-92452976D01*
X161299071Y-92513452D01*
X161359548Y-92543690D01*
X162206214Y-91666786D02*
X162236452Y-91697024D01*
X162327167Y-91727262D01*
X162387643Y-91727262D01*
X162478357Y-91697024D01*
X162538833Y-91636548D01*
X162569072Y-91576071D01*
X162599310Y-91455119D01*
X162599310Y-91364405D01*
X162569072Y-91243452D01*
X162538833Y-91182976D01*
X162478357Y-91122500D01*
X162387643Y-91092262D01*
X162327167Y-91092262D01*
X162236452Y-91122500D01*
X162206214Y-91152738D01*
X161601452Y-91727262D02*
X161964310Y-91727262D01*
X161782881Y-91727262D02*
X161782881Y-91092262D01*
X161843357Y-91182976D01*
X161903833Y-91243452D01*
X161964310Y-91273690D01*
X161359548Y-91152738D02*
X161329310Y-91122500D01*
X161268833Y-91092262D01*
X161117643Y-91092262D01*
X161057167Y-91122500D01*
X161026929Y-91152738D01*
X160996690Y-91213214D01*
X160996690Y-91273690D01*
X161026929Y-91364405D01*
X161389786Y-91727262D01*
X160996690Y-91727262D01*
X160373786Y-66266786D02*
X160404024Y-66236548D01*
X160434262Y-66145833D01*
X160434262Y-66085357D01*
X160404024Y-65994643D01*
X160343548Y-65934167D01*
X160283071Y-65903928D01*
X160162119Y-65873690D01*
X160071405Y-65873690D01*
X159950452Y-65903928D01*
X159889976Y-65934167D01*
X159829500Y-65994643D01*
X159799262Y-66085357D01*
X159799262Y-66145833D01*
X159829500Y-66236548D01*
X159859738Y-66266786D01*
X160434262Y-66871548D02*
X160434262Y-66508690D01*
X160434262Y-66690119D02*
X159799262Y-66690119D01*
X159889976Y-66629643D01*
X159950452Y-66569167D01*
X159980690Y-66508690D01*
X159799262Y-67083214D02*
X159799262Y-67476310D01*
X160041167Y-67264643D01*
X160041167Y-67355357D01*
X160071405Y-67415833D01*
X160101643Y-67446071D01*
X160162119Y-67476310D01*
X160313310Y-67476310D01*
X160373786Y-67446071D01*
X160404024Y-67415833D01*
X160434262Y-67355357D01*
X160434262Y-67173929D01*
X160404024Y-67113452D01*
X160373786Y-67083214D01*
X139854214Y-79728786D02*
X139884452Y-79759024D01*
X139975167Y-79789262D01*
X140035643Y-79789262D01*
X140126357Y-79759024D01*
X140186833Y-79698548D01*
X140217072Y-79638071D01*
X140247310Y-79517119D01*
X140247310Y-79426405D01*
X140217072Y-79305452D01*
X140186833Y-79244976D01*
X140126357Y-79184500D01*
X140035643Y-79154262D01*
X139975167Y-79154262D01*
X139884452Y-79184500D01*
X139854214Y-79214738D01*
X139249452Y-79789262D02*
X139612310Y-79789262D01*
X139430881Y-79789262D02*
X139430881Y-79154262D01*
X139491357Y-79244976D01*
X139551833Y-79305452D01*
X139612310Y-79335690D01*
X138705167Y-79365929D02*
X138705167Y-79789262D01*
X138856357Y-79124024D02*
X139007548Y-79577595D01*
X138614452Y-79577595D01*
X142720786Y-82776786D02*
X142751024Y-82746548D01*
X142781262Y-82655833D01*
X142781262Y-82595357D01*
X142751024Y-82504643D01*
X142690548Y-82444167D01*
X142630071Y-82413928D01*
X142509119Y-82383690D01*
X142418405Y-82383690D01*
X142297452Y-82413928D01*
X142236976Y-82444167D01*
X142176500Y-82504643D01*
X142146262Y-82595357D01*
X142146262Y-82655833D01*
X142176500Y-82746548D01*
X142206738Y-82776786D01*
X142781262Y-83381548D02*
X142781262Y-83018690D01*
X142781262Y-83200119D02*
X142146262Y-83200119D01*
X142236976Y-83139643D01*
X142297452Y-83079167D01*
X142327690Y-83018690D01*
X142146262Y-83925833D02*
X142146262Y-83804881D01*
X142176500Y-83744405D01*
X142206738Y-83714167D01*
X142297452Y-83653690D01*
X142418405Y-83623452D01*
X142660310Y-83623452D01*
X142720786Y-83653690D01*
X142751024Y-83683929D01*
X142781262Y-83744405D01*
X142781262Y-83865357D01*
X142751024Y-83925833D01*
X142720786Y-83956071D01*
X142660310Y-83986310D01*
X142509119Y-83986310D01*
X142448643Y-83956071D01*
X142418405Y-83925833D01*
X142388167Y-83865357D01*
X142388167Y-83744405D01*
X142418405Y-83683929D01*
X142448643Y-83653690D01*
X142509119Y-83623452D01*
X144244786Y-82776786D02*
X144275024Y-82746548D01*
X144305262Y-82655833D01*
X144305262Y-82595357D01*
X144275024Y-82504643D01*
X144214548Y-82444167D01*
X144154071Y-82413928D01*
X144033119Y-82383690D01*
X143942405Y-82383690D01*
X143821452Y-82413928D01*
X143760976Y-82444167D01*
X143700500Y-82504643D01*
X143670262Y-82595357D01*
X143670262Y-82655833D01*
X143700500Y-82746548D01*
X143730738Y-82776786D01*
X144305262Y-83381548D02*
X144305262Y-83018690D01*
X144305262Y-83200119D02*
X143670262Y-83200119D01*
X143760976Y-83139643D01*
X143821452Y-83079167D01*
X143851690Y-83018690D01*
X143670262Y-83593214D02*
X143670262Y-84016548D01*
X144305262Y-83744405D01*
X147673786Y-85189786D02*
X147704024Y-85159548D01*
X147734262Y-85068833D01*
X147734262Y-85008357D01*
X147704024Y-84917643D01*
X147643548Y-84857167D01*
X147583071Y-84826928D01*
X147462119Y-84796690D01*
X147371405Y-84796690D01*
X147250452Y-84826928D01*
X147189976Y-84857167D01*
X147129500Y-84917643D01*
X147099262Y-85008357D01*
X147099262Y-85068833D01*
X147129500Y-85159548D01*
X147159738Y-85189786D01*
X147734262Y-85794548D02*
X147734262Y-85431690D01*
X147734262Y-85613119D02*
X147099262Y-85613119D01*
X147189976Y-85552643D01*
X147250452Y-85492167D01*
X147280690Y-85431690D01*
X147371405Y-86157405D02*
X147341167Y-86096929D01*
X147310929Y-86066690D01*
X147250452Y-86036452D01*
X147220214Y-86036452D01*
X147159738Y-86066690D01*
X147129500Y-86096929D01*
X147099262Y-86157405D01*
X147099262Y-86278357D01*
X147129500Y-86338833D01*
X147159738Y-86369071D01*
X147220214Y-86399310D01*
X147250452Y-86399310D01*
X147310929Y-86369071D01*
X147341167Y-86338833D01*
X147371405Y-86278357D01*
X147371405Y-86157405D01*
X147401643Y-86096929D01*
X147431881Y-86066690D01*
X147492357Y-86036452D01*
X147613310Y-86036452D01*
X147673786Y-86066690D01*
X147704024Y-86096929D01*
X147734262Y-86157405D01*
X147734262Y-86278357D01*
X147704024Y-86338833D01*
X147673786Y-86369071D01*
X147613310Y-86399310D01*
X147492357Y-86399310D01*
X147431881Y-86369071D01*
X147401643Y-86338833D01*
X147371405Y-86278357D01*
X134139214Y-78712786D02*
X134169452Y-78743024D01*
X134260167Y-78773262D01*
X134320643Y-78773262D01*
X134411357Y-78743024D01*
X134471833Y-78682548D01*
X134502072Y-78622071D01*
X134532310Y-78501119D01*
X134532310Y-78410405D01*
X134502072Y-78289452D01*
X134471833Y-78228976D01*
X134411357Y-78168500D01*
X134320643Y-78138262D01*
X134260167Y-78138262D01*
X134169452Y-78168500D01*
X134139214Y-78198738D01*
X133534452Y-78773262D02*
X133897310Y-78773262D01*
X133715881Y-78773262D02*
X133715881Y-78138262D01*
X133776357Y-78228976D01*
X133836833Y-78289452D01*
X133897310Y-78319690D01*
X133232071Y-78773262D02*
X133111119Y-78773262D01*
X133050643Y-78743024D01*
X133020405Y-78712786D01*
X132959929Y-78622071D01*
X132929690Y-78501119D01*
X132929690Y-78259214D01*
X132959929Y-78198738D01*
X132990167Y-78168500D01*
X133050643Y-78138262D01*
X133171595Y-78138262D01*
X133232071Y-78168500D01*
X133262310Y-78198738D01*
X133292548Y-78259214D01*
X133292548Y-78410405D01*
X133262310Y-78470881D01*
X133232071Y-78501119D01*
X133171595Y-78531357D01*
X133050643Y-78531357D01*
X132990167Y-78501119D01*
X132959929Y-78470881D01*
X132929690Y-78410405D01*
X161628667Y-70772262D02*
X161628667Y-71225833D01*
X161658905Y-71316548D01*
X161719381Y-71377024D01*
X161810096Y-71407262D01*
X161870572Y-71407262D01*
X160993666Y-71407262D02*
X161356524Y-71407262D01*
X161175095Y-71407262D02*
X161175095Y-70772262D01*
X161235571Y-70862976D01*
X161296047Y-70923452D01*
X161356524Y-70953690D01*
X153373667Y-67978262D02*
X153373667Y-68431833D01*
X153403905Y-68522548D01*
X153464381Y-68583024D01*
X153555096Y-68613262D01*
X153615572Y-68613262D01*
X152799143Y-68189929D02*
X152799143Y-68613262D01*
X152950333Y-67948024D02*
X153101524Y-68401595D01*
X152708428Y-68401595D01*
X170412834Y-80932262D02*
X170715215Y-80932262D01*
X170715215Y-80297262D01*
X169868547Y-80932262D02*
X170231405Y-80932262D01*
X170049976Y-80932262D02*
X170049976Y-80297262D01*
X170110452Y-80387976D01*
X170170928Y-80448452D01*
X170231405Y-80478690D01*
X142400262Y-88421568D02*
X142400262Y-88119187D01*
X141765262Y-88119187D01*
X141825738Y-88602997D02*
X141795500Y-88633235D01*
X141765262Y-88693712D01*
X141765262Y-88844902D01*
X141795500Y-88905378D01*
X141825738Y-88935616D01*
X141886214Y-88965855D01*
X141946690Y-88965855D01*
X142037405Y-88935616D01*
X142400262Y-88572759D01*
X142400262Y-88965855D01*
X168507833Y-100744262D02*
X168719500Y-100441881D01*
X168870691Y-100744262D02*
X168870691Y-100109262D01*
X168628786Y-100109262D01*
X168568310Y-100139500D01*
X168538071Y-100169738D01*
X168507833Y-100230214D01*
X168507833Y-100320929D01*
X168538071Y-100381405D01*
X168568310Y-100411643D01*
X168628786Y-100441881D01*
X168870691Y-100441881D01*
X167903071Y-100744262D02*
X168265929Y-100744262D01*
X168084500Y-100744262D02*
X168084500Y-100109262D01*
X168144976Y-100199976D01*
X168205452Y-100260452D01*
X168265929Y-100290690D01*
X173261262Y-77052167D02*
X172958881Y-76840500D01*
X173261262Y-76689309D02*
X172626262Y-76689309D01*
X172626262Y-76931214D01*
X172656500Y-76991690D01*
X172686738Y-77021929D01*
X172747214Y-77052167D01*
X172837929Y-77052167D01*
X172898405Y-77021929D01*
X172928643Y-76991690D01*
X172958881Y-76931214D01*
X172958881Y-76689309D01*
X172686738Y-77294071D02*
X172656500Y-77324309D01*
X172626262Y-77384786D01*
X172626262Y-77535976D01*
X172656500Y-77596452D01*
X172686738Y-77626690D01*
X172747214Y-77656929D01*
X172807690Y-77656929D01*
X172898405Y-77626690D01*
X173261262Y-77263833D01*
X173261262Y-77656929D01*
X168507833Y-99347262D02*
X168719500Y-99044881D01*
X168870691Y-99347262D02*
X168870691Y-98712262D01*
X168628786Y-98712262D01*
X168568310Y-98742500D01*
X168538071Y-98772738D01*
X168507833Y-98833214D01*
X168507833Y-98923929D01*
X168538071Y-98984405D01*
X168568310Y-99014643D01*
X168628786Y-99044881D01*
X168870691Y-99044881D01*
X168296167Y-98712262D02*
X167903071Y-98712262D01*
X168114738Y-98954167D01*
X168024024Y-98954167D01*
X167963548Y-98984405D01*
X167933310Y-99014643D01*
X167903071Y-99075119D01*
X167903071Y-99226310D01*
X167933310Y-99286786D01*
X167963548Y-99317024D01*
X168024024Y-99347262D01*
X168205452Y-99347262D01*
X168265929Y-99317024D01*
X168296167Y-99286786D01*
X170285833Y-76868262D02*
X170497500Y-76565881D01*
X170648691Y-76868262D02*
X170648691Y-76233262D01*
X170406786Y-76233262D01*
X170346310Y-76263500D01*
X170316071Y-76293738D01*
X170285833Y-76354214D01*
X170285833Y-76444929D01*
X170316071Y-76505405D01*
X170346310Y-76535643D01*
X170406786Y-76565881D01*
X170648691Y-76565881D01*
X169741548Y-76444929D02*
X169741548Y-76868262D01*
X169892738Y-76203024D02*
X170043929Y-76656595D01*
X169650833Y-76656595D01*
X168507833Y-98077262D02*
X168719500Y-97774881D01*
X168870691Y-98077262D02*
X168870691Y-97442262D01*
X168628786Y-97442262D01*
X168568310Y-97472500D01*
X168538071Y-97502738D01*
X168507833Y-97563214D01*
X168507833Y-97653929D01*
X168538071Y-97714405D01*
X168568310Y-97744643D01*
X168628786Y-97774881D01*
X168870691Y-97774881D01*
X167933310Y-97442262D02*
X168235691Y-97442262D01*
X168265929Y-97744643D01*
X168235691Y-97714405D01*
X168175214Y-97684167D01*
X168024024Y-97684167D01*
X167963548Y-97714405D01*
X167933310Y-97744643D01*
X167903071Y-97805119D01*
X167903071Y-97956310D01*
X167933310Y-98016786D01*
X167963548Y-98047024D01*
X168024024Y-98077262D01*
X168175214Y-98077262D01*
X168235691Y-98047024D01*
X168265929Y-98016786D01*
X168507833Y-96807262D02*
X168719500Y-96504881D01*
X168870691Y-96807262D02*
X168870691Y-96172262D01*
X168628786Y-96172262D01*
X168568310Y-96202500D01*
X168538071Y-96232738D01*
X168507833Y-96293214D01*
X168507833Y-96383929D01*
X168538071Y-96444405D01*
X168568310Y-96474643D01*
X168628786Y-96504881D01*
X168870691Y-96504881D01*
X167963548Y-96172262D02*
X168084500Y-96172262D01*
X168144976Y-96202500D01*
X168175214Y-96232738D01*
X168235691Y-96323452D01*
X168265929Y-96444405D01*
X168265929Y-96686310D01*
X168235691Y-96746786D01*
X168205452Y-96777024D01*
X168144976Y-96807262D01*
X168024024Y-96807262D01*
X167963548Y-96777024D01*
X167933310Y-96746786D01*
X167903071Y-96686310D01*
X167903071Y-96535119D01*
X167933310Y-96474643D01*
X167963548Y-96444405D01*
X168024024Y-96414167D01*
X168144976Y-96414167D01*
X168205452Y-96444405D01*
X168235691Y-96474643D01*
X168265929Y-96535119D01*
X168507833Y-95537262D02*
X168719500Y-95234881D01*
X168870691Y-95537262D02*
X168870691Y-94902262D01*
X168628786Y-94902262D01*
X168568310Y-94932500D01*
X168538071Y-94962738D01*
X168507833Y-95023214D01*
X168507833Y-95113929D01*
X168538071Y-95174405D01*
X168568310Y-95204643D01*
X168628786Y-95234881D01*
X168870691Y-95234881D01*
X168296167Y-94902262D02*
X167872833Y-94902262D01*
X168144976Y-95537262D01*
X168507833Y-94267262D02*
X168719500Y-93964881D01*
X168870691Y-94267262D02*
X168870691Y-93632262D01*
X168628786Y-93632262D01*
X168568310Y-93662500D01*
X168538071Y-93692738D01*
X168507833Y-93753214D01*
X168507833Y-93843929D01*
X168538071Y-93904405D01*
X168568310Y-93934643D01*
X168628786Y-93964881D01*
X168870691Y-93964881D01*
X168144976Y-93904405D02*
X168205452Y-93874167D01*
X168235691Y-93843929D01*
X168265929Y-93783452D01*
X168265929Y-93753214D01*
X168235691Y-93692738D01*
X168205452Y-93662500D01*
X168144976Y-93632262D01*
X168024024Y-93632262D01*
X167963548Y-93662500D01*
X167933310Y-93692738D01*
X167903071Y-93753214D01*
X167903071Y-93783452D01*
X167933310Y-93843929D01*
X167963548Y-93874167D01*
X168024024Y-93904405D01*
X168144976Y-93904405D01*
X168205452Y-93934643D01*
X168235691Y-93964881D01*
X168265929Y-94025357D01*
X168265929Y-94146310D01*
X168235691Y-94206786D01*
X168205452Y-94237024D01*
X168144976Y-94267262D01*
X168024024Y-94267262D01*
X167963548Y-94237024D01*
X167933310Y-94206786D01*
X167903071Y-94146310D01*
X167903071Y-94025357D01*
X167933310Y-93964881D01*
X167963548Y-93934643D01*
X168024024Y-93904405D01*
X168507833Y-92997262D02*
X168719500Y-92694881D01*
X168870691Y-92997262D02*
X168870691Y-92362262D01*
X168628786Y-92362262D01*
X168568310Y-92392500D01*
X168538071Y-92422738D01*
X168507833Y-92483214D01*
X168507833Y-92573929D01*
X168538071Y-92634405D01*
X168568310Y-92664643D01*
X168628786Y-92694881D01*
X168870691Y-92694881D01*
X168205452Y-92997262D02*
X168084500Y-92997262D01*
X168024024Y-92967024D01*
X167993786Y-92936786D01*
X167933310Y-92846071D01*
X167903071Y-92725119D01*
X167903071Y-92483214D01*
X167933310Y-92422738D01*
X167963548Y-92392500D01*
X168024024Y-92362262D01*
X168144976Y-92362262D01*
X168205452Y-92392500D01*
X168235691Y-92422738D01*
X168265929Y-92483214D01*
X168265929Y-92634405D01*
X168235691Y-92694881D01*
X168205452Y-92725119D01*
X168144976Y-92755357D01*
X168024024Y-92755357D01*
X167963548Y-92725119D01*
X167933310Y-92694881D01*
X167903071Y-92634405D01*
X168556214Y-91727262D02*
X168767881Y-91424881D01*
X168919072Y-91727262D02*
X168919072Y-91092262D01*
X168677167Y-91092262D01*
X168616691Y-91122500D01*
X168586452Y-91152738D01*
X168556214Y-91213214D01*
X168556214Y-91303929D01*
X168586452Y-91364405D01*
X168616691Y-91394643D01*
X168677167Y-91424881D01*
X168919072Y-91424881D01*
X167951452Y-91727262D02*
X168314310Y-91727262D01*
X168132881Y-91727262D02*
X168132881Y-91092262D01*
X168193357Y-91182976D01*
X168253833Y-91243452D01*
X168314310Y-91273690D01*
X167558357Y-91092262D02*
X167497881Y-91092262D01*
X167437405Y-91122500D01*
X167407167Y-91152738D01*
X167376929Y-91213214D01*
X167346690Y-91334167D01*
X167346690Y-91485357D01*
X167376929Y-91606310D01*
X167407167Y-91666786D01*
X167437405Y-91697024D01*
X167497881Y-91727262D01*
X167558357Y-91727262D01*
X167618833Y-91697024D01*
X167649071Y-91666786D01*
X167679310Y-91606310D01*
X167709548Y-91485357D01*
X167709548Y-91334167D01*
X167679310Y-91213214D01*
X167649071Y-91152738D01*
X167618833Y-91122500D01*
X167558357Y-91092262D01*
X153062214Y-82456262D02*
X153273881Y-82153881D01*
X153425072Y-82456262D02*
X153425072Y-81821262D01*
X153183167Y-81821262D01*
X153122691Y-81851500D01*
X153092452Y-81881738D01*
X153062214Y-81942214D01*
X153062214Y-82032929D01*
X153092452Y-82093405D01*
X153122691Y-82123643D01*
X153183167Y-82153881D01*
X153425072Y-82153881D01*
X152457452Y-82456262D02*
X152820310Y-82456262D01*
X152638881Y-82456262D02*
X152638881Y-81821262D01*
X152699357Y-81911976D01*
X152759833Y-81972452D01*
X152820310Y-82002690D01*
X151852690Y-82456262D02*
X152215548Y-82456262D01*
X152034119Y-82456262D02*
X152034119Y-81821262D01*
X152094595Y-81911976D01*
X152155071Y-81972452D01*
X152215548Y-82002690D01*
X153062214Y-78900262D02*
X153273881Y-78597881D01*
X153425072Y-78900262D02*
X153425072Y-78265262D01*
X153183167Y-78265262D01*
X153122691Y-78295500D01*
X153092452Y-78325738D01*
X153062214Y-78386214D01*
X153062214Y-78476929D01*
X153092452Y-78537405D01*
X153122691Y-78567643D01*
X153183167Y-78597881D01*
X153425072Y-78597881D01*
X152457452Y-78900262D02*
X152820310Y-78900262D01*
X152638881Y-78900262D02*
X152638881Y-78265262D01*
X152699357Y-78355976D01*
X152759833Y-78416452D01*
X152820310Y-78446690D01*
X152215548Y-78325738D02*
X152185310Y-78295500D01*
X152124833Y-78265262D01*
X151973643Y-78265262D01*
X151913167Y-78295500D01*
X151882929Y-78325738D01*
X151852690Y-78386214D01*
X151852690Y-78446690D01*
X151882929Y-78537405D01*
X152245786Y-78900262D01*
X151852690Y-78900262D01*
X156878262Y-66266786D02*
X156575881Y-66055119D01*
X156878262Y-65903928D02*
X156243262Y-65903928D01*
X156243262Y-66145833D01*
X156273500Y-66206309D01*
X156303738Y-66236548D01*
X156364214Y-66266786D01*
X156454929Y-66266786D01*
X156515405Y-66236548D01*
X156545643Y-66206309D01*
X156575881Y-66145833D01*
X156575881Y-65903928D01*
X156878262Y-66871548D02*
X156878262Y-66508690D01*
X156878262Y-66690119D02*
X156243262Y-66690119D01*
X156333976Y-66629643D01*
X156394452Y-66569167D01*
X156424690Y-66508690D01*
X156243262Y-67083214D02*
X156243262Y-67476310D01*
X156485167Y-67264643D01*
X156485167Y-67355357D01*
X156515405Y-67415833D01*
X156545643Y-67446071D01*
X156606119Y-67476310D01*
X156757310Y-67476310D01*
X156817786Y-67446071D01*
X156848024Y-67415833D01*
X156878262Y-67355357D01*
X156878262Y-67173929D01*
X156848024Y-67113452D01*
X156817786Y-67083214D01*
X139854214Y-76741262D02*
X140065881Y-76438881D01*
X140217072Y-76741262D02*
X140217072Y-76106262D01*
X139975167Y-76106262D01*
X139914691Y-76136500D01*
X139884452Y-76166738D01*
X139854214Y-76227214D01*
X139854214Y-76317929D01*
X139884452Y-76378405D01*
X139914691Y-76408643D01*
X139975167Y-76438881D01*
X140217072Y-76438881D01*
X139249452Y-76741262D02*
X139612310Y-76741262D01*
X139430881Y-76741262D02*
X139430881Y-76106262D01*
X139491357Y-76196976D01*
X139551833Y-76257452D01*
X139612310Y-76287690D01*
X138705167Y-76317929D02*
X138705167Y-76741262D01*
X138856357Y-76076024D02*
X139007548Y-76529595D01*
X138614452Y-76529595D01*
X132494262Y-77315786D02*
X132191881Y-77104119D01*
X132494262Y-76952928D02*
X131859262Y-76952928D01*
X131859262Y-77194833D01*
X131889500Y-77255309D01*
X131919738Y-77285548D01*
X131980214Y-77315786D01*
X132070929Y-77315786D01*
X132131405Y-77285548D01*
X132161643Y-77255309D01*
X132191881Y-77194833D01*
X132191881Y-76952928D01*
X132494262Y-77920548D02*
X132494262Y-77557690D01*
X132494262Y-77739119D02*
X131859262Y-77739119D01*
X131949976Y-77678643D01*
X132010452Y-77618167D01*
X132040690Y-77557690D01*
X131859262Y-78495071D02*
X131859262Y-78192690D01*
X132161643Y-78162452D01*
X132131405Y-78192690D01*
X132101167Y-78253167D01*
X132101167Y-78404357D01*
X132131405Y-78464833D01*
X132161643Y-78495071D01*
X132222119Y-78525310D01*
X132373310Y-78525310D01*
X132433786Y-78495071D01*
X132464024Y-78464833D01*
X132494262Y-78404357D01*
X132494262Y-78253167D01*
X132464024Y-78192690D01*
X132433786Y-78162452D01*
X141892262Y-91793786D02*
X141589881Y-91582119D01*
X141892262Y-91430928D02*
X141257262Y-91430928D01*
X141257262Y-91672833D01*
X141287500Y-91733309D01*
X141317738Y-91763548D01*
X141378214Y-91793786D01*
X141468929Y-91793786D01*
X141529405Y-91763548D01*
X141559643Y-91733309D01*
X141589881Y-91672833D01*
X141589881Y-91430928D01*
X141892262Y-92398548D02*
X141892262Y-92035690D01*
X141892262Y-92217119D02*
X141257262Y-92217119D01*
X141347976Y-92156643D01*
X141408452Y-92096167D01*
X141438690Y-92035690D01*
X141257262Y-92610214D02*
X141257262Y-93033548D01*
X141892262Y-92761405D01*
X128938262Y-77315786D02*
X128635881Y-77104119D01*
X128938262Y-76952928D02*
X128303262Y-76952928D01*
X128303262Y-77194833D01*
X128333500Y-77255309D01*
X128363738Y-77285548D01*
X128424214Y-77315786D01*
X128514929Y-77315786D01*
X128575405Y-77285548D01*
X128605643Y-77255309D01*
X128635881Y-77194833D01*
X128635881Y-76952928D01*
X128938262Y-77920548D02*
X128938262Y-77557690D01*
X128938262Y-77739119D02*
X128303262Y-77739119D01*
X128393976Y-77678643D01*
X128454452Y-77618167D01*
X128484690Y-77557690D01*
X128575405Y-78283405D02*
X128545167Y-78222929D01*
X128514929Y-78192690D01*
X128454452Y-78162452D01*
X128424214Y-78162452D01*
X128363738Y-78192690D01*
X128333500Y-78222929D01*
X128303262Y-78283405D01*
X128303262Y-78404357D01*
X128333500Y-78464833D01*
X128363738Y-78495071D01*
X128424214Y-78525310D01*
X128454452Y-78525310D01*
X128514929Y-78495071D01*
X128545167Y-78464833D01*
X128575405Y-78404357D01*
X128575405Y-78283405D01*
X128605643Y-78222929D01*
X128635881Y-78192690D01*
X128696357Y-78162452D01*
X128817310Y-78162452D01*
X128877786Y-78192690D01*
X128908024Y-78222929D01*
X128938262Y-78283405D01*
X128938262Y-78404357D01*
X128908024Y-78464833D01*
X128877786Y-78495071D01*
X128817310Y-78525310D01*
X128696357Y-78525310D01*
X128635881Y-78495071D01*
X128605643Y-78464833D01*
X128575405Y-78404357D01*
X129700262Y-82199786D02*
X129397881Y-81988119D01*
X129700262Y-81836928D02*
X129065262Y-81836928D01*
X129065262Y-82078833D01*
X129095500Y-82139309D01*
X129125738Y-82169548D01*
X129186214Y-82199786D01*
X129276929Y-82199786D01*
X129337405Y-82169548D01*
X129367643Y-82139309D01*
X129397881Y-82078833D01*
X129397881Y-81836928D01*
X129125738Y-82441690D02*
X129095500Y-82471928D01*
X129065262Y-82532405D01*
X129065262Y-82683595D01*
X129095500Y-82744071D01*
X129125738Y-82774309D01*
X129186214Y-82804548D01*
X129246690Y-82804548D01*
X129337405Y-82774309D01*
X129700262Y-82411452D01*
X129700262Y-82804548D01*
X129700262Y-83409310D02*
X129700262Y-83046452D01*
X129700262Y-83227881D02*
X129065262Y-83227881D01*
X129155976Y-83167405D01*
X129216452Y-83106929D01*
X129246690Y-83046452D01*
X131472214Y-87028262D02*
X131683881Y-86725881D01*
X131835072Y-87028262D02*
X131835072Y-86393262D01*
X131593167Y-86393262D01*
X131532691Y-86423500D01*
X131502452Y-86453738D01*
X131472214Y-86514214D01*
X131472214Y-86604929D01*
X131502452Y-86665405D01*
X131532691Y-86695643D01*
X131593167Y-86725881D01*
X131835072Y-86725881D01*
X131230310Y-86453738D02*
X131200072Y-86423500D01*
X131139595Y-86393262D01*
X130988405Y-86393262D01*
X130927929Y-86423500D01*
X130897691Y-86453738D01*
X130867452Y-86514214D01*
X130867452Y-86574690D01*
X130897691Y-86665405D01*
X131260548Y-87028262D01*
X130867452Y-87028262D01*
X130655786Y-86393262D02*
X130262690Y-86393262D01*
X130474357Y-86635167D01*
X130383643Y-86635167D01*
X130323167Y-86665405D01*
X130292929Y-86695643D01*
X130262690Y-86756119D01*
X130262690Y-86907310D01*
X130292929Y-86967786D01*
X130323167Y-86998024D01*
X130383643Y-87028262D01*
X130565071Y-87028262D01*
X130625548Y-86998024D01*
X130655786Y-86967786D01*
X151131262Y-71652190D02*
X151645310Y-71652190D01*
X151705786Y-71682429D01*
X151736024Y-71712667D01*
X151766262Y-71773143D01*
X151766262Y-71894095D01*
X151736024Y-71954571D01*
X151705786Y-71984810D01*
X151645310Y-72015048D01*
X151131262Y-72015048D01*
X151191738Y-72287190D02*
X151161500Y-72317428D01*
X151131262Y-72377905D01*
X151131262Y-72529095D01*
X151161500Y-72589571D01*
X151191738Y-72619809D01*
X151252214Y-72650048D01*
X151312690Y-72650048D01*
X151403405Y-72619809D01*
X151766262Y-72256952D01*
X151766262Y-72650048D01*
X137066262Y-82161592D02*
X137580310Y-82161592D01*
X137640786Y-82191831D01*
X137671024Y-82222069D01*
X137701262Y-82282545D01*
X137701262Y-82403497D01*
X137671024Y-82463973D01*
X137640786Y-82494212D01*
X137580310Y-82524450D01*
X137066262Y-82524450D01*
X137066262Y-82766354D02*
X137066262Y-83159450D01*
X137308167Y-82947783D01*
X137308167Y-83038497D01*
X137338405Y-83098973D01*
X137368643Y-83129211D01*
X137429119Y-83159450D01*
X137580310Y-83159450D01*
X137640786Y-83129211D01*
X137671024Y-83098973D01*
X137701262Y-83038497D01*
X137701262Y-82857069D01*
X137671024Y-82796592D01*
X137640786Y-82766354D01*
X135288262Y-82066190D02*
X135802310Y-82066190D01*
X135862786Y-82096429D01*
X135893024Y-82126667D01*
X135923262Y-82187143D01*
X135923262Y-82308095D01*
X135893024Y-82368571D01*
X135862786Y-82398810D01*
X135802310Y-82429048D01*
X135288262Y-82429048D01*
X135499929Y-83003571D02*
X135923262Y-83003571D01*
X135258024Y-82852381D02*
X135711595Y-82701190D01*
X135711595Y-83094286D01*
X152626786Y-84893786D02*
X152657024Y-84863548D01*
X152687262Y-84772833D01*
X152687262Y-84712357D01*
X152657024Y-84621643D01*
X152596548Y-84561167D01*
X152536071Y-84530928D01*
X152415119Y-84500690D01*
X152324405Y-84500690D01*
X152203452Y-84530928D01*
X152142976Y-84561167D01*
X152082500Y-84621643D01*
X152052262Y-84712357D01*
X152052262Y-84772833D01*
X152082500Y-84863548D01*
X152112738Y-84893786D01*
X152112738Y-85135690D02*
X152082500Y-85165928D01*
X152052262Y-85226405D01*
X152052262Y-85377595D01*
X152082500Y-85438071D01*
X152112738Y-85468309D01*
X152173214Y-85498548D01*
X152233690Y-85498548D01*
X152324405Y-85468309D01*
X152687262Y-85105452D01*
X152687262Y-85498548D01*
X152052262Y-85710214D02*
X152052262Y-86103310D01*
X152294167Y-85891643D01*
X152294167Y-85982357D01*
X152324405Y-86042833D01*
X152354643Y-86073071D01*
X152415119Y-86103310D01*
X152566310Y-86103310D01*
X152626786Y-86073071D01*
X152657024Y-86042833D01*
X152687262Y-85982357D01*
X152687262Y-85800929D01*
X152657024Y-85740452D01*
X152626786Y-85710214D01*
X164694810Y-76614262D02*
X164694810Y-77128310D01*
X164664571Y-77188786D01*
X164634333Y-77219024D01*
X164573857Y-77249262D01*
X164452905Y-77249262D01*
X164392429Y-77219024D01*
X164362190Y-77188786D01*
X164331952Y-77128310D01*
X164331952Y-76614262D01*
X163696952Y-77249262D02*
X164059810Y-77249262D01*
X163878381Y-77249262D02*
X163878381Y-76614262D01*
X163938857Y-76704976D01*
X163999333Y-76765452D01*
X164059810Y-76795690D01*
X154658786Y-110462786D02*
X154689024Y-110432548D01*
X154719262Y-110341833D01*
X154719262Y-110281357D01*
X154689024Y-110190643D01*
X154628548Y-110130167D01*
X154568071Y-110099928D01*
X154447119Y-110069690D01*
X154356405Y-110069690D01*
X154235452Y-110099928D01*
X154174976Y-110130167D01*
X154114500Y-110190643D01*
X154084262Y-110281357D01*
X154084262Y-110341833D01*
X154114500Y-110432548D01*
X154144738Y-110462786D01*
X154144738Y-110704690D02*
X154114500Y-110734928D01*
X154084262Y-110795405D01*
X154084262Y-110946595D01*
X154114500Y-111007071D01*
X154144738Y-111037309D01*
X154205214Y-111067548D01*
X154265690Y-111067548D01*
X154356405Y-111037309D01*
X154719262Y-110674452D01*
X154719262Y-111067548D01*
X154084262Y-111611833D02*
X154084262Y-111490881D01*
X154114500Y-111430405D01*
X154144738Y-111400167D01*
X154235452Y-111339690D01*
X154356405Y-111309452D01*
X154598310Y-111309452D01*
X154658786Y-111339690D01*
X154689024Y-111369929D01*
X154719262Y-111430405D01*
X154719262Y-111551357D01*
X154689024Y-111611833D01*
X154658786Y-111642071D01*
X154598310Y-111672310D01*
X154447119Y-111672310D01*
X154386643Y-111642071D01*
X154356405Y-111611833D01*
X154326167Y-111551357D01*
X154326167Y-111430405D01*
X154356405Y-111369929D01*
X154386643Y-111339690D01*
X154447119Y-111309452D01*
X160307262Y-87983786D02*
X160004881Y-87772119D01*
X160307262Y-87620928D02*
X159672262Y-87620928D01*
X159672262Y-87862833D01*
X159702500Y-87923309D01*
X159732738Y-87953548D01*
X159793214Y-87983786D01*
X159883929Y-87983786D01*
X159944405Y-87953548D01*
X159974643Y-87923309D01*
X160004881Y-87862833D01*
X160004881Y-87620928D01*
X159732738Y-88225690D02*
X159702500Y-88255928D01*
X159672262Y-88316405D01*
X159672262Y-88467595D01*
X159702500Y-88528071D01*
X159732738Y-88558309D01*
X159793214Y-88588548D01*
X159853690Y-88588548D01*
X159944405Y-88558309D01*
X160307262Y-88195452D01*
X160307262Y-88588548D01*
X159883929Y-89132833D02*
X160307262Y-89132833D01*
X159642024Y-88981643D02*
X160095595Y-88830452D01*
X160095595Y-89223548D01*
X156751262Y-87983786D02*
X156448881Y-87772119D01*
X156751262Y-87620928D02*
X156116262Y-87620928D01*
X156116262Y-87862833D01*
X156146500Y-87923309D01*
X156176738Y-87953548D01*
X156237214Y-87983786D01*
X156327929Y-87983786D01*
X156388405Y-87953548D01*
X156418643Y-87923309D01*
X156448881Y-87862833D01*
X156448881Y-87620928D01*
X156176738Y-88225690D02*
X156146500Y-88255928D01*
X156116262Y-88316405D01*
X156116262Y-88467595D01*
X156146500Y-88528071D01*
X156176738Y-88558309D01*
X156237214Y-88588548D01*
X156297690Y-88588548D01*
X156388405Y-88558309D01*
X156751262Y-88195452D01*
X156751262Y-88588548D01*
X156116262Y-89163071D02*
X156116262Y-88860690D01*
X156418643Y-88830452D01*
X156388405Y-88860690D01*
X156358167Y-88921167D01*
X156358167Y-89072357D01*
X156388405Y-89132833D01*
X156418643Y-89163071D01*
X156479119Y-89193310D01*
X156630310Y-89193310D01*
X156690786Y-89163071D01*
X156721024Y-89132833D01*
X156751262Y-89072357D01*
X156751262Y-88921167D01*
X156721024Y-88860690D01*
X156690786Y-88830452D01*
X146331214Y-103284262D02*
X146542881Y-102981881D01*
X146694072Y-103284262D02*
X146694072Y-102649262D01*
X146452167Y-102649262D01*
X146391691Y-102679500D01*
X146361452Y-102709738D01*
X146331214Y-102770214D01*
X146331214Y-102860929D01*
X146361452Y-102921405D01*
X146391691Y-102951643D01*
X146452167Y-102981881D01*
X146694072Y-102981881D01*
X146119548Y-102649262D02*
X145726452Y-102649262D01*
X145938119Y-102891167D01*
X145847405Y-102891167D01*
X145786929Y-102921405D01*
X145756691Y-102951643D01*
X145726452Y-103012119D01*
X145726452Y-103163310D01*
X145756691Y-103223786D01*
X145786929Y-103254024D01*
X145847405Y-103284262D01*
X146028833Y-103284262D01*
X146089310Y-103254024D01*
X146119548Y-103223786D01*
X145514786Y-102649262D02*
X145091452Y-102649262D01*
X145363595Y-103284262D01*
X144686262Y-105382786D02*
X144383881Y-105171119D01*
X144686262Y-105019928D02*
X144051262Y-105019928D01*
X144051262Y-105261833D01*
X144081500Y-105322309D01*
X144111738Y-105352548D01*
X144172214Y-105382786D01*
X144262929Y-105382786D01*
X144323405Y-105352548D01*
X144353643Y-105322309D01*
X144383881Y-105261833D01*
X144383881Y-105019928D01*
X144051262Y-105594452D02*
X144051262Y-105987548D01*
X144293167Y-105775881D01*
X144293167Y-105866595D01*
X144323405Y-105927071D01*
X144353643Y-105957309D01*
X144414119Y-105987548D01*
X144565310Y-105987548D01*
X144625786Y-105957309D01*
X144656024Y-105927071D01*
X144686262Y-105866595D01*
X144686262Y-105685167D01*
X144656024Y-105624690D01*
X144625786Y-105594452D01*
X144323405Y-106350405D02*
X144293167Y-106289929D01*
X144262929Y-106259690D01*
X144202452Y-106229452D01*
X144172214Y-106229452D01*
X144111738Y-106259690D01*
X144081500Y-106289929D01*
X144051262Y-106350405D01*
X144051262Y-106471357D01*
X144081500Y-106531833D01*
X144111738Y-106562071D01*
X144172214Y-106592310D01*
X144202452Y-106592310D01*
X144262929Y-106562071D01*
X144293167Y-106531833D01*
X144323405Y-106471357D01*
X144323405Y-106350405D01*
X144353643Y-106289929D01*
X144383881Y-106259690D01*
X144444357Y-106229452D01*
X144565310Y-106229452D01*
X144625786Y-106259690D01*
X144656024Y-106289929D01*
X144686262Y-106350405D01*
X144686262Y-106471357D01*
X144656024Y-106531833D01*
X144625786Y-106562071D01*
X144565310Y-106592310D01*
X144444357Y-106592310D01*
X144383881Y-106562071D01*
X144353643Y-106531833D01*
X144323405Y-106471357D01*
X153957262Y-105128786D02*
X153654881Y-104917119D01*
X153957262Y-104765928D02*
X153322262Y-104765928D01*
X153322262Y-105007833D01*
X153352500Y-105068309D01*
X153382738Y-105098548D01*
X153443214Y-105128786D01*
X153533929Y-105128786D01*
X153594405Y-105098548D01*
X153624643Y-105068309D01*
X153654881Y-105007833D01*
X153654881Y-104765928D01*
X153533929Y-105673071D02*
X153957262Y-105673071D01*
X153292024Y-105521881D02*
X153745595Y-105370690D01*
X153745595Y-105763786D01*
X153322262Y-106126643D02*
X153322262Y-106187119D01*
X153352500Y-106247595D01*
X153382738Y-106277833D01*
X153443214Y-106308071D01*
X153564167Y-106338310D01*
X153715357Y-106338310D01*
X153836310Y-106308071D01*
X153896786Y-106277833D01*
X153927024Y-106247595D01*
X153957262Y-106187119D01*
X153957262Y-106126643D01*
X153927024Y-106066167D01*
X153896786Y-106035929D01*
X153836310Y-106005690D01*
X153715357Y-105975452D01*
X153564167Y-105975452D01*
X153443214Y-106005690D01*
X153382738Y-106035929D01*
X153352500Y-106066167D01*
X153322262Y-106126643D01*
X157894262Y-105509786D02*
X157591881Y-105298119D01*
X157894262Y-105146928D02*
X157259262Y-105146928D01*
X157259262Y-105388833D01*
X157289500Y-105449309D01*
X157319738Y-105479548D01*
X157380214Y-105509786D01*
X157470929Y-105509786D01*
X157531405Y-105479548D01*
X157561643Y-105449309D01*
X157591881Y-105388833D01*
X157591881Y-105146928D01*
X157470929Y-106054071D02*
X157894262Y-106054071D01*
X157229024Y-105902881D02*
X157682595Y-105751690D01*
X157682595Y-106144786D01*
X157470929Y-106658833D02*
X157894262Y-106658833D01*
X157229024Y-106507643D02*
X157682595Y-106356452D01*
X157682595Y-106749548D01*
X152554214Y-116365262D02*
X152765881Y-116062881D01*
X152917072Y-116365262D02*
X152917072Y-115730262D01*
X152675167Y-115730262D01*
X152614691Y-115760500D01*
X152584452Y-115790738D01*
X152554214Y-115851214D01*
X152554214Y-115941929D01*
X152584452Y-116002405D01*
X152614691Y-116032643D01*
X152675167Y-116062881D01*
X152917072Y-116062881D01*
X152009929Y-115941929D02*
X152009929Y-116365262D01*
X152161119Y-115700024D02*
X152312310Y-116153595D01*
X151919214Y-116153595D01*
X151374929Y-115730262D02*
X151677310Y-115730262D01*
X151707548Y-116032643D01*
X151677310Y-116002405D01*
X151616833Y-115972167D01*
X151465643Y-115972167D01*
X151405167Y-116002405D01*
X151374929Y-116032643D01*
X151344690Y-116093119D01*
X151344690Y-116244310D01*
X151374929Y-116304786D01*
X151405167Y-116335024D01*
X151465643Y-116365262D01*
X151616833Y-116365262D01*
X151677310Y-116335024D01*
X151707548Y-116304786D01*
X150649214Y-118778262D02*
X150860881Y-118475881D01*
X151012072Y-118778262D02*
X151012072Y-118143262D01*
X150770167Y-118143262D01*
X150709691Y-118173500D01*
X150679452Y-118203738D01*
X150649214Y-118264214D01*
X150649214Y-118354929D01*
X150679452Y-118415405D01*
X150709691Y-118445643D01*
X150770167Y-118475881D01*
X151012072Y-118475881D01*
X150104929Y-118354929D02*
X150104929Y-118778262D01*
X150256119Y-118113024D02*
X150407310Y-118566595D01*
X150014214Y-118566595D01*
X149500167Y-118143262D02*
X149621119Y-118143262D01*
X149681595Y-118173500D01*
X149711833Y-118203738D01*
X149772310Y-118294452D01*
X149802548Y-118415405D01*
X149802548Y-118657310D01*
X149772310Y-118717786D01*
X149742071Y-118748024D01*
X149681595Y-118778262D01*
X149560643Y-118778262D01*
X149500167Y-118748024D01*
X149469929Y-118717786D01*
X149439690Y-118657310D01*
X149439690Y-118506119D01*
X149469929Y-118445643D01*
X149500167Y-118415405D01*
X149560643Y-118385167D01*
X149681595Y-118385167D01*
X149742071Y-118415405D01*
X149772310Y-118445643D01*
X149802548Y-118506119D01*
X151798262Y-110641190D02*
X152312310Y-110641190D01*
X152372786Y-110671429D01*
X152403024Y-110701667D01*
X152433262Y-110762143D01*
X152433262Y-110883095D01*
X152403024Y-110943571D01*
X152372786Y-110973810D01*
X152312310Y-111004048D01*
X151798262Y-111004048D01*
X151798262Y-111578571D02*
X151798262Y-111457619D01*
X151828500Y-111397143D01*
X151858738Y-111366905D01*
X151949452Y-111306428D01*
X152070405Y-111276190D01*
X152312310Y-111276190D01*
X152372786Y-111306428D01*
X152403024Y-111336667D01*
X152433262Y-111397143D01*
X152433262Y-111518095D01*
X152403024Y-111578571D01*
X152372786Y-111608809D01*
X152312310Y-111639048D01*
X152161119Y-111639048D01*
X152100643Y-111608809D01*
X152070405Y-111578571D01*
X152040167Y-111518095D01*
X152040167Y-111397143D01*
X152070405Y-111336667D01*
X152100643Y-111306428D01*
X152161119Y-111276190D01*
M02*
