M48
;DRILL file {KiCad 4.0.7} date Fri Jul 13 22:00:27 2018
;FORMAT={-:-/ absolute / inch / decimal}
FMAT,2
INCH,TZ
T1C0.013
T2C0.016
T3C0.024
T4C0.039
T5C0.047
T6C0.067
T7C0.087
%
G90
G05
M72
T1
X4.855Y-3.66
X4.93Y-4.32
X4.93Y-4.355
X4.93Y-4.39
X4.93Y-4.425
X4.935Y-3.965
X5.005Y-4.32
X5.005Y-4.355
X5.005Y-4.39
X5.005Y-4.425
X5.145Y-4.32
X5.165Y-3.165
X5.17Y-4.35
X5.175Y-4.39
X5.18Y-4.43
X5.255Y-4.595
X5.285Y-3.165
X5.295Y-4.67
X5.385Y-4.67
X5.47Y-4.67
X5.6Y-2.74
X5.64Y-2.74
X5.64Y-4.35
X5.66Y-2.855
X5.68Y-2.74
X5.695Y-2.855
X5.72Y-2.74
X5.725Y-3.58
X5.725Y-4.495
X5.725Y-4.525
X5.735Y-3.28
X5.76Y-2.7
X5.76Y-2.74
X5.765Y-3.25
X5.765Y-3.46
X5.765Y-3.5
X5.765Y-3.54
X5.765Y-3.58
X5.795Y-3.22
X5.82Y-2.87
X5.82Y-2.92
X5.825Y-2.775
X5.825Y-2.815
X5.85Y-2.745
X5.865Y-4.595
X5.885Y-2.925
X5.935Y-2.73
X5.945Y-2.84
X5.95Y-2.88
X5.955Y-2.765
X5.955Y-2.8
X6.Y-3.31
X6.Y-3.34
X6.Y-3.415
X6.01Y-4.29
X6.015Y-4.41
X6.045Y-4.29
X6.05Y-3.455
X6.09Y-4.455
X6.1Y-3.415
X6.33Y-3.46
X6.3651Y-3.4533
X6.41Y-3.48
X6.41Y-3.57
X6.455Y-3.505
X6.495Y-3.515
X6.5Y-3.88
X6.5039Y-3.6261
X6.505Y-3.675
X6.505Y-3.725
X6.505Y-3.775
X6.505Y-3.825
X6.505Y-3.925
X6.515Y-3.44
X6.5555Y-3.4465
X6.58Y-3.415
X6.645Y-3.055
X6.645Y-3.09
X6.72Y-3.015
X6.8Y-3.02
X6.81Y-4.34
X6.86Y-4.34
X6.905Y-4.34
X7.11Y-4.315
X7.14Y-4.285
X7.17Y-4.255
T2
X4.685Y-2.65
X4.685Y-5.45
X4.7041Y-2.6041
X4.7041Y-2.6959
X4.7041Y-5.4041
X4.7041Y-5.4959
X4.75Y-2.585
X4.75Y-2.715
X4.75Y-5.385
X4.75Y-5.515
X4.7959Y-2.6041
X4.7959Y-2.6959
X4.7959Y-5.4041
X4.7959Y-5.4959
X4.815Y-2.65
X4.815Y-5.45
X6.1756Y-4.3306
X6.1756Y-4.37
X6.1756Y-4.4094
X6.215Y-4.3306
X6.215Y-4.37
X6.215Y-4.4094
X6.2544Y-4.3306
X6.2544Y-4.37
X6.2544Y-4.4094
X7.285Y-2.65
X7.285Y-5.45
X7.3041Y-2.6041
X7.3041Y-2.6959
X7.3041Y-5.4041
X7.3041Y-5.4959
X7.35Y-2.585
X7.35Y-2.715
X7.35Y-5.385
X7.35Y-5.515
X7.3959Y-2.6041
X7.3959Y-2.6959
X7.3959Y-5.4041
X7.3959Y-5.4959
X7.415Y-2.65
X7.415Y-5.45
T3
X4.71Y-4.305
X4.845Y-4.07
X4.8898Y-4.0467
X4.89Y-3.955
X4.98Y-3.875
X5.0976Y-3.9943
X5.11Y-4.1
X5.135Y-4.455
X5.295Y-4.76
X5.3773Y-3.9835
X5.385Y-4.525
X5.42Y-4.09
X5.435Y-4.53
X5.4412Y-4.4081
X5.47Y-4.77
X5.475Y-4.7249
X5.4809Y-3.8421
X5.485Y-4.42
X5.5181Y-3.8681
X5.545Y-4.685
X5.55Y-4.405
X5.56Y-3.16
X5.565Y-3.345
X5.5726Y-3.9168
X5.595Y-4.535
X5.61Y-4.415
X5.615Y-3.89
X5.63Y-4.175
X5.645Y-4.53
X5.6647Y-4.2127
X5.67Y-3.915
X5.71Y-4.28
X5.72Y-4.445
X5.725Y-4.06
X5.775Y-4.415
X5.795Y-4.195
X5.81Y-4.655
X5.83Y-4.03
X5.8424Y-4.4183
X5.8447Y-4.2041
X5.8497Y-3.2985
X5.875Y-4.785
X5.8866Y-4.1868
X5.89Y-4.42
X5.8931Y-3.2835
X5.9319Y-4.1876
X5.945Y-4.86
X5.98Y-4.205
X5.98Y-4.62
X6.015Y-4.035
X6.0248Y-4.455
X6.025Y-4.515
X6.0292Y-3.9292
X6.075Y-4.2
X6.085Y-4.375
X6.0933Y-4.5108
X6.1Y-4.13
X6.12Y-4.415
X6.15Y-4.215
X6.17Y-3.435
X6.18Y-4.595
X6.1862Y-4.1232
X6.1968Y-2.979
X6.205Y-3.875
X6.2232Y-4.539
X6.225Y-2.94
X6.225Y-3.97
X6.2475Y-3.8909
X6.265Y-4.18
X6.265Y-5.105
X6.285Y-2.9639
X6.305Y-3.965
X6.3322Y-2.9677
X6.365Y-3.12
X6.365Y-4.445
X6.375Y-4.29
X6.385Y-4.235
X6.45Y-5.42
X6.55Y-4.255
X6.595Y-3.695
X6.605Y-4.27
X6.61Y-4.32
X6.6101Y-3.8788
X6.611Y-3.8174
X6.6142Y-3.756
X6.655Y-3.9694
X6.655Y-4.46
X6.695Y-4.25
X6.74Y-3.1
X6.79Y-3.23
X6.86Y-4.955
X6.885Y-4.9
X6.89Y-4.46
X6.925Y-5.47
X6.995Y-4.505
X7.Y-4.33
X7.315Y-4.105
T4
X4.66Y-3.5
X4.66Y-3.6
X4.66Y-3.7
X4.66Y-3.8
X4.66Y-3.9
X4.66Y-4.
X4.66Y-4.1
X4.66Y-4.2
X4.76Y-3.5
X4.76Y-3.6
X4.76Y-3.7
X4.76Y-3.8
X4.76Y-3.9
X4.76Y-4.
X4.76Y-4.1
X4.76Y-4.2
X5.55Y-5.1
X5.55Y-5.3
X5.65Y-5.1
X5.65Y-5.3
X5.75Y-5.1
X5.75Y-5.3
X7.Y-3.5
X7.Y-3.6
X7.Y-3.7
X7.Y-3.8
X7.Y-3.9
X7.Y-4.
X7.Y-4.1
X7.Y-4.2
X7.05Y-5.1
X7.05Y-5.3
X7.1Y-3.5
X7.1Y-3.6
X7.1Y-3.7
X7.1Y-3.8
X7.1Y-3.9
X7.1Y-4.
X7.1Y-4.1
X7.1Y-4.2
X7.15Y-5.1
X7.15Y-5.3
X7.25Y-5.1
X7.25Y-5.3
T5
X5.0811Y-2.6031
X5.0811Y-5.4969
X5.2189Y-5.4969
X6.5811Y-2.6031
X6.5811Y-5.4969
X6.7189Y-5.4969
T6
X4.9846Y-2.8138
X4.9846Y-5.2862
X5.3154Y-2.7665
X5.3154Y-5.3335
X6.4846Y-2.8138
X6.4846Y-5.2862
X6.8154Y-2.7665
X6.8154Y-5.3335
T7
X4.75Y-2.65
X4.75Y-5.45
X7.35Y-2.65
X7.35Y-5.45
T0
M30
