G04 #@! TF.FileFunction,Copper,L1,Top,Signal*
%FSLAX46Y46*%
G04 Gerber Fmt 4.6, Leading zero omitted, Abs format (unit mm)*
G04 Created by KiCad (PCBNEW 4.0.7) date Fri Jul 13 22:00:20 2018*
%MOMM*%
%LPD*%
G01*
G04 APERTURE LIST*
%ADD10C,0.100000*%
%ADD11C,0.685800*%
%ADD12C,4.400000*%
%ADD13C,0.700000*%
%ADD14R,0.800000X0.750000*%
%ADD15R,1.700000X1.700000*%
%ADD16O,1.700000X1.700000*%
%ADD17R,0.400000X0.600000*%
%ADD18R,0.600000X0.400000*%
%ADD19R,0.650000X1.060000*%
%ADD20R,1.250000X1.000000*%
%ADD21R,0.750000X0.800000*%
%ADD22R,0.500000X0.600000*%
%ADD23C,2.000000*%
%ADD24R,0.450000X1.050000*%
%ADD25R,3.200000X3.200000*%
%ADD26C,2.200000*%
%ADD27C,3.000000*%
%ADD28C,1.000000*%
%ADD29C,0.254000*%
%ADD30C,0.635000*%
%ADD31C,0.152400*%
G04 APERTURE END LIST*
D10*
D11*
X180594000Y-109601000D03*
X181356000Y-108839000D03*
X182118000Y-108077000D03*
X172974000Y-110236000D03*
X174244000Y-110236000D03*
X175387000Y-110236000D03*
X138938000Y-118618000D03*
X136779000Y-118618000D03*
X134493000Y-118618000D03*
X143256000Y-110490000D03*
X145415000Y-114935000D03*
X145415000Y-114173000D03*
X148971000Y-116713000D03*
X133477000Y-116713000D03*
X127127000Y-112395000D03*
X127127000Y-111506000D03*
X127127000Y-110617000D03*
X127127000Y-109728000D03*
X131572000Y-112522000D03*
X131445000Y-111506000D03*
X131318000Y-110490000D03*
X130683000Y-109728000D03*
X125222000Y-112395000D03*
X125222000Y-111506000D03*
X125222000Y-110617000D03*
X125222000Y-109728000D03*
X125349000Y-100711000D03*
X123317000Y-92964000D03*
X152781000Y-112014000D03*
X154686000Y-113157000D03*
X152654000Y-108966000D03*
X153543000Y-108966000D03*
D12*
X120650000Y-138430000D03*
D13*
X122300000Y-138430000D03*
X121816726Y-139596726D03*
X120650000Y-140080000D03*
X119483274Y-139596726D03*
X119000000Y-138430000D03*
X119483274Y-137263274D03*
X120650000Y-136780000D03*
X121816726Y-137263274D03*
D12*
X186690000Y-138430000D03*
D13*
X188340000Y-138430000D03*
X187856726Y-139596726D03*
X186690000Y-140080000D03*
X185523274Y-139596726D03*
X185040000Y-138430000D03*
X185523274Y-137263274D03*
X186690000Y-136780000D03*
X187856726Y-137263274D03*
D12*
X186690000Y-67310000D03*
D13*
X188340000Y-67310000D03*
X187856726Y-68476726D03*
X186690000Y-68960000D03*
X185523274Y-68476726D03*
X185040000Y-67310000D03*
X185523274Y-66143274D03*
X186690000Y-65660000D03*
X187856726Y-66143274D03*
D11*
X145669000Y-83312000D03*
X146431000Y-82550000D03*
X147193000Y-81788000D03*
X168783000Y-77597000D03*
X168783000Y-78486000D03*
X152400000Y-84836000D03*
X152400000Y-84074000D03*
X153670000Y-87757000D03*
X154940000Y-86741000D03*
X152400000Y-86741000D03*
X145415000Y-90932000D03*
X146431000Y-90932000D03*
X146431000Y-89916000D03*
X146431000Y-88900000D03*
X146431000Y-87884000D03*
X170688000Y-76581000D03*
X172720000Y-76708000D03*
X131191000Y-80391000D03*
X134239000Y-80391000D03*
X146304000Y-69596000D03*
X145288000Y-69596000D03*
X144272000Y-69596000D03*
X143256000Y-69596000D03*
X142240000Y-69596000D03*
X146304000Y-68580000D03*
X143764000Y-72517000D03*
X144653000Y-72517000D03*
X151130000Y-73152000D03*
X151257000Y-71120000D03*
X151257000Y-70231000D03*
X147828000Y-74168000D03*
X147828000Y-72898000D03*
X147955000Y-71501000D03*
X147955000Y-70485000D03*
X148590000Y-69723000D03*
X150749000Y-69342000D03*
X151003000Y-72136000D03*
D14*
X144550000Y-71374000D03*
X146050000Y-71374000D03*
X147181000Y-78613000D03*
X145681000Y-78613000D03*
X147181000Y-80391000D03*
X145681000Y-80391000D03*
D15*
X120904000Y-106680000D03*
D16*
X118364000Y-106680000D03*
X120904000Y-104140000D03*
X118364000Y-104140000D03*
X120904000Y-101600000D03*
X118364000Y-101600000D03*
X120904000Y-99060000D03*
X118364000Y-99060000D03*
X120904000Y-96520000D03*
X118364000Y-96520000D03*
X120904000Y-93980000D03*
X118364000Y-93980000D03*
X120904000Y-91440000D03*
X118364000Y-91440000D03*
X120904000Y-88900000D03*
X118364000Y-88900000D03*
D15*
X177800000Y-106680000D03*
D16*
X180340000Y-106680000D03*
X177800000Y-104140000D03*
X180340000Y-104140000D03*
X177800000Y-101600000D03*
X180340000Y-101600000D03*
X177800000Y-99060000D03*
X180340000Y-99060000D03*
X177800000Y-96520000D03*
X180340000Y-96520000D03*
X177800000Y-93980000D03*
X180340000Y-93980000D03*
X177800000Y-91440000D03*
X180340000Y-91440000D03*
X177800000Y-88900000D03*
X180340000Y-88900000D03*
D17*
X139308000Y-79502000D03*
X140208000Y-79502000D03*
D18*
X141986000Y-79386000D03*
X141986000Y-78486000D03*
X141986000Y-74306000D03*
X141986000Y-73406000D03*
D17*
X142044000Y-71882000D03*
X142944000Y-71882000D03*
D19*
X145730000Y-73830000D03*
X144780000Y-73830000D03*
X143830000Y-73830000D03*
X143830000Y-76030000D03*
X145730000Y-76030000D03*
D20*
X153670000Y-84598000D03*
X153670000Y-86598000D03*
D11*
X149479000Y-74295000D03*
D12*
X120650000Y-67310000D03*
D13*
X122300000Y-67310000D03*
X121816726Y-68476726D03*
X120650000Y-68960000D03*
X119483274Y-68476726D03*
X119000000Y-67310000D03*
X119483274Y-66143274D03*
X120650000Y-65660000D03*
X121816726Y-66143274D03*
D21*
X151892000Y-111633000D03*
X151892000Y-110133000D03*
D22*
X153416000Y-110321000D03*
X153416000Y-111421000D03*
D18*
X156845000Y-76385000D03*
X156845000Y-77285000D03*
X158750000Y-76385000D03*
X158750000Y-77285000D03*
X143510000Y-108643000D03*
X143510000Y-109543000D03*
X147447000Y-104198000D03*
X147447000Y-105098000D03*
X148717000Y-104198000D03*
X148717000Y-105098000D03*
X149987000Y-104198000D03*
X149987000Y-105098000D03*
X151257000Y-104198000D03*
X151257000Y-105098000D03*
X149225000Y-110421000D03*
X149225000Y-111321000D03*
X147828000Y-110421000D03*
X147828000Y-111321000D03*
X146558000Y-110421000D03*
X146558000Y-111321000D03*
X145288000Y-110421000D03*
X145288000Y-111321000D03*
X152527000Y-105098000D03*
X152527000Y-104198000D03*
D17*
X155644000Y-115697000D03*
X154744000Y-115697000D03*
D18*
X157099000Y-106495000D03*
X157099000Y-105595000D03*
D17*
X155644000Y-117094000D03*
X154744000Y-117094000D03*
D23*
X140970000Y-134620000D03*
X140970000Y-129540000D03*
X146050000Y-134620000D03*
X146050000Y-129540000D03*
X143510000Y-134620000D03*
X143510000Y-129540000D03*
X179070000Y-134620000D03*
X179070000Y-129540000D03*
X184150000Y-134620000D03*
X184150000Y-129540000D03*
X181610000Y-134620000D03*
X181610000Y-129540000D03*
D24*
X155586000Y-113773000D03*
X156236000Y-113773000D03*
X156886000Y-113773000D03*
X157536000Y-113773000D03*
X158186000Y-113773000D03*
X158836000Y-113773000D03*
X159486000Y-113773000D03*
X160136000Y-113773000D03*
X160136000Y-108223000D03*
X159486000Y-108223000D03*
X158836000Y-108223000D03*
X158186000Y-108223000D03*
X157536000Y-108223000D03*
X156886000Y-108223000D03*
X156236000Y-108223000D03*
X155586000Y-108223000D03*
D25*
X157861000Y-110998000D03*
D13*
X156861000Y-111998000D03*
X156861000Y-110998000D03*
X156861000Y-109998000D03*
X157861000Y-111998000D03*
X157861000Y-110998000D03*
X157861000Y-109998000D03*
X158861000Y-111998000D03*
X158861000Y-110998000D03*
X158861000Y-109998000D03*
D17*
X154998000Y-101219000D03*
X155898000Y-101219000D03*
D18*
X153924000Y-103055000D03*
X153924000Y-103955000D03*
D26*
X129060000Y-139620000D03*
X132560000Y-139620000D03*
X129060000Y-66120000D03*
D27*
X126610000Y-71470000D03*
X126610000Y-134270000D03*
X135010000Y-70270000D03*
X135010000Y-135470000D03*
D26*
X167160000Y-139620000D03*
X170660000Y-139620000D03*
X167160000Y-66120000D03*
D27*
X164710000Y-71470000D03*
X164710000Y-134270000D03*
X173110000Y-70270000D03*
X173110000Y-135470000D03*
D28*
X141351000Y-84963000D03*
X140843000Y-118999000D03*
X142113000Y-115189000D03*
X140970000Y-111887000D03*
X175895000Y-138938000D03*
X163830000Y-137668000D03*
D11*
X167132000Y-86741000D03*
X165227000Y-99695000D03*
X166509690Y-87540487D03*
X165100000Y-98552000D03*
X165481000Y-87376000D03*
X165227000Y-97155000D03*
X164973000Y-89281000D03*
X165227000Y-95885000D03*
X163957000Y-89027000D03*
X165227000Y-94615000D03*
X162814000Y-88392000D03*
X165227000Y-93345000D03*
X161672949Y-87712848D03*
X165198084Y-92103916D03*
X162814000Y-90678000D03*
X160782000Y-87884000D03*
D28*
X159638298Y-75282686D03*
X161671000Y-79248000D03*
X126492000Y-98425000D03*
X144018000Y-99441000D03*
X169037000Y-100823000D03*
X124206000Y-100457000D03*
X169037000Y-113284000D03*
X167767000Y-108458000D03*
X129480249Y-101455590D03*
X129794000Y-104140000D03*
X130429000Y-113157002D03*
X159131000Y-129667000D03*
X142621004Y-98806000D03*
X167897033Y-98521080D03*
X141545089Y-99486785D03*
X167918791Y-96962269D03*
X140159616Y-98249616D03*
X168000922Y-95403458D03*
X139214906Y-97589634D03*
X167513000Y-93853000D03*
X141224000Y-80264000D03*
X172466000Y-82042000D03*
X171196000Y-78740000D03*
X139065262Y-120012636D03*
X119634000Y-109347000D03*
X157607000Y-98425000D03*
X167894000Y-109728000D03*
X161925000Y-108966000D03*
X136584314Y-101181204D03*
X152781000Y-102489000D03*
X148082000Y-102362000D03*
X158115000Y-100838000D03*
X137668000Y-103886000D03*
X145415000Y-103124000D03*
X123063000Y-103378000D03*
X124202096Y-102785821D03*
X177800000Y-109982000D03*
X170053000Y-107950000D03*
X166370000Y-108077000D03*
X162179000Y-107569000D03*
X159131000Y-106172000D03*
X157130672Y-104728389D03*
X142494000Y-112141000D03*
X143383000Y-115062000D03*
X147574000Y-118237000D03*
X185801000Y-104267000D03*
X145034000Y-108712000D03*
X158686037Y-98829638D03*
X149684130Y-83401616D03*
X153141627Y-99801627D03*
X157398346Y-75666133D03*
X160838210Y-75380345D03*
X156718000Y-87249000D03*
X154769915Y-114574127D03*
X161671000Y-112903000D03*
X160147000Y-100711000D03*
X139319000Y-112268000D03*
X138049000Y-115062000D03*
X143883515Y-107003189D03*
X147193000Y-106553000D03*
X138207062Y-111965268D03*
X149225000Y-121539000D03*
X138938000Y-121158000D03*
X134493000Y-120904000D03*
X136779000Y-114935000D03*
X143002000Y-106045000D03*
X174244000Y-125857000D03*
X148454128Y-106785212D03*
X149518690Y-106343894D03*
X150670878Y-106366189D03*
X149606000Y-112268000D03*
X148396859Y-112224932D03*
X146685000Y-112141000D03*
X145288000Y-112903000D03*
X148581247Y-83781046D03*
X158115000Y-74676000D03*
X151892000Y-106807000D03*
X156210000Y-107061000D03*
X151003000Y-123444000D03*
X174879000Y-124460000D03*
X155448000Y-112141000D03*
X151892000Y-117348000D03*
X158070292Y-115289351D03*
X175006000Y-113284000D03*
X153035000Y-114681000D03*
X154940000Y-104902000D03*
X177673000Y-114427000D03*
X156972000Y-116713000D03*
X153030289Y-113157000D03*
X154559000Y-111125000D03*
X154305000Y-106680000D03*
D29*
X141351000Y-84963000D02*
X141605000Y-85217000D01*
X141605000Y-85217000D02*
X148971000Y-85217000D01*
X148971000Y-85217000D02*
X150622000Y-83566000D01*
X150622000Y-83566000D02*
X152019000Y-83566000D01*
X152019000Y-83566000D02*
X152019000Y-83693000D01*
X152019000Y-83693000D02*
X152400000Y-84074000D01*
D30*
X145288000Y-110421000D02*
X145388000Y-110421000D01*
X145388000Y-110421000D02*
X146223000Y-109586000D01*
X144337447Y-107973099D02*
X142834079Y-107973099D01*
X141469999Y-111387001D02*
X140970000Y-111887000D01*
X146223000Y-109586000D02*
X146223000Y-108377000D01*
X146223000Y-108377000D02*
X145588099Y-107742099D01*
X145588099Y-107742099D02*
X144568447Y-107742099D01*
X144568447Y-107742099D02*
X144337447Y-107973099D01*
X142834079Y-107973099D02*
X141469999Y-109337179D01*
X141469999Y-109337179D02*
X141469999Y-111387001D01*
X142113000Y-115189000D02*
X142113000Y-117729000D01*
X142113000Y-117729000D02*
X140843000Y-118999000D01*
X179578000Y-138938000D02*
X181610000Y-136906000D01*
X181610000Y-136906000D02*
X181610000Y-134620000D01*
X175895000Y-138938000D02*
X179578000Y-138938000D01*
X146794787Y-139319000D02*
X162179000Y-139319000D01*
X162179000Y-139319000D02*
X163830000Y-137668000D01*
X143510000Y-134620000D02*
X143510000Y-136034213D01*
X143510000Y-136034213D02*
X146794787Y-139319000D01*
D29*
X154940000Y-86741000D02*
X153813000Y-86741000D01*
X153813000Y-86741000D02*
X153670000Y-86598000D01*
X153670000Y-87757000D02*
X153670000Y-86598000D01*
X152400000Y-86741000D02*
X153527000Y-86741000D01*
X153527000Y-86741000D02*
X153670000Y-86598000D01*
X165227000Y-99695000D02*
X166751000Y-99695000D01*
X166751000Y-99695000D02*
X167259000Y-100203000D01*
X167259000Y-100203000D02*
X168148000Y-100203000D01*
X168148000Y-100203000D02*
X170688000Y-97663000D01*
X170688000Y-97663000D02*
X170688000Y-92456000D01*
X170688000Y-92456000D02*
X167132000Y-88900000D01*
X167132000Y-88900000D02*
X167132000Y-86741000D01*
X165100000Y-98552000D02*
X165442899Y-98894899D01*
X167386000Y-99568000D02*
X168021000Y-99568000D01*
X165442899Y-98894899D02*
X166712899Y-98894899D01*
X168021000Y-99568000D02*
X170053000Y-97536000D01*
X170053000Y-92837000D02*
X166509690Y-89293690D01*
X166712899Y-98894899D02*
X167386000Y-99568000D01*
X170053000Y-97536000D02*
X170053000Y-92837000D01*
X166509690Y-89293690D02*
X166509690Y-88025420D01*
X166509690Y-88025420D02*
X166509690Y-87540487D01*
X165823899Y-89376401D02*
X165823899Y-87718899D01*
X165227000Y-97155000D02*
X165813670Y-97741670D01*
X169418000Y-92970502D02*
X165823899Y-89376401D01*
X165813670Y-97741670D02*
X168264474Y-97741670D01*
X169418000Y-96588144D02*
X169418000Y-92970502D01*
X165823899Y-87718899D02*
X165481000Y-87376000D01*
X168264474Y-97741670D02*
X169418000Y-96588144D01*
X167328950Y-95885000D02*
X167626809Y-96182859D01*
X165227000Y-95885000D02*
X167328950Y-95885000D01*
X168342409Y-96182859D02*
X168825812Y-95699456D01*
X167626809Y-96182859D02*
X168342409Y-96182859D01*
X168825812Y-95699456D02*
X168825812Y-93133812D01*
X168825812Y-93133812D02*
X165315899Y-89623899D01*
X165315899Y-89623899D02*
X164973000Y-89281000D01*
X164674294Y-89903302D02*
X164299899Y-89528907D01*
X164299899Y-89369899D02*
X163957000Y-89027000D01*
X165729334Y-94632401D02*
X167887113Y-94632401D01*
X164299899Y-89528907D02*
X164299899Y-89369899D01*
X164833302Y-89903302D02*
X164674294Y-89903302D01*
X168292401Y-94227113D02*
X168292401Y-93362401D01*
X165711933Y-94615000D02*
X165729334Y-94632401D01*
X165227000Y-94615000D02*
X165711933Y-94615000D01*
X167887113Y-94632401D02*
X168292401Y-94227113D01*
X168292401Y-93362401D02*
X164833302Y-89903302D01*
X163156899Y-88734899D02*
X162814000Y-88392000D01*
X163156899Y-89182649D02*
X163156899Y-88734899D01*
X166116000Y-92141750D02*
X163156899Y-89182649D01*
X165227000Y-93345000D02*
X166116000Y-92456000D01*
X166116000Y-92456000D02*
X166116000Y-92141750D01*
X161672949Y-88197781D02*
X161672949Y-87712848D01*
X161672949Y-88578781D02*
X161672949Y-88197781D01*
X165198084Y-92103916D02*
X161672949Y-88578781D01*
X160782000Y-87884000D02*
X160782000Y-88368933D01*
X160782000Y-88368933D02*
X162814000Y-90400933D01*
X162814000Y-90400933D02*
X162814000Y-90678000D01*
X149098000Y-72136000D02*
X147466000Y-72136000D01*
X147466000Y-72136000D02*
X146704000Y-71374000D01*
X146704000Y-71374000D02*
X146050000Y-71374000D01*
X149479000Y-72517000D02*
X149098000Y-72136000D01*
X149479000Y-74295000D02*
X149479000Y-72517000D01*
X160138297Y-75782685D02*
X159638298Y-75282686D01*
X161671000Y-77315388D02*
X160138297Y-75782685D01*
X161671000Y-79248000D02*
X161671000Y-77315388D01*
X126238000Y-98425000D02*
X126492000Y-98425000D01*
X124206000Y-100457000D02*
X126238000Y-98425000D01*
X169037000Y-100823000D02*
X165085000Y-100823000D01*
X165085000Y-100823000D02*
X159385000Y-95123000D01*
X159385000Y-95123000D02*
X147066000Y-95123000D01*
X144517999Y-97671001D02*
X144517999Y-98941001D01*
X147066000Y-95123000D02*
X144517999Y-97671001D01*
X144517999Y-98941001D02*
X144018000Y-99441000D01*
X170660000Y-139620000D02*
X170660000Y-114907000D01*
X170660000Y-114907000D02*
X169037000Y-113284000D01*
X165481000Y-123317000D02*
X165481000Y-110744000D01*
X159131000Y-129667000D02*
X165481000Y-123317000D01*
X165481000Y-110744000D02*
X167767000Y-108458000D01*
X129794000Y-101769341D02*
X129480249Y-101455590D01*
X129794000Y-104140000D02*
X129794000Y-101769341D01*
X130928999Y-113657001D02*
X130429000Y-113157002D01*
X132560000Y-115288002D02*
X130928999Y-113657001D01*
X132560000Y-139620000D02*
X132560000Y-115288002D01*
X167897033Y-98521080D02*
X167189927Y-98521080D01*
X167189927Y-98521080D02*
X167157335Y-98488488D01*
X167157335Y-98488488D02*
X165957494Y-98488488D01*
X165957494Y-98488488D02*
X165398705Y-97929699D01*
X165398705Y-97929699D02*
X165112699Y-97929699D01*
X165112699Y-97929699D02*
X161544000Y-94361000D01*
X161544000Y-94361000D02*
X146431000Y-94361000D01*
X146431000Y-94361000D02*
X142621004Y-98170996D01*
X142621004Y-98170996D02*
X142621004Y-98806000D01*
X167918791Y-96962269D02*
X167211685Y-96962269D01*
X167211685Y-96962269D02*
X166782115Y-96532699D01*
X141545089Y-98347395D02*
X141545089Y-98779679D01*
X166782115Y-96532699D02*
X164953693Y-96532699D01*
X164953693Y-96532699D02*
X162146994Y-93726000D01*
X162146994Y-93726000D02*
X146166484Y-93726000D01*
X146166484Y-93726000D02*
X141545089Y-98347395D01*
X141545089Y-98779679D02*
X141545089Y-99486785D01*
X145318232Y-93091000D02*
X140659615Y-97749617D01*
X167153057Y-95262699D02*
X164953693Y-95262699D01*
X167293816Y-95403458D02*
X167153057Y-95262699D01*
X164953693Y-95262699D02*
X162781994Y-93091000D01*
X162781994Y-93091000D02*
X145318232Y-93091000D01*
X168000922Y-95403458D02*
X167293816Y-95403458D01*
X140659615Y-97749617D02*
X140159616Y-98249616D01*
X144221540Y-92583000D02*
X139714905Y-97089635D01*
X139714905Y-97089635D02*
X139214906Y-97589634D01*
X166672927Y-93985967D02*
X164946961Y-93985967D01*
X166805894Y-93853000D02*
X166672927Y-93985967D01*
X163543994Y-92583000D02*
X144221540Y-92583000D01*
X164946961Y-93985967D02*
X163543994Y-92583000D01*
X167513000Y-93853000D02*
X166805894Y-93853000D01*
X140335000Y-80264000D02*
X140208000Y-80137000D01*
X140208000Y-80137000D02*
X140208000Y-79502000D01*
X141224000Y-80264000D02*
X140335000Y-80264000D01*
X141097000Y-79502000D02*
X141213000Y-79386000D01*
X141213000Y-79386000D02*
X141986000Y-79386000D01*
X140208000Y-79502000D02*
X141097000Y-79502000D01*
X143830000Y-73830000D02*
X143251000Y-73830000D01*
X143251000Y-73830000D02*
X142827000Y-73406000D01*
X142827000Y-73406000D02*
X141986000Y-73406000D01*
X142044000Y-71882000D02*
X142044000Y-73348000D01*
X142044000Y-73348000D02*
X141986000Y-73406000D01*
X172466000Y-80010000D02*
X172466000Y-81334894D01*
X171196000Y-78740000D02*
X172466000Y-80010000D01*
X172466000Y-81334894D02*
X172466000Y-82042000D01*
X139565261Y-120512635D02*
X139065262Y-120012636D01*
X139694625Y-120641999D02*
X139565261Y-120512635D01*
X150742001Y-120641999D02*
X139694625Y-120641999D01*
X154290000Y-117094000D02*
X150742001Y-120641999D01*
X154744000Y-117094000D02*
X154290000Y-117094000D01*
X119634000Y-108639894D02*
X119634000Y-109347000D01*
X119634000Y-105410000D02*
X119634000Y-108639894D01*
X118364000Y-104140000D02*
X119634000Y-105410000D01*
X157226000Y-98425000D02*
X156845000Y-98806000D01*
X157607000Y-98425000D02*
X157226000Y-98425000D01*
X161425001Y-108466001D02*
X161925000Y-108966000D01*
X161425001Y-107968517D02*
X161425001Y-108466001D01*
X160407885Y-106951401D02*
X161425001Y-107968517D01*
X158201401Y-106951401D02*
X160407885Y-106951401D01*
X158115000Y-106865000D02*
X158201401Y-106951401D01*
X167894000Y-109728000D02*
X168601106Y-109728000D01*
X168601106Y-109728000D02*
X169363106Y-108966000D01*
X169363106Y-108966000D02*
X178308000Y-108966000D01*
X178308000Y-108966000D02*
X179197000Y-108077000D01*
X179197000Y-108077000D02*
X179197000Y-102997000D01*
X179197000Y-102997000D02*
X178649999Y-102449999D01*
X178649999Y-102449999D02*
X177800000Y-101600000D01*
X148082000Y-102362000D02*
X146901204Y-101181204D01*
X137291420Y-101181204D02*
X136584314Y-101181204D01*
X146901204Y-101181204D02*
X137291420Y-101181204D01*
X153035000Y-98806000D02*
X156845000Y-98806000D01*
X152019000Y-99822000D02*
X153035000Y-98806000D01*
X152019000Y-101019894D02*
X152019000Y-99822000D01*
X152781000Y-102489000D02*
X152781000Y-101781894D01*
X152781000Y-101781894D02*
X152019000Y-101019894D01*
X157536000Y-108223000D02*
X157536000Y-107444000D01*
X157536000Y-107444000D02*
X158115000Y-106865000D01*
X158115000Y-106865000D02*
X158115000Y-100838000D01*
X138167999Y-103386001D02*
X137668000Y-103886000D01*
X138430000Y-103124000D02*
X138167999Y-103386001D01*
X145415000Y-103124000D02*
X138430000Y-103124000D01*
X122106081Y-91440000D02*
X120904000Y-91440000D01*
X122936000Y-91440000D02*
X122106081Y-91440000D01*
X123562999Y-103877999D02*
X124234956Y-103877999D01*
X123063000Y-103378000D02*
X123562999Y-103877999D01*
X124981497Y-102166609D02*
X128016000Y-99132106D01*
X128016000Y-99132106D02*
X128016000Y-96520000D01*
X128016000Y-96520000D02*
X122936000Y-91440000D01*
X124234956Y-103877999D02*
X124981497Y-103131458D01*
X124981497Y-103131458D02*
X124981497Y-102166609D01*
X121920000Y-92710000D02*
X122936000Y-93726000D01*
X122936000Y-93726000D02*
X122936000Y-101519725D01*
X118364000Y-91440000D02*
X119634000Y-92710000D01*
X122936000Y-101519725D02*
X123702097Y-102285822D01*
X119634000Y-92710000D02*
X121920000Y-92710000D01*
X123702097Y-102285822D02*
X124202096Y-102785821D01*
X181610000Y-107081514D02*
X181610000Y-105410000D01*
X181610000Y-105410000D02*
X180340000Y-104140000D01*
X180158106Y-108331000D02*
X180360514Y-108331000D01*
X180360514Y-108331000D02*
X181610000Y-107081514D01*
X177800000Y-109982000D02*
X178507106Y-109982000D01*
X178507106Y-109982000D02*
X180158106Y-108331000D01*
X167640000Y-106807000D02*
X168910000Y-106807000D01*
X168910000Y-106807000D02*
X170053000Y-107950000D01*
X166370000Y-108077000D02*
X167640000Y-106807000D01*
X159131000Y-106172000D02*
X160782000Y-106172000D01*
X160782000Y-106172000D02*
X162179000Y-107569000D01*
X157099000Y-105595000D02*
X157099000Y-104760061D01*
X157099000Y-104760061D02*
X157130672Y-104728389D01*
X142494000Y-112141000D02*
X144089401Y-110545599D01*
X144089401Y-110545599D02*
X144089401Y-109122401D01*
X144089401Y-109122401D02*
X143610000Y-108643000D01*
X143610000Y-108643000D02*
X143510000Y-108643000D01*
X147574000Y-118237000D02*
X144399000Y-115062000D01*
X144399000Y-115062000D02*
X143383000Y-115062000D01*
X180340000Y-101600000D02*
X183134000Y-101600000D01*
X183134000Y-101600000D02*
X185801000Y-104267000D01*
X145034000Y-108712000D02*
X143579000Y-108712000D01*
X143579000Y-108712000D02*
X143510000Y-108643000D01*
X155898000Y-101219000D02*
X156352000Y-101219000D01*
X156352000Y-101219000D02*
X158686037Y-98884963D01*
X158686037Y-98884963D02*
X158686037Y-98829638D01*
X150184129Y-82901617D02*
X149684130Y-83401616D01*
X157988000Y-81788000D02*
X156874383Y-82901617D01*
X157988000Y-78882000D02*
X157988000Y-81788000D01*
X156874383Y-82901617D02*
X150184129Y-82901617D01*
X156845000Y-77285000D02*
X156845000Y-77739000D01*
X156845000Y-77739000D02*
X157988000Y-78882000D01*
X153924000Y-103055000D02*
X153924000Y-100584000D01*
X153924000Y-100584000D02*
X153141627Y-99801627D01*
X157109867Y-75666133D02*
X157398346Y-75666133D01*
X156845000Y-75931000D02*
X157109867Y-75666133D01*
X156845000Y-76385000D02*
X156845000Y-75931000D01*
X158750000Y-76385000D02*
X158750000Y-75194514D01*
X158750000Y-75194514D02*
X158894401Y-75050113D01*
X159759752Y-74301887D02*
X160838210Y-75380345D01*
X158894401Y-74301887D02*
X159759752Y-74301887D01*
X158894401Y-75050113D02*
X158894401Y-74301887D01*
X158750000Y-77285000D02*
X158750000Y-82423000D01*
X158750000Y-82423000D02*
X157217999Y-83955001D01*
X157217999Y-83955001D02*
X157217999Y-86749001D01*
X157217999Y-86749001D02*
X156718000Y-87249000D01*
X154744000Y-114600042D02*
X154769915Y-114574127D01*
X154744000Y-115697000D02*
X154744000Y-114600042D01*
X161671000Y-112195894D02*
X163195000Y-110671894D01*
X161671000Y-112903000D02*
X161671000Y-112195894D01*
X163195000Y-103759000D02*
X160147000Y-100711000D01*
X163195000Y-110671894D02*
X163195000Y-103759000D01*
X139319000Y-111560894D02*
X139319000Y-112268000D01*
X142959830Y-107003189D02*
X139319000Y-110644019D01*
X143883515Y-107003189D02*
X142959830Y-107003189D01*
X139319000Y-110644019D02*
X139319000Y-111560894D01*
X139970001Y-128540001D02*
X140970000Y-129540000D01*
X135999598Y-124569598D02*
X139970001Y-128540001D01*
X135999598Y-119972152D02*
X135999598Y-124569598D01*
X136563110Y-119408641D02*
X135999598Y-119972152D01*
X136563110Y-119323116D02*
X136563110Y-119408641D01*
X136156699Y-118916705D02*
X136563110Y-119323116D01*
X138049000Y-116426994D02*
X136156699Y-118319295D01*
X138049000Y-115062000D02*
X138049000Y-116426994D01*
X136156699Y-118319295D02*
X136156699Y-118916705D01*
X147447000Y-105098000D02*
X147447000Y-106299000D01*
X147447000Y-106299000D02*
X147193000Y-106553000D01*
X143002000Y-106045000D02*
X138207062Y-110839938D01*
X138207062Y-110839938D02*
X138207062Y-111258162D01*
X138207062Y-111258162D02*
X138207062Y-111965268D01*
X138938000Y-121158000D02*
X148844000Y-121158000D01*
X148844000Y-121158000D02*
X149225000Y-121539000D01*
X135750288Y-119646712D02*
X134493000Y-120904000D01*
X135750288Y-115963712D02*
X135750288Y-119646712D01*
X136779000Y-114935000D02*
X135750288Y-115963712D01*
X178070001Y-127524001D02*
X176403000Y-125857000D01*
X176403000Y-125857000D02*
X174244000Y-125857000D01*
X179070000Y-129540000D02*
X178070001Y-128540001D01*
X178070001Y-128540001D02*
X178070001Y-127524001D01*
X148717000Y-106522340D02*
X148454128Y-106785212D01*
X148717000Y-105098000D02*
X148717000Y-106522340D01*
X148717000Y-105098000D02*
X148648000Y-105098000D01*
X149987000Y-105875584D02*
X149518690Y-106343894D01*
X149987000Y-105098000D02*
X149987000Y-105875584D01*
X151170877Y-105866190D02*
X150670878Y-106366189D01*
X151257000Y-105098000D02*
X151257000Y-105780067D01*
X151257000Y-105780067D02*
X151170877Y-105866190D01*
X149225000Y-111321000D02*
X149225000Y-111887000D01*
X149225000Y-111887000D02*
X149606000Y-112268000D01*
X147828000Y-111321000D02*
X147828000Y-111656073D01*
X147828000Y-111656073D02*
X148396859Y-112224932D01*
X146558000Y-111321000D02*
X146558000Y-112014000D01*
X146558000Y-112014000D02*
X146685000Y-112141000D01*
X145288000Y-111829000D02*
X145288000Y-111321000D01*
X145288000Y-112903000D02*
X145288000Y-111829000D01*
X149486187Y-82169000D02*
X148581247Y-83073940D01*
X156083000Y-82169000D02*
X149486187Y-82169000D01*
X155956000Y-75946000D02*
X155956000Y-77470000D01*
X157226000Y-74676000D02*
X155956000Y-75946000D01*
X155956000Y-77470000D02*
X157099000Y-78613000D01*
X157099000Y-81153000D02*
X156083000Y-82169000D01*
X148581247Y-83073940D02*
X148581247Y-83781046D01*
X158115000Y-74676000D02*
X157226000Y-74676000D01*
X157099000Y-78613000D02*
X157099000Y-81153000D01*
X152527000Y-105606000D02*
X152527000Y-105098000D01*
X152527000Y-105606000D02*
X152527000Y-106553000D01*
X152527000Y-106553000D02*
X152273000Y-106807000D01*
X152273000Y-106807000D02*
X151892000Y-106807000D01*
X155644000Y-115697000D02*
X155644000Y-117094000D01*
X156236000Y-113773000D02*
X156236000Y-115105000D01*
X156236000Y-115105000D02*
X155644000Y-115697000D01*
X156886000Y-107528000D02*
X157099000Y-107315000D01*
X157099000Y-107315000D02*
X157099000Y-106495000D01*
X156886000Y-108223000D02*
X156886000Y-107528000D01*
X156236000Y-108223000D02*
X156236000Y-107087000D01*
X156236000Y-107087000D02*
X156210000Y-107061000D01*
X158186000Y-114300672D02*
X158186000Y-113773000D01*
X159131000Y-115245672D02*
X158186000Y-114300672D01*
X159131000Y-115697000D02*
X159131000Y-115245672D01*
X156718000Y-118110000D02*
X159131000Y-115697000D01*
X154940000Y-118110000D02*
X156718000Y-118110000D01*
X143510000Y-129540000D02*
X154940000Y-118110000D01*
X159639000Y-115178922D02*
X158836000Y-114375922D01*
X159639000Y-116586000D02*
X159639000Y-115178922D01*
X158836000Y-114375922D02*
X158836000Y-113773000D01*
X157099000Y-119126000D02*
X159639000Y-116586000D01*
X155321000Y-119126000D02*
X157099000Y-119126000D01*
X151003000Y-123444000D02*
X155321000Y-119126000D01*
X181610000Y-129540000D02*
X176530000Y-124460000D01*
X176530000Y-124460000D02*
X174879000Y-124460000D01*
X154740894Y-112141000D02*
X155448000Y-112141000D01*
X153809699Y-113072195D02*
X154740894Y-112141000D01*
X153809699Y-113906301D02*
X153809699Y-113072195D01*
X153035000Y-114681000D02*
X153809699Y-113906301D01*
X154940000Y-104902000D02*
X154940000Y-101277000D01*
X154940000Y-101277000D02*
X154998000Y-101219000D01*
X178649999Y-92289999D02*
X177800000Y-91440000D01*
X179070000Y-92710000D02*
X178649999Y-92289999D01*
X157570293Y-114789352D02*
X158070292Y-115289351D01*
X157536000Y-114755059D02*
X157570293Y-114789352D01*
X157536000Y-113773000D02*
X157536000Y-114755059D01*
X175006000Y-113284000D02*
X175505999Y-112784001D01*
X175505999Y-112784001D02*
X182236999Y-112784001D01*
X182236999Y-112784001D02*
X187071000Y-107950000D01*
X187071000Y-107950000D02*
X187071000Y-95885000D01*
X187071000Y-95885000D02*
X183896000Y-92710000D01*
X183896000Y-92710000D02*
X179070000Y-92710000D01*
X153035000Y-114681000D02*
X153035000Y-116205000D01*
X153035000Y-116205000D02*
X151892000Y-117348000D01*
X154305000Y-106680000D02*
X153924000Y-106299000D01*
X153924000Y-106299000D02*
X153924000Y-106172000D01*
X153924000Y-106172000D02*
X153924000Y-103955000D01*
X189103000Y-93599000D02*
X186944000Y-91440000D01*
X186944000Y-91440000D02*
X180340000Y-91440000D01*
X189103000Y-109220000D02*
X189103000Y-93599000D01*
X184395999Y-113927001D02*
X189103000Y-109220000D01*
X177673000Y-114427000D02*
X178172999Y-113927001D01*
X178172999Y-113927001D02*
X184395999Y-113927001D01*
X156886000Y-116627000D02*
X156972000Y-116713000D01*
X156886000Y-113773000D02*
X156886000Y-116627000D01*
X154059001Y-111907242D02*
X153030289Y-112935954D01*
X154059001Y-111624999D02*
X154059001Y-111907242D01*
X153030289Y-112935954D02*
X153030289Y-113157000D01*
X154559000Y-111125000D02*
X154059001Y-111624999D01*
D31*
G36*
X176942352Y-90605473D02*
X176686516Y-90988357D01*
X176596679Y-91440000D01*
X176686516Y-91891643D01*
X176942352Y-92274527D01*
X177325236Y-92530363D01*
X177776879Y-92620200D01*
X177823121Y-92620200D01*
X178248925Y-92535503D01*
X178746711Y-93033289D01*
X178895037Y-93132398D01*
X179070000Y-93167200D01*
X179467834Y-93167200D01*
X179226516Y-93528357D01*
X179136679Y-93980000D01*
X179226516Y-94431643D01*
X179482352Y-94814527D01*
X179865236Y-95070363D01*
X180316879Y-95160200D01*
X180363121Y-95160200D01*
X180814764Y-95070363D01*
X181197648Y-94814527D01*
X181453484Y-94431643D01*
X181543321Y-93980000D01*
X181453484Y-93528357D01*
X181212166Y-93167200D01*
X183706622Y-93167200D01*
X186613800Y-96074378D01*
X186613800Y-104060127D01*
X186505220Y-103797344D01*
X186271885Y-103563601D01*
X185966862Y-103436944D01*
X185636587Y-103436656D01*
X185622893Y-103442314D01*
X183457289Y-101276711D01*
X183308963Y-101177602D01*
X183134000Y-101142800D01*
X181449771Y-101142800D01*
X181197648Y-100765473D01*
X180814764Y-100509637D01*
X180363121Y-100419800D01*
X180316879Y-100419800D01*
X179865236Y-100509637D01*
X179482352Y-100765473D01*
X179226516Y-101148357D01*
X179136679Y-101600000D01*
X179226516Y-102051643D01*
X179482352Y-102434527D01*
X179865236Y-102690363D01*
X180316879Y-102780200D01*
X180363121Y-102780200D01*
X180814764Y-102690363D01*
X181197648Y-102434527D01*
X181449771Y-102057200D01*
X182944622Y-102057200D01*
X184976112Y-104088691D01*
X184970944Y-104101138D01*
X184970656Y-104431413D01*
X185096780Y-104736656D01*
X185330115Y-104970399D01*
X185635138Y-105097056D01*
X185965413Y-105097344D01*
X186270656Y-104971220D01*
X186504399Y-104737885D01*
X186613800Y-104474419D01*
X186613800Y-107760622D01*
X182047621Y-112326801D01*
X175505999Y-112326801D01*
X175349728Y-112357885D01*
X175331036Y-112361603D01*
X175184799Y-112459316D01*
X175171862Y-112453944D01*
X174841587Y-112453656D01*
X174536344Y-112579780D01*
X174302601Y-112813115D01*
X174175944Y-113118138D01*
X174175656Y-113448413D01*
X174301780Y-113753656D01*
X174535115Y-113987399D01*
X174840138Y-114114056D01*
X175170413Y-114114344D01*
X175475656Y-113988220D01*
X175709399Y-113754885D01*
X175836056Y-113449862D01*
X175836238Y-113241201D01*
X182236999Y-113241201D01*
X182411962Y-113206399D01*
X182560288Y-113107290D01*
X187394289Y-108273289D01*
X187493398Y-108124963D01*
X187528200Y-107950000D01*
X187528200Y-95885000D01*
X187493398Y-95710037D01*
X187394289Y-95561711D01*
X184219289Y-92386711D01*
X184070963Y-92287602D01*
X183896000Y-92252800D01*
X181212166Y-92252800D01*
X181449771Y-91897200D01*
X186754622Y-91897200D01*
X188645800Y-93788378D01*
X188645800Y-109030622D01*
X184206621Y-113469801D01*
X178172999Y-113469801D01*
X177998036Y-113504603D01*
X177851799Y-113602316D01*
X177838862Y-113596944D01*
X177508587Y-113596656D01*
X177203344Y-113722780D01*
X176969601Y-113956115D01*
X176842944Y-114261138D01*
X176842656Y-114591413D01*
X176968780Y-114896656D01*
X177202115Y-115130399D01*
X177507138Y-115257056D01*
X177837413Y-115257344D01*
X178142656Y-115131220D01*
X178376399Y-114897885D01*
X178503056Y-114592862D01*
X178503238Y-114384201D01*
X184395999Y-114384201D01*
X184570962Y-114349399D01*
X184719288Y-114250290D01*
X189426289Y-109543289D01*
X189525398Y-109394963D01*
X189560200Y-109220000D01*
X189560200Y-93599000D01*
X189525398Y-93424037D01*
X189426289Y-93275711D01*
X187267289Y-91116711D01*
X187118963Y-91017602D01*
X186944000Y-90982800D01*
X181449771Y-90982800D01*
X181197648Y-90605473D01*
X181040096Y-90500200D01*
X190094800Y-90500200D01*
X190094800Y-141834800D01*
X117245200Y-141834800D01*
X117245200Y-134632452D01*
X124779483Y-134632452D01*
X125057527Y-135305371D01*
X125571921Y-135820664D01*
X126244354Y-136099882D01*
X126972452Y-136100517D01*
X127645371Y-135822473D01*
X128160664Y-135308079D01*
X128439882Y-134635646D01*
X128440517Y-133907548D01*
X128162473Y-133234629D01*
X127648079Y-132719336D01*
X126975646Y-132440118D01*
X126247548Y-132439483D01*
X125574629Y-132717527D01*
X125059336Y-133231921D01*
X124780118Y-133904354D01*
X124779483Y-134632452D01*
X117245200Y-134632452D01*
X117245200Y-113321415D01*
X129598656Y-113321415D01*
X129724780Y-113626658D01*
X129958115Y-113860401D01*
X130263138Y-113987058D01*
X130593413Y-113987346D01*
X130607108Y-113981688D01*
X132102800Y-115477380D01*
X132102800Y-138261433D01*
X131750915Y-138406829D01*
X131348243Y-138808799D01*
X131130049Y-139334268D01*
X131129553Y-139903236D01*
X131346829Y-140429085D01*
X131748799Y-140831757D01*
X132274268Y-141049951D01*
X132843236Y-141050447D01*
X133369085Y-140833171D01*
X133771757Y-140431201D01*
X133989951Y-139905732D01*
X133990447Y-139336764D01*
X133773171Y-138810915D01*
X133371201Y-138408243D01*
X133017200Y-138261249D01*
X133017200Y-135832452D01*
X133179483Y-135832452D01*
X133457527Y-136505371D01*
X133971921Y-137020664D01*
X134644354Y-137299882D01*
X135372452Y-137300517D01*
X136045371Y-137022473D01*
X136560664Y-136508079D01*
X136839882Y-135835646D01*
X136840517Y-135107548D01*
X136747915Y-134883432D01*
X139639570Y-134883432D01*
X139841654Y-135372513D01*
X140215519Y-135747031D01*
X140704246Y-135949968D01*
X141233432Y-135950430D01*
X141722513Y-135748346D01*
X142097031Y-135374481D01*
X142240101Y-135029929D01*
X142381654Y-135372513D01*
X142755519Y-135747031D01*
X142862300Y-135791370D01*
X142862300Y-136034213D01*
X142911603Y-136282077D01*
X143052007Y-136492206D01*
X146336794Y-139776993D01*
X146546923Y-139917397D01*
X146794787Y-139966700D01*
X162179000Y-139966700D01*
X162426864Y-139917397D01*
X162636993Y-139776993D01*
X163915711Y-138498275D01*
X163994413Y-138498344D01*
X164299656Y-138372220D01*
X164533399Y-138138885D01*
X164660056Y-137833862D01*
X164660344Y-137503587D01*
X164534220Y-137198344D01*
X164300885Y-136964601D01*
X163995862Y-136837944D01*
X163665587Y-136837656D01*
X163360344Y-136963780D01*
X163126601Y-137197115D01*
X162999944Y-137502138D01*
X162999874Y-137582140D01*
X161910714Y-138671300D01*
X147063073Y-138671300D01*
X144175905Y-135784132D01*
X144262513Y-135748346D01*
X144637031Y-135374481D01*
X144839968Y-134885754D01*
X144840189Y-134632452D01*
X162879483Y-134632452D01*
X163157527Y-135305371D01*
X163671921Y-135820664D01*
X164344354Y-136099882D01*
X165072452Y-136100517D01*
X165745371Y-135822473D01*
X166260664Y-135308079D01*
X166539882Y-134635646D01*
X166540517Y-133907548D01*
X166262473Y-133234629D01*
X165748079Y-132719336D01*
X165075646Y-132440118D01*
X164347548Y-132439483D01*
X163674629Y-132717527D01*
X163159336Y-133231921D01*
X162880118Y-133904354D01*
X162879483Y-134632452D01*
X144840189Y-134632452D01*
X144840430Y-134356568D01*
X144638346Y-133867487D01*
X144264481Y-133492969D01*
X143775754Y-133290032D01*
X143246568Y-133289570D01*
X142757487Y-133491654D01*
X142382969Y-133865519D01*
X142239899Y-134210071D01*
X142098346Y-133867487D01*
X141724481Y-133492969D01*
X141235754Y-133290032D01*
X140706568Y-133289570D01*
X140217487Y-133491654D01*
X139842969Y-133865519D01*
X139640032Y-134354246D01*
X139639570Y-134883432D01*
X136747915Y-134883432D01*
X136562473Y-134434629D01*
X136048079Y-133919336D01*
X135375646Y-133640118D01*
X134647548Y-133639483D01*
X133974629Y-133917527D01*
X133459336Y-134431921D01*
X133180118Y-135104354D01*
X133179483Y-135832452D01*
X133017200Y-135832452D01*
X133017200Y-132244413D01*
X140139656Y-132244413D01*
X140265780Y-132549656D01*
X140499115Y-132783399D01*
X140804138Y-132910056D01*
X141134413Y-132910344D01*
X141439656Y-132784220D01*
X141673399Y-132550885D01*
X141800056Y-132245862D01*
X141800344Y-131915587D01*
X141674220Y-131610344D01*
X141440885Y-131376601D01*
X141135862Y-131249944D01*
X140805587Y-131249656D01*
X140500344Y-131375780D01*
X140266601Y-131609115D01*
X140139944Y-131914138D01*
X140139656Y-132244413D01*
X133017200Y-132244413D01*
X133017200Y-115288002D01*
X132982398Y-115113039D01*
X132883289Y-114964713D01*
X131253887Y-113335311D01*
X131259056Y-113322864D01*
X131259344Y-112992589D01*
X131133220Y-112687346D01*
X130899885Y-112453603D01*
X130594862Y-112326946D01*
X130264587Y-112326658D01*
X129959344Y-112452782D01*
X129725601Y-112686117D01*
X129598944Y-112991140D01*
X129598656Y-113321415D01*
X117245200Y-113321415D01*
X117245200Y-104564918D01*
X117250516Y-104591643D01*
X117506352Y-104974527D01*
X117889236Y-105230363D01*
X118340879Y-105320200D01*
X118387121Y-105320200D01*
X118812925Y-105235503D01*
X119176800Y-105599378D01*
X119176800Y-108637633D01*
X119164344Y-108642780D01*
X118930601Y-108876115D01*
X118803944Y-109181138D01*
X118803656Y-109511413D01*
X118929780Y-109816656D01*
X119163115Y-110050399D01*
X119468138Y-110177056D01*
X119798413Y-110177344D01*
X120103656Y-110051220D01*
X120337399Y-109817885D01*
X120464056Y-109512862D01*
X120464245Y-109296200D01*
X139104222Y-109296200D01*
X137883773Y-110516649D01*
X137784664Y-110664975D01*
X137749862Y-110839938D01*
X137749862Y-111255901D01*
X137737406Y-111261048D01*
X137503663Y-111494383D01*
X137377006Y-111799406D01*
X137376718Y-112129681D01*
X137502842Y-112434924D01*
X137736177Y-112668667D01*
X138041200Y-112795324D01*
X138371475Y-112795612D01*
X138599753Y-112701289D01*
X138614780Y-112737656D01*
X138848115Y-112971399D01*
X139153138Y-113098056D01*
X139483413Y-113098344D01*
X139788656Y-112972220D01*
X140022399Y-112738885D01*
X140149056Y-112433862D01*
X140149344Y-112103587D01*
X140023220Y-111798344D01*
X139789885Y-111564601D01*
X139776200Y-111558918D01*
X139776200Y-110833397D01*
X140822299Y-109787298D01*
X140822299Y-111056671D01*
X140805587Y-111056656D01*
X140500344Y-111182780D01*
X140266601Y-111416115D01*
X140139944Y-111721138D01*
X140139656Y-112051413D01*
X140265780Y-112356656D01*
X140499115Y-112590399D01*
X140804138Y-112717056D01*
X141134413Y-112717344D01*
X141439656Y-112591220D01*
X141673399Y-112357885D01*
X141679383Y-112343475D01*
X141789780Y-112610656D01*
X142023115Y-112844399D01*
X142328138Y-112971056D01*
X142658413Y-112971344D01*
X142963656Y-112845220D01*
X143197399Y-112611885D01*
X143324056Y-112306862D01*
X143324344Y-111976587D01*
X143318686Y-111962892D01*
X144248469Y-111033109D01*
X144270534Y-111048185D01*
X144399000Y-111074200D01*
X144660808Y-111074200D01*
X144651331Y-111121000D01*
X144651331Y-111521000D01*
X144674356Y-111643365D01*
X144746673Y-111755749D01*
X144830800Y-111813231D01*
X144830800Y-112193633D01*
X144818344Y-112198780D01*
X144584601Y-112432115D01*
X144457944Y-112737138D01*
X144457656Y-113067413D01*
X144583780Y-113372656D01*
X144817115Y-113606399D01*
X145122138Y-113733056D01*
X145452413Y-113733344D01*
X145757656Y-113607220D01*
X145991399Y-113373885D01*
X146118056Y-113068862D01*
X146118335Y-112748452D01*
X146214115Y-112844399D01*
X146519138Y-112971056D01*
X146849413Y-112971344D01*
X147154656Y-112845220D01*
X147388399Y-112611885D01*
X147515056Y-112306862D01*
X147515332Y-111989983D01*
X147571972Y-112046623D01*
X147566803Y-112059070D01*
X147566515Y-112389345D01*
X147692639Y-112694588D01*
X147925974Y-112928331D01*
X148230997Y-113054988D01*
X148561272Y-113055276D01*
X148866515Y-112929152D01*
X148979926Y-112815939D01*
X149135115Y-112971399D01*
X149440138Y-113098056D01*
X149770413Y-113098344D01*
X150075656Y-112972220D01*
X150309399Y-112738885D01*
X150436056Y-112433862D01*
X150436344Y-112103587D01*
X150310220Y-111798344D01*
X150076885Y-111564601D01*
X149861669Y-111475235D01*
X149861669Y-111121000D01*
X149852863Y-111074200D01*
X153728844Y-111074200D01*
X153728656Y-111289413D01*
X153734492Y-111303536D01*
X153636603Y-111450036D01*
X153601801Y-111624999D01*
X153601801Y-111717863D01*
X152992898Y-112326767D01*
X152865876Y-112326656D01*
X152560633Y-112452780D01*
X152326890Y-112686115D01*
X152200233Y-112991138D01*
X152199945Y-113321413D01*
X152326069Y-113626656D01*
X152559404Y-113860399D01*
X152702851Y-113919963D01*
X152565344Y-113976780D01*
X152331601Y-114210115D01*
X152204944Y-114515138D01*
X152204656Y-114845413D01*
X152330780Y-115150656D01*
X152564115Y-115384399D01*
X152577800Y-115390082D01*
X152577800Y-116015622D01*
X152070309Y-116523113D01*
X152057862Y-116517944D01*
X151727587Y-116517656D01*
X151422344Y-116643780D01*
X151188601Y-116877115D01*
X151061944Y-117182138D01*
X151061656Y-117512413D01*
X151187780Y-117817656D01*
X151421115Y-118051399D01*
X151726138Y-118178056D01*
X152056413Y-118178344D01*
X152361656Y-118052220D01*
X152595399Y-117818885D01*
X152722056Y-117513862D01*
X152722344Y-117183587D01*
X152716686Y-117169892D01*
X153358289Y-116528289D01*
X153457398Y-116379963D01*
X153492200Y-116205000D01*
X153492200Y-115390367D01*
X153504656Y-115385220D01*
X153738399Y-115151885D01*
X153865056Y-114846862D01*
X153865344Y-114516587D01*
X153859686Y-114502892D01*
X153939846Y-114422732D01*
X153939571Y-114738540D01*
X154065695Y-115043783D01*
X154255670Y-115234091D01*
X154233856Y-115266017D01*
X154207331Y-115397000D01*
X154207331Y-115997000D01*
X154230356Y-116119365D01*
X154302673Y-116231749D01*
X154413017Y-116307144D01*
X154544000Y-116333669D01*
X154944000Y-116333669D01*
X155066365Y-116310644D01*
X155178749Y-116238327D01*
X155186800Y-116226544D01*
X155186800Y-116561540D01*
X155185327Y-116559251D01*
X155074983Y-116483856D01*
X154944000Y-116457331D01*
X154544000Y-116457331D01*
X154421635Y-116480356D01*
X154309251Y-116552673D01*
X154245756Y-116645601D01*
X154115037Y-116671602D01*
X153966711Y-116770711D01*
X150552623Y-120184799D01*
X139892702Y-120184799D01*
X139895318Y-120178498D01*
X139895606Y-119848223D01*
X139769482Y-119542980D01*
X139536147Y-119309237D01*
X139231124Y-119182580D01*
X138900849Y-119182292D01*
X138595606Y-119308416D01*
X138361863Y-119541751D01*
X138235206Y-119846774D01*
X138234918Y-120177049D01*
X138361042Y-120482292D01*
X138400343Y-120521662D01*
X138234601Y-120687115D01*
X138107944Y-120992138D01*
X138107656Y-121322413D01*
X138233780Y-121627656D01*
X138467115Y-121861399D01*
X138772138Y-121988056D01*
X139102413Y-121988344D01*
X139407656Y-121862220D01*
X139641399Y-121628885D01*
X139647082Y-121615200D01*
X148394733Y-121615200D01*
X148394656Y-121703413D01*
X148520780Y-122008656D01*
X148754115Y-122242399D01*
X149059138Y-122369056D01*
X149389413Y-122369344D01*
X149694656Y-122243220D01*
X149928399Y-122009885D01*
X150055056Y-121704862D01*
X150055344Y-121374587D01*
X149941556Y-121099199D01*
X150742001Y-121099199D01*
X150916964Y-121064397D01*
X151065290Y-120965288D01*
X154361580Y-117668998D01*
X154413017Y-117704144D01*
X154544000Y-117730669D01*
X154700583Y-117730669D01*
X154616711Y-117786711D01*
X144070854Y-128332568D01*
X143775754Y-128210032D01*
X143246568Y-128209570D01*
X142757487Y-128411654D01*
X142382969Y-128785519D01*
X142239899Y-129130071D01*
X142098346Y-128787487D01*
X141724481Y-128412969D01*
X141235754Y-128210032D01*
X140706568Y-128209570D01*
X140409071Y-128332493D01*
X136456798Y-124380220D01*
X136456798Y-120161531D01*
X136886399Y-119731930D01*
X136985508Y-119583604D01*
X137020310Y-119408641D01*
X137020310Y-119323116D01*
X136988544Y-119163413D01*
X140012656Y-119163413D01*
X140138780Y-119468656D01*
X140372115Y-119702399D01*
X140677138Y-119829056D01*
X141007413Y-119829344D01*
X141312656Y-119703220D01*
X141546399Y-119469885D01*
X141673056Y-119164862D01*
X141673126Y-119084860D01*
X142570993Y-118186993D01*
X142711397Y-117976864D01*
X142760700Y-117729000D01*
X142760700Y-115715487D01*
X142811584Y-115664692D01*
X142912115Y-115765399D01*
X143217138Y-115892056D01*
X143547413Y-115892344D01*
X143852656Y-115766220D01*
X144086399Y-115532885D01*
X144092082Y-115519200D01*
X144209622Y-115519200D01*
X146749113Y-118058691D01*
X146743944Y-118071138D01*
X146743656Y-118401413D01*
X146869780Y-118706656D01*
X147103115Y-118940399D01*
X147408138Y-119067056D01*
X147738413Y-119067344D01*
X148043656Y-118941220D01*
X148277399Y-118707885D01*
X148404056Y-118402862D01*
X148404344Y-118072587D01*
X148278220Y-117767344D01*
X148044885Y-117533601D01*
X147739862Y-117406944D01*
X147409587Y-117406656D01*
X147395892Y-117412314D01*
X144722289Y-114738711D01*
X144573963Y-114639602D01*
X144399000Y-114604800D01*
X144092367Y-114604800D01*
X144087220Y-114592344D01*
X143853885Y-114358601D01*
X143548862Y-114231944D01*
X143218587Y-114231656D01*
X142913344Y-114357780D01*
X142684416Y-114586308D01*
X142583885Y-114485601D01*
X142278862Y-114358944D01*
X141948587Y-114358656D01*
X141643344Y-114484780D01*
X141409601Y-114718115D01*
X141282944Y-115023138D01*
X141282656Y-115353413D01*
X141408780Y-115658656D01*
X141465300Y-115715275D01*
X141465300Y-117460714D01*
X140757289Y-118168725D01*
X140678587Y-118168656D01*
X140373344Y-118294780D01*
X140139601Y-118528115D01*
X140012944Y-118833138D01*
X140012656Y-119163413D01*
X136988544Y-119163413D01*
X136985508Y-119148153D01*
X136886399Y-118999827D01*
X136613899Y-118727327D01*
X136613899Y-118508673D01*
X138372289Y-116750283D01*
X138471398Y-116601957D01*
X138506200Y-116426994D01*
X138506200Y-115771367D01*
X138518656Y-115766220D01*
X138752399Y-115532885D01*
X138879056Y-115227862D01*
X138879344Y-114897587D01*
X138753220Y-114592344D01*
X138519885Y-114358601D01*
X138214862Y-114231944D01*
X137884587Y-114231656D01*
X137579344Y-114357780D01*
X137477416Y-114459530D01*
X137249885Y-114231601D01*
X136944862Y-114104944D01*
X136614587Y-114104656D01*
X136309344Y-114230780D01*
X136075601Y-114464115D01*
X135948944Y-114769138D01*
X135948656Y-115099413D01*
X135954314Y-115113107D01*
X135426999Y-115640423D01*
X135327890Y-115788749D01*
X135293088Y-115963712D01*
X135293088Y-119457334D01*
X134671309Y-120079113D01*
X134658862Y-120073944D01*
X134328587Y-120073656D01*
X134023344Y-120199780D01*
X133789601Y-120433115D01*
X133662944Y-120738138D01*
X133662656Y-121068413D01*
X133788780Y-121373656D01*
X134022115Y-121607399D01*
X134327138Y-121734056D01*
X134657413Y-121734344D01*
X134962656Y-121608220D01*
X135196399Y-121374885D01*
X135323056Y-121069862D01*
X135323344Y-120739587D01*
X135317686Y-120725892D01*
X135542398Y-120501180D01*
X135542398Y-124569598D01*
X135577200Y-124744561D01*
X135676309Y-124892887D01*
X139762568Y-128979146D01*
X139640032Y-129274246D01*
X139639570Y-129803432D01*
X139841654Y-130292513D01*
X140215519Y-130667031D01*
X140704246Y-130869968D01*
X141233432Y-130870430D01*
X141722513Y-130668346D01*
X142097031Y-130294481D01*
X142240101Y-129949929D01*
X142381654Y-130292513D01*
X142755519Y-130667031D01*
X143244246Y-130869968D01*
X143773432Y-130870430D01*
X144262513Y-130668346D01*
X144637031Y-130294481D01*
X144839968Y-129805754D01*
X144840430Y-129276568D01*
X144717507Y-128979071D01*
X150172730Y-123523848D01*
X150172656Y-123608413D01*
X150298780Y-123913656D01*
X150532115Y-124147399D01*
X150837138Y-124274056D01*
X151167413Y-124274344D01*
X151472656Y-124148220D01*
X151706399Y-123914885D01*
X151833056Y-123609862D01*
X151833344Y-123279587D01*
X151827686Y-123265892D01*
X155510378Y-119583200D01*
X157099000Y-119583200D01*
X157273963Y-119548398D01*
X157422289Y-119449289D01*
X159962289Y-116909290D01*
X160061398Y-116760963D01*
X160079166Y-116671635D01*
X160096200Y-116586000D01*
X160096200Y-115178922D01*
X160061398Y-115003959D01*
X160036076Y-114966062D01*
X159962289Y-114855632D01*
X159736523Y-114629866D01*
X159814671Y-114615162D01*
X159911000Y-114634669D01*
X160361000Y-114634669D01*
X160483365Y-114611644D01*
X160595749Y-114539327D01*
X160671144Y-114428983D01*
X160697669Y-114298000D01*
X160697669Y-113248000D01*
X160674644Y-113125635D01*
X160602327Y-113013251D01*
X160491983Y-112937856D01*
X160361000Y-112911331D01*
X159911000Y-112911331D01*
X159807329Y-112930838D01*
X159711000Y-112911331D01*
X159261000Y-112911331D01*
X159157329Y-112930838D01*
X159061000Y-112911331D01*
X158611000Y-112911331D01*
X158507329Y-112930838D01*
X158411000Y-112911331D01*
X157961000Y-112911331D01*
X157857329Y-112930838D01*
X157761000Y-112911331D01*
X157311000Y-112911331D01*
X157207329Y-112930838D01*
X157111000Y-112911331D01*
X156661000Y-112911331D01*
X156557329Y-112930838D01*
X156461000Y-112911331D01*
X156011000Y-112911331D01*
X155888635Y-112934356D01*
X155776251Y-113006673D01*
X155700856Y-113117017D01*
X155674331Y-113248000D01*
X155674331Y-114298000D01*
X155697356Y-114420365D01*
X155769673Y-114532749D01*
X155778800Y-114538985D01*
X155778800Y-114915621D01*
X155634090Y-115060331D01*
X155457968Y-115060331D01*
X155473314Y-115045012D01*
X155599971Y-114739989D01*
X155600259Y-114409714D01*
X155474135Y-114104471D01*
X155240800Y-113870728D01*
X154935777Y-113744071D01*
X154605502Y-113743783D01*
X154300259Y-113869907D01*
X154266899Y-113903209D01*
X154266899Y-113261573D01*
X154830722Y-112697750D01*
X154977115Y-112844399D01*
X155282138Y-112971056D01*
X155612413Y-112971344D01*
X155917656Y-112845220D01*
X156151399Y-112611885D01*
X156278056Y-112306862D01*
X156278344Y-111976587D01*
X156152220Y-111671344D01*
X155918885Y-111437601D01*
X155613862Y-111310944D01*
X155380802Y-111310741D01*
X155389056Y-111290862D01*
X155389344Y-110960587D01*
X155263220Y-110655344D01*
X155125545Y-110517429D01*
X156189487Y-109453487D01*
X156260185Y-109348466D01*
X156270769Y-109296200D01*
X161163158Y-109296200D01*
X161220780Y-109435656D01*
X161454115Y-109669399D01*
X161759138Y-109796056D01*
X162089413Y-109796344D01*
X162394656Y-109670220D01*
X162628399Y-109436885D01*
X162686817Y-109296200D01*
X162737800Y-109296200D01*
X162737800Y-110482515D01*
X161347711Y-111872605D01*
X161248602Y-112020931D01*
X161214290Y-112193431D01*
X161201344Y-112198780D01*
X160967601Y-112432115D01*
X160840944Y-112737138D01*
X160840656Y-113067413D01*
X160966780Y-113372656D01*
X161200115Y-113606399D01*
X161505138Y-113733056D01*
X161835413Y-113733344D01*
X162140656Y-113607220D01*
X162374399Y-113373885D01*
X162501056Y-113068862D01*
X162501344Y-112738587D01*
X162375220Y-112433344D01*
X162227803Y-112285669D01*
X163518289Y-110995184D01*
X163617398Y-110846857D01*
X163618774Y-110839938D01*
X163652200Y-110671894D01*
X163652200Y-109296200D01*
X166282222Y-109296200D01*
X165157711Y-110420711D01*
X165058602Y-110569037D01*
X165023800Y-110744000D01*
X165023800Y-123127622D01*
X159309309Y-128842113D01*
X159296862Y-128836944D01*
X158966587Y-128836656D01*
X158661344Y-128962780D01*
X158427601Y-129196115D01*
X158300944Y-129501138D01*
X158300656Y-129831413D01*
X158426780Y-130136656D01*
X158660115Y-130370399D01*
X158965138Y-130497056D01*
X159295413Y-130497344D01*
X159600656Y-130371220D01*
X159834399Y-130137885D01*
X159961056Y-129832862D01*
X159961344Y-129502587D01*
X159955686Y-129488892D01*
X165804289Y-123640289D01*
X165903398Y-123491963D01*
X165938200Y-123317000D01*
X165938200Y-113448413D01*
X168206656Y-113448413D01*
X168332780Y-113753656D01*
X168566115Y-113987399D01*
X168871138Y-114114056D01*
X169201413Y-114114344D01*
X169215108Y-114108686D01*
X170202800Y-115096378D01*
X170202800Y-138261433D01*
X169850915Y-138406829D01*
X169448243Y-138808799D01*
X169230049Y-139334268D01*
X169229553Y-139903236D01*
X169446829Y-140429085D01*
X169848799Y-140831757D01*
X170374268Y-141049951D01*
X170943236Y-141050447D01*
X171469085Y-140833171D01*
X171871757Y-140431201D01*
X172089951Y-139905732D01*
X172090447Y-139336764D01*
X171993616Y-139102413D01*
X175064656Y-139102413D01*
X175190780Y-139407656D01*
X175424115Y-139641399D01*
X175729138Y-139768056D01*
X176059413Y-139768344D01*
X176364656Y-139642220D01*
X176421275Y-139585700D01*
X179578000Y-139585700D01*
X179825864Y-139536397D01*
X180035993Y-139395993D01*
X182067993Y-137363993D01*
X182208397Y-137153864D01*
X182257700Y-136906000D01*
X182257700Y-135791654D01*
X182362513Y-135748346D01*
X182737031Y-135374481D01*
X182939968Y-134885754D01*
X182940430Y-134356568D01*
X182738346Y-133867487D01*
X182364481Y-133492969D01*
X181875754Y-133290032D01*
X181346568Y-133289570D01*
X180857487Y-133491654D01*
X180482969Y-133865519D01*
X180339899Y-134210071D01*
X180198346Y-133867487D01*
X179824481Y-133492969D01*
X179335754Y-133290032D01*
X178806568Y-133289570D01*
X178317487Y-133491654D01*
X177942969Y-133865519D01*
X177740032Y-134354246D01*
X177739570Y-134883432D01*
X177941654Y-135372513D01*
X178315519Y-135747031D01*
X178804246Y-135949968D01*
X179333432Y-135950430D01*
X179822513Y-135748346D01*
X180197031Y-135374481D01*
X180340101Y-135029929D01*
X180481654Y-135372513D01*
X180855519Y-135747031D01*
X180962300Y-135791370D01*
X180962300Y-136637714D01*
X179309714Y-138290300D01*
X176421487Y-138290300D01*
X176365885Y-138234601D01*
X176060862Y-138107944D01*
X175730587Y-138107656D01*
X175425344Y-138233780D01*
X175191601Y-138467115D01*
X175064944Y-138772138D01*
X175064656Y-139102413D01*
X171993616Y-139102413D01*
X171873171Y-138810915D01*
X171471201Y-138408243D01*
X171117200Y-138261249D01*
X171117200Y-135832452D01*
X171279483Y-135832452D01*
X171557527Y-136505371D01*
X172071921Y-137020664D01*
X172744354Y-137299882D01*
X173472452Y-137300517D01*
X174145371Y-137022473D01*
X174660664Y-136508079D01*
X174939882Y-135835646D01*
X174940517Y-135107548D01*
X174662473Y-134434629D01*
X174148079Y-133919336D01*
X173475646Y-133640118D01*
X172747548Y-133639483D01*
X172074629Y-133917527D01*
X171559336Y-134431921D01*
X171280118Y-135104354D01*
X171279483Y-135832452D01*
X171117200Y-135832452D01*
X171117200Y-132244413D01*
X178239656Y-132244413D01*
X178365780Y-132549656D01*
X178599115Y-132783399D01*
X178904138Y-132910056D01*
X179234413Y-132910344D01*
X179539656Y-132784220D01*
X179773399Y-132550885D01*
X179900056Y-132245862D01*
X179900344Y-131915587D01*
X179774220Y-131610344D01*
X179540885Y-131376601D01*
X179235862Y-131249944D01*
X178905587Y-131249656D01*
X178600344Y-131375780D01*
X178366601Y-131609115D01*
X178239944Y-131914138D01*
X178239656Y-132244413D01*
X171117200Y-132244413D01*
X171117200Y-126021413D01*
X173413656Y-126021413D01*
X173539780Y-126326656D01*
X173773115Y-126560399D01*
X174078138Y-126687056D01*
X174408413Y-126687344D01*
X174713656Y-126561220D01*
X174947399Y-126327885D01*
X174953082Y-126314200D01*
X176213622Y-126314200D01*
X177612801Y-127713380D01*
X177612801Y-128540001D01*
X177647603Y-128714964D01*
X177746712Y-128863290D01*
X177862568Y-128979146D01*
X177740032Y-129274246D01*
X177739570Y-129803432D01*
X177941654Y-130292513D01*
X178315519Y-130667031D01*
X178804246Y-130869968D01*
X179333432Y-130870430D01*
X179822513Y-130668346D01*
X180197031Y-130294481D01*
X180340101Y-129949929D01*
X180481654Y-130292513D01*
X180855519Y-130667031D01*
X181344246Y-130869968D01*
X181873432Y-130870430D01*
X182362513Y-130668346D01*
X182737031Y-130294481D01*
X182939968Y-129805754D01*
X182940430Y-129276568D01*
X182738346Y-128787487D01*
X182364481Y-128412969D01*
X181875754Y-128210032D01*
X181346568Y-128209570D01*
X181049071Y-128332493D01*
X176853289Y-124136711D01*
X176704963Y-124037602D01*
X176530000Y-124002800D01*
X175588367Y-124002800D01*
X175583220Y-123990344D01*
X175349885Y-123756601D01*
X175044862Y-123629944D01*
X174714587Y-123629656D01*
X174409344Y-123755780D01*
X174175601Y-123989115D01*
X174048944Y-124294138D01*
X174048656Y-124624413D01*
X174174780Y-124929656D01*
X174271778Y-125026824D01*
X174079587Y-125026656D01*
X173774344Y-125152780D01*
X173540601Y-125386115D01*
X173413944Y-125691138D01*
X173413656Y-126021413D01*
X171117200Y-126021413D01*
X171117200Y-114907000D01*
X171082398Y-114732037D01*
X170983289Y-114583711D01*
X169861887Y-113462309D01*
X169867056Y-113449862D01*
X169867344Y-113119587D01*
X169741220Y-112814344D01*
X169507885Y-112580601D01*
X169202862Y-112453944D01*
X168872587Y-112453656D01*
X168567344Y-112579780D01*
X168333601Y-112813115D01*
X168206944Y-113118138D01*
X168206656Y-113448413D01*
X165938200Y-113448413D01*
X165938200Y-110933378D01*
X167063730Y-109807848D01*
X167063656Y-109892413D01*
X167189780Y-110197656D01*
X167423115Y-110431399D01*
X167728138Y-110558056D01*
X168058413Y-110558344D01*
X168363656Y-110432220D01*
X168597399Y-110198885D01*
X168603259Y-110184772D01*
X168776069Y-110150398D01*
X168924395Y-110051289D01*
X169552484Y-109423200D01*
X177184670Y-109423200D01*
X177096601Y-109511115D01*
X176969944Y-109816138D01*
X176969656Y-110146413D01*
X177095780Y-110451656D01*
X177329115Y-110685399D01*
X177634138Y-110812056D01*
X177964413Y-110812344D01*
X178269656Y-110686220D01*
X178503399Y-110452885D01*
X178509259Y-110438772D01*
X178682069Y-110404398D01*
X178830395Y-110305289D01*
X180347485Y-108788200D01*
X180360514Y-108788200D01*
X180535477Y-108753398D01*
X180683803Y-108654289D01*
X181933289Y-107404803D01*
X182032398Y-107256477D01*
X182067200Y-107081514D01*
X182067200Y-105410000D01*
X182032398Y-105235037D01*
X181933289Y-105086711D01*
X181447370Y-104600792D01*
X181453484Y-104591643D01*
X181543321Y-104140000D01*
X181453484Y-103688357D01*
X181197648Y-103305473D01*
X180814764Y-103049637D01*
X180363121Y-102959800D01*
X180316879Y-102959800D01*
X179865236Y-103049637D01*
X179654200Y-103190647D01*
X179654200Y-102997000D01*
X179619398Y-102822037D01*
X179520289Y-102673711D01*
X178907370Y-102060792D01*
X178913484Y-102051643D01*
X179003321Y-101600000D01*
X178913484Y-101148357D01*
X178657648Y-100765473D01*
X178274764Y-100509637D01*
X177823121Y-100419800D01*
X177776879Y-100419800D01*
X177325236Y-100509637D01*
X176942352Y-100765473D01*
X176686516Y-101148357D01*
X176596679Y-101600000D01*
X176686516Y-102051643D01*
X176942352Y-102434527D01*
X177325236Y-102690363D01*
X177776879Y-102780200D01*
X177823121Y-102780200D01*
X178248925Y-102695503D01*
X178739800Y-103186378D01*
X178739800Y-103428422D01*
X178657648Y-103305473D01*
X178274764Y-103049637D01*
X177823121Y-102959800D01*
X177776879Y-102959800D01*
X177325236Y-103049637D01*
X176942352Y-103305473D01*
X176686516Y-103688357D01*
X176596679Y-104140000D01*
X176686516Y-104591643D01*
X176942352Y-104974527D01*
X177099904Y-105079800D01*
X174320200Y-105079800D01*
X174320200Y-99060000D01*
X176596679Y-99060000D01*
X176686516Y-99511643D01*
X176942352Y-99894527D01*
X177325236Y-100150363D01*
X177776879Y-100240200D01*
X177823121Y-100240200D01*
X178274764Y-100150363D01*
X178657648Y-99894527D01*
X178913484Y-99511643D01*
X179003321Y-99060000D01*
X179136679Y-99060000D01*
X179226516Y-99511643D01*
X179482352Y-99894527D01*
X179865236Y-100150363D01*
X180316879Y-100240200D01*
X180363121Y-100240200D01*
X180814764Y-100150363D01*
X181197648Y-99894527D01*
X181453484Y-99511643D01*
X181543321Y-99060000D01*
X181453484Y-98608357D01*
X181197648Y-98225473D01*
X180814764Y-97969637D01*
X180363121Y-97879800D01*
X180316879Y-97879800D01*
X179865236Y-97969637D01*
X179482352Y-98225473D01*
X179226516Y-98608357D01*
X179136679Y-99060000D01*
X179003321Y-99060000D01*
X178913484Y-98608357D01*
X178657648Y-98225473D01*
X178274764Y-97969637D01*
X177823121Y-97879800D01*
X177776879Y-97879800D01*
X177325236Y-97969637D01*
X176942352Y-98225473D01*
X176686516Y-98608357D01*
X176596679Y-99060000D01*
X174320200Y-99060000D01*
X174320200Y-96520000D01*
X176596679Y-96520000D01*
X176686516Y-96971643D01*
X176942352Y-97354527D01*
X177325236Y-97610363D01*
X177776879Y-97700200D01*
X177823121Y-97700200D01*
X178274764Y-97610363D01*
X178657648Y-97354527D01*
X178913484Y-96971643D01*
X179003321Y-96520000D01*
X179136679Y-96520000D01*
X179226516Y-96971643D01*
X179482352Y-97354527D01*
X179865236Y-97610363D01*
X180316879Y-97700200D01*
X180363121Y-97700200D01*
X180814764Y-97610363D01*
X181197648Y-97354527D01*
X181453484Y-96971643D01*
X181543321Y-96520000D01*
X181453484Y-96068357D01*
X181197648Y-95685473D01*
X180814764Y-95429637D01*
X180363121Y-95339800D01*
X180316879Y-95339800D01*
X179865236Y-95429637D01*
X179482352Y-95685473D01*
X179226516Y-96068357D01*
X179136679Y-96520000D01*
X179003321Y-96520000D01*
X178913484Y-96068357D01*
X178657648Y-95685473D01*
X178274764Y-95429637D01*
X177823121Y-95339800D01*
X177776879Y-95339800D01*
X177325236Y-95429637D01*
X176942352Y-95685473D01*
X176686516Y-96068357D01*
X176596679Y-96520000D01*
X174320200Y-96520000D01*
X174320200Y-93980000D01*
X176596679Y-93980000D01*
X176686516Y-94431643D01*
X176942352Y-94814527D01*
X177325236Y-95070363D01*
X177776879Y-95160200D01*
X177823121Y-95160200D01*
X178274764Y-95070363D01*
X178657648Y-94814527D01*
X178913484Y-94431643D01*
X179003321Y-93980000D01*
X178913484Y-93528357D01*
X178657648Y-93145473D01*
X178274764Y-92889637D01*
X177823121Y-92799800D01*
X177776879Y-92799800D01*
X177325236Y-92889637D01*
X176942352Y-93145473D01*
X176686516Y-93528357D01*
X176596679Y-93980000D01*
X174320200Y-93980000D01*
X174320200Y-90500200D01*
X177099904Y-90500200D01*
X176942352Y-90605473D01*
X176942352Y-90605473D01*
G37*
X176942352Y-90605473D02*
X176686516Y-90988357D01*
X176596679Y-91440000D01*
X176686516Y-91891643D01*
X176942352Y-92274527D01*
X177325236Y-92530363D01*
X177776879Y-92620200D01*
X177823121Y-92620200D01*
X178248925Y-92535503D01*
X178746711Y-93033289D01*
X178895037Y-93132398D01*
X179070000Y-93167200D01*
X179467834Y-93167200D01*
X179226516Y-93528357D01*
X179136679Y-93980000D01*
X179226516Y-94431643D01*
X179482352Y-94814527D01*
X179865236Y-95070363D01*
X180316879Y-95160200D01*
X180363121Y-95160200D01*
X180814764Y-95070363D01*
X181197648Y-94814527D01*
X181453484Y-94431643D01*
X181543321Y-93980000D01*
X181453484Y-93528357D01*
X181212166Y-93167200D01*
X183706622Y-93167200D01*
X186613800Y-96074378D01*
X186613800Y-104060127D01*
X186505220Y-103797344D01*
X186271885Y-103563601D01*
X185966862Y-103436944D01*
X185636587Y-103436656D01*
X185622893Y-103442314D01*
X183457289Y-101276711D01*
X183308963Y-101177602D01*
X183134000Y-101142800D01*
X181449771Y-101142800D01*
X181197648Y-100765473D01*
X180814764Y-100509637D01*
X180363121Y-100419800D01*
X180316879Y-100419800D01*
X179865236Y-100509637D01*
X179482352Y-100765473D01*
X179226516Y-101148357D01*
X179136679Y-101600000D01*
X179226516Y-102051643D01*
X179482352Y-102434527D01*
X179865236Y-102690363D01*
X180316879Y-102780200D01*
X180363121Y-102780200D01*
X180814764Y-102690363D01*
X181197648Y-102434527D01*
X181449771Y-102057200D01*
X182944622Y-102057200D01*
X184976112Y-104088691D01*
X184970944Y-104101138D01*
X184970656Y-104431413D01*
X185096780Y-104736656D01*
X185330115Y-104970399D01*
X185635138Y-105097056D01*
X185965413Y-105097344D01*
X186270656Y-104971220D01*
X186504399Y-104737885D01*
X186613800Y-104474419D01*
X186613800Y-107760622D01*
X182047621Y-112326801D01*
X175505999Y-112326801D01*
X175349728Y-112357885D01*
X175331036Y-112361603D01*
X175184799Y-112459316D01*
X175171862Y-112453944D01*
X174841587Y-112453656D01*
X174536344Y-112579780D01*
X174302601Y-112813115D01*
X174175944Y-113118138D01*
X174175656Y-113448413D01*
X174301780Y-113753656D01*
X174535115Y-113987399D01*
X174840138Y-114114056D01*
X175170413Y-114114344D01*
X175475656Y-113988220D01*
X175709399Y-113754885D01*
X175836056Y-113449862D01*
X175836238Y-113241201D01*
X182236999Y-113241201D01*
X182411962Y-113206399D01*
X182560288Y-113107290D01*
X187394289Y-108273289D01*
X187493398Y-108124963D01*
X187528200Y-107950000D01*
X187528200Y-95885000D01*
X187493398Y-95710037D01*
X187394289Y-95561711D01*
X184219289Y-92386711D01*
X184070963Y-92287602D01*
X183896000Y-92252800D01*
X181212166Y-92252800D01*
X181449771Y-91897200D01*
X186754622Y-91897200D01*
X188645800Y-93788378D01*
X188645800Y-109030622D01*
X184206621Y-113469801D01*
X178172999Y-113469801D01*
X177998036Y-113504603D01*
X177851799Y-113602316D01*
X177838862Y-113596944D01*
X177508587Y-113596656D01*
X177203344Y-113722780D01*
X176969601Y-113956115D01*
X176842944Y-114261138D01*
X176842656Y-114591413D01*
X176968780Y-114896656D01*
X177202115Y-115130399D01*
X177507138Y-115257056D01*
X177837413Y-115257344D01*
X178142656Y-115131220D01*
X178376399Y-114897885D01*
X178503056Y-114592862D01*
X178503238Y-114384201D01*
X184395999Y-114384201D01*
X184570962Y-114349399D01*
X184719288Y-114250290D01*
X189426289Y-109543289D01*
X189525398Y-109394963D01*
X189560200Y-109220000D01*
X189560200Y-93599000D01*
X189525398Y-93424037D01*
X189426289Y-93275711D01*
X187267289Y-91116711D01*
X187118963Y-91017602D01*
X186944000Y-90982800D01*
X181449771Y-90982800D01*
X181197648Y-90605473D01*
X181040096Y-90500200D01*
X190094800Y-90500200D01*
X190094800Y-141834800D01*
X117245200Y-141834800D01*
X117245200Y-134632452D01*
X124779483Y-134632452D01*
X125057527Y-135305371D01*
X125571921Y-135820664D01*
X126244354Y-136099882D01*
X126972452Y-136100517D01*
X127645371Y-135822473D01*
X128160664Y-135308079D01*
X128439882Y-134635646D01*
X128440517Y-133907548D01*
X128162473Y-133234629D01*
X127648079Y-132719336D01*
X126975646Y-132440118D01*
X126247548Y-132439483D01*
X125574629Y-132717527D01*
X125059336Y-133231921D01*
X124780118Y-133904354D01*
X124779483Y-134632452D01*
X117245200Y-134632452D01*
X117245200Y-113321415D01*
X129598656Y-113321415D01*
X129724780Y-113626658D01*
X129958115Y-113860401D01*
X130263138Y-113987058D01*
X130593413Y-113987346D01*
X130607108Y-113981688D01*
X132102800Y-115477380D01*
X132102800Y-138261433D01*
X131750915Y-138406829D01*
X131348243Y-138808799D01*
X131130049Y-139334268D01*
X131129553Y-139903236D01*
X131346829Y-140429085D01*
X131748799Y-140831757D01*
X132274268Y-141049951D01*
X132843236Y-141050447D01*
X133369085Y-140833171D01*
X133771757Y-140431201D01*
X133989951Y-139905732D01*
X133990447Y-139336764D01*
X133773171Y-138810915D01*
X133371201Y-138408243D01*
X133017200Y-138261249D01*
X133017200Y-135832452D01*
X133179483Y-135832452D01*
X133457527Y-136505371D01*
X133971921Y-137020664D01*
X134644354Y-137299882D01*
X135372452Y-137300517D01*
X136045371Y-137022473D01*
X136560664Y-136508079D01*
X136839882Y-135835646D01*
X136840517Y-135107548D01*
X136747915Y-134883432D01*
X139639570Y-134883432D01*
X139841654Y-135372513D01*
X140215519Y-135747031D01*
X140704246Y-135949968D01*
X141233432Y-135950430D01*
X141722513Y-135748346D01*
X142097031Y-135374481D01*
X142240101Y-135029929D01*
X142381654Y-135372513D01*
X142755519Y-135747031D01*
X142862300Y-135791370D01*
X142862300Y-136034213D01*
X142911603Y-136282077D01*
X143052007Y-136492206D01*
X146336794Y-139776993D01*
X146546923Y-139917397D01*
X146794787Y-139966700D01*
X162179000Y-139966700D01*
X162426864Y-139917397D01*
X162636993Y-139776993D01*
X163915711Y-138498275D01*
X163994413Y-138498344D01*
X164299656Y-138372220D01*
X164533399Y-138138885D01*
X164660056Y-137833862D01*
X164660344Y-137503587D01*
X164534220Y-137198344D01*
X164300885Y-136964601D01*
X163995862Y-136837944D01*
X163665587Y-136837656D01*
X163360344Y-136963780D01*
X163126601Y-137197115D01*
X162999944Y-137502138D01*
X162999874Y-137582140D01*
X161910714Y-138671300D01*
X147063073Y-138671300D01*
X144175905Y-135784132D01*
X144262513Y-135748346D01*
X144637031Y-135374481D01*
X144839968Y-134885754D01*
X144840189Y-134632452D01*
X162879483Y-134632452D01*
X163157527Y-135305371D01*
X163671921Y-135820664D01*
X164344354Y-136099882D01*
X165072452Y-136100517D01*
X165745371Y-135822473D01*
X166260664Y-135308079D01*
X166539882Y-134635646D01*
X166540517Y-133907548D01*
X166262473Y-133234629D01*
X165748079Y-132719336D01*
X165075646Y-132440118D01*
X164347548Y-132439483D01*
X163674629Y-132717527D01*
X163159336Y-133231921D01*
X162880118Y-133904354D01*
X162879483Y-134632452D01*
X144840189Y-134632452D01*
X144840430Y-134356568D01*
X144638346Y-133867487D01*
X144264481Y-133492969D01*
X143775754Y-133290032D01*
X143246568Y-133289570D01*
X142757487Y-133491654D01*
X142382969Y-133865519D01*
X142239899Y-134210071D01*
X142098346Y-133867487D01*
X141724481Y-133492969D01*
X141235754Y-133290032D01*
X140706568Y-133289570D01*
X140217487Y-133491654D01*
X139842969Y-133865519D01*
X139640032Y-134354246D01*
X139639570Y-134883432D01*
X136747915Y-134883432D01*
X136562473Y-134434629D01*
X136048079Y-133919336D01*
X135375646Y-133640118D01*
X134647548Y-133639483D01*
X133974629Y-133917527D01*
X133459336Y-134431921D01*
X133180118Y-135104354D01*
X133179483Y-135832452D01*
X133017200Y-135832452D01*
X133017200Y-132244413D01*
X140139656Y-132244413D01*
X140265780Y-132549656D01*
X140499115Y-132783399D01*
X140804138Y-132910056D01*
X141134413Y-132910344D01*
X141439656Y-132784220D01*
X141673399Y-132550885D01*
X141800056Y-132245862D01*
X141800344Y-131915587D01*
X141674220Y-131610344D01*
X141440885Y-131376601D01*
X141135862Y-131249944D01*
X140805587Y-131249656D01*
X140500344Y-131375780D01*
X140266601Y-131609115D01*
X140139944Y-131914138D01*
X140139656Y-132244413D01*
X133017200Y-132244413D01*
X133017200Y-115288002D01*
X132982398Y-115113039D01*
X132883289Y-114964713D01*
X131253887Y-113335311D01*
X131259056Y-113322864D01*
X131259344Y-112992589D01*
X131133220Y-112687346D01*
X130899885Y-112453603D01*
X130594862Y-112326946D01*
X130264587Y-112326658D01*
X129959344Y-112452782D01*
X129725601Y-112686117D01*
X129598944Y-112991140D01*
X129598656Y-113321415D01*
X117245200Y-113321415D01*
X117245200Y-104564918D01*
X117250516Y-104591643D01*
X117506352Y-104974527D01*
X117889236Y-105230363D01*
X118340879Y-105320200D01*
X118387121Y-105320200D01*
X118812925Y-105235503D01*
X119176800Y-105599378D01*
X119176800Y-108637633D01*
X119164344Y-108642780D01*
X118930601Y-108876115D01*
X118803944Y-109181138D01*
X118803656Y-109511413D01*
X118929780Y-109816656D01*
X119163115Y-110050399D01*
X119468138Y-110177056D01*
X119798413Y-110177344D01*
X120103656Y-110051220D01*
X120337399Y-109817885D01*
X120464056Y-109512862D01*
X120464245Y-109296200D01*
X139104222Y-109296200D01*
X137883773Y-110516649D01*
X137784664Y-110664975D01*
X137749862Y-110839938D01*
X137749862Y-111255901D01*
X137737406Y-111261048D01*
X137503663Y-111494383D01*
X137377006Y-111799406D01*
X137376718Y-112129681D01*
X137502842Y-112434924D01*
X137736177Y-112668667D01*
X138041200Y-112795324D01*
X138371475Y-112795612D01*
X138599753Y-112701289D01*
X138614780Y-112737656D01*
X138848115Y-112971399D01*
X139153138Y-113098056D01*
X139483413Y-113098344D01*
X139788656Y-112972220D01*
X140022399Y-112738885D01*
X140149056Y-112433862D01*
X140149344Y-112103587D01*
X140023220Y-111798344D01*
X139789885Y-111564601D01*
X139776200Y-111558918D01*
X139776200Y-110833397D01*
X140822299Y-109787298D01*
X140822299Y-111056671D01*
X140805587Y-111056656D01*
X140500344Y-111182780D01*
X140266601Y-111416115D01*
X140139944Y-111721138D01*
X140139656Y-112051413D01*
X140265780Y-112356656D01*
X140499115Y-112590399D01*
X140804138Y-112717056D01*
X141134413Y-112717344D01*
X141439656Y-112591220D01*
X141673399Y-112357885D01*
X141679383Y-112343475D01*
X141789780Y-112610656D01*
X142023115Y-112844399D01*
X142328138Y-112971056D01*
X142658413Y-112971344D01*
X142963656Y-112845220D01*
X143197399Y-112611885D01*
X143324056Y-112306862D01*
X143324344Y-111976587D01*
X143318686Y-111962892D01*
X144248469Y-111033109D01*
X144270534Y-111048185D01*
X144399000Y-111074200D01*
X144660808Y-111074200D01*
X144651331Y-111121000D01*
X144651331Y-111521000D01*
X144674356Y-111643365D01*
X144746673Y-111755749D01*
X144830800Y-111813231D01*
X144830800Y-112193633D01*
X144818344Y-112198780D01*
X144584601Y-112432115D01*
X144457944Y-112737138D01*
X144457656Y-113067413D01*
X144583780Y-113372656D01*
X144817115Y-113606399D01*
X145122138Y-113733056D01*
X145452413Y-113733344D01*
X145757656Y-113607220D01*
X145991399Y-113373885D01*
X146118056Y-113068862D01*
X146118335Y-112748452D01*
X146214115Y-112844399D01*
X146519138Y-112971056D01*
X146849413Y-112971344D01*
X147154656Y-112845220D01*
X147388399Y-112611885D01*
X147515056Y-112306862D01*
X147515332Y-111989983D01*
X147571972Y-112046623D01*
X147566803Y-112059070D01*
X147566515Y-112389345D01*
X147692639Y-112694588D01*
X147925974Y-112928331D01*
X148230997Y-113054988D01*
X148561272Y-113055276D01*
X148866515Y-112929152D01*
X148979926Y-112815939D01*
X149135115Y-112971399D01*
X149440138Y-113098056D01*
X149770413Y-113098344D01*
X150075656Y-112972220D01*
X150309399Y-112738885D01*
X150436056Y-112433862D01*
X150436344Y-112103587D01*
X150310220Y-111798344D01*
X150076885Y-111564601D01*
X149861669Y-111475235D01*
X149861669Y-111121000D01*
X149852863Y-111074200D01*
X153728844Y-111074200D01*
X153728656Y-111289413D01*
X153734492Y-111303536D01*
X153636603Y-111450036D01*
X153601801Y-111624999D01*
X153601801Y-111717863D01*
X152992898Y-112326767D01*
X152865876Y-112326656D01*
X152560633Y-112452780D01*
X152326890Y-112686115D01*
X152200233Y-112991138D01*
X152199945Y-113321413D01*
X152326069Y-113626656D01*
X152559404Y-113860399D01*
X152702851Y-113919963D01*
X152565344Y-113976780D01*
X152331601Y-114210115D01*
X152204944Y-114515138D01*
X152204656Y-114845413D01*
X152330780Y-115150656D01*
X152564115Y-115384399D01*
X152577800Y-115390082D01*
X152577800Y-116015622D01*
X152070309Y-116523113D01*
X152057862Y-116517944D01*
X151727587Y-116517656D01*
X151422344Y-116643780D01*
X151188601Y-116877115D01*
X151061944Y-117182138D01*
X151061656Y-117512413D01*
X151187780Y-117817656D01*
X151421115Y-118051399D01*
X151726138Y-118178056D01*
X152056413Y-118178344D01*
X152361656Y-118052220D01*
X152595399Y-117818885D01*
X152722056Y-117513862D01*
X152722344Y-117183587D01*
X152716686Y-117169892D01*
X153358289Y-116528289D01*
X153457398Y-116379963D01*
X153492200Y-116205000D01*
X153492200Y-115390367D01*
X153504656Y-115385220D01*
X153738399Y-115151885D01*
X153865056Y-114846862D01*
X153865344Y-114516587D01*
X153859686Y-114502892D01*
X153939846Y-114422732D01*
X153939571Y-114738540D01*
X154065695Y-115043783D01*
X154255670Y-115234091D01*
X154233856Y-115266017D01*
X154207331Y-115397000D01*
X154207331Y-115997000D01*
X154230356Y-116119365D01*
X154302673Y-116231749D01*
X154413017Y-116307144D01*
X154544000Y-116333669D01*
X154944000Y-116333669D01*
X155066365Y-116310644D01*
X155178749Y-116238327D01*
X155186800Y-116226544D01*
X155186800Y-116561540D01*
X155185327Y-116559251D01*
X155074983Y-116483856D01*
X154944000Y-116457331D01*
X154544000Y-116457331D01*
X154421635Y-116480356D01*
X154309251Y-116552673D01*
X154245756Y-116645601D01*
X154115037Y-116671602D01*
X153966711Y-116770711D01*
X150552623Y-120184799D01*
X139892702Y-120184799D01*
X139895318Y-120178498D01*
X139895606Y-119848223D01*
X139769482Y-119542980D01*
X139536147Y-119309237D01*
X139231124Y-119182580D01*
X138900849Y-119182292D01*
X138595606Y-119308416D01*
X138361863Y-119541751D01*
X138235206Y-119846774D01*
X138234918Y-120177049D01*
X138361042Y-120482292D01*
X138400343Y-120521662D01*
X138234601Y-120687115D01*
X138107944Y-120992138D01*
X138107656Y-121322413D01*
X138233780Y-121627656D01*
X138467115Y-121861399D01*
X138772138Y-121988056D01*
X139102413Y-121988344D01*
X139407656Y-121862220D01*
X139641399Y-121628885D01*
X139647082Y-121615200D01*
X148394733Y-121615200D01*
X148394656Y-121703413D01*
X148520780Y-122008656D01*
X148754115Y-122242399D01*
X149059138Y-122369056D01*
X149389413Y-122369344D01*
X149694656Y-122243220D01*
X149928399Y-122009885D01*
X150055056Y-121704862D01*
X150055344Y-121374587D01*
X149941556Y-121099199D01*
X150742001Y-121099199D01*
X150916964Y-121064397D01*
X151065290Y-120965288D01*
X154361580Y-117668998D01*
X154413017Y-117704144D01*
X154544000Y-117730669D01*
X154700583Y-117730669D01*
X154616711Y-117786711D01*
X144070854Y-128332568D01*
X143775754Y-128210032D01*
X143246568Y-128209570D01*
X142757487Y-128411654D01*
X142382969Y-128785519D01*
X142239899Y-129130071D01*
X142098346Y-128787487D01*
X141724481Y-128412969D01*
X141235754Y-128210032D01*
X140706568Y-128209570D01*
X140409071Y-128332493D01*
X136456798Y-124380220D01*
X136456798Y-120161531D01*
X136886399Y-119731930D01*
X136985508Y-119583604D01*
X137020310Y-119408641D01*
X137020310Y-119323116D01*
X136988544Y-119163413D01*
X140012656Y-119163413D01*
X140138780Y-119468656D01*
X140372115Y-119702399D01*
X140677138Y-119829056D01*
X141007413Y-119829344D01*
X141312656Y-119703220D01*
X141546399Y-119469885D01*
X141673056Y-119164862D01*
X141673126Y-119084860D01*
X142570993Y-118186993D01*
X142711397Y-117976864D01*
X142760700Y-117729000D01*
X142760700Y-115715487D01*
X142811584Y-115664692D01*
X142912115Y-115765399D01*
X143217138Y-115892056D01*
X143547413Y-115892344D01*
X143852656Y-115766220D01*
X144086399Y-115532885D01*
X144092082Y-115519200D01*
X144209622Y-115519200D01*
X146749113Y-118058691D01*
X146743944Y-118071138D01*
X146743656Y-118401413D01*
X146869780Y-118706656D01*
X147103115Y-118940399D01*
X147408138Y-119067056D01*
X147738413Y-119067344D01*
X148043656Y-118941220D01*
X148277399Y-118707885D01*
X148404056Y-118402862D01*
X148404344Y-118072587D01*
X148278220Y-117767344D01*
X148044885Y-117533601D01*
X147739862Y-117406944D01*
X147409587Y-117406656D01*
X147395892Y-117412314D01*
X144722289Y-114738711D01*
X144573963Y-114639602D01*
X144399000Y-114604800D01*
X144092367Y-114604800D01*
X144087220Y-114592344D01*
X143853885Y-114358601D01*
X143548862Y-114231944D01*
X143218587Y-114231656D01*
X142913344Y-114357780D01*
X142684416Y-114586308D01*
X142583885Y-114485601D01*
X142278862Y-114358944D01*
X141948587Y-114358656D01*
X141643344Y-114484780D01*
X141409601Y-114718115D01*
X141282944Y-115023138D01*
X141282656Y-115353413D01*
X141408780Y-115658656D01*
X141465300Y-115715275D01*
X141465300Y-117460714D01*
X140757289Y-118168725D01*
X140678587Y-118168656D01*
X140373344Y-118294780D01*
X140139601Y-118528115D01*
X140012944Y-118833138D01*
X140012656Y-119163413D01*
X136988544Y-119163413D01*
X136985508Y-119148153D01*
X136886399Y-118999827D01*
X136613899Y-118727327D01*
X136613899Y-118508673D01*
X138372289Y-116750283D01*
X138471398Y-116601957D01*
X138506200Y-116426994D01*
X138506200Y-115771367D01*
X138518656Y-115766220D01*
X138752399Y-115532885D01*
X138879056Y-115227862D01*
X138879344Y-114897587D01*
X138753220Y-114592344D01*
X138519885Y-114358601D01*
X138214862Y-114231944D01*
X137884587Y-114231656D01*
X137579344Y-114357780D01*
X137477416Y-114459530D01*
X137249885Y-114231601D01*
X136944862Y-114104944D01*
X136614587Y-114104656D01*
X136309344Y-114230780D01*
X136075601Y-114464115D01*
X135948944Y-114769138D01*
X135948656Y-115099413D01*
X135954314Y-115113107D01*
X135426999Y-115640423D01*
X135327890Y-115788749D01*
X135293088Y-115963712D01*
X135293088Y-119457334D01*
X134671309Y-120079113D01*
X134658862Y-120073944D01*
X134328587Y-120073656D01*
X134023344Y-120199780D01*
X133789601Y-120433115D01*
X133662944Y-120738138D01*
X133662656Y-121068413D01*
X133788780Y-121373656D01*
X134022115Y-121607399D01*
X134327138Y-121734056D01*
X134657413Y-121734344D01*
X134962656Y-121608220D01*
X135196399Y-121374885D01*
X135323056Y-121069862D01*
X135323344Y-120739587D01*
X135317686Y-120725892D01*
X135542398Y-120501180D01*
X135542398Y-124569598D01*
X135577200Y-124744561D01*
X135676309Y-124892887D01*
X139762568Y-128979146D01*
X139640032Y-129274246D01*
X139639570Y-129803432D01*
X139841654Y-130292513D01*
X140215519Y-130667031D01*
X140704246Y-130869968D01*
X141233432Y-130870430D01*
X141722513Y-130668346D01*
X142097031Y-130294481D01*
X142240101Y-129949929D01*
X142381654Y-130292513D01*
X142755519Y-130667031D01*
X143244246Y-130869968D01*
X143773432Y-130870430D01*
X144262513Y-130668346D01*
X144637031Y-130294481D01*
X144839968Y-129805754D01*
X144840430Y-129276568D01*
X144717507Y-128979071D01*
X150172730Y-123523848D01*
X150172656Y-123608413D01*
X150298780Y-123913656D01*
X150532115Y-124147399D01*
X150837138Y-124274056D01*
X151167413Y-124274344D01*
X151472656Y-124148220D01*
X151706399Y-123914885D01*
X151833056Y-123609862D01*
X151833344Y-123279587D01*
X151827686Y-123265892D01*
X155510378Y-119583200D01*
X157099000Y-119583200D01*
X157273963Y-119548398D01*
X157422289Y-119449289D01*
X159962289Y-116909290D01*
X160061398Y-116760963D01*
X160079166Y-116671635D01*
X160096200Y-116586000D01*
X160096200Y-115178922D01*
X160061398Y-115003959D01*
X160036076Y-114966062D01*
X159962289Y-114855632D01*
X159736523Y-114629866D01*
X159814671Y-114615162D01*
X159911000Y-114634669D01*
X160361000Y-114634669D01*
X160483365Y-114611644D01*
X160595749Y-114539327D01*
X160671144Y-114428983D01*
X160697669Y-114298000D01*
X160697669Y-113248000D01*
X160674644Y-113125635D01*
X160602327Y-113013251D01*
X160491983Y-112937856D01*
X160361000Y-112911331D01*
X159911000Y-112911331D01*
X159807329Y-112930838D01*
X159711000Y-112911331D01*
X159261000Y-112911331D01*
X159157329Y-112930838D01*
X159061000Y-112911331D01*
X158611000Y-112911331D01*
X158507329Y-112930838D01*
X158411000Y-112911331D01*
X157961000Y-112911331D01*
X157857329Y-112930838D01*
X157761000Y-112911331D01*
X157311000Y-112911331D01*
X157207329Y-112930838D01*
X157111000Y-112911331D01*
X156661000Y-112911331D01*
X156557329Y-112930838D01*
X156461000Y-112911331D01*
X156011000Y-112911331D01*
X155888635Y-112934356D01*
X155776251Y-113006673D01*
X155700856Y-113117017D01*
X155674331Y-113248000D01*
X155674331Y-114298000D01*
X155697356Y-114420365D01*
X155769673Y-114532749D01*
X155778800Y-114538985D01*
X155778800Y-114915621D01*
X155634090Y-115060331D01*
X155457968Y-115060331D01*
X155473314Y-115045012D01*
X155599971Y-114739989D01*
X155600259Y-114409714D01*
X155474135Y-114104471D01*
X155240800Y-113870728D01*
X154935777Y-113744071D01*
X154605502Y-113743783D01*
X154300259Y-113869907D01*
X154266899Y-113903209D01*
X154266899Y-113261573D01*
X154830722Y-112697750D01*
X154977115Y-112844399D01*
X155282138Y-112971056D01*
X155612413Y-112971344D01*
X155917656Y-112845220D01*
X156151399Y-112611885D01*
X156278056Y-112306862D01*
X156278344Y-111976587D01*
X156152220Y-111671344D01*
X155918885Y-111437601D01*
X155613862Y-111310944D01*
X155380802Y-111310741D01*
X155389056Y-111290862D01*
X155389344Y-110960587D01*
X155263220Y-110655344D01*
X155125545Y-110517429D01*
X156189487Y-109453487D01*
X156260185Y-109348466D01*
X156270769Y-109296200D01*
X161163158Y-109296200D01*
X161220780Y-109435656D01*
X161454115Y-109669399D01*
X161759138Y-109796056D01*
X162089413Y-109796344D01*
X162394656Y-109670220D01*
X162628399Y-109436885D01*
X162686817Y-109296200D01*
X162737800Y-109296200D01*
X162737800Y-110482515D01*
X161347711Y-111872605D01*
X161248602Y-112020931D01*
X161214290Y-112193431D01*
X161201344Y-112198780D01*
X160967601Y-112432115D01*
X160840944Y-112737138D01*
X160840656Y-113067413D01*
X160966780Y-113372656D01*
X161200115Y-113606399D01*
X161505138Y-113733056D01*
X161835413Y-113733344D01*
X162140656Y-113607220D01*
X162374399Y-113373885D01*
X162501056Y-113068862D01*
X162501344Y-112738587D01*
X162375220Y-112433344D01*
X162227803Y-112285669D01*
X163518289Y-110995184D01*
X163617398Y-110846857D01*
X163618774Y-110839938D01*
X163652200Y-110671894D01*
X163652200Y-109296200D01*
X166282222Y-109296200D01*
X165157711Y-110420711D01*
X165058602Y-110569037D01*
X165023800Y-110744000D01*
X165023800Y-123127622D01*
X159309309Y-128842113D01*
X159296862Y-128836944D01*
X158966587Y-128836656D01*
X158661344Y-128962780D01*
X158427601Y-129196115D01*
X158300944Y-129501138D01*
X158300656Y-129831413D01*
X158426780Y-130136656D01*
X158660115Y-130370399D01*
X158965138Y-130497056D01*
X159295413Y-130497344D01*
X159600656Y-130371220D01*
X159834399Y-130137885D01*
X159961056Y-129832862D01*
X159961344Y-129502587D01*
X159955686Y-129488892D01*
X165804289Y-123640289D01*
X165903398Y-123491963D01*
X165938200Y-123317000D01*
X165938200Y-113448413D01*
X168206656Y-113448413D01*
X168332780Y-113753656D01*
X168566115Y-113987399D01*
X168871138Y-114114056D01*
X169201413Y-114114344D01*
X169215108Y-114108686D01*
X170202800Y-115096378D01*
X170202800Y-138261433D01*
X169850915Y-138406829D01*
X169448243Y-138808799D01*
X169230049Y-139334268D01*
X169229553Y-139903236D01*
X169446829Y-140429085D01*
X169848799Y-140831757D01*
X170374268Y-141049951D01*
X170943236Y-141050447D01*
X171469085Y-140833171D01*
X171871757Y-140431201D01*
X172089951Y-139905732D01*
X172090447Y-139336764D01*
X171993616Y-139102413D01*
X175064656Y-139102413D01*
X175190780Y-139407656D01*
X175424115Y-139641399D01*
X175729138Y-139768056D01*
X176059413Y-139768344D01*
X176364656Y-139642220D01*
X176421275Y-139585700D01*
X179578000Y-139585700D01*
X179825864Y-139536397D01*
X180035993Y-139395993D01*
X182067993Y-137363993D01*
X182208397Y-137153864D01*
X182257700Y-136906000D01*
X182257700Y-135791654D01*
X182362513Y-135748346D01*
X182737031Y-135374481D01*
X182939968Y-134885754D01*
X182940430Y-134356568D01*
X182738346Y-133867487D01*
X182364481Y-133492969D01*
X181875754Y-133290032D01*
X181346568Y-133289570D01*
X180857487Y-133491654D01*
X180482969Y-133865519D01*
X180339899Y-134210071D01*
X180198346Y-133867487D01*
X179824481Y-133492969D01*
X179335754Y-133290032D01*
X178806568Y-133289570D01*
X178317487Y-133491654D01*
X177942969Y-133865519D01*
X177740032Y-134354246D01*
X177739570Y-134883432D01*
X177941654Y-135372513D01*
X178315519Y-135747031D01*
X178804246Y-135949968D01*
X179333432Y-135950430D01*
X179822513Y-135748346D01*
X180197031Y-135374481D01*
X180340101Y-135029929D01*
X180481654Y-135372513D01*
X180855519Y-135747031D01*
X180962300Y-135791370D01*
X180962300Y-136637714D01*
X179309714Y-138290300D01*
X176421487Y-138290300D01*
X176365885Y-138234601D01*
X176060862Y-138107944D01*
X175730587Y-138107656D01*
X175425344Y-138233780D01*
X175191601Y-138467115D01*
X175064944Y-138772138D01*
X175064656Y-139102413D01*
X171993616Y-139102413D01*
X171873171Y-138810915D01*
X171471201Y-138408243D01*
X171117200Y-138261249D01*
X171117200Y-135832452D01*
X171279483Y-135832452D01*
X171557527Y-136505371D01*
X172071921Y-137020664D01*
X172744354Y-137299882D01*
X173472452Y-137300517D01*
X174145371Y-137022473D01*
X174660664Y-136508079D01*
X174939882Y-135835646D01*
X174940517Y-135107548D01*
X174662473Y-134434629D01*
X174148079Y-133919336D01*
X173475646Y-133640118D01*
X172747548Y-133639483D01*
X172074629Y-133917527D01*
X171559336Y-134431921D01*
X171280118Y-135104354D01*
X171279483Y-135832452D01*
X171117200Y-135832452D01*
X171117200Y-132244413D01*
X178239656Y-132244413D01*
X178365780Y-132549656D01*
X178599115Y-132783399D01*
X178904138Y-132910056D01*
X179234413Y-132910344D01*
X179539656Y-132784220D01*
X179773399Y-132550885D01*
X179900056Y-132245862D01*
X179900344Y-131915587D01*
X179774220Y-131610344D01*
X179540885Y-131376601D01*
X179235862Y-131249944D01*
X178905587Y-131249656D01*
X178600344Y-131375780D01*
X178366601Y-131609115D01*
X178239944Y-131914138D01*
X178239656Y-132244413D01*
X171117200Y-132244413D01*
X171117200Y-126021413D01*
X173413656Y-126021413D01*
X173539780Y-126326656D01*
X173773115Y-126560399D01*
X174078138Y-126687056D01*
X174408413Y-126687344D01*
X174713656Y-126561220D01*
X174947399Y-126327885D01*
X174953082Y-126314200D01*
X176213622Y-126314200D01*
X177612801Y-127713380D01*
X177612801Y-128540001D01*
X177647603Y-128714964D01*
X177746712Y-128863290D01*
X177862568Y-128979146D01*
X177740032Y-129274246D01*
X177739570Y-129803432D01*
X177941654Y-130292513D01*
X178315519Y-130667031D01*
X178804246Y-130869968D01*
X179333432Y-130870430D01*
X179822513Y-130668346D01*
X180197031Y-130294481D01*
X180340101Y-129949929D01*
X180481654Y-130292513D01*
X180855519Y-130667031D01*
X181344246Y-130869968D01*
X181873432Y-130870430D01*
X182362513Y-130668346D01*
X182737031Y-130294481D01*
X182939968Y-129805754D01*
X182940430Y-129276568D01*
X182738346Y-128787487D01*
X182364481Y-128412969D01*
X181875754Y-128210032D01*
X181346568Y-128209570D01*
X181049071Y-128332493D01*
X176853289Y-124136711D01*
X176704963Y-124037602D01*
X176530000Y-124002800D01*
X175588367Y-124002800D01*
X175583220Y-123990344D01*
X175349885Y-123756601D01*
X175044862Y-123629944D01*
X174714587Y-123629656D01*
X174409344Y-123755780D01*
X174175601Y-123989115D01*
X174048944Y-124294138D01*
X174048656Y-124624413D01*
X174174780Y-124929656D01*
X174271778Y-125026824D01*
X174079587Y-125026656D01*
X173774344Y-125152780D01*
X173540601Y-125386115D01*
X173413944Y-125691138D01*
X173413656Y-126021413D01*
X171117200Y-126021413D01*
X171117200Y-114907000D01*
X171082398Y-114732037D01*
X170983289Y-114583711D01*
X169861887Y-113462309D01*
X169867056Y-113449862D01*
X169867344Y-113119587D01*
X169741220Y-112814344D01*
X169507885Y-112580601D01*
X169202862Y-112453944D01*
X168872587Y-112453656D01*
X168567344Y-112579780D01*
X168333601Y-112813115D01*
X168206944Y-113118138D01*
X168206656Y-113448413D01*
X165938200Y-113448413D01*
X165938200Y-110933378D01*
X167063730Y-109807848D01*
X167063656Y-109892413D01*
X167189780Y-110197656D01*
X167423115Y-110431399D01*
X167728138Y-110558056D01*
X168058413Y-110558344D01*
X168363656Y-110432220D01*
X168597399Y-110198885D01*
X168603259Y-110184772D01*
X168776069Y-110150398D01*
X168924395Y-110051289D01*
X169552484Y-109423200D01*
X177184670Y-109423200D01*
X177096601Y-109511115D01*
X176969944Y-109816138D01*
X176969656Y-110146413D01*
X177095780Y-110451656D01*
X177329115Y-110685399D01*
X177634138Y-110812056D01*
X177964413Y-110812344D01*
X178269656Y-110686220D01*
X178503399Y-110452885D01*
X178509259Y-110438772D01*
X178682069Y-110404398D01*
X178830395Y-110305289D01*
X180347485Y-108788200D01*
X180360514Y-108788200D01*
X180535477Y-108753398D01*
X180683803Y-108654289D01*
X181933289Y-107404803D01*
X182032398Y-107256477D01*
X182067200Y-107081514D01*
X182067200Y-105410000D01*
X182032398Y-105235037D01*
X181933289Y-105086711D01*
X181447370Y-104600792D01*
X181453484Y-104591643D01*
X181543321Y-104140000D01*
X181453484Y-103688357D01*
X181197648Y-103305473D01*
X180814764Y-103049637D01*
X180363121Y-102959800D01*
X180316879Y-102959800D01*
X179865236Y-103049637D01*
X179654200Y-103190647D01*
X179654200Y-102997000D01*
X179619398Y-102822037D01*
X179520289Y-102673711D01*
X178907370Y-102060792D01*
X178913484Y-102051643D01*
X179003321Y-101600000D01*
X178913484Y-101148357D01*
X178657648Y-100765473D01*
X178274764Y-100509637D01*
X177823121Y-100419800D01*
X177776879Y-100419800D01*
X177325236Y-100509637D01*
X176942352Y-100765473D01*
X176686516Y-101148357D01*
X176596679Y-101600000D01*
X176686516Y-102051643D01*
X176942352Y-102434527D01*
X177325236Y-102690363D01*
X177776879Y-102780200D01*
X177823121Y-102780200D01*
X178248925Y-102695503D01*
X178739800Y-103186378D01*
X178739800Y-103428422D01*
X178657648Y-103305473D01*
X178274764Y-103049637D01*
X177823121Y-102959800D01*
X177776879Y-102959800D01*
X177325236Y-103049637D01*
X176942352Y-103305473D01*
X176686516Y-103688357D01*
X176596679Y-104140000D01*
X176686516Y-104591643D01*
X176942352Y-104974527D01*
X177099904Y-105079800D01*
X174320200Y-105079800D01*
X174320200Y-99060000D01*
X176596679Y-99060000D01*
X176686516Y-99511643D01*
X176942352Y-99894527D01*
X177325236Y-100150363D01*
X177776879Y-100240200D01*
X177823121Y-100240200D01*
X178274764Y-100150363D01*
X178657648Y-99894527D01*
X178913484Y-99511643D01*
X179003321Y-99060000D01*
X179136679Y-99060000D01*
X179226516Y-99511643D01*
X179482352Y-99894527D01*
X179865236Y-100150363D01*
X180316879Y-100240200D01*
X180363121Y-100240200D01*
X180814764Y-100150363D01*
X181197648Y-99894527D01*
X181453484Y-99511643D01*
X181543321Y-99060000D01*
X181453484Y-98608357D01*
X181197648Y-98225473D01*
X180814764Y-97969637D01*
X180363121Y-97879800D01*
X180316879Y-97879800D01*
X179865236Y-97969637D01*
X179482352Y-98225473D01*
X179226516Y-98608357D01*
X179136679Y-99060000D01*
X179003321Y-99060000D01*
X178913484Y-98608357D01*
X178657648Y-98225473D01*
X178274764Y-97969637D01*
X177823121Y-97879800D01*
X177776879Y-97879800D01*
X177325236Y-97969637D01*
X176942352Y-98225473D01*
X176686516Y-98608357D01*
X176596679Y-99060000D01*
X174320200Y-99060000D01*
X174320200Y-96520000D01*
X176596679Y-96520000D01*
X176686516Y-96971643D01*
X176942352Y-97354527D01*
X177325236Y-97610363D01*
X177776879Y-97700200D01*
X177823121Y-97700200D01*
X178274764Y-97610363D01*
X178657648Y-97354527D01*
X178913484Y-96971643D01*
X179003321Y-96520000D01*
X179136679Y-96520000D01*
X179226516Y-96971643D01*
X179482352Y-97354527D01*
X179865236Y-97610363D01*
X180316879Y-97700200D01*
X180363121Y-97700200D01*
X180814764Y-97610363D01*
X181197648Y-97354527D01*
X181453484Y-96971643D01*
X181543321Y-96520000D01*
X181453484Y-96068357D01*
X181197648Y-95685473D01*
X180814764Y-95429637D01*
X180363121Y-95339800D01*
X180316879Y-95339800D01*
X179865236Y-95429637D01*
X179482352Y-95685473D01*
X179226516Y-96068357D01*
X179136679Y-96520000D01*
X179003321Y-96520000D01*
X178913484Y-96068357D01*
X178657648Y-95685473D01*
X178274764Y-95429637D01*
X177823121Y-95339800D01*
X177776879Y-95339800D01*
X177325236Y-95429637D01*
X176942352Y-95685473D01*
X176686516Y-96068357D01*
X176596679Y-96520000D01*
X174320200Y-96520000D01*
X174320200Y-93980000D01*
X176596679Y-93980000D01*
X176686516Y-94431643D01*
X176942352Y-94814527D01*
X177325236Y-95070363D01*
X177776879Y-95160200D01*
X177823121Y-95160200D01*
X178274764Y-95070363D01*
X178657648Y-94814527D01*
X178913484Y-94431643D01*
X179003321Y-93980000D01*
X178913484Y-93528357D01*
X178657648Y-93145473D01*
X178274764Y-92889637D01*
X177823121Y-92799800D01*
X177776879Y-92799800D01*
X177325236Y-92889637D01*
X176942352Y-93145473D01*
X176686516Y-93528357D01*
X176596679Y-93980000D01*
X174320200Y-93980000D01*
X174320200Y-90500200D01*
X177099904Y-90500200D01*
X176942352Y-90605473D01*
G36*
X143632201Y-109311780D02*
X143632201Y-110356221D01*
X142672309Y-111316113D01*
X142659862Y-111310944D01*
X142329587Y-111310656D01*
X142115271Y-111399210D01*
X142117699Y-111387001D01*
X142117699Y-109605465D01*
X142426964Y-109296200D01*
X143616621Y-109296200D01*
X143632201Y-109311780D01*
X143632201Y-109311780D01*
G37*
X143632201Y-109311780D02*
X143632201Y-110356221D01*
X142672309Y-111316113D01*
X142659862Y-111310944D01*
X142329587Y-111310656D01*
X142115271Y-111399210D01*
X142117699Y-111387001D01*
X142117699Y-109605465D01*
X142426964Y-109296200D01*
X143616621Y-109296200D01*
X143632201Y-109311780D01*
G36*
X179865236Y-105230363D02*
X180316879Y-105320200D01*
X180363121Y-105320200D01*
X180788925Y-105235503D01*
X181152800Y-105599378D01*
X181152800Y-106892136D01*
X180171136Y-107873800D01*
X180158106Y-107873800D01*
X179983143Y-107908602D01*
X179834817Y-108007710D01*
X179626557Y-108215970D01*
X179654200Y-108077000D01*
X179654200Y-105089353D01*
X179865236Y-105230363D01*
X179865236Y-105230363D01*
G37*
X179865236Y-105230363D02*
X180316879Y-105320200D01*
X180363121Y-105320200D01*
X180788925Y-105235503D01*
X181152800Y-105599378D01*
X181152800Y-106892136D01*
X180171136Y-107873800D01*
X180158106Y-107873800D01*
X179983143Y-107908602D01*
X179834817Y-108007710D01*
X179626557Y-108215970D01*
X179654200Y-108077000D01*
X179654200Y-105089353D01*
X179865236Y-105230363D01*
G36*
X127558800Y-96709378D02*
X127558800Y-98942728D01*
X124658208Y-101843320D01*
X124559099Y-101991646D01*
X124551109Y-102031816D01*
X124367958Y-101955765D01*
X124037683Y-101955477D01*
X124023988Y-101961135D01*
X123393200Y-101330347D01*
X123393200Y-100663873D01*
X123501780Y-100926656D01*
X123735115Y-101160399D01*
X124040138Y-101287056D01*
X124370413Y-101287344D01*
X124675656Y-101161220D01*
X124909399Y-100927885D01*
X125036056Y-100622862D01*
X125036344Y-100292587D01*
X125030686Y-100278892D01*
X126134215Y-99175363D01*
X126326138Y-99255056D01*
X126656413Y-99255344D01*
X126961656Y-99129220D01*
X127195399Y-98895885D01*
X127322056Y-98590862D01*
X127322344Y-98260587D01*
X127196220Y-97955344D01*
X126962885Y-97721601D01*
X126657862Y-97594944D01*
X126327587Y-97594656D01*
X126022344Y-97720780D01*
X125788601Y-97954115D01*
X125661944Y-98259138D01*
X125661861Y-98354561D01*
X124384309Y-99632113D01*
X124371862Y-99626944D01*
X124041587Y-99626656D01*
X123736344Y-99752780D01*
X123502601Y-99986115D01*
X123393200Y-100249581D01*
X123393200Y-93726000D01*
X123358398Y-93551037D01*
X123259289Y-93402711D01*
X122243289Y-92386711D01*
X122094963Y-92287602D01*
X121920000Y-92252800D01*
X121776166Y-92252800D01*
X122013771Y-91897200D01*
X122746622Y-91897200D01*
X127558800Y-96709378D01*
X127558800Y-96709378D01*
G37*
X127558800Y-96709378D02*
X127558800Y-98942728D01*
X124658208Y-101843320D01*
X124559099Y-101991646D01*
X124551109Y-102031816D01*
X124367958Y-101955765D01*
X124037683Y-101955477D01*
X124023988Y-101961135D01*
X123393200Y-101330347D01*
X123393200Y-100663873D01*
X123501780Y-100926656D01*
X123735115Y-101160399D01*
X124040138Y-101287056D01*
X124370413Y-101287344D01*
X124675656Y-101161220D01*
X124909399Y-100927885D01*
X125036056Y-100622862D01*
X125036344Y-100292587D01*
X125030686Y-100278892D01*
X126134215Y-99175363D01*
X126326138Y-99255056D01*
X126656413Y-99255344D01*
X126961656Y-99129220D01*
X127195399Y-98895885D01*
X127322056Y-98590862D01*
X127322344Y-98260587D01*
X127196220Y-97955344D01*
X126962885Y-97721601D01*
X126657862Y-97594944D01*
X126327587Y-97594656D01*
X126022344Y-97720780D01*
X125788601Y-97954115D01*
X125661944Y-98259138D01*
X125661861Y-98354561D01*
X124384309Y-99632113D01*
X124371862Y-99626944D01*
X124041587Y-99626656D01*
X123736344Y-99752780D01*
X123502601Y-99986115D01*
X123393200Y-100249581D01*
X123393200Y-93726000D01*
X123358398Y-93551037D01*
X123259289Y-93402711D01*
X122243289Y-92386711D01*
X122094963Y-92287602D01*
X121920000Y-92252800D01*
X121776166Y-92252800D01*
X122013771Y-91897200D01*
X122746622Y-91897200D01*
X127558800Y-96709378D01*
G36*
X163596513Y-68178487D02*
X163701534Y-68249185D01*
X163830000Y-68275200D01*
X166233226Y-68275200D01*
X169722800Y-71764774D01*
X169722800Y-76642087D01*
X169672000Y-76631800D01*
X166243000Y-76631800D01*
X166118748Y-76656069D01*
X166009513Y-76728513D01*
X159629226Y-83108800D01*
X158710779Y-83108800D01*
X159073290Y-82746289D01*
X159172398Y-82597963D01*
X159207200Y-82423000D01*
X159207200Y-77776228D01*
X159284749Y-77726327D01*
X159360144Y-77615983D01*
X159386669Y-77485000D01*
X159386669Y-77085000D01*
X159363644Y-76962635D01*
X159291327Y-76850251D01*
X159270105Y-76835750D01*
X159284749Y-76826327D01*
X159360144Y-76715983D01*
X159386669Y-76585000D01*
X159386669Y-76185000D01*
X159364651Y-76067986D01*
X159472436Y-76112742D01*
X159802711Y-76113030D01*
X159816406Y-76107372D01*
X161213800Y-77504766D01*
X161213800Y-78538633D01*
X161201344Y-78543780D01*
X160967601Y-78777115D01*
X160840944Y-79082138D01*
X160840656Y-79412413D01*
X160966780Y-79717656D01*
X161200115Y-79951399D01*
X161505138Y-80078056D01*
X161835413Y-80078344D01*
X162140656Y-79952220D01*
X162374399Y-79718885D01*
X162501056Y-79413862D01*
X162501344Y-79083587D01*
X162375220Y-78778344D01*
X162141885Y-78544601D01*
X162128200Y-78538918D01*
X162128200Y-77315388D01*
X162093398Y-77140425D01*
X161994289Y-76992099D01*
X161151404Y-76149214D01*
X161307866Y-76084565D01*
X161541609Y-75851230D01*
X161668266Y-75546207D01*
X161668554Y-75215932D01*
X161542430Y-74910689D01*
X161309095Y-74676946D01*
X161004072Y-74550289D01*
X160673797Y-74550001D01*
X160660102Y-74555659D01*
X160083041Y-73978598D01*
X159934715Y-73879489D01*
X159759752Y-73844687D01*
X158894401Y-73844687D01*
X158719438Y-73879489D01*
X158582309Y-73971116D01*
X158280862Y-73845944D01*
X157950587Y-73845656D01*
X157645344Y-73971780D01*
X157411601Y-74205115D01*
X157405918Y-74218800D01*
X157226000Y-74218800D01*
X157051037Y-74253602D01*
X156902711Y-74352711D01*
X155632711Y-75622711D01*
X155533602Y-75771037D01*
X155498800Y-75946000D01*
X155498800Y-77470000D01*
X155533602Y-77644963D01*
X155632711Y-77793289D01*
X156641800Y-78802378D01*
X156641800Y-80963622D01*
X155893622Y-81711800D01*
X149486187Y-81711800D01*
X149311224Y-81746602D01*
X149162897Y-81845711D01*
X148257958Y-82750651D01*
X148158849Y-82898977D01*
X148124537Y-83071477D01*
X148111591Y-83076826D01*
X147877848Y-83310161D01*
X147751191Y-83615184D01*
X147750903Y-83945459D01*
X147877027Y-84250702D01*
X148110362Y-84484445D01*
X148415385Y-84611102D01*
X148745660Y-84611390D01*
X149050903Y-84485266D01*
X149284646Y-84251931D01*
X149326179Y-84151909D01*
X149370930Y-84170492D01*
X148781622Y-84759800D01*
X142165318Y-84759800D01*
X142055220Y-84493344D01*
X141821885Y-84259601D01*
X141516862Y-84132944D01*
X141186587Y-84132656D01*
X140881344Y-84258780D01*
X140647601Y-84492115D01*
X140520944Y-84797138D01*
X140520656Y-85127413D01*
X140578663Y-85267800D01*
X133604000Y-85267800D01*
X133483986Y-85290382D01*
X133373761Y-85361310D01*
X133299815Y-85469534D01*
X133273800Y-85598000D01*
X133273800Y-94351226D01*
X128468304Y-99156722D01*
X128473200Y-99132106D01*
X128473200Y-96520000D01*
X128438398Y-96345037D01*
X128339289Y-96196711D01*
X123259289Y-91116711D01*
X123110963Y-91017602D01*
X122936000Y-90982800D01*
X122013771Y-90982800D01*
X121761648Y-90605473D01*
X121414028Y-90373200D01*
X125476000Y-90373200D01*
X125596014Y-90350618D01*
X125706239Y-90279690D01*
X125780185Y-90171466D01*
X125806200Y-90043000D01*
X125806200Y-83642200D01*
X144272000Y-83642200D01*
X144396252Y-83617931D01*
X144505487Y-83545487D01*
X146537487Y-81513487D01*
X146608185Y-81408466D01*
X146634200Y-81280000D01*
X146634200Y-75311000D01*
X146611618Y-75190986D01*
X146540690Y-75080761D01*
X146432466Y-75006815D01*
X146369017Y-74993966D01*
X146424014Y-74983618D01*
X146534239Y-74912690D01*
X146608185Y-74804466D01*
X146634200Y-74676000D01*
X146634200Y-72653774D01*
X146985698Y-72302276D01*
X147142711Y-72459289D01*
X147291037Y-72558398D01*
X147466000Y-72593200D01*
X148908622Y-72593200D01*
X149021800Y-72706378D01*
X149021800Y-73800325D01*
X148908706Y-73913222D01*
X148806017Y-74160525D01*
X148805783Y-74428301D01*
X148908041Y-74675783D01*
X149097222Y-74865294D01*
X149344525Y-74967983D01*
X149612301Y-74968217D01*
X149859783Y-74865959D01*
X150049294Y-74676778D01*
X150151983Y-74429475D01*
X150152217Y-74161699D01*
X150049959Y-73914217D01*
X149936200Y-73800260D01*
X149936200Y-72517000D01*
X149901398Y-72342037D01*
X149802289Y-72193711D01*
X149441030Y-71832452D01*
X162879483Y-71832452D01*
X163157527Y-72505371D01*
X163671921Y-73020664D01*
X164344354Y-73299882D01*
X165072452Y-73300517D01*
X165745371Y-73022473D01*
X166260664Y-72508079D01*
X166539882Y-71835646D01*
X166540517Y-71107548D01*
X166262473Y-70434629D01*
X165748079Y-69919336D01*
X165075646Y-69640118D01*
X164347548Y-69639483D01*
X163674629Y-69917527D01*
X163159336Y-70431921D01*
X162880118Y-71104354D01*
X162879483Y-71832452D01*
X149441030Y-71832452D01*
X149421289Y-71812711D01*
X149272963Y-71713602D01*
X149098000Y-71678800D01*
X147655378Y-71678800D01*
X147396200Y-71419622D01*
X147396200Y-67005200D01*
X162423226Y-67005200D01*
X163596513Y-68178487D01*
X163596513Y-68178487D01*
G37*
X163596513Y-68178487D02*
X163701534Y-68249185D01*
X163830000Y-68275200D01*
X166233226Y-68275200D01*
X169722800Y-71764774D01*
X169722800Y-76642087D01*
X169672000Y-76631800D01*
X166243000Y-76631800D01*
X166118748Y-76656069D01*
X166009513Y-76728513D01*
X159629226Y-83108800D01*
X158710779Y-83108800D01*
X159073290Y-82746289D01*
X159172398Y-82597963D01*
X159207200Y-82423000D01*
X159207200Y-77776228D01*
X159284749Y-77726327D01*
X159360144Y-77615983D01*
X159386669Y-77485000D01*
X159386669Y-77085000D01*
X159363644Y-76962635D01*
X159291327Y-76850251D01*
X159270105Y-76835750D01*
X159284749Y-76826327D01*
X159360144Y-76715983D01*
X159386669Y-76585000D01*
X159386669Y-76185000D01*
X159364651Y-76067986D01*
X159472436Y-76112742D01*
X159802711Y-76113030D01*
X159816406Y-76107372D01*
X161213800Y-77504766D01*
X161213800Y-78538633D01*
X161201344Y-78543780D01*
X160967601Y-78777115D01*
X160840944Y-79082138D01*
X160840656Y-79412413D01*
X160966780Y-79717656D01*
X161200115Y-79951399D01*
X161505138Y-80078056D01*
X161835413Y-80078344D01*
X162140656Y-79952220D01*
X162374399Y-79718885D01*
X162501056Y-79413862D01*
X162501344Y-79083587D01*
X162375220Y-78778344D01*
X162141885Y-78544601D01*
X162128200Y-78538918D01*
X162128200Y-77315388D01*
X162093398Y-77140425D01*
X161994289Y-76992099D01*
X161151404Y-76149214D01*
X161307866Y-76084565D01*
X161541609Y-75851230D01*
X161668266Y-75546207D01*
X161668554Y-75215932D01*
X161542430Y-74910689D01*
X161309095Y-74676946D01*
X161004072Y-74550289D01*
X160673797Y-74550001D01*
X160660102Y-74555659D01*
X160083041Y-73978598D01*
X159934715Y-73879489D01*
X159759752Y-73844687D01*
X158894401Y-73844687D01*
X158719438Y-73879489D01*
X158582309Y-73971116D01*
X158280862Y-73845944D01*
X157950587Y-73845656D01*
X157645344Y-73971780D01*
X157411601Y-74205115D01*
X157405918Y-74218800D01*
X157226000Y-74218800D01*
X157051037Y-74253602D01*
X156902711Y-74352711D01*
X155632711Y-75622711D01*
X155533602Y-75771037D01*
X155498800Y-75946000D01*
X155498800Y-77470000D01*
X155533602Y-77644963D01*
X155632711Y-77793289D01*
X156641800Y-78802378D01*
X156641800Y-80963622D01*
X155893622Y-81711800D01*
X149486187Y-81711800D01*
X149311224Y-81746602D01*
X149162897Y-81845711D01*
X148257958Y-82750651D01*
X148158849Y-82898977D01*
X148124537Y-83071477D01*
X148111591Y-83076826D01*
X147877848Y-83310161D01*
X147751191Y-83615184D01*
X147750903Y-83945459D01*
X147877027Y-84250702D01*
X148110362Y-84484445D01*
X148415385Y-84611102D01*
X148745660Y-84611390D01*
X149050903Y-84485266D01*
X149284646Y-84251931D01*
X149326179Y-84151909D01*
X149370930Y-84170492D01*
X148781622Y-84759800D01*
X142165318Y-84759800D01*
X142055220Y-84493344D01*
X141821885Y-84259601D01*
X141516862Y-84132944D01*
X141186587Y-84132656D01*
X140881344Y-84258780D01*
X140647601Y-84492115D01*
X140520944Y-84797138D01*
X140520656Y-85127413D01*
X140578663Y-85267800D01*
X133604000Y-85267800D01*
X133483986Y-85290382D01*
X133373761Y-85361310D01*
X133299815Y-85469534D01*
X133273800Y-85598000D01*
X133273800Y-94351226D01*
X128468304Y-99156722D01*
X128473200Y-99132106D01*
X128473200Y-96520000D01*
X128438398Y-96345037D01*
X128339289Y-96196711D01*
X123259289Y-91116711D01*
X123110963Y-91017602D01*
X122936000Y-90982800D01*
X122013771Y-90982800D01*
X121761648Y-90605473D01*
X121414028Y-90373200D01*
X125476000Y-90373200D01*
X125596014Y-90350618D01*
X125706239Y-90279690D01*
X125780185Y-90171466D01*
X125806200Y-90043000D01*
X125806200Y-83642200D01*
X144272000Y-83642200D01*
X144396252Y-83617931D01*
X144505487Y-83545487D01*
X146537487Y-81513487D01*
X146608185Y-81408466D01*
X146634200Y-81280000D01*
X146634200Y-75311000D01*
X146611618Y-75190986D01*
X146540690Y-75080761D01*
X146432466Y-75006815D01*
X146369017Y-74993966D01*
X146424014Y-74983618D01*
X146534239Y-74912690D01*
X146608185Y-74804466D01*
X146634200Y-74676000D01*
X146634200Y-72653774D01*
X146985698Y-72302276D01*
X147142711Y-72459289D01*
X147291037Y-72558398D01*
X147466000Y-72593200D01*
X148908622Y-72593200D01*
X149021800Y-72706378D01*
X149021800Y-73800325D01*
X148908706Y-73913222D01*
X148806017Y-74160525D01*
X148805783Y-74428301D01*
X148908041Y-74675783D01*
X149097222Y-74865294D01*
X149344525Y-74967983D01*
X149612301Y-74968217D01*
X149859783Y-74865959D01*
X150049294Y-74676778D01*
X150151983Y-74429475D01*
X150152217Y-74161699D01*
X150049959Y-73914217D01*
X149936200Y-73800260D01*
X149936200Y-72517000D01*
X149901398Y-72342037D01*
X149802289Y-72193711D01*
X149441030Y-71832452D01*
X162879483Y-71832452D01*
X163157527Y-72505371D01*
X163671921Y-73020664D01*
X164344354Y-73299882D01*
X165072452Y-73300517D01*
X165745371Y-73022473D01*
X166260664Y-72508079D01*
X166539882Y-71835646D01*
X166540517Y-71107548D01*
X166262473Y-70434629D01*
X165748079Y-69919336D01*
X165075646Y-69640118D01*
X164347548Y-69639483D01*
X163674629Y-69917527D01*
X163159336Y-70431921D01*
X162880118Y-71104354D01*
X162879483Y-71832452D01*
X149441030Y-71832452D01*
X149421289Y-71812711D01*
X149272963Y-71713602D01*
X149098000Y-71678800D01*
X147655378Y-71678800D01*
X147396200Y-71419622D01*
X147396200Y-67005200D01*
X162423226Y-67005200D01*
X163596513Y-68178487D01*
G36*
X144957800Y-74676000D02*
X144980382Y-74796014D01*
X145051310Y-74906239D01*
X145159534Y-74980185D01*
X145162571Y-74980800D01*
X145161000Y-74980800D01*
X145040986Y-75003382D01*
X144930761Y-75074310D01*
X144856815Y-75182534D01*
X144830800Y-75311000D01*
X144830800Y-78476226D01*
X143119226Y-80187800D01*
X142054267Y-80187800D01*
X142054344Y-80099587D01*
X141981243Y-79922669D01*
X142286000Y-79922669D01*
X142408365Y-79899644D01*
X142520749Y-79827327D01*
X142596144Y-79716983D01*
X142622669Y-79586000D01*
X142622669Y-79186000D01*
X142599644Y-79063635D01*
X142527327Y-78951251D01*
X142416983Y-78875856D01*
X142286000Y-78849331D01*
X141686000Y-78849331D01*
X141563635Y-78872356D01*
X141475918Y-78928800D01*
X141213000Y-78928800D01*
X141038037Y-78963602D01*
X140916517Y-79044800D01*
X140699228Y-79044800D01*
X140649327Y-78967251D01*
X140538983Y-78891856D01*
X140408000Y-78865331D01*
X140168643Y-78865331D01*
X142600487Y-76433487D01*
X142671185Y-76328466D01*
X142697200Y-76200000D01*
X142697200Y-75500000D01*
X143168331Y-75500000D01*
X143168331Y-76560000D01*
X143191356Y-76682365D01*
X143263673Y-76794749D01*
X143374017Y-76870144D01*
X143505000Y-76896669D01*
X144155000Y-76896669D01*
X144277365Y-76873644D01*
X144389749Y-76801327D01*
X144465144Y-76690983D01*
X144491669Y-76560000D01*
X144491669Y-75500000D01*
X144468644Y-75377635D01*
X144396327Y-75265251D01*
X144285983Y-75189856D01*
X144155000Y-75163331D01*
X143505000Y-75163331D01*
X143382635Y-75186356D01*
X143270251Y-75258673D01*
X143194856Y-75369017D01*
X143168331Y-75500000D01*
X142697200Y-75500000D01*
X142697200Y-73922778D01*
X142927711Y-74153290D01*
X143025754Y-74218800D01*
X143076037Y-74252398D01*
X143168331Y-74270756D01*
X143168331Y-74360000D01*
X143191356Y-74482365D01*
X143263673Y-74594749D01*
X143374017Y-74670144D01*
X143505000Y-74696669D01*
X144155000Y-74696669D01*
X144277365Y-74673644D01*
X144389749Y-74601327D01*
X144465144Y-74490983D01*
X144491669Y-74360000D01*
X144491669Y-73300000D01*
X144468644Y-73177635D01*
X144396327Y-73065251D01*
X144285983Y-72989856D01*
X144155000Y-72963331D01*
X143505000Y-72963331D01*
X143382635Y-72986356D01*
X143270251Y-73058673D01*
X143211799Y-73144221D01*
X143150289Y-73082711D01*
X143001963Y-72983602D01*
X142827000Y-72948800D01*
X142501200Y-72948800D01*
X142501200Y-72390469D01*
X142554144Y-72312983D01*
X142580669Y-72182000D01*
X142580669Y-71582000D01*
X142557644Y-71459635D01*
X142485327Y-71347251D01*
X142374983Y-71271856D01*
X142244000Y-71245331D01*
X141844000Y-71245331D01*
X141721635Y-71268356D01*
X141681200Y-71294375D01*
X141681200Y-70815200D01*
X144957800Y-70815200D01*
X144957800Y-74676000D01*
X144957800Y-74676000D01*
G37*
X144957800Y-74676000D02*
X144980382Y-74796014D01*
X145051310Y-74906239D01*
X145159534Y-74980185D01*
X145162571Y-74980800D01*
X145161000Y-74980800D01*
X145040986Y-75003382D01*
X144930761Y-75074310D01*
X144856815Y-75182534D01*
X144830800Y-75311000D01*
X144830800Y-78476226D01*
X143119226Y-80187800D01*
X142054267Y-80187800D01*
X142054344Y-80099587D01*
X141981243Y-79922669D01*
X142286000Y-79922669D01*
X142408365Y-79899644D01*
X142520749Y-79827327D01*
X142596144Y-79716983D01*
X142622669Y-79586000D01*
X142622669Y-79186000D01*
X142599644Y-79063635D01*
X142527327Y-78951251D01*
X142416983Y-78875856D01*
X142286000Y-78849331D01*
X141686000Y-78849331D01*
X141563635Y-78872356D01*
X141475918Y-78928800D01*
X141213000Y-78928800D01*
X141038037Y-78963602D01*
X140916517Y-79044800D01*
X140699228Y-79044800D01*
X140649327Y-78967251D01*
X140538983Y-78891856D01*
X140408000Y-78865331D01*
X140168643Y-78865331D01*
X142600487Y-76433487D01*
X142671185Y-76328466D01*
X142697200Y-76200000D01*
X142697200Y-75500000D01*
X143168331Y-75500000D01*
X143168331Y-76560000D01*
X143191356Y-76682365D01*
X143263673Y-76794749D01*
X143374017Y-76870144D01*
X143505000Y-76896669D01*
X144155000Y-76896669D01*
X144277365Y-76873644D01*
X144389749Y-76801327D01*
X144465144Y-76690983D01*
X144491669Y-76560000D01*
X144491669Y-75500000D01*
X144468644Y-75377635D01*
X144396327Y-75265251D01*
X144285983Y-75189856D01*
X144155000Y-75163331D01*
X143505000Y-75163331D01*
X143382635Y-75186356D01*
X143270251Y-75258673D01*
X143194856Y-75369017D01*
X143168331Y-75500000D01*
X142697200Y-75500000D01*
X142697200Y-73922778D01*
X142927711Y-74153290D01*
X143025754Y-74218800D01*
X143076037Y-74252398D01*
X143168331Y-74270756D01*
X143168331Y-74360000D01*
X143191356Y-74482365D01*
X143263673Y-74594749D01*
X143374017Y-74670144D01*
X143505000Y-74696669D01*
X144155000Y-74696669D01*
X144277365Y-74673644D01*
X144389749Y-74601327D01*
X144465144Y-74490983D01*
X144491669Y-74360000D01*
X144491669Y-73300000D01*
X144468644Y-73177635D01*
X144396327Y-73065251D01*
X144285983Y-72989856D01*
X144155000Y-72963331D01*
X143505000Y-72963331D01*
X143382635Y-72986356D01*
X143270251Y-73058673D01*
X143211799Y-73144221D01*
X143150289Y-73082711D01*
X143001963Y-72983602D01*
X142827000Y-72948800D01*
X142501200Y-72948800D01*
X142501200Y-72390469D01*
X142554144Y-72312983D01*
X142580669Y-72182000D01*
X142580669Y-71582000D01*
X142557644Y-71459635D01*
X142485327Y-71347251D01*
X142374983Y-71271856D01*
X142244000Y-71245331D01*
X141844000Y-71245331D01*
X141721635Y-71268356D01*
X141681200Y-71294375D01*
X141681200Y-70815200D01*
X144957800Y-70815200D01*
X144957800Y-74676000D01*
D29*
G36*
X146939000Y-71702394D02*
X146214197Y-72427197D01*
X146186334Y-72469211D01*
X146177000Y-72517000D01*
X146177000Y-74549000D01*
X145436986Y-74549000D01*
X145462859Y-74511134D01*
X145493464Y-74360000D01*
X145493464Y-73300000D01*
X145466897Y-73158810D01*
X145415000Y-73078159D01*
X145415000Y-70485000D01*
X145404994Y-70435590D01*
X145376553Y-70393965D01*
X145334159Y-70366685D01*
X145288000Y-70358000D01*
X141351000Y-70358000D01*
X141301590Y-70368006D01*
X141259965Y-70396447D01*
X141232685Y-70438841D01*
X141224000Y-70485000D01*
X141224000Y-73914000D01*
X141234006Y-73963410D01*
X141262447Y-74005035D01*
X141304841Y-74032315D01*
X141351000Y-74041000D01*
X142240000Y-74041000D01*
X142240000Y-76147394D01*
X139610197Y-78777197D01*
X139582334Y-78819211D01*
X139573000Y-78867000D01*
X139573000Y-80137000D01*
X137339606Y-80137000D01*
X133477000Y-76274394D01*
X133477000Y-71396782D01*
X133943108Y-71863704D01*
X134634204Y-72150673D01*
X135382513Y-72151326D01*
X136074109Y-71865564D01*
X136603704Y-71336892D01*
X136890673Y-70645796D01*
X136891326Y-69897487D01*
X136605564Y-69205891D01*
X136076892Y-68676296D01*
X135385796Y-68389327D01*
X134637487Y-68388674D01*
X133945891Y-68674436D01*
X133477000Y-69142510D01*
X133477000Y-67056000D01*
X146939000Y-67056000D01*
X146939000Y-71702394D01*
X146939000Y-71702394D01*
G37*
X146939000Y-71702394D02*
X146214197Y-72427197D01*
X146186334Y-72469211D01*
X146177000Y-72517000D01*
X146177000Y-74549000D01*
X145436986Y-74549000D01*
X145462859Y-74511134D01*
X145493464Y-74360000D01*
X145493464Y-73300000D01*
X145466897Y-73158810D01*
X145415000Y-73078159D01*
X145415000Y-70485000D01*
X145404994Y-70435590D01*
X145376553Y-70393965D01*
X145334159Y-70366685D01*
X145288000Y-70358000D01*
X141351000Y-70358000D01*
X141301590Y-70368006D01*
X141259965Y-70396447D01*
X141232685Y-70438841D01*
X141224000Y-70485000D01*
X141224000Y-73914000D01*
X141234006Y-73963410D01*
X141262447Y-74005035D01*
X141304841Y-74032315D01*
X141351000Y-74041000D01*
X142240000Y-74041000D01*
X142240000Y-76147394D01*
X139610197Y-78777197D01*
X139582334Y-78819211D01*
X139573000Y-78867000D01*
X139573000Y-80137000D01*
X137339606Y-80137000D01*
X133477000Y-76274394D01*
X133477000Y-71396782D01*
X133943108Y-71863704D01*
X134634204Y-72150673D01*
X135382513Y-72151326D01*
X136074109Y-71865564D01*
X136603704Y-71336892D01*
X136890673Y-70645796D01*
X136891326Y-69897487D01*
X136605564Y-69205891D01*
X136076892Y-68676296D01*
X135385796Y-68389327D01*
X134637487Y-68388674D01*
X133945891Y-68674436D01*
X133477000Y-69142510D01*
X133477000Y-67056000D01*
X146939000Y-67056000D01*
X146939000Y-71702394D01*
G36*
X190044000Y-90043000D02*
X180806524Y-90043000D01*
X180835200Y-90037296D01*
X181234565Y-89770448D01*
X181501413Y-89371083D01*
X181595117Y-88900000D01*
X181501413Y-88428917D01*
X181234565Y-88029552D01*
X180835200Y-87762704D01*
X180364117Y-87669000D01*
X180315883Y-87669000D01*
X179844800Y-87762704D01*
X179445435Y-88029552D01*
X179178587Y-88428917D01*
X179084883Y-88900000D01*
X179178587Y-89371083D01*
X179445435Y-89770448D01*
X179844800Y-90037296D01*
X179873476Y-90043000D01*
X174371000Y-90043000D01*
X174371000Y-89916000D01*
X174342997Y-89772633D01*
X174259408Y-89646592D01*
X170180000Y-85567184D01*
X170180000Y-83312000D01*
X173101000Y-83312000D01*
X173239477Y-83285944D01*
X173366660Y-83204104D01*
X173451983Y-83079230D01*
X173482000Y-82931000D01*
X173482000Y-77216000D01*
X173455944Y-77077523D01*
X173374104Y-76950340D01*
X173249230Y-76865017D01*
X173101000Y-76835000D01*
X170180000Y-76835000D01*
X170180000Y-71628000D01*
X170169994Y-71578590D01*
X170142803Y-71538197D01*
X169247119Y-70642513D01*
X171228674Y-70642513D01*
X171514436Y-71334109D01*
X172043108Y-71863704D01*
X172734204Y-72150673D01*
X173482513Y-72151326D01*
X174174109Y-71865564D01*
X174703704Y-71336892D01*
X174990673Y-70645796D01*
X174991326Y-69897487D01*
X174705564Y-69205891D01*
X174176892Y-68676296D01*
X173485796Y-68389327D01*
X172737487Y-68388674D01*
X172045891Y-68674436D01*
X171516296Y-69203108D01*
X171229327Y-69894204D01*
X171228674Y-70642513D01*
X169247119Y-70642513D01*
X166459803Y-67855197D01*
X166417789Y-67827334D01*
X166386077Y-67821140D01*
X184108553Y-67821140D01*
X184500659Y-68770109D01*
X185226072Y-69496790D01*
X186174355Y-69890551D01*
X187201140Y-69891447D01*
X188150109Y-69499341D01*
X188876790Y-68773928D01*
X189270551Y-67825645D01*
X189271447Y-66798860D01*
X188879341Y-65849891D01*
X188153928Y-65123210D01*
X187205645Y-64729449D01*
X186178860Y-64728553D01*
X185229891Y-65120659D01*
X184503210Y-65846072D01*
X184109449Y-66794355D01*
X184108553Y-67821140D01*
X166386077Y-67821140D01*
X166370000Y-67818000D01*
X163882606Y-67818000D01*
X162649803Y-66585197D01*
X162607789Y-66557334D01*
X162560000Y-66548000D01*
X133350000Y-66548000D01*
X133211523Y-66574056D01*
X133084340Y-66655896D01*
X132999017Y-66780770D01*
X132978828Y-66880466D01*
X132978334Y-66881211D01*
X132969000Y-66929000D01*
X132969000Y-76327000D01*
X132997003Y-76470367D01*
X133080592Y-76596408D01*
X137017592Y-80533408D01*
X137138770Y-80614983D01*
X137238466Y-80635172D01*
X137239211Y-80635666D01*
X137287000Y-80645000D01*
X140008401Y-80645000D01*
X140140596Y-80733331D01*
X140335000Y-80772000D01*
X140486277Y-80772000D01*
X140724302Y-81010440D01*
X141047989Y-81144847D01*
X141398473Y-81145153D01*
X141722395Y-81011311D01*
X141970440Y-80763698D01*
X142019728Y-80645000D01*
X143256000Y-80645000D01*
X143305410Y-80634994D01*
X143345803Y-80607803D01*
X145250803Y-78702803D01*
X145278666Y-78660789D01*
X145288000Y-78613000D01*
X145288000Y-75438000D01*
X146177000Y-75438000D01*
X146177000Y-81227394D01*
X144219394Y-83185000D01*
X125476000Y-83185000D01*
X125426590Y-83195006D01*
X125384965Y-83223447D01*
X125357685Y-83265841D01*
X125349000Y-83312000D01*
X125349000Y-89916000D01*
X119040732Y-89916000D01*
X119258565Y-89770448D01*
X119525413Y-89371083D01*
X119619117Y-88900000D01*
X119525413Y-88428917D01*
X119258565Y-88029552D01*
X118859200Y-87762704D01*
X118388117Y-87669000D01*
X118339883Y-87669000D01*
X117868800Y-87762704D01*
X117469435Y-88029552D01*
X117322273Y-88249795D01*
X117296000Y-86419429D01*
X117296000Y-71842513D01*
X124728674Y-71842513D01*
X125014436Y-72534109D01*
X125543108Y-73063704D01*
X126234204Y-73350673D01*
X126982513Y-73351326D01*
X127674109Y-73065564D01*
X128203704Y-72536892D01*
X128490673Y-71845796D01*
X128491326Y-71097487D01*
X128205564Y-70405891D01*
X127676892Y-69876296D01*
X126985796Y-69589327D01*
X126237487Y-69588674D01*
X125545891Y-69874436D01*
X125016296Y-70403108D01*
X124729327Y-71094204D01*
X124728674Y-71842513D01*
X117296000Y-71842513D01*
X117296000Y-67821140D01*
X118068553Y-67821140D01*
X118460659Y-68770109D01*
X119186072Y-69496790D01*
X120134355Y-69890551D01*
X121161140Y-69891447D01*
X122110109Y-69499341D01*
X122836790Y-68773928D01*
X123230551Y-67825645D01*
X123231447Y-66798860D01*
X122839341Y-65849891D01*
X122113928Y-65123210D01*
X121165645Y-64729449D01*
X120138860Y-64728553D01*
X119189891Y-65120659D01*
X118463210Y-65846072D01*
X118069449Y-66794355D01*
X118068553Y-67821140D01*
X117296000Y-67821140D01*
X117296000Y-63956000D01*
X190044000Y-63956000D01*
X190044000Y-90043000D01*
X190044000Y-90043000D01*
G37*
X190044000Y-90043000D02*
X180806524Y-90043000D01*
X180835200Y-90037296D01*
X181234565Y-89770448D01*
X181501413Y-89371083D01*
X181595117Y-88900000D01*
X181501413Y-88428917D01*
X181234565Y-88029552D01*
X180835200Y-87762704D01*
X180364117Y-87669000D01*
X180315883Y-87669000D01*
X179844800Y-87762704D01*
X179445435Y-88029552D01*
X179178587Y-88428917D01*
X179084883Y-88900000D01*
X179178587Y-89371083D01*
X179445435Y-89770448D01*
X179844800Y-90037296D01*
X179873476Y-90043000D01*
X174371000Y-90043000D01*
X174371000Y-89916000D01*
X174342997Y-89772633D01*
X174259408Y-89646592D01*
X170180000Y-85567184D01*
X170180000Y-83312000D01*
X173101000Y-83312000D01*
X173239477Y-83285944D01*
X173366660Y-83204104D01*
X173451983Y-83079230D01*
X173482000Y-82931000D01*
X173482000Y-77216000D01*
X173455944Y-77077523D01*
X173374104Y-76950340D01*
X173249230Y-76865017D01*
X173101000Y-76835000D01*
X170180000Y-76835000D01*
X170180000Y-71628000D01*
X170169994Y-71578590D01*
X170142803Y-71538197D01*
X169247119Y-70642513D01*
X171228674Y-70642513D01*
X171514436Y-71334109D01*
X172043108Y-71863704D01*
X172734204Y-72150673D01*
X173482513Y-72151326D01*
X174174109Y-71865564D01*
X174703704Y-71336892D01*
X174990673Y-70645796D01*
X174991326Y-69897487D01*
X174705564Y-69205891D01*
X174176892Y-68676296D01*
X173485796Y-68389327D01*
X172737487Y-68388674D01*
X172045891Y-68674436D01*
X171516296Y-69203108D01*
X171229327Y-69894204D01*
X171228674Y-70642513D01*
X169247119Y-70642513D01*
X166459803Y-67855197D01*
X166417789Y-67827334D01*
X166386077Y-67821140D01*
X184108553Y-67821140D01*
X184500659Y-68770109D01*
X185226072Y-69496790D01*
X186174355Y-69890551D01*
X187201140Y-69891447D01*
X188150109Y-69499341D01*
X188876790Y-68773928D01*
X189270551Y-67825645D01*
X189271447Y-66798860D01*
X188879341Y-65849891D01*
X188153928Y-65123210D01*
X187205645Y-64729449D01*
X186178860Y-64728553D01*
X185229891Y-65120659D01*
X184503210Y-65846072D01*
X184109449Y-66794355D01*
X184108553Y-67821140D01*
X166386077Y-67821140D01*
X166370000Y-67818000D01*
X163882606Y-67818000D01*
X162649803Y-66585197D01*
X162607789Y-66557334D01*
X162560000Y-66548000D01*
X133350000Y-66548000D01*
X133211523Y-66574056D01*
X133084340Y-66655896D01*
X132999017Y-66780770D01*
X132978828Y-66880466D01*
X132978334Y-66881211D01*
X132969000Y-66929000D01*
X132969000Y-76327000D01*
X132997003Y-76470367D01*
X133080592Y-76596408D01*
X137017592Y-80533408D01*
X137138770Y-80614983D01*
X137238466Y-80635172D01*
X137239211Y-80635666D01*
X137287000Y-80645000D01*
X140008401Y-80645000D01*
X140140596Y-80733331D01*
X140335000Y-80772000D01*
X140486277Y-80772000D01*
X140724302Y-81010440D01*
X141047989Y-81144847D01*
X141398473Y-81145153D01*
X141722395Y-81011311D01*
X141970440Y-80763698D01*
X142019728Y-80645000D01*
X143256000Y-80645000D01*
X143305410Y-80634994D01*
X143345803Y-80607803D01*
X145250803Y-78702803D01*
X145278666Y-78660789D01*
X145288000Y-78613000D01*
X145288000Y-75438000D01*
X146177000Y-75438000D01*
X146177000Y-81227394D01*
X144219394Y-83185000D01*
X125476000Y-83185000D01*
X125426590Y-83195006D01*
X125384965Y-83223447D01*
X125357685Y-83265841D01*
X125349000Y-83312000D01*
X125349000Y-89916000D01*
X119040732Y-89916000D01*
X119258565Y-89770448D01*
X119525413Y-89371083D01*
X119619117Y-88900000D01*
X119525413Y-88428917D01*
X119258565Y-88029552D01*
X118859200Y-87762704D01*
X118388117Y-87669000D01*
X118339883Y-87669000D01*
X117868800Y-87762704D01*
X117469435Y-88029552D01*
X117322273Y-88249795D01*
X117296000Y-86419429D01*
X117296000Y-71842513D01*
X124728674Y-71842513D01*
X125014436Y-72534109D01*
X125543108Y-73063704D01*
X126234204Y-73350673D01*
X126982513Y-73351326D01*
X127674109Y-73065564D01*
X128203704Y-72536892D01*
X128490673Y-71845796D01*
X128491326Y-71097487D01*
X128205564Y-70405891D01*
X127676892Y-69876296D01*
X126985796Y-69589327D01*
X126237487Y-69588674D01*
X125545891Y-69874436D01*
X125016296Y-70403108D01*
X124729327Y-71094204D01*
X124728674Y-71842513D01*
X117296000Y-71842513D01*
X117296000Y-67821140D01*
X118068553Y-67821140D01*
X118460659Y-68770109D01*
X119186072Y-69496790D01*
X120134355Y-69890551D01*
X121161140Y-69891447D01*
X122110109Y-69499341D01*
X122836790Y-68773928D01*
X123230551Y-67825645D01*
X123231447Y-66798860D01*
X122839341Y-65849891D01*
X122113928Y-65123210D01*
X121165645Y-64729449D01*
X120138860Y-64728553D01*
X119189891Y-65120659D01*
X118463210Y-65846072D01*
X118069449Y-66794355D01*
X118068553Y-67821140D01*
X117296000Y-67821140D01*
X117296000Y-63956000D01*
X190044000Y-63956000D01*
X190044000Y-90043000D01*
G36*
X169545000Y-85598000D02*
X169555006Y-85647410D01*
X169582197Y-85687803D01*
X173863000Y-89968606D01*
X173863000Y-105410000D01*
X173873006Y-105459410D01*
X173901447Y-105501035D01*
X173943841Y-105528315D01*
X173990000Y-105537000D01*
X178689000Y-105537000D01*
X178689000Y-107866580D01*
X178097580Y-108458000D01*
X170791124Y-108458000D01*
X170799440Y-108449698D01*
X170933847Y-108126011D01*
X170934153Y-107775527D01*
X170800311Y-107451605D01*
X170552698Y-107203560D01*
X170229011Y-107069153D01*
X169890277Y-107068857D01*
X169269210Y-106447790D01*
X169104403Y-106337669D01*
X168910000Y-106299000D01*
X167640000Y-106299000D01*
X167477850Y-106331254D01*
X167445596Y-106337669D01*
X167280790Y-106447790D01*
X166532439Y-107196141D01*
X166195527Y-107195847D01*
X165871605Y-107329689D01*
X165623560Y-107577302D01*
X165489153Y-107900989D01*
X165488847Y-108251473D01*
X165622689Y-108575395D01*
X165870302Y-108823440D01*
X165907775Y-108839000D01*
X163703000Y-108839000D01*
X163703000Y-103759000D01*
X163664331Y-103564597D01*
X163554210Y-103399790D01*
X161027859Y-100873439D01*
X161028153Y-100536527D01*
X160894311Y-100212605D01*
X160646698Y-99964560D01*
X160323011Y-99830153D01*
X159972527Y-99829847D01*
X159648605Y-99963689D01*
X159400560Y-100211302D01*
X159266153Y-100534989D01*
X159265847Y-100885473D01*
X159399689Y-101209395D01*
X159647302Y-101457440D01*
X159970989Y-101591847D01*
X160309723Y-101592143D01*
X162687000Y-103969420D01*
X162687000Y-106830876D01*
X162678698Y-106822560D01*
X162355011Y-106688153D01*
X162016277Y-106687857D01*
X161141210Y-105812790D01*
X160976403Y-105702669D01*
X160782000Y-105664000D01*
X159868723Y-105664000D01*
X159630698Y-105425560D01*
X159307011Y-105291153D01*
X158956527Y-105290847D01*
X158632605Y-105424689D01*
X158623000Y-105434277D01*
X158623000Y-101575723D01*
X158861440Y-101337698D01*
X158995847Y-101014011D01*
X158996153Y-100663527D01*
X158862311Y-100339605D01*
X158614698Y-100091560D01*
X158320162Y-99969258D01*
X158578875Y-99710545D01*
X158860510Y-99710791D01*
X159184432Y-99576949D01*
X159432477Y-99329336D01*
X159566884Y-99005649D01*
X159567190Y-98655165D01*
X159433348Y-98331243D01*
X159185735Y-98083198D01*
X158862048Y-97948791D01*
X158511564Y-97948485D01*
X158384966Y-98000794D01*
X158354311Y-97926605D01*
X158106698Y-97678560D01*
X157783011Y-97544153D01*
X157432527Y-97543847D01*
X157108605Y-97677689D01*
X156860560Y-97925302D01*
X156756377Y-98176203D01*
X156634580Y-98298000D01*
X153035000Y-98298000D01*
X152840597Y-98336669D01*
X152675790Y-98446790D01*
X151659790Y-99462790D01*
X151549669Y-99627597D01*
X151511000Y-99822000D01*
X151511000Y-101019894D01*
X151549669Y-101214297D01*
X151659790Y-101379104D01*
X152152377Y-101871691D01*
X152034560Y-101989302D01*
X151900153Y-102312989D01*
X151899847Y-102663473D01*
X152033689Y-102987395D01*
X152281302Y-103235440D01*
X152604989Y-103369847D01*
X152955473Y-103370153D01*
X153235536Y-103254433D01*
X153235536Y-103255000D01*
X153262103Y-103396190D01*
X153332883Y-103506186D01*
X153266141Y-103603866D01*
X153235536Y-103755000D01*
X153235536Y-104155000D01*
X153262103Y-104296190D01*
X153345546Y-104425865D01*
X153416000Y-104474004D01*
X153416000Y-106299000D01*
X153446209Y-106450872D01*
X153424153Y-106503989D01*
X153423847Y-106854473D01*
X153557689Y-107178395D01*
X153805302Y-107426440D01*
X154128989Y-107560847D01*
X154479473Y-107561153D01*
X154803395Y-107427311D01*
X155051440Y-107179698D01*
X155185847Y-106856011D01*
X155186153Y-106505527D01*
X155052311Y-106181605D01*
X154804698Y-105933560D01*
X154481011Y-105799153D01*
X154432000Y-105799110D01*
X154432000Y-105640124D01*
X154440302Y-105648440D01*
X154763989Y-105782847D01*
X155114473Y-105783153D01*
X155438395Y-105649311D01*
X155686440Y-105401698D01*
X155820847Y-105078011D01*
X155821153Y-104727527D01*
X155687311Y-104403605D01*
X155448000Y-104163876D01*
X155448000Y-101810880D01*
X155449186Y-101810117D01*
X155546866Y-101876859D01*
X155698000Y-101907464D01*
X156098000Y-101907464D01*
X156239190Y-101880897D01*
X156368865Y-101797454D01*
X156427228Y-101712036D01*
X156546403Y-101688331D01*
X156711210Y-101578210D01*
X157246449Y-101042971D01*
X157367689Y-101336395D01*
X157607000Y-101576124D01*
X157607000Y-103972245D01*
X157306683Y-103847542D01*
X156956199Y-103847236D01*
X156632277Y-103981078D01*
X156384232Y-104228691D01*
X156249825Y-104552378D01*
X156249519Y-104902862D01*
X156383361Y-105226784D01*
X156434272Y-105277784D01*
X156410536Y-105395000D01*
X156410536Y-105795000D01*
X156437103Y-105936190D01*
X156507883Y-106046186D01*
X156441141Y-106143866D01*
X156430087Y-106198455D01*
X156386011Y-106180153D01*
X156035527Y-106179847D01*
X155711605Y-106313689D01*
X155463560Y-106561302D01*
X155329153Y-106884989D01*
X155328847Y-107235473D01*
X155462689Y-107559395D01*
X155622536Y-107719521D01*
X155622536Y-108748000D01*
X155639659Y-108839000D01*
X145914890Y-108839000D01*
X145915153Y-108537527D01*
X145781311Y-108213605D01*
X145533698Y-107965560D01*
X145210011Y-107831153D01*
X144859527Y-107830847D01*
X144535605Y-107964689D01*
X144295876Y-108204000D01*
X144108958Y-108204000D01*
X144088454Y-108172135D01*
X143961134Y-108085141D01*
X143810000Y-108054536D01*
X143210000Y-108054536D01*
X143068810Y-108081103D01*
X142939135Y-108164546D01*
X142852141Y-108291866D01*
X142821536Y-108443000D01*
X142821536Y-108839000D01*
X141842439Y-108839000D01*
X143158010Y-107523429D01*
X143383817Y-107749629D01*
X143707504Y-107884036D01*
X144057988Y-107884342D01*
X144381910Y-107750500D01*
X144629955Y-107502887D01*
X144764362Y-107179200D01*
X144764668Y-106828716D01*
X144722836Y-106727473D01*
X146311847Y-106727473D01*
X146445689Y-107051395D01*
X146693302Y-107299440D01*
X147016989Y-107433847D01*
X147367473Y-107434153D01*
X147691395Y-107300311D01*
X147707471Y-107284263D01*
X147954430Y-107531652D01*
X148278117Y-107666059D01*
X148628601Y-107666365D01*
X148952523Y-107532523D01*
X149200568Y-107284910D01*
X149242778Y-107183258D01*
X149342679Y-107224741D01*
X149693163Y-107225047D01*
X150017085Y-107091205D01*
X150083555Y-107024851D01*
X150171180Y-107112629D01*
X150494867Y-107247036D01*
X150845351Y-107247342D01*
X151080547Y-107150161D01*
X151144689Y-107305395D01*
X151392302Y-107553440D01*
X151715989Y-107687847D01*
X152066473Y-107688153D01*
X152390395Y-107554311D01*
X152638440Y-107306698D01*
X152742624Y-107055796D01*
X152886210Y-106912210D01*
X152996331Y-106747404D01*
X153005404Y-106701790D01*
X153035000Y-106553000D01*
X153035000Y-105616906D01*
X153097865Y-105576454D01*
X153184859Y-105449134D01*
X153215464Y-105298000D01*
X153215464Y-104898000D01*
X153188897Y-104756810D01*
X153105454Y-104627135D01*
X152978134Y-104540141D01*
X152827000Y-104509536D01*
X152227000Y-104509536D01*
X152085810Y-104536103D01*
X151956135Y-104619546D01*
X151891470Y-104714187D01*
X151835454Y-104627135D01*
X151708134Y-104540141D01*
X151557000Y-104509536D01*
X150957000Y-104509536D01*
X150815810Y-104536103D01*
X150686135Y-104619546D01*
X150621470Y-104714187D01*
X150565454Y-104627135D01*
X150438134Y-104540141D01*
X150287000Y-104509536D01*
X149687000Y-104509536D01*
X149545810Y-104536103D01*
X149416135Y-104619546D01*
X149351470Y-104714187D01*
X149295454Y-104627135D01*
X149168134Y-104540141D01*
X149017000Y-104509536D01*
X148417000Y-104509536D01*
X148275810Y-104536103D01*
X148146135Y-104619546D01*
X148081470Y-104714187D01*
X148025454Y-104627135D01*
X147898134Y-104540141D01*
X147747000Y-104509536D01*
X147147000Y-104509536D01*
X147005810Y-104536103D01*
X146876135Y-104619546D01*
X146789141Y-104746866D01*
X146758536Y-104898000D01*
X146758536Y-105298000D01*
X146785103Y-105439190D01*
X146868546Y-105568865D01*
X146939000Y-105617004D01*
X146939000Y-105704707D01*
X146694605Y-105805689D01*
X146446560Y-106053302D01*
X146312153Y-106376989D01*
X146311847Y-106727473D01*
X144722836Y-106727473D01*
X144630826Y-106504794D01*
X144383213Y-106256749D01*
X144059526Y-106122342D01*
X143882933Y-106122188D01*
X143883153Y-105870527D01*
X143749311Y-105546605D01*
X143501698Y-105298560D01*
X143178011Y-105164153D01*
X142827527Y-105163847D01*
X142503605Y-105297689D01*
X142255560Y-105545302D01*
X142121153Y-105868989D01*
X142120857Y-106207723D01*
X139489580Y-108839000D01*
X120371723Y-108839000D01*
X120142000Y-108608876D01*
X120142000Y-105537000D01*
X122682000Y-105537000D01*
X122731410Y-105526994D01*
X122771803Y-105499803D01*
X123885607Y-104385999D01*
X124234956Y-104385999D01*
X124429359Y-104347330D01*
X124594166Y-104237209D01*
X125340707Y-103490669D01*
X125450828Y-103325862D01*
X125459112Y-103284216D01*
X125489497Y-103131458D01*
X125489497Y-102782109D01*
X126641543Y-101630063D01*
X128599096Y-101630063D01*
X128732938Y-101953985D01*
X128980551Y-102202030D01*
X129286000Y-102328864D01*
X129286000Y-103402277D01*
X129047560Y-103640302D01*
X128913153Y-103963989D01*
X128912847Y-104314473D01*
X129046689Y-104638395D01*
X129294302Y-104886440D01*
X129617989Y-105020847D01*
X129968473Y-105021153D01*
X130292395Y-104887311D01*
X130540440Y-104639698D01*
X130674847Y-104316011D01*
X130675070Y-104060473D01*
X136786847Y-104060473D01*
X136920689Y-104384395D01*
X137168302Y-104632440D01*
X137491989Y-104766847D01*
X137842473Y-104767153D01*
X138166395Y-104633311D01*
X138414440Y-104385698D01*
X138548847Y-104062011D01*
X138549143Y-103723277D01*
X138640420Y-103632000D01*
X144677277Y-103632000D01*
X144915302Y-103870440D01*
X145238989Y-104004847D01*
X145589473Y-104005153D01*
X145913395Y-103871311D01*
X146161440Y-103623698D01*
X146295847Y-103300011D01*
X146296153Y-102949527D01*
X146162311Y-102625605D01*
X145914698Y-102377560D01*
X145591011Y-102243153D01*
X145240527Y-102242847D01*
X144916605Y-102376689D01*
X144676876Y-102616000D01*
X138430000Y-102616000D01*
X138284046Y-102645032D01*
X138235596Y-102654669D01*
X138070789Y-102764790D01*
X137830439Y-103005141D01*
X137493527Y-103004847D01*
X137169605Y-103138689D01*
X136921560Y-103386302D01*
X136787153Y-103709989D01*
X136786847Y-104060473D01*
X130675070Y-104060473D01*
X130675153Y-103965527D01*
X130541311Y-103641605D01*
X130302000Y-103401876D01*
X130302000Y-101773920D01*
X130361096Y-101631601D01*
X130361336Y-101355677D01*
X135703161Y-101355677D01*
X135837003Y-101679599D01*
X136084616Y-101927644D01*
X136408303Y-102062051D01*
X136758787Y-102062357D01*
X137082709Y-101928515D01*
X137322438Y-101689204D01*
X146690784Y-101689204D01*
X147201141Y-102199561D01*
X147200847Y-102536473D01*
X147334689Y-102860395D01*
X147582302Y-103108440D01*
X147905989Y-103242847D01*
X148256473Y-103243153D01*
X148580395Y-103109311D01*
X148828440Y-102861698D01*
X148962847Y-102538011D01*
X148963153Y-102187527D01*
X148829311Y-101863605D01*
X148581698Y-101615560D01*
X148258011Y-101481153D01*
X147919277Y-101480857D01*
X147260414Y-100821994D01*
X147095607Y-100711873D01*
X146901204Y-100673204D01*
X137322037Y-100673204D01*
X137084012Y-100434764D01*
X136760325Y-100300357D01*
X136409841Y-100300051D01*
X136085919Y-100433893D01*
X135837874Y-100681506D01*
X135703467Y-101005193D01*
X135703161Y-101355677D01*
X130361336Y-101355677D01*
X130361402Y-101281117D01*
X130227560Y-100957195D01*
X129979947Y-100709150D01*
X129656260Y-100574743D01*
X129305776Y-100574437D01*
X128981854Y-100708279D01*
X128733809Y-100955892D01*
X128599402Y-101279579D01*
X128599096Y-101630063D01*
X126641543Y-101630063D01*
X130507499Y-97764107D01*
X138333753Y-97764107D01*
X138467595Y-98088029D01*
X138715208Y-98336074D01*
X139038895Y-98470481D01*
X139297725Y-98470707D01*
X139412305Y-98748011D01*
X139659918Y-98996056D01*
X139983605Y-99130463D01*
X140334089Y-99130769D01*
X140658011Y-98996927D01*
X140906056Y-98749314D01*
X141037089Y-98433752D01*
X141037089Y-98749062D01*
X140798649Y-98987087D01*
X140664242Y-99310774D01*
X140663936Y-99661258D01*
X140797778Y-99985180D01*
X141045391Y-100233225D01*
X141369078Y-100367632D01*
X141719562Y-100367938D01*
X142043484Y-100234096D01*
X142291529Y-99986483D01*
X142420220Y-99676561D01*
X142444993Y-99686847D01*
X142795477Y-99687153D01*
X143119399Y-99553311D01*
X143136917Y-99535824D01*
X143136847Y-99615473D01*
X143270689Y-99939395D01*
X143518302Y-100187440D01*
X143841989Y-100321847D01*
X144192473Y-100322153D01*
X144516395Y-100188311D01*
X144764440Y-99940698D01*
X144898847Y-99617011D01*
X144899152Y-99267372D01*
X144987330Y-99135405D01*
X144998019Y-99081665D01*
X145025999Y-98941001D01*
X145025999Y-97881421D01*
X147276421Y-95631000D01*
X159174580Y-95631000D01*
X164725790Y-101182210D01*
X164890596Y-101292331D01*
X164922850Y-101298746D01*
X165085000Y-101331000D01*
X168299277Y-101331000D01*
X168537302Y-101569440D01*
X168860989Y-101703847D01*
X169211473Y-101704153D01*
X169535395Y-101570311D01*
X169783440Y-101322698D01*
X169917847Y-100999011D01*
X169918153Y-100648527D01*
X169784311Y-100324605D01*
X169536698Y-100076560D01*
X169213011Y-99942153D01*
X169127342Y-99942078D01*
X171047210Y-98022211D01*
X171135279Y-97890406D01*
X171157331Y-97857403D01*
X171196000Y-97663000D01*
X171196000Y-92456000D01*
X171163746Y-92293850D01*
X171157331Y-92261596D01*
X171047210Y-92096789D01*
X167640000Y-88689580D01*
X167640000Y-87256743D01*
X167745335Y-87151592D01*
X167855774Y-86885624D01*
X167856025Y-86597639D01*
X167746050Y-86331479D01*
X167542592Y-86127665D01*
X167276624Y-86017226D01*
X166988639Y-86016975D01*
X166722479Y-86126950D01*
X166518665Y-86330408D01*
X166408226Y-86596376D01*
X166408034Y-86816498D01*
X166366329Y-86816462D01*
X166100169Y-86926437D01*
X166077584Y-86948982D01*
X165891592Y-86762665D01*
X165625624Y-86652226D01*
X165337639Y-86651975D01*
X165071479Y-86761950D01*
X164867665Y-86965408D01*
X164757226Y-87231376D01*
X164756975Y-87519361D01*
X164866950Y-87785521D01*
X165070408Y-87989335D01*
X165315899Y-88091271D01*
X165315899Y-88639557D01*
X165117624Y-88557226D01*
X164829639Y-88556975D01*
X164587406Y-88657064D01*
X164571050Y-88617479D01*
X164367592Y-88413665D01*
X164101624Y-88303226D01*
X163813639Y-88302975D01*
X163547479Y-88412950D01*
X163543596Y-88416826D01*
X163537886Y-88408279D01*
X163538025Y-88248639D01*
X163428050Y-87982479D01*
X163224592Y-87778665D01*
X162958624Y-87668226D01*
X162670639Y-87667975D01*
X162404479Y-87777950D01*
X162396786Y-87785630D01*
X162396974Y-87569487D01*
X162286999Y-87303327D01*
X162083541Y-87099513D01*
X161817573Y-86989074D01*
X161529588Y-86988823D01*
X161263428Y-87098798D01*
X161121028Y-87240949D01*
X160926624Y-87160226D01*
X160638639Y-87159975D01*
X160372479Y-87269950D01*
X160168665Y-87473408D01*
X160058226Y-87739376D01*
X160057975Y-88027361D01*
X160167950Y-88293521D01*
X160281657Y-88407427D01*
X160312669Y-88563336D01*
X160422790Y-88728143D01*
X162130656Y-90436009D01*
X162090226Y-90533376D01*
X162089975Y-90821361D01*
X162199950Y-91087521D01*
X162403408Y-91291335D01*
X162669376Y-91401774D01*
X162957361Y-91402025D01*
X163223521Y-91292050D01*
X163427335Y-91088592D01*
X163438192Y-91062444D01*
X164474189Y-92098441D01*
X164474059Y-92247277D01*
X164584034Y-92513437D01*
X164787492Y-92717251D01*
X164818985Y-92730328D01*
X164817479Y-92730950D01*
X164613744Y-92934330D01*
X163903204Y-92223790D01*
X163738397Y-92113669D01*
X163543994Y-92075000D01*
X144221540Y-92075000D01*
X144076169Y-92103916D01*
X144027136Y-92113669D01*
X143862330Y-92223790D01*
X139377345Y-96708775D01*
X139040433Y-96708481D01*
X138716511Y-96842323D01*
X138468466Y-97089936D01*
X138334059Y-97413623D01*
X138333753Y-97764107D01*
X130507499Y-97764107D01*
X133693803Y-94577803D01*
X133721666Y-94535789D01*
X133731000Y-94488000D01*
X133731000Y-86106000D01*
X151638000Y-86106000D01*
X151638000Y-87122000D01*
X151666003Y-87265367D01*
X151749592Y-87391408D01*
X152765592Y-88407408D01*
X152886770Y-88488983D01*
X153035000Y-88519000D01*
X154305000Y-88519000D01*
X154448367Y-88490997D01*
X154574408Y-88407408D01*
X155590408Y-87391408D01*
X155671983Y-87270230D01*
X155702000Y-87122000D01*
X155702000Y-86106000D01*
X155675944Y-85967523D01*
X155594104Y-85840340D01*
X155469230Y-85755017D01*
X155321000Y-85725000D01*
X154371365Y-85725000D01*
X154295000Y-85709536D01*
X153045000Y-85709536D01*
X152962817Y-85725000D01*
X152019000Y-85725000D01*
X151880523Y-85751056D01*
X151753340Y-85832896D01*
X151668017Y-85957770D01*
X151638000Y-86106000D01*
X133731000Y-86106000D01*
X133731000Y-85725000D01*
X149098000Y-85725000D01*
X149147410Y-85714994D01*
X149187803Y-85687803D01*
X151309606Y-83566000D01*
X156888580Y-83566000D01*
X156858789Y-83595791D01*
X156748668Y-83760598D01*
X156709999Y-83955001D01*
X156709999Y-86367992D01*
X156543527Y-86367847D01*
X156219605Y-86501689D01*
X155971560Y-86749302D01*
X155837153Y-87072989D01*
X155836847Y-87423473D01*
X155970689Y-87747395D01*
X156218302Y-87995440D01*
X156541989Y-88129847D01*
X156892473Y-88130153D01*
X157216395Y-87996311D01*
X157464440Y-87748698D01*
X157598847Y-87425011D01*
X157599152Y-87075372D01*
X157687330Y-86943405D01*
X157699074Y-86884361D01*
X157725999Y-86749001D01*
X157725999Y-84165421D01*
X158325420Y-83566000D01*
X159766000Y-83566000D01*
X159815410Y-83555994D01*
X159855803Y-83528803D01*
X166295606Y-77089000D01*
X169545000Y-77089000D01*
X169545000Y-85598000D01*
X169545000Y-85598000D01*
G37*
X169545000Y-85598000D02*
X169555006Y-85647410D01*
X169582197Y-85687803D01*
X173863000Y-89968606D01*
X173863000Y-105410000D01*
X173873006Y-105459410D01*
X173901447Y-105501035D01*
X173943841Y-105528315D01*
X173990000Y-105537000D01*
X178689000Y-105537000D01*
X178689000Y-107866580D01*
X178097580Y-108458000D01*
X170791124Y-108458000D01*
X170799440Y-108449698D01*
X170933847Y-108126011D01*
X170934153Y-107775527D01*
X170800311Y-107451605D01*
X170552698Y-107203560D01*
X170229011Y-107069153D01*
X169890277Y-107068857D01*
X169269210Y-106447790D01*
X169104403Y-106337669D01*
X168910000Y-106299000D01*
X167640000Y-106299000D01*
X167477850Y-106331254D01*
X167445596Y-106337669D01*
X167280790Y-106447790D01*
X166532439Y-107196141D01*
X166195527Y-107195847D01*
X165871605Y-107329689D01*
X165623560Y-107577302D01*
X165489153Y-107900989D01*
X165488847Y-108251473D01*
X165622689Y-108575395D01*
X165870302Y-108823440D01*
X165907775Y-108839000D01*
X163703000Y-108839000D01*
X163703000Y-103759000D01*
X163664331Y-103564597D01*
X163554210Y-103399790D01*
X161027859Y-100873439D01*
X161028153Y-100536527D01*
X160894311Y-100212605D01*
X160646698Y-99964560D01*
X160323011Y-99830153D01*
X159972527Y-99829847D01*
X159648605Y-99963689D01*
X159400560Y-100211302D01*
X159266153Y-100534989D01*
X159265847Y-100885473D01*
X159399689Y-101209395D01*
X159647302Y-101457440D01*
X159970989Y-101591847D01*
X160309723Y-101592143D01*
X162687000Y-103969420D01*
X162687000Y-106830876D01*
X162678698Y-106822560D01*
X162355011Y-106688153D01*
X162016277Y-106687857D01*
X161141210Y-105812790D01*
X160976403Y-105702669D01*
X160782000Y-105664000D01*
X159868723Y-105664000D01*
X159630698Y-105425560D01*
X159307011Y-105291153D01*
X158956527Y-105290847D01*
X158632605Y-105424689D01*
X158623000Y-105434277D01*
X158623000Y-101575723D01*
X158861440Y-101337698D01*
X158995847Y-101014011D01*
X158996153Y-100663527D01*
X158862311Y-100339605D01*
X158614698Y-100091560D01*
X158320162Y-99969258D01*
X158578875Y-99710545D01*
X158860510Y-99710791D01*
X159184432Y-99576949D01*
X159432477Y-99329336D01*
X159566884Y-99005649D01*
X159567190Y-98655165D01*
X159433348Y-98331243D01*
X159185735Y-98083198D01*
X158862048Y-97948791D01*
X158511564Y-97948485D01*
X158384966Y-98000794D01*
X158354311Y-97926605D01*
X158106698Y-97678560D01*
X157783011Y-97544153D01*
X157432527Y-97543847D01*
X157108605Y-97677689D01*
X156860560Y-97925302D01*
X156756377Y-98176203D01*
X156634580Y-98298000D01*
X153035000Y-98298000D01*
X152840597Y-98336669D01*
X152675790Y-98446790D01*
X151659790Y-99462790D01*
X151549669Y-99627597D01*
X151511000Y-99822000D01*
X151511000Y-101019894D01*
X151549669Y-101214297D01*
X151659790Y-101379104D01*
X152152377Y-101871691D01*
X152034560Y-101989302D01*
X151900153Y-102312989D01*
X151899847Y-102663473D01*
X152033689Y-102987395D01*
X152281302Y-103235440D01*
X152604989Y-103369847D01*
X152955473Y-103370153D01*
X153235536Y-103254433D01*
X153235536Y-103255000D01*
X153262103Y-103396190D01*
X153332883Y-103506186D01*
X153266141Y-103603866D01*
X153235536Y-103755000D01*
X153235536Y-104155000D01*
X153262103Y-104296190D01*
X153345546Y-104425865D01*
X153416000Y-104474004D01*
X153416000Y-106299000D01*
X153446209Y-106450872D01*
X153424153Y-106503989D01*
X153423847Y-106854473D01*
X153557689Y-107178395D01*
X153805302Y-107426440D01*
X154128989Y-107560847D01*
X154479473Y-107561153D01*
X154803395Y-107427311D01*
X155051440Y-107179698D01*
X155185847Y-106856011D01*
X155186153Y-106505527D01*
X155052311Y-106181605D01*
X154804698Y-105933560D01*
X154481011Y-105799153D01*
X154432000Y-105799110D01*
X154432000Y-105640124D01*
X154440302Y-105648440D01*
X154763989Y-105782847D01*
X155114473Y-105783153D01*
X155438395Y-105649311D01*
X155686440Y-105401698D01*
X155820847Y-105078011D01*
X155821153Y-104727527D01*
X155687311Y-104403605D01*
X155448000Y-104163876D01*
X155448000Y-101810880D01*
X155449186Y-101810117D01*
X155546866Y-101876859D01*
X155698000Y-101907464D01*
X156098000Y-101907464D01*
X156239190Y-101880897D01*
X156368865Y-101797454D01*
X156427228Y-101712036D01*
X156546403Y-101688331D01*
X156711210Y-101578210D01*
X157246449Y-101042971D01*
X157367689Y-101336395D01*
X157607000Y-101576124D01*
X157607000Y-103972245D01*
X157306683Y-103847542D01*
X156956199Y-103847236D01*
X156632277Y-103981078D01*
X156384232Y-104228691D01*
X156249825Y-104552378D01*
X156249519Y-104902862D01*
X156383361Y-105226784D01*
X156434272Y-105277784D01*
X156410536Y-105395000D01*
X156410536Y-105795000D01*
X156437103Y-105936190D01*
X156507883Y-106046186D01*
X156441141Y-106143866D01*
X156430087Y-106198455D01*
X156386011Y-106180153D01*
X156035527Y-106179847D01*
X155711605Y-106313689D01*
X155463560Y-106561302D01*
X155329153Y-106884989D01*
X155328847Y-107235473D01*
X155462689Y-107559395D01*
X155622536Y-107719521D01*
X155622536Y-108748000D01*
X155639659Y-108839000D01*
X145914890Y-108839000D01*
X145915153Y-108537527D01*
X145781311Y-108213605D01*
X145533698Y-107965560D01*
X145210011Y-107831153D01*
X144859527Y-107830847D01*
X144535605Y-107964689D01*
X144295876Y-108204000D01*
X144108958Y-108204000D01*
X144088454Y-108172135D01*
X143961134Y-108085141D01*
X143810000Y-108054536D01*
X143210000Y-108054536D01*
X143068810Y-108081103D01*
X142939135Y-108164546D01*
X142852141Y-108291866D01*
X142821536Y-108443000D01*
X142821536Y-108839000D01*
X141842439Y-108839000D01*
X143158010Y-107523429D01*
X143383817Y-107749629D01*
X143707504Y-107884036D01*
X144057988Y-107884342D01*
X144381910Y-107750500D01*
X144629955Y-107502887D01*
X144764362Y-107179200D01*
X144764668Y-106828716D01*
X144722836Y-106727473D01*
X146311847Y-106727473D01*
X146445689Y-107051395D01*
X146693302Y-107299440D01*
X147016989Y-107433847D01*
X147367473Y-107434153D01*
X147691395Y-107300311D01*
X147707471Y-107284263D01*
X147954430Y-107531652D01*
X148278117Y-107666059D01*
X148628601Y-107666365D01*
X148952523Y-107532523D01*
X149200568Y-107284910D01*
X149242778Y-107183258D01*
X149342679Y-107224741D01*
X149693163Y-107225047D01*
X150017085Y-107091205D01*
X150083555Y-107024851D01*
X150171180Y-107112629D01*
X150494867Y-107247036D01*
X150845351Y-107247342D01*
X151080547Y-107150161D01*
X151144689Y-107305395D01*
X151392302Y-107553440D01*
X151715989Y-107687847D01*
X152066473Y-107688153D01*
X152390395Y-107554311D01*
X152638440Y-107306698D01*
X152742624Y-107055796D01*
X152886210Y-106912210D01*
X152996331Y-106747404D01*
X153005404Y-106701790D01*
X153035000Y-106553000D01*
X153035000Y-105616906D01*
X153097865Y-105576454D01*
X153184859Y-105449134D01*
X153215464Y-105298000D01*
X153215464Y-104898000D01*
X153188897Y-104756810D01*
X153105454Y-104627135D01*
X152978134Y-104540141D01*
X152827000Y-104509536D01*
X152227000Y-104509536D01*
X152085810Y-104536103D01*
X151956135Y-104619546D01*
X151891470Y-104714187D01*
X151835454Y-104627135D01*
X151708134Y-104540141D01*
X151557000Y-104509536D01*
X150957000Y-104509536D01*
X150815810Y-104536103D01*
X150686135Y-104619546D01*
X150621470Y-104714187D01*
X150565454Y-104627135D01*
X150438134Y-104540141D01*
X150287000Y-104509536D01*
X149687000Y-104509536D01*
X149545810Y-104536103D01*
X149416135Y-104619546D01*
X149351470Y-104714187D01*
X149295454Y-104627135D01*
X149168134Y-104540141D01*
X149017000Y-104509536D01*
X148417000Y-104509536D01*
X148275810Y-104536103D01*
X148146135Y-104619546D01*
X148081470Y-104714187D01*
X148025454Y-104627135D01*
X147898134Y-104540141D01*
X147747000Y-104509536D01*
X147147000Y-104509536D01*
X147005810Y-104536103D01*
X146876135Y-104619546D01*
X146789141Y-104746866D01*
X146758536Y-104898000D01*
X146758536Y-105298000D01*
X146785103Y-105439190D01*
X146868546Y-105568865D01*
X146939000Y-105617004D01*
X146939000Y-105704707D01*
X146694605Y-105805689D01*
X146446560Y-106053302D01*
X146312153Y-106376989D01*
X146311847Y-106727473D01*
X144722836Y-106727473D01*
X144630826Y-106504794D01*
X144383213Y-106256749D01*
X144059526Y-106122342D01*
X143882933Y-106122188D01*
X143883153Y-105870527D01*
X143749311Y-105546605D01*
X143501698Y-105298560D01*
X143178011Y-105164153D01*
X142827527Y-105163847D01*
X142503605Y-105297689D01*
X142255560Y-105545302D01*
X142121153Y-105868989D01*
X142120857Y-106207723D01*
X139489580Y-108839000D01*
X120371723Y-108839000D01*
X120142000Y-108608876D01*
X120142000Y-105537000D01*
X122682000Y-105537000D01*
X122731410Y-105526994D01*
X122771803Y-105499803D01*
X123885607Y-104385999D01*
X124234956Y-104385999D01*
X124429359Y-104347330D01*
X124594166Y-104237209D01*
X125340707Y-103490669D01*
X125450828Y-103325862D01*
X125459112Y-103284216D01*
X125489497Y-103131458D01*
X125489497Y-102782109D01*
X126641543Y-101630063D01*
X128599096Y-101630063D01*
X128732938Y-101953985D01*
X128980551Y-102202030D01*
X129286000Y-102328864D01*
X129286000Y-103402277D01*
X129047560Y-103640302D01*
X128913153Y-103963989D01*
X128912847Y-104314473D01*
X129046689Y-104638395D01*
X129294302Y-104886440D01*
X129617989Y-105020847D01*
X129968473Y-105021153D01*
X130292395Y-104887311D01*
X130540440Y-104639698D01*
X130674847Y-104316011D01*
X130675070Y-104060473D01*
X136786847Y-104060473D01*
X136920689Y-104384395D01*
X137168302Y-104632440D01*
X137491989Y-104766847D01*
X137842473Y-104767153D01*
X138166395Y-104633311D01*
X138414440Y-104385698D01*
X138548847Y-104062011D01*
X138549143Y-103723277D01*
X138640420Y-103632000D01*
X144677277Y-103632000D01*
X144915302Y-103870440D01*
X145238989Y-104004847D01*
X145589473Y-104005153D01*
X145913395Y-103871311D01*
X146161440Y-103623698D01*
X146295847Y-103300011D01*
X146296153Y-102949527D01*
X146162311Y-102625605D01*
X145914698Y-102377560D01*
X145591011Y-102243153D01*
X145240527Y-102242847D01*
X144916605Y-102376689D01*
X144676876Y-102616000D01*
X138430000Y-102616000D01*
X138284046Y-102645032D01*
X138235596Y-102654669D01*
X138070789Y-102764790D01*
X137830439Y-103005141D01*
X137493527Y-103004847D01*
X137169605Y-103138689D01*
X136921560Y-103386302D01*
X136787153Y-103709989D01*
X136786847Y-104060473D01*
X130675070Y-104060473D01*
X130675153Y-103965527D01*
X130541311Y-103641605D01*
X130302000Y-103401876D01*
X130302000Y-101773920D01*
X130361096Y-101631601D01*
X130361336Y-101355677D01*
X135703161Y-101355677D01*
X135837003Y-101679599D01*
X136084616Y-101927644D01*
X136408303Y-102062051D01*
X136758787Y-102062357D01*
X137082709Y-101928515D01*
X137322438Y-101689204D01*
X146690784Y-101689204D01*
X147201141Y-102199561D01*
X147200847Y-102536473D01*
X147334689Y-102860395D01*
X147582302Y-103108440D01*
X147905989Y-103242847D01*
X148256473Y-103243153D01*
X148580395Y-103109311D01*
X148828440Y-102861698D01*
X148962847Y-102538011D01*
X148963153Y-102187527D01*
X148829311Y-101863605D01*
X148581698Y-101615560D01*
X148258011Y-101481153D01*
X147919277Y-101480857D01*
X147260414Y-100821994D01*
X147095607Y-100711873D01*
X146901204Y-100673204D01*
X137322037Y-100673204D01*
X137084012Y-100434764D01*
X136760325Y-100300357D01*
X136409841Y-100300051D01*
X136085919Y-100433893D01*
X135837874Y-100681506D01*
X135703467Y-101005193D01*
X135703161Y-101355677D01*
X130361336Y-101355677D01*
X130361402Y-101281117D01*
X130227560Y-100957195D01*
X129979947Y-100709150D01*
X129656260Y-100574743D01*
X129305776Y-100574437D01*
X128981854Y-100708279D01*
X128733809Y-100955892D01*
X128599402Y-101279579D01*
X128599096Y-101630063D01*
X126641543Y-101630063D01*
X130507499Y-97764107D01*
X138333753Y-97764107D01*
X138467595Y-98088029D01*
X138715208Y-98336074D01*
X139038895Y-98470481D01*
X139297725Y-98470707D01*
X139412305Y-98748011D01*
X139659918Y-98996056D01*
X139983605Y-99130463D01*
X140334089Y-99130769D01*
X140658011Y-98996927D01*
X140906056Y-98749314D01*
X141037089Y-98433752D01*
X141037089Y-98749062D01*
X140798649Y-98987087D01*
X140664242Y-99310774D01*
X140663936Y-99661258D01*
X140797778Y-99985180D01*
X141045391Y-100233225D01*
X141369078Y-100367632D01*
X141719562Y-100367938D01*
X142043484Y-100234096D01*
X142291529Y-99986483D01*
X142420220Y-99676561D01*
X142444993Y-99686847D01*
X142795477Y-99687153D01*
X143119399Y-99553311D01*
X143136917Y-99535824D01*
X143136847Y-99615473D01*
X143270689Y-99939395D01*
X143518302Y-100187440D01*
X143841989Y-100321847D01*
X144192473Y-100322153D01*
X144516395Y-100188311D01*
X144764440Y-99940698D01*
X144898847Y-99617011D01*
X144899152Y-99267372D01*
X144987330Y-99135405D01*
X144998019Y-99081665D01*
X145025999Y-98941001D01*
X145025999Y-97881421D01*
X147276421Y-95631000D01*
X159174580Y-95631000D01*
X164725790Y-101182210D01*
X164890596Y-101292331D01*
X164922850Y-101298746D01*
X165085000Y-101331000D01*
X168299277Y-101331000D01*
X168537302Y-101569440D01*
X168860989Y-101703847D01*
X169211473Y-101704153D01*
X169535395Y-101570311D01*
X169783440Y-101322698D01*
X169917847Y-100999011D01*
X169918153Y-100648527D01*
X169784311Y-100324605D01*
X169536698Y-100076560D01*
X169213011Y-99942153D01*
X169127342Y-99942078D01*
X171047210Y-98022211D01*
X171135279Y-97890406D01*
X171157331Y-97857403D01*
X171196000Y-97663000D01*
X171196000Y-92456000D01*
X171163746Y-92293850D01*
X171157331Y-92261596D01*
X171047210Y-92096789D01*
X167640000Y-88689580D01*
X167640000Y-87256743D01*
X167745335Y-87151592D01*
X167855774Y-86885624D01*
X167856025Y-86597639D01*
X167746050Y-86331479D01*
X167542592Y-86127665D01*
X167276624Y-86017226D01*
X166988639Y-86016975D01*
X166722479Y-86126950D01*
X166518665Y-86330408D01*
X166408226Y-86596376D01*
X166408034Y-86816498D01*
X166366329Y-86816462D01*
X166100169Y-86926437D01*
X166077584Y-86948982D01*
X165891592Y-86762665D01*
X165625624Y-86652226D01*
X165337639Y-86651975D01*
X165071479Y-86761950D01*
X164867665Y-86965408D01*
X164757226Y-87231376D01*
X164756975Y-87519361D01*
X164866950Y-87785521D01*
X165070408Y-87989335D01*
X165315899Y-88091271D01*
X165315899Y-88639557D01*
X165117624Y-88557226D01*
X164829639Y-88556975D01*
X164587406Y-88657064D01*
X164571050Y-88617479D01*
X164367592Y-88413665D01*
X164101624Y-88303226D01*
X163813639Y-88302975D01*
X163547479Y-88412950D01*
X163543596Y-88416826D01*
X163537886Y-88408279D01*
X163538025Y-88248639D01*
X163428050Y-87982479D01*
X163224592Y-87778665D01*
X162958624Y-87668226D01*
X162670639Y-87667975D01*
X162404479Y-87777950D01*
X162396786Y-87785630D01*
X162396974Y-87569487D01*
X162286999Y-87303327D01*
X162083541Y-87099513D01*
X161817573Y-86989074D01*
X161529588Y-86988823D01*
X161263428Y-87098798D01*
X161121028Y-87240949D01*
X160926624Y-87160226D01*
X160638639Y-87159975D01*
X160372479Y-87269950D01*
X160168665Y-87473408D01*
X160058226Y-87739376D01*
X160057975Y-88027361D01*
X160167950Y-88293521D01*
X160281657Y-88407427D01*
X160312669Y-88563336D01*
X160422790Y-88728143D01*
X162130656Y-90436009D01*
X162090226Y-90533376D01*
X162089975Y-90821361D01*
X162199950Y-91087521D01*
X162403408Y-91291335D01*
X162669376Y-91401774D01*
X162957361Y-91402025D01*
X163223521Y-91292050D01*
X163427335Y-91088592D01*
X163438192Y-91062444D01*
X164474189Y-92098441D01*
X164474059Y-92247277D01*
X164584034Y-92513437D01*
X164787492Y-92717251D01*
X164818985Y-92730328D01*
X164817479Y-92730950D01*
X164613744Y-92934330D01*
X163903204Y-92223790D01*
X163738397Y-92113669D01*
X163543994Y-92075000D01*
X144221540Y-92075000D01*
X144076169Y-92103916D01*
X144027136Y-92113669D01*
X143862330Y-92223790D01*
X139377345Y-96708775D01*
X139040433Y-96708481D01*
X138716511Y-96842323D01*
X138468466Y-97089936D01*
X138334059Y-97413623D01*
X138333753Y-97764107D01*
X130507499Y-97764107D01*
X133693803Y-94577803D01*
X133721666Y-94535789D01*
X133731000Y-94488000D01*
X133731000Y-86106000D01*
X151638000Y-86106000D01*
X151638000Y-87122000D01*
X151666003Y-87265367D01*
X151749592Y-87391408D01*
X152765592Y-88407408D01*
X152886770Y-88488983D01*
X153035000Y-88519000D01*
X154305000Y-88519000D01*
X154448367Y-88490997D01*
X154574408Y-88407408D01*
X155590408Y-87391408D01*
X155671983Y-87270230D01*
X155702000Y-87122000D01*
X155702000Y-86106000D01*
X155675944Y-85967523D01*
X155594104Y-85840340D01*
X155469230Y-85755017D01*
X155321000Y-85725000D01*
X154371365Y-85725000D01*
X154295000Y-85709536D01*
X153045000Y-85709536D01*
X152962817Y-85725000D01*
X152019000Y-85725000D01*
X151880523Y-85751056D01*
X151753340Y-85832896D01*
X151668017Y-85957770D01*
X151638000Y-86106000D01*
X133731000Y-86106000D01*
X133731000Y-85725000D01*
X149098000Y-85725000D01*
X149147410Y-85714994D01*
X149187803Y-85687803D01*
X151309606Y-83566000D01*
X156888580Y-83566000D01*
X156858789Y-83595791D01*
X156748668Y-83760598D01*
X156709999Y-83955001D01*
X156709999Y-86367992D01*
X156543527Y-86367847D01*
X156219605Y-86501689D01*
X155971560Y-86749302D01*
X155837153Y-87072989D01*
X155836847Y-87423473D01*
X155970689Y-87747395D01*
X156218302Y-87995440D01*
X156541989Y-88129847D01*
X156892473Y-88130153D01*
X157216395Y-87996311D01*
X157464440Y-87748698D01*
X157598847Y-87425011D01*
X157599152Y-87075372D01*
X157687330Y-86943405D01*
X157699074Y-86884361D01*
X157725999Y-86749001D01*
X157725999Y-84165421D01*
X158325420Y-83566000D01*
X159766000Y-83566000D01*
X159815410Y-83555994D01*
X159855803Y-83528803D01*
X166295606Y-77089000D01*
X169545000Y-77089000D01*
X169545000Y-85598000D01*
G36*
X172575376Y-77431774D02*
X172863361Y-77432025D01*
X172974000Y-77386310D01*
X172974000Y-82804000D01*
X170180000Y-82804000D01*
X170180000Y-77343000D01*
X172361583Y-77343000D01*
X172575376Y-77431774D01*
X172575376Y-77431774D01*
G37*
X172575376Y-77431774D02*
X172863361Y-77432025D01*
X172974000Y-77386310D01*
X172974000Y-82804000D01*
X170180000Y-82804000D01*
X170180000Y-77343000D01*
X172361583Y-77343000D01*
X172575376Y-77431774D01*
G36*
X147954430Y-107531652D02*
X148278117Y-107666059D01*
X148628601Y-107666365D01*
X148952523Y-107532523D01*
X149043204Y-107442000D01*
X151281056Y-107442000D01*
X151392302Y-107553440D01*
X151715989Y-107687847D01*
X152066473Y-107688153D01*
X152390395Y-107554311D01*
X152502902Y-107442000D01*
X153842775Y-107442000D01*
X154128989Y-107560847D01*
X154479473Y-107561153D01*
X154767845Y-107442000D01*
X155414182Y-107442000D01*
X155462689Y-107559395D01*
X155622536Y-107719521D01*
X155622536Y-108748000D01*
X155649103Y-108889190D01*
X155732546Y-109018865D01*
X155829000Y-109084769D01*
X155829000Y-109167394D01*
X154747186Y-110249208D01*
X154735011Y-110244153D01*
X154384527Y-110243847D01*
X154060605Y-110377689D01*
X153820876Y-110617000D01*
X144583199Y-110617000D01*
X144597401Y-110545599D01*
X144597401Y-109484641D01*
X144857989Y-109592847D01*
X145208473Y-109593153D01*
X145532395Y-109459311D01*
X145780440Y-109211698D01*
X145914847Y-108888011D01*
X145915153Y-108537527D01*
X145781311Y-108213605D01*
X145533698Y-107965560D01*
X145210011Y-107831153D01*
X144859527Y-107830847D01*
X144535605Y-107964689D01*
X144526000Y-107974277D01*
X144526000Y-107606661D01*
X144629955Y-107502887D01*
X144655238Y-107442000D01*
X147864934Y-107442000D01*
X147954430Y-107531652D01*
X147954430Y-107531652D01*
G37*
X147954430Y-107531652D02*
X148278117Y-107666059D01*
X148628601Y-107666365D01*
X148952523Y-107532523D01*
X149043204Y-107442000D01*
X151281056Y-107442000D01*
X151392302Y-107553440D01*
X151715989Y-107687847D01*
X152066473Y-107688153D01*
X152390395Y-107554311D01*
X152502902Y-107442000D01*
X153842775Y-107442000D01*
X154128989Y-107560847D01*
X154479473Y-107561153D01*
X154767845Y-107442000D01*
X155414182Y-107442000D01*
X155462689Y-107559395D01*
X155622536Y-107719521D01*
X155622536Y-108748000D01*
X155649103Y-108889190D01*
X155732546Y-109018865D01*
X155829000Y-109084769D01*
X155829000Y-109167394D01*
X154747186Y-110249208D01*
X154735011Y-110244153D01*
X154384527Y-110243847D01*
X154060605Y-110377689D01*
X153820876Y-110617000D01*
X144583199Y-110617000D01*
X144597401Y-110545599D01*
X144597401Y-109484641D01*
X144857989Y-109592847D01*
X145208473Y-109593153D01*
X145532395Y-109459311D01*
X145780440Y-109211698D01*
X145914847Y-108888011D01*
X145915153Y-108537527D01*
X145781311Y-108213605D01*
X145533698Y-107965560D01*
X145210011Y-107831153D01*
X144859527Y-107830847D01*
X144535605Y-107964689D01*
X144526000Y-107974277D01*
X144526000Y-107606661D01*
X144629955Y-107502887D01*
X144655238Y-107442000D01*
X147864934Y-107442000D01*
X147954430Y-107531652D01*
G36*
X155194000Y-87069394D02*
X154252394Y-88011000D01*
X153087606Y-88011000D01*
X152146000Y-87069394D01*
X152146000Y-86233000D01*
X155194000Y-86233000D01*
X155194000Y-87069394D01*
X155194000Y-87069394D01*
G37*
X155194000Y-87069394D02*
X154252394Y-88011000D01*
X153087606Y-88011000D01*
X152146000Y-87069394D01*
X152146000Y-86233000D01*
X155194000Y-86233000D01*
X155194000Y-87069394D01*
M02*
